<svg xmlns="http://www.w3.org/2000/svg" xmlns:xlink="http://www.w3.org/1999/xlink" xmlns:lucid="lucid" width="850.73" height="715.61"><g transform="translate(-401.21739942610645 -378.3116603780697)" lucid:page-tab-id="0_0"><path d="M445.6 493.6h267.52v60H445.6z" stroke="#000" stroke-width="2" fill="#fff"/><use xlink:href="#a" transform="matrix(1,0,0,1,450.6,498.6) translate(27.125 17.525)"/><use xlink:href="#b" transform="matrix(1,0,0,1,450.6,498.6) translate(91.075 17.525)"/><use xlink:href="#c" transform="matrix(1,0,0,1,450.6,498.6) translate(170.925 17.525)"/><use xlink:href="#d" transform="matrix(1,0,0,1,450.6,498.6) translate(15.699999999999989 39.125)"/><use xlink:href="#e" transform="matrix(1,0,0,1,450.6,498.6) translate(130.5 39.125)"/><path d="M445.6 553.6h267.56v40H445.6z" stroke="#000" stroke-width="2" fill="#fff"/><use xlink:href="#f" transform="matrix(1,0,0,1,450.6,558.6) translate(68.57499999999999 18.15)"/><use xlink:href="#g" transform="matrix(1,0,0,1,450.6,558.6) translate(133.52499999999998 18.15)"/><path d="M642.27 833.9h-132.8l64 240h132.8z" stroke="#000" stroke-width="2" fill="#ffeca9"/><use xlink:href="#h" transform="matrix(1,0,0,1,514.4708756316256,838.8906618725737) translate(47.60499999999999 93.4625)"/><use xlink:href="#i" transform="matrix(1,0,0,1,514.4708756316256,838.8906618725737) translate(47.05499999999999 115.0625)"/><use xlink:href="#j" transform="matrix(1,0,0,1,514.4708756316256,838.8906618725737) translate(107.95500000000001 115.0625)"/><use xlink:href="#k" transform="matrix(1,0,0,1,514.4708756316256,838.8906618725737) translate(52.555 136.6625)"/><path d="M784 859.2H649.6l25.6 96h134.4z" stroke="#000" stroke-width="2" fill="#f9d2de"/><use xlink:href="#l" transform="matrix(1,0,0,1,654.6,864.2) translate(15.604999999999992 25.15)"/><use xlink:href="#m" transform="matrix(1,0,0,1,654.6,864.2) translate(91.505 25.15)"/><use xlink:href="#i" transform="matrix(1,0,0,1,654.6,864.2) translate(29.554999999999993 46.75)"/><use xlink:href="#j" transform="matrix(1,0,0,1,654.6,864.2) translate(90.45500000000001 46.75)"/><use xlink:href="#n" transform="matrix(1,0,0,1,654.6,864.2) translate(19.105 68.35000000000001)"/><path d="M610.27 713.9h-132.8l32 120h132.8z" stroke="#000" stroke-width="2" fill="#ffeca9"/><use xlink:href="#o" transform="matrix(1,0,0,1,482.47087563162563,718.8906618725737) translate(39.029999999999994 24.7125)"/><use xlink:href="#p" transform="matrix(1,0,0,1,482.47087563162563,718.8906618725737) translate(34.60499999999999 46.3125)"/><use xlink:href="#q" transform="matrix(1,0,0,1,482.47087563162563,718.8906618725737) translate(24.604999999999993 67.91250000000001)"/><use xlink:href="#e" transform="matrix(1,0,0,1,482.47087563162563,718.8906618725737) translate(29.605 89.51250000000002)"/><path d="M578.5 593.9H445.7l32 120h132.8z" stroke="#000" stroke-width="2" fill="#ffeca9"/><use xlink:href="#h" transform="matrix(1,0,0,1,450.69436727436346,598.8906618725737) translate(33.10499999999999 38.4625)"/><use xlink:href="#r" transform="matrix(1,0,0,1,450.69436727436346,598.8906618725737) translate(49.55499999999999 60.0625)"/><use xlink:href="#s" transform="matrix(1,0,0,1,450.69436727436346,598.8906618725737) translate(48.55499999999999 81.66250000000001)"/><path d="M758.4 763.2H624l25.6 96H784z" stroke="#000" stroke-width="2" fill="#f9d2de"/><use xlink:href="#t" transform="matrix(1,0,0,1,629,768.2) translate(34.05499999999999 25.15)"/><use xlink:href="#u" transform="matrix(1,0,0,1,629,768.2) translate(25.10499999999999 46.75)"/><use xlink:href="#g" transform="matrix(1,0,0,1,629,768.2) translate(52.55499999999999 68.35000000000001)"/><path d="M732.8 667.2H598.4l25.6 96h134.4z" stroke="#000" stroke-width="2" fill="#f9d2de"/><use xlink:href="#o" transform="matrix(1,0,0,1,603.4,672.2) translate(38.029999999999994 17.0875)"/><use xlink:href="#v" transform="matrix(1,0,0,1,603.4,672.2) translate(37.05499999999999 38.6875)"/><use xlink:href="#q" transform="matrix(1,0,0,1,603.4,672.2) translate(23.60499999999999 60.2875)"/><use xlink:href="#e" transform="matrix(1,0,0,1,603.4,672.2) translate(28.605 81.88750000000002)"/><path d="M713.17 593.6H579.2l19.63 73.6H732.8z" stroke="#000" stroke-width="2" fill="#f9d2de"/><use xlink:href="#w" transform="matrix(1,0,0,1,584.1999999999999,598.6) translate(31.054999999999993 14.4)"/><use xlink:href="#x" transform="matrix(1,0,0,1,584.1999999999999,598.6) translate(41.55499999999999 36)"/><use xlink:href="#y" transform="matrix(1,0,0,1,584.1999999999999,598.6) translate(46.55499999999999 36)"/><use xlink:href="#z" transform="matrix(1,0,0,1,584.1999999999999,598.6) translate(43.05499999999999 57.6)"/><path d="M445.6 398.3h267.56v96.4H445.6z" stroke="#000" stroke-width="2" fill="#fff"/><use xlink:href="#A" transform="matrix(1,0,0,1,450.6,403.3116603780697) translate(52.099999999999994 14.4)"/><use xlink:href="#B" transform="matrix(1,0,0,1,450.6,403.3116603780697) translate(123.94999999999999 14.4)"/><use xlink:href="#C" transform="matrix(1,0,0,1,450.6,403.3116603780697) translate(143.95 14.4)"/><use xlink:href="#D" transform="matrix(1,0,0,1,450.6,403.3116603780697) translate(27.599999999999994 36)"/><use xlink:href="#E" transform="matrix(1,0,0,1,450.6,403.3116603780697) translate(138.45 36)"/><use xlink:href="#F" transform="matrix(1,0,0,1,450.6,403.3116603780697) translate(173.45000000000002 36)"/><use xlink:href="#G" transform="matrix(1,0,0,1,450.6,403.3116603780697) translate(99.025 57.6)"/><use xlink:href="#H" transform="matrix(1,0,0,1,450.6,403.3116603780697) translate(63.599999999999994 79.20000000000002)"/><use xlink:href="#s" transform="matrix(1,0,0,1,450.6,403.3116603780697) translate(124.5 79.20000000000002)"/><path d="M909.45 483.32h266.4v43.12h-266.4z" stroke="#000" stroke-width="2" fill="#fff"/><g><use xlink:href="#I" transform="matrix(1,0,0,1,914.4506062356339,488.3188041049111) translate(32.349999999999994 20.775)"/><use xlink:href="#J" transform="matrix(1,0,0,1,914.4506062356339,488.3188041049111) translate(147.15 20.775)"/></g><path d="M909.45 526.44h266.4v67.48h-266.4z" stroke="#000" stroke-width="2" fill="#fff"/><g><use xlink:href="#K" transform="matrix(1,0,0,1,914.450606235634,531.4376082098688) translate(35.099999999999994 21.65)"/><use xlink:href="#L" transform="matrix(1,0,0,1,914.450606235634,531.4376082098688) translate(102 21.65)"/><use xlink:href="#j" transform="matrix(1,0,0,1,914.450606235634,531.4376082098688) translate(191.9 21.65)"/><use xlink:href="#d" transform="matrix(1,0,0,1,914.450606235634,531.4376082098688) translate(50.125 43.25)"/><use xlink:href="#M" transform="matrix(1,0,0,1,914.450606235634,531.4376082098688) translate(164.925 43.25)"/></g><path d="M979.14 833.9h132.8l-64 240h-132.8z" stroke="#000" stroke-width="2" fill="#c7e8ac"/><g><use xlink:href="#h" transform="matrix(1,0,0,1,920.1445039447823,838.8906618725737) translate(63.605 86.275)"/><use xlink:href="#L" transform="matrix(1,0,0,1,920.1445039447823,838.8906618725737) translate(36.555 107.875)"/><use xlink:href="#j" transform="matrix(1,0,0,1,920.1445039447823,838.8906618725737) translate(126.455 107.875)"/><use xlink:href="#q" transform="matrix(1,0,0,1,920.1445039447823,838.8906618725737) translate(35.605000000000004 129.475)"/><use xlink:href="#N" transform="matrix(1,0,0,1,920.1445039447823,838.8906618725737) translate(56.05499999999999 151.075)"/></g><path d="M838.4 859.2h134.4l-25.6 96H812.8z" stroke="#000" stroke-width="2" fill="#ffdba9"/><g><use xlink:href="#l" transform="matrix(1,0,0,1,817.8,864.2) translate(24.10499999999999 35.9)"/><use xlink:href="#m" transform="matrix(1,0,0,1,817.8,864.2) translate(100.005 35.9)"/><use xlink:href="#N" transform="matrix(1,0,0,1,817.8,864.2) translate(43.55499999999999 57.5)"/></g><path d="M1043.1 593.92h132.75l-64 239.97H979.1z" stroke="#000" stroke-width="2" fill="#c7e8ac"/><g><use xlink:href="#O" transform="matrix(1,0,0,1,984.0955473509651,598.92) translate(48.605 86.275)"/><use xlink:href="#P" transform="matrix(1,0,0,1,984.0955473509651,598.92) translate(141.405 86.275)"/><use xlink:href="#p" transform="matrix(1,0,0,1,984.0955473509651,598.92) translate(57.605 107.875)"/><use xlink:href="#q" transform="matrix(1,0,0,1,984.0955473509651,598.92) translate(35.605000000000004 129.475)"/><use xlink:href="#e" transform="matrix(1,0,0,1,984.0955473509651,598.92) translate(28.605 151.075)"/></g><path d="M864 763.2h134.4l-25.6 96H838.4z" stroke="#000" stroke-width="2" fill="#ffdba9"/><g><use xlink:href="#t" transform="matrix(1,0,0,1,843.4,768.2) translate(47.05499999999999 17.0875)"/><use xlink:href="#L" transform="matrix(1,0,0,1,843.4,768.2) translate(17.554999999999986 38.6875)"/><use xlink:href="#j" transform="matrix(1,0,0,1,843.4,768.2) translate(107.455 38.6875)"/><use xlink:href="#q" transform="matrix(1,0,0,1,843.4,768.2) translate(16.60499999999999 60.2875)"/><use xlink:href="#N" transform="matrix(1,0,0,1,843.4,768.2) translate(37.055 81.88750000000002)"/></g><path d="M909.14 593.92h134.06L998.06 763.2H864z" stroke="#000" stroke-width="2" fill="#ffdba9"/><g><use xlink:href="#O" transform="matrix(1,0,0,1,869,598.92) translate(39.605000000000004 49.4)"/><use xlink:href="#P" transform="matrix(1,0,0,1,869,598.92) translate(132.405 49.4)"/><use xlink:href="#v" transform="matrix(1,0,0,1,869,598.92) translate(52.55499999999999 71)"/><use xlink:href="#q" transform="matrix(1,0,0,1,869,598.92) translate(27.104999999999993 92.60000000000001)"/><use xlink:href="#e" transform="matrix(1,0,0,1,869,598.92) translate(20.60499999999999 114.20000000000002)"/></g><path d="M909.45 439.43h266.4v43.9h-266.4z" stroke="#000" stroke-width="2" fill="#fff"/><g><use xlink:href="#I" transform="matrix(1,0,0,1,914.4506062356342,444.42699189224186) translate(22.125 20.775)"/><use xlink:href="#Q" transform="matrix(1,0,0,1,914.4506062356342,444.42699189224186) translate(136.925 20.775)"/></g><path d="M675.4 955.2h271.72l-31.66 118.72h-208.4z" stroke="#000" stroke-width="2" fill="#fff"/><g><use xlink:href="#R" transform="matrix(1,0,0,1,680.4000000000233,960.2) translate(56.62999999999999 58.68125)"/><use xlink:href="#S" transform="matrix(1,0,0,1,680.4000000000233,960.2) translate(112.58 58.68125)"/><use xlink:href="#T" transform="matrix(1,0,0,1,680.4000000000233,960.2) translate(167.48000000000002 58.68125)"/></g><path d="M909.45 399.42h266.4v40h-266.4z" stroke="#000" stroke-width="2" fill="#fff"/><g><use xlink:href="#U" transform="matrix(1,0,0,1,914.4506062356339,404.42332075616264) translate(37.125 18.275)"/><use xlink:href="#V" transform="matrix(1,0,0,1,914.4506062356339,404.42332075616264) translate(108.025 18.275)"/><use xlink:href="#W" transform="matrix(1,0,0,1,914.4506062356339,404.42332075616264) translate(133.97500000000002 18.275)"/></g><g><path d="M479.1 722.78l63.15 231.54-57.88 15.8-63.15-231.55z" stroke="#000" stroke-opacity="0" stroke-width="2" fill="#fff" fill-opacity="0"/></g><g><use xlink:href="#X" transform="matrix(0.26311740579170645,0.9647638212378419,-0.9647638212378419,0.26311740579170645,475.59499662314624,728.9181411634595) translate(32.161111111111126 29.10833333333333)"/><use xlink:href="#Y" transform="matrix(0.26311740579170645,0.9647638212378419,-0.9647638212378419,0.26311740579170645,475.59499662314624,728.9181411634595) translate(115.61666666666666 29.10833333333333)"/></g><g><path d="M1068.84 1020.98l95.9-391.32 67.2 16.46-95.88 391.33z" stroke="#000" stroke-opacity="0" stroke-width="2" fill="#fff" fill-opacity="0"/></g><g><use xlink:href="#Z" transform="matrix(0.23799793923393606,-0.9712656592922452,0.9712656592922452,0.23799793923393606,1074.890755657545,1017.3127079777255) translate(28.081481481481546 34.733333333333334)"/><use xlink:href="#aa" transform="matrix(0.23799793923393606,-0.9712656592922452,0.9712656592922452,0.23799793923393606,1074.890755657545,1017.3127079777255) translate(112.90740740740745 34.733333333333334)"/><use xlink:href="#ab" transform="matrix(0.23799793923393606,-0.9712656592922452,0.9712656592922452,0.23799793923393606,1074.890755657545,1017.3127079777255) translate(160.87037037037038 34.733333333333334)"/><use xlink:href="#Y" transform="matrix(0.23799793923393606,-0.9712656592922452,0.9712656592922452,0.23799793923393606,1074.890755657545,1017.3127079777255) translate(282.6962962962963 34.733333333333334)"/></g><path d="M691.26 616.62h240v74.54h-240z" stroke="#000" stroke-opacity="0" stroke-width="2" fill="#fff" fill-opacity="0"/><g><use xlink:href="#ac" transform="matrix(1,0,0,1,696.2610048003145,621.623995205907) translate(45.611728395061746 21.511111111111106)"/><use xlink:href="#ad" transform="matrix(1,0,0,1,696.2610048003145,621.623995205907) translate(82.92006172839507 53.777777777777764)"/></g><path d="M445.6 399.42h729.58v195.85H445.6z" stroke="#c1e4f7" stroke-opacity=".34" stroke-width="2" fill="#c1e4f7" fill-opacity=".34"/><g><use xlink:href="#ae" transform="matrix(1,0,0,1,450.6,404.42332075616264) translate(315.22253086419755 79.6361111111111)"/><use xlink:href="#ad" transform="matrix(1,0,0,1,450.6,404.42332075616264) translate(327.92006172839507 111.90277777777776)"/></g><defs><path d="M185-189c-5-48-123-54-124 2 14 75 158 14 163 119 3 78-121 87-175 55-17-10-28-26-33-46l33-7c5 56 141 63 141-1 0-78-155-14-162-118-5-82 145-84 179-34 5 7 8 16 11 25" id="af"/><path d="M115-194c55 1 70 41 70 98S169 2 115 4C84 4 66-9 55-30l1 105H24l-1-265h31l2 30c10-21 28-34 59-34zm-8 174c40 0 45-34 45-75s-6-73-45-74c-42 0-51 32-51 76 0 43 10 73 51 73" id="ag"/><path d="M100-194c63 0 86 42 84 106H49c0 40 14 67 53 68 26 1 43-12 49-29l28 8c-11 28-37 45-77 45C44 4 14-33 15-96c1-61 26-98 85-98zm52 81c6-60-76-77-97-28-3 7-6 17-6 28h103" id="ah"/><path d="M96-169c-40 0-48 33-48 73s9 75 48 75c24 0 41-14 43-38l32 2c-6 37-31 61-74 61-59 0-76-41-82-99-10-93 101-131 147-64 4 7 5 14 7 22l-32 3c-4-21-16-35-41-35" id="ai"/><path d="M24-231v-30h32v30H24zM24 0v-190h32V0H24" id="aj"/><path d="M101-234c-31-9-42 10-38 44h38v23H63V0H32v-167H5v-23h27c-7-52 17-82 69-68v24" id="ak"/><path d="M179-190L93 31C79 59 56 82 12 73V49c39 6 53-20 64-50L1-190h34L92-34l54-156h33" id="al"/><g id="a"><use transform="matrix(0.05,0,0,0.05,0,0)" xlink:href="#af"/><use transform="matrix(0.05,0,0,0.05,12,0)" xlink:href="#ag"/><use transform="matrix(0.05,0,0,0.05,22,0)" xlink:href="#ah"/><use transform="matrix(0.05,0,0,0.05,32,0)" xlink:href="#ai"/><use transform="matrix(0.05,0,0,0.05,41,0)" xlink:href="#aj"/><use transform="matrix(0.05,0,0,0.05,44.95,0)" xlink:href="#ak"/><use transform="matrix(0.05,0,0,0.05,49.95,0)" xlink:href="#al"/></g><path d="M127-220V0H93v-220H8v-28h204v28h-85" id="am"/><path d="M106-169C34-169 62-67 57 0H25v-261h32l-1 103c12-21 28-36 61-36 89 0 53 116 60 194h-32v-121c2-32-8-49-39-48" id="an"/><path d="M117-194c89-4 53 116 60 194h-32v-121c0-31-8-49-39-48C34-167 62-67 57 0H25l-1-190h30c1 10-1 24 2 32 11-22 29-35 61-36" id="ao"/><path d="M141-36C126-15 110 5 73 4 37 3 15-17 15-53c-1-64 63-63 125-63 3-35-9-54-41-54-24 1-41 7-42 31l-33-3c5-37 33-52 76-52 45 0 72 20 72 64v82c-1 20 7 32 28 27v20c-31 9-61-2-59-35zM48-53c0 20 12 33 32 33 41-3 63-29 60-74-43 2-92-5-92 41" id="ap"/><path d="M24 0v-261h32V0H24" id="aq"/><g id="b"><use transform="matrix(0.05,0,0,0.05,0,0)" xlink:href="#am"/><use transform="matrix(0.05,0,0,0.05,8.950000000000001,0)" xlink:href="#ah"/><use transform="matrix(0.05,0,0,0.05,18.950000000000003,0)" xlink:href="#ai"/><use transform="matrix(0.05,0,0,0.05,27.950000000000003,0)" xlink:href="#an"/><use transform="matrix(0.05,0,0,0.05,37.95,0)" xlink:href="#ao"/><use transform="matrix(0.05,0,0,0.05,47.95,0)" xlink:href="#aj"/><use transform="matrix(0.05,0,0,0.05,51.900000000000006,0)" xlink:href="#ai"/><use transform="matrix(0.05,0,0,0.05,60.900000000000006,0)" xlink:href="#ap"/><use transform="matrix(0.05,0,0,0.05,70.9,0)" xlink:href="#aq"/></g><path d="M135-143c-3-34-86-38-87 0 15 53 115 12 119 90S17 21 10-45l28-5c4 36 97 45 98 0-10-56-113-15-118-90-4-57 82-63 122-42 12 7 21 19 24 35" id="ar"/><path d="M59-47c-2 24 18 29 38 22v24C64 9 27 4 27-40v-127H5v-23h24l9-43h21v43h35v23H59v120" id="as"/><path d="M210-169c-67 3-38 105-44 169h-31v-121c0-29-5-50-35-48C34-165 62-65 56 0H25l-1-190h30c1 10-1 24 2 32 10-44 99-50 107 0 11-21 27-35 58-36 85-2 47 119 55 194h-31v-121c0-29-5-49-35-48" id="at"/><g id="c"><use transform="matrix(0.05,0,0,0.05,0,0)" xlink:href="#af"/><use transform="matrix(0.05,0,0,0.05,12,0)" xlink:href="#al"/><use transform="matrix(0.05,0,0,0.05,21,0)" xlink:href="#ar"/><use transform="matrix(0.05,0,0,0.05,30,0)" xlink:href="#as"/><use transform="matrix(0.05,0,0,0.05,35,0)" xlink:href="#ah"/><use transform="matrix(0.05,0,0,0.05,45,0)" xlink:href="#at"/></g><path d="M212-179c-10-28-35-45-73-45-59 0-87 40-87 99 0 60 29 101 89 101 43 0 62-24 78-52l27 14C228-24 195 4 139 4 59 4 22-46 18-125c-6-104 99-153 187-111 19 9 31 26 39 46" id="au"/><path d="M115-194c53 0 69 39 70 98 0 66-23 100-70 100C84 3 66-7 56-30L54 0H23l1-261h32v101c10-23 28-34 59-34zm-8 174c40 0 45-34 45-75 0-40-5-75-45-74-42 0-51 32-51 76 0 43 10 73 51 73" id="av"/><path d="M114-163C36-179 61-72 57 0H25l-1-190h30c1 12-1 29 2 39 6-27 23-49 58-41v29" id="aw"/><path d="M84 4C-5 8 30-112 23-190h32v120c0 31 7 50 39 49 72-2 45-101 50-169h31l1 190h-30c-1-10 1-25-2-33-11 22-28 36-60 37" id="ax"/><g id="d"><use transform="matrix(0.05,0,0,0.05,0,0)" xlink:href="#au"/><use transform="matrix(0.05,0,0,0.05,12.950000000000001,0)" xlink:href="#al"/><use transform="matrix(0.05,0,0,0.05,21.950000000000003,0)" xlink:href="#av"/><use transform="matrix(0.05,0,0,0.05,31.950000000000003,0)" xlink:href="#ah"/><use transform="matrix(0.05,0,0,0.05,41.95,0)" xlink:href="#aw"/><use transform="matrix(0.05,0,0,0.05,47.900000000000006,0)" xlink:href="#ar"/><use transform="matrix(0.05,0,0,0.05,56.900000000000006,0)" xlink:href="#ah"/><use transform="matrix(0.05,0,0,0.05,66.9,0)" xlink:href="#ai"/><use transform="matrix(0.05,0,0,0.05,75.9,0)" xlink:href="#ax"/><use transform="matrix(0.05,0,0,0.05,85.9,0)" xlink:href="#aw"/><use transform="matrix(0.05,0,0,0.05,91.85000000000001,0)" xlink:href="#aj"/><use transform="matrix(0.05,0,0,0.05,95.80000000000001,0)" xlink:href="#as"/><use transform="matrix(0.05,0,0,0.05,100.80000000000001,0)" xlink:href="#al"/></g><path d="M233-177c-1 41-23 64-60 70L243 0h-38l-65-103H63V0H30v-248c88 3 205-21 203 71zM63-129c60-2 137 13 137-47 0-61-80-42-137-45v92" id="ay"/><path d="M145-31C134-9 116 4 85 4 32 4 16-35 15-94c0-59 17-99 70-100 32-1 48 14 60 33 0-11-1-24 2-32h30l-1 268h-32zM93-21c41 0 51-33 51-76s-8-73-50-73c-40 0-46 35-46 75s5 74 45 74" id="az"/><g id="e"><use transform="matrix(0.05,0,0,0.05,0,0)" xlink:href="#ay"/><use transform="matrix(0.05,0,0,0.05,12.950000000000001,0)" xlink:href="#ah"/><use transform="matrix(0.05,0,0,0.05,22.950000000000003,0)" xlink:href="#az"/><use transform="matrix(0.05,0,0,0.05,32.95,0)" xlink:href="#ax"/><use transform="matrix(0.05,0,0,0.05,42.95,0)" xlink:href="#aj"/><use transform="matrix(0.05,0,0,0.05,46.900000000000006,0)" xlink:href="#aw"/><use transform="matrix(0.05,0,0,0.05,52.85,0)" xlink:href="#ah"/><use transform="matrix(0.05,0,0,0.05,62.85,0)" xlink:href="#at"/><use transform="matrix(0.05,0,0,0.05,77.80000000000001,0)" xlink:href="#ah"/><use transform="matrix(0.05,0,0,0.05,87.80000000000001,0)" xlink:href="#ao"/><use transform="matrix(0.05,0,0,0.05,97.80000000000001,0)" xlink:href="#as"/><use transform="matrix(0.05,0,0,0.05,102.80000000000001,0)" xlink:href="#ar"/></g><g id="f"><use transform="matrix(0.05,0,0,0.05,0,0)" xlink:href="#af"/><use transform="matrix(0.05,0,0,0.05,12,0)" xlink:href="#al"/><use transform="matrix(0.05,0,0,0.05,21,0)" xlink:href="#ar"/><use transform="matrix(0.05,0,0,0.05,30,0)" xlink:href="#as"/><use transform="matrix(0.05,0,0,0.05,35,0)" xlink:href="#ah"/><use transform="matrix(0.05,0,0,0.05,45,0)" xlink:href="#at"/></g><path d="M30-248c118-7 216 8 213 122C240-48 200 0 122 0H30v-248zM63-27c89 8 146-16 146-99s-60-101-146-95v194" id="aA"/><path d="M177-190C167-65 218 103 67 71c-23-6-38-20-44-43l32-5c15 47 100 32 89-28v-30C133-14 115 1 83 1 29 1 15-40 15-95c0-56 16-97 71-98 29-1 48 16 59 35 1-10 0-23 2-32h30zM94-22c36 0 50-32 50-73 0-42-14-75-50-75-39 0-46 34-46 75s6 73 46 73" id="aB"/><g id="g"><use transform="matrix(0.05,0,0,0.05,0,0)" xlink:href="#aA"/><use transform="matrix(0.05,0,0,0.05,12.950000000000001,0)" xlink:href="#ah"/><use transform="matrix(0.05,0,0,0.05,22.950000000000003,0)" xlink:href="#ar"/><use transform="matrix(0.05,0,0,0.05,31.950000000000003,0)" xlink:href="#aj"/><use transform="matrix(0.05,0,0,0.05,35.900000000000006,0)" xlink:href="#aB"/><use transform="matrix(0.05,0,0,0.05,45.900000000000006,0)" xlink:href="#ao"/></g><path d="M197 0v-115H63V0H30v-248h33v105h134v-105h34V0h-34" id="aC"/><path d="M85-194c31 0 48 13 60 33l-1-100h32l1 261h-30c-2-10 0-23-3-31C134-8 116 4 85 4 32 4 16-35 15-94c0-66 23-100 70-100zm9 24c-40 0-46 34-46 75 0 40 6 74 45 74 42 0 51-32 51-76 0-42-9-74-50-73" id="aD"/><path d="M206 0h-36l-40-164L89 0H53L-1-190h32L70-26l43-164h34l41 164 42-164h31" id="aE"/><g id="h"><use transform="matrix(0.05,0,0,0.05,0,0)" xlink:href="#aC"/><use transform="matrix(0.05,0,0,0.05,12.950000000000001,0)" xlink:href="#ap"/><use transform="matrix(0.05,0,0,0.05,22.950000000000003,0)" xlink:href="#aw"/><use transform="matrix(0.05,0,0,0.05,28.900000000000002,0)" xlink:href="#aD"/><use transform="matrix(0.05,0,0,0.05,38.900000000000006,0)" xlink:href="#aE"/><use transform="matrix(0.05,0,0,0.05,51.85,0)" xlink:href="#ap"/><use transform="matrix(0.05,0,0,0.05,61.85,0)" xlink:href="#aw"/><use transform="matrix(0.05,0,0,0.05,67.80000000000001,0)" xlink:href="#ah"/></g><g id="i"><use transform="matrix(0.05,0,0,0.05,0,0)" xlink:href="#aA"/><use transform="matrix(0.05,0,0,0.05,12.950000000000001,0)" xlink:href="#ah"/><use transform="matrix(0.05,0,0,0.05,22.950000000000003,0)" xlink:href="#ar"/><use transform="matrix(0.05,0,0,0.05,31.950000000000003,0)" xlink:href="#aj"/><use transform="matrix(0.05,0,0,0.05,35.900000000000006,0)" xlink:href="#aB"/><use transform="matrix(0.05,0,0,0.05,45.900000000000006,0)" xlink:href="#ao"/></g><g id="j"><use transform="matrix(0.05,0,0,0.05,0,0)" xlink:href="#ap"/><use transform="matrix(0.05,0,0,0.05,10,0)" xlink:href="#ao"/><use transform="matrix(0.05,0,0,0.05,20,0)" xlink:href="#aD"/></g><path d="M30-248c87 1 191-15 191 75 0 78-77 80-158 76V0H30v-248zm33 125c57 0 124 11 124-50 0-59-68-47-124-48v98" id="aF"/><path d="M100-194c62-1 85 37 85 99 1 63-27 99-86 99S16-35 15-95c0-66 28-99 85-99zM99-20c44 1 53-31 53-75 0-43-8-75-51-75s-53 32-53 75 10 74 51 75" id="aG"/><g id="k"><use transform="matrix(0.05,0,0,0.05,0,0)" xlink:href="#aF"/><use transform="matrix(0.05,0,0,0.05,12,0)" xlink:href="#aw"/><use transform="matrix(0.05,0,0,0.05,17.95,0)" xlink:href="#aG"/><use transform="matrix(0.05,0,0,0.05,27.950000000000003,0)" xlink:href="#as"/><use transform="matrix(0.05,0,0,0.05,32.95,0)" xlink:href="#aG"/><use transform="matrix(0.05,0,0,0.05,42.95,0)" xlink:href="#as"/><use transform="matrix(0.05,0,0,0.05,47.95,0)" xlink:href="#al"/><use transform="matrix(0.05,0,0,0.05,56.95,0)" xlink:href="#ag"/><use transform="matrix(0.05,0,0,0.05,66.95,0)" xlink:href="#aj"/><use transform="matrix(0.05,0,0,0.05,70.9,0)" xlink:href="#ao"/><use transform="matrix(0.05,0,0,0.05,80.9,0)" xlink:href="#aB"/></g><g id="l"><use transform="matrix(0.05,0,0,0.05,0,0)" xlink:href="#af"/><use transform="matrix(0.05,0,0,0.05,12,0)" xlink:href="#aG"/><use transform="matrix(0.05,0,0,0.05,22,0)" xlink:href="#ak"/><use transform="matrix(0.05,0,0,0.05,27,0)" xlink:href="#as"/><use transform="matrix(0.05,0,0,0.05,32,0)" xlink:href="#aE"/><use transform="matrix(0.05,0,0,0.05,44.95,0)" xlink:href="#ap"/><use transform="matrix(0.05,0,0,0.05,54.95,0)" xlink:href="#aw"/><use transform="matrix(0.05,0,0,0.05,60.900000000000006,0)" xlink:href="#ah"/></g><path d="M232-93c-1 65-40 97-104 97C67 4 28-28 28-90v-158h33c8 89-33 224 67 224 102 0 64-133 71-224h33v155" id="aH"/><g id="m"><use transform="matrix(0.05,0,0,0.05,0,0)" xlink:href="#aH"/><use transform="matrix(0.05,0,0,0.05,12.950000000000001,0)" xlink:href="#ao"/><use transform="matrix(0.05,0,0,0.05,22.950000000000003,0)" xlink:href="#aj"/><use transform="matrix(0.05,0,0,0.05,26.900000000000002,0)" xlink:href="#as"/></g><path d="M33 0v-248h34V0H33" id="aI"/><g id="n"><use transform="matrix(0.05,0,0,0.05,0,0)" xlink:href="#aI"/><use transform="matrix(0.05,0,0,0.05,5,0)" xlink:href="#at"/><use transform="matrix(0.05,0,0,0.05,19.950000000000003,0)" xlink:href="#ag"/><use transform="matrix(0.05,0,0,0.05,29.950000000000003,0)" xlink:href="#aq"/><use transform="matrix(0.05,0,0,0.05,33.900000000000006,0)" xlink:href="#ah"/><use transform="matrix(0.05,0,0,0.05,43.900000000000006,0)" xlink:href="#at"/><use transform="matrix(0.05,0,0,0.05,58.85,0)" xlink:href="#ah"/><use transform="matrix(0.05,0,0,0.05,68.85000000000001,0)" xlink:href="#ao"/><use transform="matrix(0.05,0,0,0.05,78.85000000000001,0)" xlink:href="#as"/><use transform="matrix(0.05,0,0,0.05,83.85000000000001,0)" xlink:href="#ap"/><use transform="matrix(0.05,0,0,0.05,93.85000000000001,0)" xlink:href="#as"/><use transform="matrix(0.05,0,0,0.05,98.85000000000001,0)" xlink:href="#aj"/><use transform="matrix(0.05,0,0,0.05,102.80000000000001,0)" xlink:href="#aG"/><use transform="matrix(0.05,0,0,0.05,112.80000000000001,0)" xlink:href="#ao"/></g><g id="o"><use transform="matrix(0.05,0,0,0.05,0,0)" xlink:href="#af"/><use transform="matrix(0.05,0,0,0.05,12,0)" xlink:href="#ag"/><use transform="matrix(0.05,0,0,0.05,22,0)" xlink:href="#ah"/><use transform="matrix(0.05,0,0,0.05,32,0)" xlink:href="#ai"/><use transform="matrix(0.05,0,0,0.05,41,0)" xlink:href="#aj"/><use transform="matrix(0.05,0,0,0.05,44.95,0)" xlink:href="#ak"/><use transform="matrix(0.05,0,0,0.05,49.95,0)" xlink:href="#al"/></g><g id="p"><use transform="matrix(0.05,0,0,0.05,0,0)" xlink:href="#aC"/><use transform="matrix(0.05,0,0,0.05,12.950000000000001,0)" xlink:href="#ap"/><use transform="matrix(0.05,0,0,0.05,22.950000000000003,0)" xlink:href="#aw"/><use transform="matrix(0.05,0,0,0.05,28.900000000000002,0)" xlink:href="#aD"/><use transform="matrix(0.05,0,0,0.05,38.900000000000006,0)" xlink:href="#aE"/><use transform="matrix(0.05,0,0,0.05,51.85,0)" xlink:href="#ap"/><use transform="matrix(0.05,0,0,0.05,61.85,0)" xlink:href="#aw"/><use transform="matrix(0.05,0,0,0.05,67.80000000000001,0)" xlink:href="#ah"/></g><g id="q"><use transform="matrix(0.05,0,0,0.05,0,0)" xlink:href="#au"/><use transform="matrix(0.05,0,0,0.05,12.950000000000001,0)" xlink:href="#al"/><use transform="matrix(0.05,0,0,0.05,21.950000000000003,0)" xlink:href="#av"/><use transform="matrix(0.05,0,0,0.05,31.950000000000003,0)" xlink:href="#ah"/><use transform="matrix(0.05,0,0,0.05,41.95,0)" xlink:href="#aw"/><use transform="matrix(0.05,0,0,0.05,47.900000000000006,0)" xlink:href="#ar"/><use transform="matrix(0.05,0,0,0.05,56.900000000000006,0)" xlink:href="#ah"/><use transform="matrix(0.05,0,0,0.05,66.9,0)" xlink:href="#ai"/><use transform="matrix(0.05,0,0,0.05,75.9,0)" xlink:href="#ax"/><use transform="matrix(0.05,0,0,0.05,85.9,0)" xlink:href="#aw"/><use transform="matrix(0.05,0,0,0.05,91.85000000000001,0)" xlink:href="#aj"/><use transform="matrix(0.05,0,0,0.05,95.80000000000001,0)" xlink:href="#as"/><use transform="matrix(0.05,0,0,0.05,100.80000000000001,0)" xlink:href="#al"/></g><g id="r"><use transform="matrix(0.05,0,0,0.05,0,0)" xlink:href="#aA"/><use transform="matrix(0.05,0,0,0.05,12.950000000000001,0)" xlink:href="#ah"/><use transform="matrix(0.05,0,0,0.05,22.950000000000003,0)" xlink:href="#ar"/><use transform="matrix(0.05,0,0,0.05,31.950000000000003,0)" xlink:href="#aj"/><use transform="matrix(0.05,0,0,0.05,35.900000000000006,0)" xlink:href="#aB"/><use transform="matrix(0.05,0,0,0.05,45.900000000000006,0)" xlink:href="#ao"/></g><g id="s"><use transform="matrix(0.05,0,0,0.05,0,0)" xlink:href="#aF"/><use transform="matrix(0.05,0,0,0.05,12,0)" xlink:href="#aq"/><use transform="matrix(0.05,0,0,0.05,15.949999999999998,0)" xlink:href="#ap"/><use transform="matrix(0.05,0,0,0.05,25.950000000000003,0)" xlink:href="#ao"/><use transform="matrix(0.05,0,0,0.05,35.95,0)" xlink:href="#ao"/><use transform="matrix(0.05,0,0,0.05,45.95,0)" xlink:href="#aj"/><use transform="matrix(0.05,0,0,0.05,49.900000000000006,0)" xlink:href="#ao"/><use transform="matrix(0.05,0,0,0.05,59.900000000000006,0)" xlink:href="#aB"/></g><g id="t"><use transform="matrix(0.05,0,0,0.05,0,0)" xlink:href="#af"/><use transform="matrix(0.05,0,0,0.05,12,0)" xlink:href="#aG"/><use transform="matrix(0.05,0,0,0.05,22,0)" xlink:href="#ak"/><use transform="matrix(0.05,0,0,0.05,27,0)" xlink:href="#as"/><use transform="matrix(0.05,0,0,0.05,32,0)" xlink:href="#aE"/><use transform="matrix(0.05,0,0,0.05,44.95,0)" xlink:href="#ap"/><use transform="matrix(0.05,0,0,0.05,54.95,0)" xlink:href="#aw"/><use transform="matrix(0.05,0,0,0.05,60.900000000000006,0)" xlink:href="#ah"/></g><path d="M205 0l-28-72H64L36 0H1l101-248h38L239 0h-34zm-38-99l-47-123c-12 45-31 82-46 123h93" id="aJ"/><g id="u"><use transform="matrix(0.05,0,0,0.05,0,0)" xlink:href="#aJ"/><use transform="matrix(0.05,0,0,0.05,12,0)" xlink:href="#aw"/><use transform="matrix(0.05,0,0,0.05,17.95,0)" xlink:href="#ai"/><use transform="matrix(0.05,0,0,0.05,26.950000000000003,0)" xlink:href="#an"/><use transform="matrix(0.05,0,0,0.05,36.95,0)" xlink:href="#aj"/><use transform="matrix(0.05,0,0,0.05,40.900000000000006,0)" xlink:href="#as"/><use transform="matrix(0.05,0,0,0.05,45.900000000000006,0)" xlink:href="#ah"/><use transform="matrix(0.05,0,0,0.05,55.900000000000006,0)" xlink:href="#ai"/><use transform="matrix(0.05,0,0,0.05,64.9,0)" xlink:href="#as"/><use transform="matrix(0.05,0,0,0.05,69.9,0)" xlink:href="#ax"/><use transform="matrix(0.05,0,0,0.05,79.9,0)" xlink:href="#aw"/><use transform="matrix(0.05,0,0,0.05,85.85000000000001,0)" xlink:href="#ap"/><use transform="matrix(0.05,0,0,0.05,95.85000000000001,0)" xlink:href="#aq"/></g><g id="v"><use transform="matrix(0.05,0,0,0.05,0,0)" xlink:href="#af"/><use transform="matrix(0.05,0,0,0.05,12,0)" xlink:href="#aG"/><use transform="matrix(0.05,0,0,0.05,22,0)" xlink:href="#ak"/><use transform="matrix(0.05,0,0,0.05,27,0)" xlink:href="#as"/><use transform="matrix(0.05,0,0,0.05,32,0)" xlink:href="#aE"/><use transform="matrix(0.05,0,0,0.05,44.95,0)" xlink:href="#ap"/><use transform="matrix(0.05,0,0,0.05,54.95,0)" xlink:href="#aw"/><use transform="matrix(0.05,0,0,0.05,60.900000000000006,0)" xlink:href="#ah"/></g><g id="w"><use transform="matrix(0.05,0,0,0.05,0,0)" xlink:href="#af"/><use transform="matrix(0.05,0,0,0.05,12,0)" xlink:href="#aG"/><use transform="matrix(0.05,0,0,0.05,22,0)" xlink:href="#ak"/><use transform="matrix(0.05,0,0,0.05,27,0)" xlink:href="#as"/><use transform="matrix(0.05,0,0,0.05,32,0)" xlink:href="#aE"/><use transform="matrix(0.05,0,0,0.05,44.95,0)" xlink:href="#ap"/><use transform="matrix(0.05,0,0,0.05,54.95,0)" xlink:href="#aw"/><use transform="matrix(0.05,0,0,0.05,60.900000000000006,0)" xlink:href="#ah"/></g><g id="y"><use transform="matrix(0.05,0,0,0.05,0,0)" xlink:href="#aA"/><use transform="matrix(0.05,0,0,0.05,12.950000000000001,0)" xlink:href="#ah"/><use transform="matrix(0.05,0,0,0.05,22.950000000000003,0)" xlink:href="#ar"/><use transform="matrix(0.05,0,0,0.05,31.950000000000003,0)" xlink:href="#aj"/><use transform="matrix(0.05,0,0,0.05,35.900000000000006,0)" xlink:href="#aB"/><use transform="matrix(0.05,0,0,0.05,45.900000000000006,0)" xlink:href="#ao"/></g><g id="z"><use transform="matrix(0.05,0,0,0.05,0,0)" xlink:href="#aF"/><use transform="matrix(0.05,0,0,0.05,12,0)" xlink:href="#aq"/><use transform="matrix(0.05,0,0,0.05,15.949999999999998,0)" xlink:href="#ap"/><use transform="matrix(0.05,0,0,0.05,25.950000000000003,0)" xlink:href="#ao"/><use transform="matrix(0.05,0,0,0.05,35.95,0)" xlink:href="#ao"/><use transform="matrix(0.05,0,0,0.05,45.95,0)" xlink:href="#aj"/><use transform="matrix(0.05,0,0,0.05,49.900000000000006,0)" xlink:href="#ao"/><use transform="matrix(0.05,0,0,0.05,59.900000000000006,0)" xlink:href="#aB"/></g><g id="A"><use transform="matrix(0.05,0,0,0.05,0,0)" xlink:href="#aI"/><use transform="matrix(0.05,0,0,0.05,5,0)" xlink:href="#ao"/><use transform="matrix(0.05,0,0,0.05,15,0)" xlink:href="#aj"/><use transform="matrix(0.05,0,0,0.05,18.95,0)" xlink:href="#as"/><use transform="matrix(0.05,0,0,0.05,23.95,0)" xlink:href="#aj"/><use transform="matrix(0.05,0,0,0.05,27.899999999999995,0)" xlink:href="#ap"/><use transform="matrix(0.05,0,0,0.05,37.9,0)" xlink:href="#as"/><use transform="matrix(0.05,0,0,0.05,42.9,0)" xlink:href="#aj"/><use transform="matrix(0.05,0,0,0.05,46.85,0)" xlink:href="#aG"/><use transform="matrix(0.05,0,0,0.05,56.85,0)" xlink:href="#ao"/></g><g id="B"><use transform="matrix(0.05,0,0,0.05,0,0)" xlink:href="#aG"/><use transform="matrix(0.05,0,0,0.05,10,0)" xlink:href="#ak"/></g><g id="C"><use transform="matrix(0.05,0,0,0.05,0,0)" xlink:href="#aF"/><use transform="matrix(0.05,0,0,0.05,12,0)" xlink:href="#aw"/><use transform="matrix(0.05,0,0,0.05,17.95,0)" xlink:href="#aG"/><use transform="matrix(0.05,0,0,0.05,27.950000000000003,0)" xlink:href="#aD"/><use transform="matrix(0.05,0,0,0.05,37.95,0)" xlink:href="#ax"/><use transform="matrix(0.05,0,0,0.05,47.95,0)" xlink:href="#ai"/><use transform="matrix(0.05,0,0,0.05,56.95,0)" xlink:href="#as"/></g><path d="M108 0H70L1-190h34L89-25l56-165h34" id="aK"/><g id="D"><use transform="matrix(0.05,0,0,0.05,0,0)" xlink:href="#aA"/><use transform="matrix(0.05,0,0,0.05,12.950000000000001,0)" xlink:href="#ah"/><use transform="matrix(0.05,0,0,0.05,22.950000000000003,0)" xlink:href="#aK"/><use transform="matrix(0.05,0,0,0.05,31.950000000000003,0)" xlink:href="#ah"/><use transform="matrix(0.05,0,0,0.05,41.95,0)" xlink:href="#aq"/><use transform="matrix(0.05,0,0,0.05,45.900000000000006,0)" xlink:href="#aG"/><use transform="matrix(0.05,0,0,0.05,55.900000000000006,0)" xlink:href="#ag"/><use transform="matrix(0.05,0,0,0.05,65.9,0)" xlink:href="#at"/><use transform="matrix(0.05,0,0,0.05,80.85000000000001,0)" xlink:href="#ah"/><use transform="matrix(0.05,0,0,0.05,90.85000000000001,0)" xlink:href="#ao"/><use transform="matrix(0.05,0,0,0.05,100.85000000000001,0)" xlink:href="#as"/></g><g id="E"><use transform="matrix(0.05,0,0,0.05,0,0)" xlink:href="#ap"/><use transform="matrix(0.05,0,0,0.05,10,0)" xlink:href="#ao"/><use transform="matrix(0.05,0,0,0.05,20,0)" xlink:href="#aD"/></g><g id="F"><use transform="matrix(0.05,0,0,0.05,0,0)" xlink:href="#af"/><use transform="matrix(0.05,0,0,0.05,12,0)" xlink:href="#ah"/><use transform="matrix(0.05,0,0,0.05,22,0)" xlink:href="#ai"/><use transform="matrix(0.05,0,0,0.05,31,0)" xlink:href="#ax"/><use transform="matrix(0.05,0,0,0.05,41,0)" xlink:href="#aw"/><use transform="matrix(0.05,0,0,0.05,46.95,0)" xlink:href="#ah"/></g><g id="G"><use transform="matrix(0.05,0,0,0.05,0,0)" xlink:href="#af"/><use transform="matrix(0.05,0,0,0.05,12,0)" xlink:href="#al"/><use transform="matrix(0.05,0,0,0.05,21,0)" xlink:href="#ar"/><use transform="matrix(0.05,0,0,0.05,30,0)" xlink:href="#as"/><use transform="matrix(0.05,0,0,0.05,35,0)" xlink:href="#ah"/><use transform="matrix(0.05,0,0,0.05,45,0)" xlink:href="#at"/></g><g id="H"><use transform="matrix(0.05,0,0,0.05,0,0)" xlink:href="#aA"/><use transform="matrix(0.05,0,0,0.05,12.950000000000001,0)" xlink:href="#ah"/><use transform="matrix(0.05,0,0,0.05,22.950000000000003,0)" xlink:href="#ar"/><use transform="matrix(0.05,0,0,0.05,31.950000000000003,0)" xlink:href="#aj"/><use transform="matrix(0.05,0,0,0.05,35.900000000000006,0)" xlink:href="#aB"/><use transform="matrix(0.05,0,0,0.05,45.900000000000006,0)" xlink:href="#ao"/></g><g id="I"><use transform="matrix(0.05,0,0,0.05,0,0)" xlink:href="#au"/><use transform="matrix(0.05,0,0,0.05,12.950000000000001,0)" xlink:href="#al"/><use transform="matrix(0.05,0,0,0.05,21.950000000000003,0)" xlink:href="#av"/><use transform="matrix(0.05,0,0,0.05,31.950000000000003,0)" xlink:href="#ah"/><use transform="matrix(0.05,0,0,0.05,41.95,0)" xlink:href="#aw"/><use transform="matrix(0.05,0,0,0.05,47.900000000000006,0)" xlink:href="#ar"/><use transform="matrix(0.05,0,0,0.05,56.900000000000006,0)" xlink:href="#ah"/><use transform="matrix(0.05,0,0,0.05,66.9,0)" xlink:href="#ai"/><use transform="matrix(0.05,0,0,0.05,75.9,0)" xlink:href="#ax"/><use transform="matrix(0.05,0,0,0.05,85.9,0)" xlink:href="#aw"/><use transform="matrix(0.05,0,0,0.05,91.85000000000001,0)" xlink:href="#aj"/><use transform="matrix(0.05,0,0,0.05,95.80000000000001,0)" xlink:href="#as"/><use transform="matrix(0.05,0,0,0.05,100.80000000000001,0)" xlink:href="#al"/></g><path d="M137 0h-34L2-248h35l83 218 83-218h36" id="aL"/><g id="J"><use transform="matrix(0.05,0,0,0.05,0,0)" xlink:href="#aL"/><use transform="matrix(0.05,0,0,0.05,10.65,0)" xlink:href="#ap"/><use transform="matrix(0.05,0,0,0.05,20.65,0)" xlink:href="#aq"/><use transform="matrix(0.05,0,0,0.05,24.599999999999998,0)" xlink:href="#aj"/><use transform="matrix(0.05,0,0,0.05,28.549999999999997,0)" xlink:href="#aD"/><use transform="matrix(0.05,0,0,0.05,38.55,0)" xlink:href="#ap"/><use transform="matrix(0.05,0,0,0.05,48.55,0)" xlink:href="#as"/><use transform="matrix(0.05,0,0,0.05,53.54999999999999,0)" xlink:href="#aj"/><use transform="matrix(0.05,0,0,0.05,57.5,0)" xlink:href="#aG"/><use transform="matrix(0.05,0,0,0.05,67.5,0)" xlink:href="#ao"/></g><path d="M63-220v92h138v28H63V0H30v-248h175v28H63" id="aM"/><g id="K"><use transform="matrix(0.05,0,0,0.05,0,0)" xlink:href="#aM"/><use transform="matrix(0.05,0,0,0.05,10.950000000000001,0)" xlink:href="#ah"/><use transform="matrix(0.05,0,0,0.05,20.950000000000003,0)" xlink:href="#ap"/><use transform="matrix(0.05,0,0,0.05,30.950000000000003,0)" xlink:href="#as"/><use transform="matrix(0.05,0,0,0.05,35.95,0)" xlink:href="#ax"/><use transform="matrix(0.05,0,0,0.05,45.95,0)" xlink:href="#aw"/><use transform="matrix(0.05,0,0,0.05,51.900000000000006,0)" xlink:href="#ah"/></g><g id="L"><use transform="matrix(0.05,0,0,0.05,0,0)" xlink:href="#aI"/><use transform="matrix(0.05,0,0,0.05,5,0)" xlink:href="#ao"/><use transform="matrix(0.05,0,0,0.05,15,0)" xlink:href="#as"/><use transform="matrix(0.05,0,0,0.05,20,0)" xlink:href="#ah"/><use transform="matrix(0.05,0,0,0.05,30,0)" xlink:href="#aB"/><use transform="matrix(0.05,0,0,0.05,40,0)" xlink:href="#aw"/><use transform="matrix(0.05,0,0,0.05,45.95,0)" xlink:href="#ap"/><use transform="matrix(0.05,0,0,0.05,55.95,0)" xlink:href="#as"/><use transform="matrix(0.05,0,0,0.05,60.95,0)" xlink:href="#aj"/><use transform="matrix(0.05,0,0,0.05,64.9,0)" xlink:href="#aG"/><use transform="matrix(0.05,0,0,0.05,74.9,0)" xlink:href="#ao"/></g><g id="M"><use transform="matrix(0.05,0,0,0.05,0,0)" xlink:href="#am"/><use transform="matrix(0.05,0,0,0.05,8.950000000000001,0)" xlink:href="#ah"/><use transform="matrix(0.05,0,0,0.05,18.950000000000003,0)" xlink:href="#ar"/><use transform="matrix(0.05,0,0,0.05,27.950000000000003,0)" xlink:href="#as"/><use transform="matrix(0.05,0,0,0.05,32.95,0)" xlink:href="#ar"/></g><g id="N"><use transform="matrix(0.05,0,0,0.05,0,0)" xlink:href="#am"/><use transform="matrix(0.05,0,0,0.05,8.950000000000001,0)" xlink:href="#ah"/><use transform="matrix(0.05,0,0,0.05,18.950000000000003,0)" xlink:href="#ar"/><use transform="matrix(0.05,0,0,0.05,27.950000000000003,0)" xlink:href="#as"/><use transform="matrix(0.05,0,0,0.05,32.95,0)" xlink:href="#aj"/><use transform="matrix(0.05,0,0,0.05,36.900000000000006,0)" xlink:href="#ao"/><use transform="matrix(0.05,0,0,0.05,46.900000000000006,0)" xlink:href="#aB"/></g><g id="O"><use transform="matrix(0.05,0,0,0.05,0,0)" xlink:href="#aL"/><use transform="matrix(0.05,0,0,0.05,11,0)" xlink:href="#ah"/><use transform="matrix(0.05,0,0,0.05,21,0)" xlink:href="#aw"/><use transform="matrix(0.05,0,0,0.05,26.950000000000003,0)" xlink:href="#aj"/><use transform="matrix(0.05,0,0,0.05,30.899999999999995,0)" xlink:href="#ak"/><use transform="matrix(0.05,0,0,0.05,35.9,0)" xlink:href="#aj"/><use transform="matrix(0.05,0,0,0.05,39.85,0)" xlink:href="#ai"/><use transform="matrix(0.05,0,0,0.05,48.85,0)" xlink:href="#ap"/><use transform="matrix(0.05,0,0,0.05,58.85,0)" xlink:href="#as"/><use transform="matrix(0.05,0,0,0.05,63.85,0)" xlink:href="#aj"/><use transform="matrix(0.05,0,0,0.05,67.8,0)" xlink:href="#aG"/><use transform="matrix(0.05,0,0,0.05,77.8,0)" xlink:href="#ao"/></g><g id="P"><use transform="matrix(0.05,0,0,0.05,0,0)" xlink:href="#aG"/><use transform="matrix(0.05,0,0,0.05,10,0)" xlink:href="#ak"/></g><g id="Q"><use transform="matrix(0.05,0,0,0.05,0,0)" xlink:href="#aJ"/><use transform="matrix(0.05,0,0,0.05,12,0)" xlink:href="#ar"/><use transform="matrix(0.05,0,0,0.05,21,0)" xlink:href="#ar"/><use transform="matrix(0.05,0,0,0.05,30,0)" xlink:href="#ah"/><use transform="matrix(0.05,0,0,0.05,40,0)" xlink:href="#ar"/><use transform="matrix(0.05,0,0,0.05,49,0)" xlink:href="#ar"/><use transform="matrix(0.05,0,0,0.05,58,0)" xlink:href="#at"/><use transform="matrix(0.05,0,0,0.05,72.95,0)" xlink:href="#ah"/><use transform="matrix(0.05,0,0,0.05,82.95,0)" xlink:href="#ao"/><use transform="matrix(0.05,0,0,0.05,92.95,0)" xlink:href="#as"/></g><g id="R"><use transform="matrix(0.05,0,0,0.05,0,0)" xlink:href="#aI"/><use transform="matrix(0.05,0,0,0.05,5,0)" xlink:href="#as"/><use transform="matrix(0.05,0,0,0.05,10,0)" xlink:href="#ah"/><use transform="matrix(0.05,0,0,0.05,20,0)" xlink:href="#aw"/><use transform="matrix(0.05,0,0,0.05,25.950000000000003,0)" xlink:href="#ap"/><use transform="matrix(0.05,0,0,0.05,35.95,0)" xlink:href="#as"/><use transform="matrix(0.05,0,0,0.05,40.95,0)" xlink:href="#ah"/></g><g id="S"><use transform="matrix(0.05,0,0,0.05,0,0)" xlink:href="#aD"/><use transform="matrix(0.05,0,0,0.05,10,0)" xlink:href="#ax"/><use transform="matrix(0.05,0,0,0.05,20,0)" xlink:href="#aw"/><use transform="matrix(0.05,0,0,0.05,25.950000000000003,0)" xlink:href="#aj"/><use transform="matrix(0.05,0,0,0.05,29.899999999999995,0)" xlink:href="#ao"/><use transform="matrix(0.05,0,0,0.05,39.9,0)" xlink:href="#aB"/></g><g id="T"><use transform="matrix(0.05,0,0,0.05,0,0)" xlink:href="#av"/><use transform="matrix(0.05,0,0,0.05,10,0)" xlink:href="#ax"/><use transform="matrix(0.05,0,0,0.05,20,0)" xlink:href="#aj"/><use transform="matrix(0.05,0,0,0.05,23.95,0)" xlink:href="#aq"/><use transform="matrix(0.05,0,0,0.05,27.899999999999995,0)" xlink:href="#aD"/></g><g id="U"><use transform="matrix(0.05,0,0,0.05,0,0)" xlink:href="#ay"/><use transform="matrix(0.05,0,0,0.05,12.950000000000001,0)" xlink:href="#ah"/><use transform="matrix(0.05,0,0,0.05,22.950000000000003,0)" xlink:href="#aq"/><use transform="matrix(0.05,0,0,0.05,26.900000000000002,0)" xlink:href="#ah"/><use transform="matrix(0.05,0,0,0.05,36.900000000000006,0)" xlink:href="#ap"/><use transform="matrix(0.05,0,0,0.05,46.900000000000006,0)" xlink:href="#ar"/><use transform="matrix(0.05,0,0,0.05,55.900000000000006,0)" xlink:href="#ah"/></g><g id="V"><use transform="matrix(0.05,0,0,0.05,0,0)" xlink:href="#ak"/><use transform="matrix(0.05,0,0,0.05,5,0)" xlink:href="#aG"/><use transform="matrix(0.05,0,0,0.05,15,0)" xlink:href="#aw"/></g><g id="W"><use transform="matrix(0.05,0,0,0.05,0,0)" xlink:href="#aF"/><use transform="matrix(0.05,0,0,0.05,12,0)" xlink:href="#aw"/><use transform="matrix(0.05,0,0,0.05,17.95,0)" xlink:href="#aG"/><use transform="matrix(0.05,0,0,0.05,27.950000000000003,0)" xlink:href="#aD"/><use transform="matrix(0.05,0,0,0.05,37.95,0)" xlink:href="#ax"/><use transform="matrix(0.05,0,0,0.05,47.95,0)" xlink:href="#ai"/><use transform="matrix(0.05,0,0,0.05,56.95,0)" xlink:href="#as"/><use transform="matrix(0.05,0,0,0.05,61.95,0)" xlink:href="#aj"/><use transform="matrix(0.05,0,0,0.05,65.9,0)" xlink:href="#aG"/><use transform="matrix(0.05,0,0,0.05,75.9,0)" xlink:href="#ao"/></g><g id="X"><use transform="matrix(0.0685185185185185,0,0,0.0685185185185185,0,0)" xlink:href="#aA"/><use transform="matrix(0.0685185185185185,0,0,0.0685185185185185,17.746296296296293,0)" xlink:href="#ah"/><use transform="matrix(0.0685185185185185,0,0,0.0685185185185185,31.449999999999996,0)" xlink:href="#ar"/><use transform="matrix(0.0685185185185185,0,0,0.0685185185185185,43.783333333333324,0)" xlink:href="#aj"/><use transform="matrix(0.0685185185185185,0,0,0.0685185185185185,49.19629629629629,0)" xlink:href="#aB"/><use transform="matrix(0.0685185185185185,0,0,0.0685185185185185,62.89999999999999,0)" xlink:href="#ao"/></g><g id="Y"><use transform="matrix(0.0685185185185185,0,0,0.0685185185185185,0,0)" xlink:href="#aF"/><use transform="matrix(0.0685185185185185,0,0,0.0685185185185185,16.444444444444443,0)" xlink:href="#an"/><use transform="matrix(0.0685185185185185,0,0,0.0685185185185185,30.148148148148145,0)" xlink:href="#ap"/><use transform="matrix(0.0685185185185185,0,0,0.0685185185185185,43.85185185185185,0)" xlink:href="#ar"/><use transform="matrix(0.0685185185185185,0,0,0.0685185185185185,56.185185185185176,0)" xlink:href="#ah"/><use transform="matrix(0.0685185185185185,0,0,0.0685185185185185,69.88888888888887,0)" xlink:href="#ar"/></g><g id="Z"><use transform="matrix(0.0685185185185185,0,0,0.0685185185185185,0,0)" xlink:href="#am"/><use transform="matrix(0.0685185185185185,0,0,0.0685185185185185,12.264814814814812,0)" xlink:href="#ah"/><use transform="matrix(0.0685185185185185,0,0,0.0685185185185185,25.968518518518515,0)" xlink:href="#ar"/><use transform="matrix(0.0685185185185185,0,0,0.0685185185185185,38.30185185185184,0)" xlink:href="#as"/><use transform="matrix(0.0685185185185185,0,0,0.0685185185185185,45.15370370370369,0)" xlink:href="#aj"/><use transform="matrix(0.0685185185185185,0,0,0.0685185185185185,50.566666666666656,0)" xlink:href="#ao"/><use transform="matrix(0.0685185185185185,0,0,0.0685185185185185,64.27037037037036,0)" xlink:href="#aB"/></g><g id="aa"><use transform="matrix(0.0685185185185185,0,0,0.0685185185185185,0,0)" xlink:href="#ap"/><use transform="matrix(0.0685185185185185,0,0,0.0685185185185185,13.7037037037037,0)" xlink:href="#ao"/><use transform="matrix(0.0685185185185185,0,0,0.0685185185185185,27.4074074074074,0)" xlink:href="#aD"/></g><path d="M30 0v-248h187v28H63v79h144v27H63v87h162V0H30" id="aN"/><g id="ab"><use transform="matrix(0.0685185185185185,0,0,0.0685185185185185,0,0)" xlink:href="#aN"/><use transform="matrix(0.0685185185185185,0,0,0.0685185185185185,16.444444444444443,0)" xlink:href="#aK"/><use transform="matrix(0.0685185185185185,0,0,0.0685185185185185,28.77777777777777,0)" xlink:href="#ap"/><use transform="matrix(0.0685185185185185,0,0,0.0685185185185185,42.481481481481474,0)" xlink:href="#ax"/><use transform="matrix(0.0685185185185185,0,0,0.0685185185185185,56.185185185185176,0)" xlink:href="#aq"/><use transform="matrix(0.0685185185185185,0,0,0.0685185185185185,61.598148148148134,0)" xlink:href="#ap"/><use transform="matrix(0.0685185185185185,0,0,0.0685185185185185,75.30185185185184,0)" xlink:href="#as"/><use transform="matrix(0.0685185185185185,0,0,0.0685185185185185,82.15370370370368,0)" xlink:href="#aj"/><use transform="matrix(0.0685185185185185,0,0,0.0685185185185185,87.56666666666665,0)" xlink:href="#aG"/><use transform="matrix(0.0685185185185185,0,0,0.0685185185185185,101.27037037037034,0)" xlink:href="#ao"/></g><g id="ac"><use transform="matrix(0.07469135802469135,0,0,0.07469135802469135,0,0)" xlink:href="#au"/><use transform="matrix(0.07469135802469135,0,0,0.07469135802469135,19.34506172839506,0)" xlink:href="#aG"/><use transform="matrix(0.07469135802469135,0,0,0.07469135802469135,34.28333333333333,0)" xlink:href="#at"/><use transform="matrix(0.07469135802469135,0,0,0.07469135802469135,56.61604938271604,0)" xlink:href="#ag"/><use transform="matrix(0.07469135802469135,0,0,0.07469135802469135,71.55432098765431,0)" xlink:href="#aG"/><use transform="matrix(0.07469135802469135,0,0,0.07469135802469135,86.49259259259257,0)" xlink:href="#ao"/><use transform="matrix(0.07469135802469135,0,0,0.07469135802469135,101.43086419753082,0)" xlink:href="#ah"/><use transform="matrix(0.07469135802469135,0,0,0.07469135802469135,116.3691358024691,0)" xlink:href="#ao"/><use transform="matrix(0.07469135802469135,0,0,0.07469135802469135,131.30740740740737,0)" xlink:href="#as"/></g><path d="M30 0v-248h33v221h125V0H30" id="aO"/><g id="ad"><use transform="matrix(0.07469135802469135,0,0,0.07469135802469135,0,0)" xlink:href="#aO"/><use transform="matrix(0.07469135802469135,0,0,0.07469135802469135,14.938271604938269,0)" xlink:href="#ah"/><use transform="matrix(0.07469135802469135,0,0,0.07469135802469135,29.876543209876537,0)" xlink:href="#aK"/><use transform="matrix(0.07469135802469135,0,0,0.07469135802469135,43.32098765432098,0)" xlink:href="#ah"/><use transform="matrix(0.07469135802469135,0,0,0.07469135802469135,58.25925925925925,0)" xlink:href="#aq"/></g><g id="ae"><use transform="matrix(0.07469135802469135,0,0,0.07469135802469135,0,0)" xlink:href="#af"/><use transform="matrix(0.07469135802469135,0,0,0.07469135802469135,17.925925925925924,0)" xlink:href="#al"/><use transform="matrix(0.07469135802469135,0,0,0.07469135802469135,31.370370370370367,0)" xlink:href="#ar"/><use transform="matrix(0.07469135802469135,0,0,0.07469135802469135,44.81481481481481,0)" xlink:href="#as"/><use transform="matrix(0.07469135802469135,0,0,0.07469135802469135,52.28395061728394,0)" xlink:href="#ah"/><use transform="matrix(0.07469135802469135,0,0,0.07469135802469135,67.22222222222221,0)" xlink:href="#at"/></g></defs></g></svg>