<svg xmlns="http://www.w3.org/2000/svg" xmlns:xlink="http://www.w3.org/1999/xlink" xmlns:lucid="lucid" width="1201" height="1076"><g transform="translate(-121 -160)" lucid:page-tab-id="oARyyJ189VTI"><path d="M555.73 213c0-1.66 1.34-3 3-3h334c1.66 0 3 1.34 3 3v54c0 1.66-1.34 3-3 3h-334c-1.66 0-3-1.34-3-3z" fill="none"/><use xlink:href="#a" transform="matrix(1,0,0,1,555.7318265058507,210) translate(34.17499999999998 22.799999999999997)"/><use xlink:href="#b" transform="matrix(1,0,0,1,555.7318265058507,210) translate(78.07499999999999 22.799999999999997)"/><use xlink:href="#c" transform="matrix(1,0,0,1,555.7318265058507,210) translate(130.02499999999998 22.799999999999997)"/><use xlink:href="#d" transform="matrix(1,0,0,1,555.7318265058507,210) translate(150.02499999999998 22.799999999999997)"/><use xlink:href="#e" transform="matrix(1,0,0,1,555.7318265058507,210) translate(199.975 22.799999999999997)"/><use xlink:href="#f" transform="matrix(1,0,0,1,555.7318265058507,210) translate(214.975 22.799999999999997)"/><use xlink:href="#g" transform="matrix(1,0,0,1,555.7318265058507,210) translate(36.599999999999994 44.4)"/><use xlink:href="#h" transform="matrix(1,0,0,1,555.7318265058507,210) translate(114.55 44.4)"/><use xlink:href="#i" transform="matrix(1,0,0,1,555.7318265058507,210) translate(151.45 44.4)"/><use xlink:href="#j" transform="matrix(1,0,0,1,555.7318265058507,210) translate(193.45000000000002 44.4)"/><use xlink:href="#k" transform="matrix(1,0,0,1,555.7318265058507,210) translate(228.45000000000002 44.4)"/><use xlink:href="#l" transform="matrix(1,0,0,1,555.7318265058507,210) translate(266.4 44.4)"/><path d="M549.78 280h-76.64c-.88 0-1.68-.76-1.68-1.7v-5.12c0-18.18 11.92-33.43 29.52-37.7.48-.1.88-.05 1.28.17 5.92 3.2 12.48 3.2 18.4 0 .4-.22.8-.26 1.2-.17 17.68 4.27 29.6 19.52 29.6 37.7v5.13c0 .94-.8 1.7-1.68 1.7zm-74.88-3.43h73.12v-3.4c.08-16.35-10.56-30.07-26.32-34.17-3.36 1.65-6.48 2.4-10.24 2.4s-6.88-.7-10.24-2.4c-15.76 4.1-26.4 17.82-26.32 34.18z" stroke="#fff" stroke-opacity="0" fill="#232f3e"/><path d="M511.47 241.3c-3.67 0-6.8-.78-10.03-2.56-9.96-5.58-13.5-18.2-7.93-28.17 5.58-9.95 18.18-13.5 28.1-7.93 6.72 3.76 10.56 10.33 10.56 18.05 0 7.76-3.92 14.36-10.74 18.04-3.22 1.73-6.3 2.56-9.95 2.56zm0-37.83c-6.6-.17-12.26 3.18-15.44 8.96-4.5 8.4-1.4 18.8 6.93 23.34 5.4 2.93 11.36 2.93 16.77 0 5.7-3.1 9-8.68 8.96-15.2-.05-9.5-7.77-17.14-17.23-17.1z" stroke="#fff" stroke-opacity="0" fill="#232f3e"/><g filter="url(#m)"><path d="M374.38 385.77h94.16c14.4 0 14.4 0 14.4 14.52v64c0 14.52 0 14.52-14.4 14.52h-94.16c-14.38 0-14.38 0-14.38-14.52v-64c0-14.53 0-14.53 14.38-14.53z" fill="#7d7c7c"/><path d="M374.38 380h94.16c14.4 0 14.4 0 14.4 14.52v64c0 14.53 0 14.53-14.4 14.53h-94.16c-14.38 0-14.38 0-14.38-14.52v-64C360 380 360 380 374.38 380z" fill="#fff"/><path d="M474.3 409.64c0 12.26-9.92 22.22-22.12 22.22-12.2 0-22.1-9.96-22.1-22.22 0-12.26 9.9-22.2 22.1-22.2 12.2 0 22.1 9.94 22.1 22.2z" fill="#759c3e"/><path d="M467.62 409.64c0 3.2-2.58 5.8-5.77 5.8-3.18 0-5.77-2.6-5.77-5.8 0-3.2 2.6-5.8 5.77-5.8 3.2 0 5.77 2.6 5.77 5.8z" fill="#fff"/><path d="M444.7 419.1h-25.56l-2.3-4.05-8.66.8-3.33-3.4-3.03-.68-7.87 4.75-9.8-7.58 5.38-8.7h55.17v18.85z" fill="#759c3e"/><path d="M412.82 443.84c0 12.26-9.9 22.2-22.1 22.2-12.2 0-22.1-9.94-22.1-22.2s9.9-22.2 22.1-22.2c12.2 0 22.1 9.94 22.1 22.2z" fill="#7d7c7c"/><path d="M386.82 443.83c0 3.2-2.58 5.8-5.77 5.8-3.18 0-5.77-2.6-5.77-5.8 0-3.2 2.6-5.8 5.77-5.8 3.2 0 5.77 2.6 5.77 5.8z" fill="#fff"/><path d="M398.22 434.4h25.55l2.3 4.05 8.66-.8 3.33 3.4 3.03.67 7.86-4.76 9.8 7.57-5.38 8.74h-55.16V434.4z" fill="#7d7c7c"/><use xlink:href="#n" transform="matrix(1,0,0,1,360,478.8297291559559) translate(24.487654320987666 14.222222222222218)"/><use xlink:href="#o" transform="matrix(1,0,0,1,360,478.8297291559559) translate(16.61111111111113 37.68888888888888)"/><use xlink:href="#p" transform="matrix(1,0,0,1,360,478.8297291559559) translate(76.75925925925927 37.68888888888888)"/><use xlink:href="#q" transform="matrix(1,0,0,1,360,478.8297291559559) translate(1.351851851851869 61.15555555555555)"/><use xlink:href="#r" transform="matrix(1,0,0,1,360,478.8297291559559) translate(54.58641975308642 61.15555555555555)"/><use xlink:href="#s" transform="matrix(1,0,0,1,360,478.8297291559559) translate(90.14197530864197 61.15555555555555)"/></g><g filter="url(#t)"><path d="M1190.06 528.17c0 13.16-11.2 23.85-25.03 23.85-13.82 0-25.03-10.7-25.03-23.85 0-13.16 11.2-23.85 25.03-23.85 13.82 0 25.03 10.7 25.03 23.85z" fill="#307f95"/><path d="M1173.5 518.04h28.96l2.6 4.34 9.82-.87 3.77 3.67 3.43.73 20.04-2.47v5.5l-6.1 9.37h-62.52v-20.26zM1140 522.68h24.1v6.22H1140v-6.22z" fill="#307f95"/><path d="M1190.06 522.68c0 13.16-11.2 23.84-25.03 23.84-13.82 0-25.03-10.68-25.03-23.84 0-13.17 11.2-23.85 25.03-23.85 13.82 0 25.03 10.68 25.03 23.85z" fill="#5abaa7"/><path d="M1160.6 522.67c0 3.44-2.92 6.23-6.53 6.23-3.6 0-6.53-2.8-6.53-6.23 0-3.43 2.93-6.22 6.53-6.22s6.54 2.8 6.54 6.22z" fill="#fff"/><path d="M1173.5 512.55h28.96l2.6 4.33 9.82-.85 3.77 3.65 3.43.73 8.92-5.08 11.12 8.1-6.1 9.38h-62.52v-20.25z" fill="#5abaa7"/><use xlink:href="#u" transform="matrix(1,0,0,1,1140,552.02331739125) translate(2.9567901234568126 14.222222222222218)"/><use xlink:href="#v" transform="matrix(1,0,0,1,1140,552.02331739125) translate(51.74691358024692 14.222222222222218)"/><use xlink:href="#w" transform="matrix(1,0,0,1,1140,552.02331739125) translate(36.19135802469137 37.68888888888888)"/></g><g filter="url(#t)"><path d="M270.06 369.34c0 13.16-11.2 23.85-25.03 23.85-13.82 0-25.03-10.7-25.03-23.86s11.2-23.85 25.03-23.85c13.82 0 25.03 10.68 25.03 23.84z" fill="#4b612c"/><path d="M253.5 359.2h28.96l2.6 4.35 9.82-.87 3.77 3.66 3.43.73 20.04-2.47v5.5l-6.1 9.37H253.5V359.2zM220 363.85h24.1v6.22H220v-6.22z" fill="#4b612c"/><path d="M270.06 363.85c0 13.16-11.2 23.84-25.03 23.84-13.82 0-25.03-10.7-25.03-23.85 0-13.17 11.2-23.85 25.03-23.85 13.82 0 25.03 10.68 25.03 23.85z" fill="#759c3e"/><path d="M240.6 363.84c0 3.44-2.92 6.23-6.53 6.23-3.6 0-6.53-2.8-6.53-6.23 0-3.43 2.93-6.22 6.53-6.22s6.54 2.8 6.54 6.22z" fill="#fff"/><path d="M253.5 353.72h28.96l2.6 4.33 9.82-.85 3.77 3.65 3.43.73 8.92-5.1 11.12 8.12-6.1 9.37H253.5v-20.25z" fill="#759c3e"/><use xlink:href="#x" transform="matrix(1,0,0,1,220,393.1935882352941) translate(26.166666666666675 14.222222222222218)"/><use xlink:href="#o" transform="matrix(1,0,0,1,220,393.1935882352941) translate(6.117283950617299 37.68888888888888)"/><use xlink:href="#w" transform="matrix(1,0,0,1,220,393.1935882352941) translate(66.26543209876543 37.68888888888888)"/></g><path d="M520 321v880.5M520 321.03V320" stroke="#303030" stroke-width="2" fill="none"/><path d="M520 1216.76l-4.64-14.26h9.28z" stroke="#303030" stroke-width="2" fill="#303030"/><g filter="url(#m)"><path d="M990.1 385.77h94.18c14.38 0 14.38 0 14.38 14.52v64c0 14.52 0 14.52-14.38 14.52H990.1c-14.37 0-14.37 0-14.37-14.52v-64c0-14.53 0-14.53 14.38-14.53z" fill="#7d7c7c"/><path d="M990.1 380h94.18c14.38 0 14.38 0 14.38 14.52v64c0 14.53 0 14.53-14.38 14.53H990.1c-14.37 0-14.37 0-14.37-14.52v-64c0-14.53 0-14.53 14.38-14.53z" fill="#fff"/><path d="M1090.02 409.64c0 12.26-9.9 22.22-22.1 22.22-12.2 0-22.1-9.96-22.1-22.22 0-12.26 9.9-22.2 22.1-22.2 12.2 0 22.1 9.94 22.1 22.2z" fill="#759c3e"/><path d="M1083.35 409.64c0 3.2-2.58 5.8-5.77 5.8-3.18 0-5.77-2.6-5.77-5.8 0-3.2 2.6-5.8 5.78-5.8 3.2 0 5.77 2.6 5.77 5.8z" fill="#fff"/><path d="M1060.43 419.1h-25.56l-2.3-4.05-8.66.8-3.32-3.4-3.02-.68-7.88 4.75-9.8-7.58 5.38-8.7h55.17v18.85z" fill="#759c3e"/><path d="M1028.55 443.84c0 12.26-9.9 22.2-22.1 22.2-12.2 0-22.1-9.94-22.1-22.2s9.9-22.2 22.1-22.2c12.2 0 22.1 9.94 22.1 22.2z" fill="#7d7c7c"/><path d="M1002.55 443.83c0 3.2-2.58 5.8-5.77 5.8-3.18 0-5.77-2.6-5.77-5.8 0-3.2 2.6-5.8 5.78-5.8 3.2 0 5.77 2.6 5.77 5.8z" fill="#fff"/><path d="M1013.95 434.4h25.55l2.3 4.05 8.66-.8 3.33 3.4 3.02.67 7.87-4.76 9.8 7.57-5.4 8.74h-55.15V434.4z" fill="#7d7c7c"/><use xlink:href="#n" transform="matrix(1,0,0,1,975.7318265058507,478.8297291559559) translate(24.487654320987666 14.222222222222218)"/><use xlink:href="#o" transform="matrix(1,0,0,1,975.7318265058507,478.8297291559559) translate(16.61111111111113 37.68888888888888)"/><use xlink:href="#p" transform="matrix(1,0,0,1,975.7318265058507,478.8297291559559) translate(76.75925925925927 37.68888888888888)"/><use xlink:href="#q" transform="matrix(1,0,0,1,975.7318265058507,478.8297291559559) translate(1.351851851851869 61.15555555555555)"/><use xlink:href="#r" transform="matrix(1,0,0,1,975.7318265058507,478.8297291559559) translate(54.58641975308642 61.15555555555555)"/><use xlink:href="#s" transform="matrix(1,0,0,1,975.7318265058507,478.8297291559559) translate(90.14197530864197 61.15555555555555)"/></g><g filter="url(#t)"><path d="M1190.06 369.34c0 13.16-11.2 23.85-25.03 23.85-13.82 0-25.03-10.7-25.03-23.86s11.2-23.85 25.03-23.85c13.82 0 25.03 10.68 25.03 23.84z" fill="#106bcb"/><path d="M1173.5 359.2h28.96l2.6 4.35 9.82-.87 3.77 3.66 3.43.73 20.04-2.47v5.5l-6.1 9.37h-62.52V359.2zM1140 363.85h24.1v6.22H1140v-6.22z" fill="#106bcb"/><path d="M1190.06 363.85c0 13.16-11.2 23.84-25.03 23.84-13.82 0-25.03-10.7-25.03-23.85 0-13.17 11.2-23.85 25.03-23.85 13.82 0 25.03 10.68 25.03 23.85z" fill="#3aa6dd"/><path d="M1160.6 363.84c0 3.44-2.92 6.23-6.53 6.23-3.6 0-6.53-2.8-6.53-6.23 0-3.43 2.93-6.22 6.53-6.22s6.54 2.8 6.54 6.22z" fill="#fff"/><path d="M1173.5 353.72h28.96l2.6 4.33 9.82-.85 3.77 3.65 3.43.73 8.92-5.1 11.12 8.12-6.1 9.37h-62.52v-20.25z" fill="#3aa6dd"/><use xlink:href="#y" transform="matrix(1,0,0,1,1140,393.1935882352941) translate(29.574074074074083 14.222222222222218)"/><use xlink:href="#o" transform="matrix(1,0,0,1,1140,393.1935882352941) translate(6.117283950617299 37.68888888888888)"/><use xlink:href="#w" transform="matrix(1,0,0,1,1140,393.1935882352941) translate(66.26543209876543 37.68888888888888)"/></g><path d="M351.46 320v-37c0-1.66 1.35-3 3-3h317v40zM671.46 280H1197c1.66 0 3 1.34 3 3v37H671.46z" fill="#d2d3d3"/><path d="M671.46 1480h-317c-1.65 0-3-1.34-3-3V320h320zM1200 320v1157c0 1.66-1.34 3-3 3H671.46V320z" fill="none"/><use xlink:href="#z" transform="matrix(1,0,0,1,351.4636530117013,280) translate(140.55 32.8)"/><use xlink:href="#A" transform="matrix(1,0,0,1,671.4636530117014,280) translate(248.5 32.8)"/><path d="M974.05 280H897.4c-.87 0-1.67-.76-1.67-1.7v-5.12c0-18.18 11.92-33.43 29.52-37.7.48-.1.88-.05 1.28.17 5.92 3.2 12.48 3.2 18.4 0 .4-.22.8-.26 1.2-.17 17.68 4.27 29.6 19.52 29.6 37.7v5.13c0 .94-.8 1.7-1.68 1.7zm-74.88-3.43h73.12v-3.4c.07-16.35-10.57-30.07-26.33-34.17-3.36 1.65-6.48 2.4-10.24 2.4s-6.88-.7-10.24-2.4c-15.77 4.1-26.4 17.82-26.33 34.18z" stroke="#fff" stroke-opacity="0" fill="#232f3e"/><path d="M935.74 241.3c-3.68 0-6.8-.78-10.04-2.56-9.95-5.58-13.5-18.2-7.92-28.17 5.57-9.95 18.17-13.5 28.08-7.93 6.73 3.76 10.57 10.33 10.57 18.05 0 7.76-3.92 14.36-10.74 18.04-3.23 1.73-6.33 2.56-9.96 2.56zm0-37.83c-6.6-.17-12.27 3.18-15.45 8.96-4.5 8.4-1.4 18.8 6.93 23.34 5.4 2.93 11.36 2.93 16.77 0 5.7-3.1 9-8.68 8.96-15.2-.04-9.5-7.76-17.14-17.22-17.1z" stroke="#fff" stroke-opacity="0" fill="#232f3e"/><path d="M940 321v880.5M940 321.03V320" stroke="#303030" stroke-width="2" fill="none"/><path d="M940 1216.76l-4.64-14.26h9.28z" stroke="#303030" stroke-width="2" fill="#303030"/><path d="M421.46 361.5v-21.04c0-1.65 1.35-3 3-3H519" stroke="#303030" stroke-width="2" fill="none"/><path d="M421.46 376.76l-4.63-14.26h9.27z" stroke="#303030" stroke-width="2" fill="#303030"/><path d="M518.97 337.46H520M1037.2 361.5v-17.22c0-1.66-1.35-3-3-3H941" stroke="#303030" stroke-width="2" fill="none"/><path d="M1037.2 376.76l-4.64-14.26h9.27z" stroke="#303030" stroke-width="2" fill="#303030"/><path d="M941.03 341.28H940" stroke="#303030" stroke-width="2" fill="none"/><g filter="url(#t)"><path d="M270.06 528.17c0 13.16-11.2 23.85-25.03 23.85-13.82 0-25.03-10.7-25.03-23.85 0-13.16 11.2-23.85 25.03-23.85 13.82 0 25.03 10.7 25.03 23.85z" fill="#d58862"/><path d="M253.5 518.04h28.96l2.6 4.34 9.82-.87 3.77 3.67 3.43.73 20.04-2.47v5.5l-6.1 9.37H253.5v-20.26zM220 522.68h24.1v6.22H220v-6.22z" fill="#d58862"/><path d="M270.06 522.68c0 13.16-11.2 23.84-25.03 23.84-13.82 0-25.03-10.68-25.03-23.84 0-13.17 11.2-23.85 25.03-23.85 13.82 0 25.03 10.68 25.03 23.85z" fill="#ffc374"/><path d="M240.6 522.67c0 3.44-2.92 6.23-6.53 6.23-3.6 0-6.53-2.8-6.53-6.23 0-3.43 2.93-6.22 6.53-6.22s6.54 2.8 6.54 6.22z" fill="#fff"/><path d="M253.5 512.55h28.96l2.6 4.33 9.82-.85 3.77 3.65 3.43.73 8.92-5.08 11.12 8.1-6.1 9.38H253.5v-20.25z" fill="#ffc374"/><use xlink:href="#x" transform="matrix(1,0,0,1,220,552.02331739125) translate(26.166666666666675 14.222222222222218)"/><use xlink:href="#q" transform="matrix(1,0,0,1,220,552.02331739125) translate(9.57407407407409 37.68888888888888)"/><use xlink:href="#w" transform="matrix(1,0,0,1,220,552.02331739125) translate(62.80864197530864 37.68888888888888)"/></g><path d="M624.38 414.2H521v-2h103.38zm297.12 0h-85.88v-2h85.88z" fill="#303030"/><path d="M521.03 414.2H520v-2h1.03zM936.76 413.2l-14.26 4.63v-9.27z" fill="#303030"/><path d="M940 413.2l-18.5 6V407.2zm-16.5 3.25l10.03-3.26-10.03-3.27z" fill="#303030"/><use xlink:href="#B" transform="matrix(1,0,0,1,624.375,402.3935882352941) translate(0 14.4)"/><use xlink:href="#C" transform="matrix(1,0,0,1,624.375,402.3935882352941) translate(5 14.4)"/><use xlink:href="#D" transform="matrix(1,0,0,1,624.375,402.3935882352941) translate(76.95 14.4)"/><use xlink:href="#E" transform="matrix(1,0,0,1,624.375,402.3935882352941) translate(126.35 14.4)"/><use xlink:href="#F" transform="matrix(1,0,0,1,624.375,402.3935882352941) translate(180.25 14.4)"/><path d="M1099.66 439.4h17.3c1.66 0 3-1.33 3-3v-56.8c0-1.66 1.35-3 3-3h17.3" stroke="#303030" stroke-width="2" fill="none"/><path d="M1099.68 440.4h-1.02v-2h1.02zM1141.55 377.6h-1.3v-2h.74z" fill="#303030"/><path d="M1191.06 511.55V483c0-1.66-1.34-3-3-3h-64.4c-1.66 0-3-1.34-3-3v-34.6c0-1.64-1.34-3-3-3h-18" stroke="#303030" stroke-width="2" fill="none"/><path d="M1190.06 512.55v-1.03h2v1.03zM1099.68 440.4h-1.02v-2h1.02z" fill="#303030"/><path d="M1139.1 529.47H1123c-1.66 0-3 1.34-3 3v31.93c0 1.66-1.34 3-3 3H941" stroke="#303030" stroke-width="2" fill="none"/><path d="M1140 528.9h.06l.14 1.57h-1.1v-2h.9z" fill="#303030"/><path d="M941.03 567.4H940" stroke="#303030" stroke-width="2" fill="none"/><path d="M628.58 569.55H538.5v-2h90.08zm310.42 0H831.42v-2H939zM537.5 573.2l-14.26-4.65 14.26-4.63z" fill="#303030"/><path d="M538.5 574.56l-18.5-6 18.5-6.02zm-12.03-6l10.03 3.25v-6.5zM940 569.55h-1.03v-2H940z" fill="#303030"/><use xlink:href="#G" transform="matrix(1,0,0,1,628.575,557.7522039510922) translate(0 14.4)"/><use xlink:href="#H" transform="matrix(1,0,0,1,628.575,557.7522039510922) translate(37 14.4)"/><use xlink:href="#I" transform="matrix(1,0,0,1,628.575,557.7522039510922) translate(90 14.4)"/><use xlink:href="#E" transform="matrix(1,0,0,1,628.575,557.7522039510922) translate(117.95 14.4)"/><use xlink:href="#F" transform="matrix(1,0,0,1,628.575,557.7522039510922) translate(171.85000000000002 14.4)"/><path d="M341.46 686.4c0-1.65 1.35-3 3-3h154c1.66 0 3 1.35 3 3v117c-26.72-20.04-43.36-20.04-53.44-20.04-16 0-37.28 20.04-53.28 20.04-9.92 0-26.72 0-53.28-20.04z" fill="#e5e5e5"/><use xlink:href="#J" transform="matrix(1,0,0,1,346.4636530117013,688.403205882353) translate(1.5749999999999886 37.8)"/><use xlink:href="#K" transform="matrix(1,0,0,1,346.4636530117013,688.403205882353) translate(75.475 37.8)"/><use xlink:href="#L" transform="matrix(1,0,0,1,346.4636530117013,688.403205882353) translate(46.025 59.4)"/><use xlink:href="#M" transform="matrix(1,0,0,1,346.4636530117013,688.403205882353) translate(71.975 59.4)"/><g filter="url(#t)"><path d="M250.06 736.15c0 13.16-11.2 23.84-25.03 23.84-13.82 0-25.03-10.7-25.03-23.85 0-13.17 11.2-23.85 25.03-23.85 13.82 0 25.03 10.68 25.03 23.85z" fill="#307f95"/><path d="M233.5 726.02h28.96l2.6 4.33 9.82-.87 3.77 3.67 3.43.73 20.04-2.47v5.5l-6.1 9.38H233.5v-20.26zM200 730.65h24.1v6.23H200v-6.23z" fill="#307f95"/><path d="M250.06 730.65c0 13.17-11.2 23.85-25.03 23.85-13.82 0-25.03-10.68-25.03-23.85 0-13.16 11.2-23.84 25.03-23.84 13.82 0 25.03 10.7 25.03 23.85z" fill="#5abaa7"/><path d="M220.6 730.65c0 3.44-2.92 6.23-6.53 6.23-3.6 0-6.53-2.8-6.53-6.23 0-3.44 2.93-6.23 6.53-6.23s6.54 2.8 6.54 6.23z" fill="#fff"/><path d="M233.5 720.53h28.96l2.6 4.33 9.82-.85 3.77 3.66 3.43.72 8.92-5.08 11.12 8.1-6.1 9.38H233.5v-20.25z" fill="#5abaa7"/><use xlink:href="#u" transform="matrix(1,0,0,1,200,760) translate(2.9567901234568126 14.222222222222218)"/><use xlink:href="#v" transform="matrix(1,0,0,1,200,760) translate(51.74691358024692 14.222222222222218)"/><use xlink:href="#w" transform="matrix(1,0,0,1,200,760) translate(36.19135802469137 37.68888888888888)"/></g><path d="M421.46 664.9v-40.98c0-1.66 1.35-3 3-3H519" stroke="#303030" stroke-width="2" fill="none"/><path d="M421.46 680.17l-4.63-14.27h9.27z" stroke="#303030" stroke-width="2" fill="#303030"/><path d="M518.97 620.92H520" stroke="#303030" stroke-width="2" fill="none"/><path d="M281.37 651h-27.1l-1.56.64-.63 1.56v48.82h-2V652.8l1.1-2.7 2.7-1.1h27.5zM519 569.2H383.2l-1.56.64-.64 1.55v75.8l-1.1 2.7-2.7 1.1h-52.88v-2h52.48l1.56-.64.64-1.56V571l1.1-2.7 2.7-1.1H519zM251.07 717.3L246.43 703h9.27z" fill="#303030"/><path d="M251.07 720.53l-6.02-18.5h12.03zm-3.26-16.5l3.27 10.02 3.25-10.03zM520 569.2h-1.03v-2H520z" fill="#303030"/><use xlink:href="#N" transform="matrix(1,0,0,1,281.3667868131646,639.2) translate(0 14.4)"/><path d="M200.27 743.4h-36c-1.66 0-3 1.35-3 3v176.64c0 1.66 1.34 3 3 3h84.24" stroke="#303030" stroke-width="2" fill="none"/><path d="M201.55 744.4h-1.3v-2h.74z" fill="#303030"/><path d="M263.78 926.04l-14.27 4.64v-9.28z" stroke="#303030" stroke-width="2" fill="#303030"/><path d="M340.46 743.4h-24.14c-1.66 0-3 1.35-3 3v75.1" stroke="#303030" stroke-width="2" fill="none"/><path d="M341.46 744.4h-1.02v-2h1.02z" fill="#303030"/><path d="M313.32 836.76l-4.63-14.26h9.26z" stroke="#303030" stroke-width="2" fill="#303030"/><path d="M361 927.6h158" stroke="#303030" stroke-width="2" fill="none"/><path d="M361.03 928.6H360v-2h1.03z" fill="#303030"/><path d="M518.97 927.6H520" stroke="#303030" stroke-width="2" fill="none"/><path d="M599.6 928.88H521v-2h78.6zm321.9 0h-111v-2h111z" fill="#303030"/><path d="M521.03 928.88H520v-2h1.03zM936.76 927.88l-14.26 4.64v-9.27z" fill="#303030"/><path d="M940 927.88l-18.5 6v-12zm-16.5 3.26l10.03-3.26-10.03-3.26z" fill="#303030"/><g><use xlink:href="#B" transform="matrix(1,0,0,1,599.5990718270666,917.0812744152477) translate(0 14.4)"/><use xlink:href="#O" transform="matrix(1,0,0,1,599.5990718270666,917.0812744152477) translate(5 14.4)"/><use xlink:href="#P" transform="matrix(1,0,0,1,599.5990718270666,917.0812744152477) translate(52 14.4)"/><use xlink:href="#Q" transform="matrix(1,0,0,1,599.5990718270666,917.0812744152477) translate(137.95 14.4)"/></g><path d="M353.96 887.28h-6.14V876c0-23.76-15.16-36-32.82-36h-2.9c-18.03 0-32.9 11.88-32.9 36v11.28h-6.05c-2.6 0-6.13 3.48-6.13 6.12v60.48c0 2.64 3.53 6.12 6.13 6.12h80.7c2.62 0 6.15-3.48 6.15-6.12V893.4c-.28-2.64-3.8-6.12-6.04-6.12zm-36.08 35.76v25.08h-9.02v-25.08c-3.54-1.68-6.14-5.16-6.14-9.36 0-5.76 4.93-10.56 10.6-10.56 5.86 0 10.7 4.8 10.7 10.56 0 3.84-2.6 7.32-6.14 9.36zm18.7-35.76h-46.04V876c0-15.12 8-25.44 21.57-25.44h2.9c13.85 0 21.57 10.32 21.57 25.44v11.28z" stroke="#000" stroke-opacity="0" fill="#2a3282"/><g><use xlink:href="#R" transform="matrix(1,0,0,1,237.015,969) translate(16.14999999999999 14.4)"/><use xlink:href="#S" transform="matrix(1,0,0,1,237.015,969) translate(7.049999999999997 36)"/><use xlink:href="#T" transform="matrix(1,0,0,1,237.015,969) translate(73 36)"/></g><path d="M1103.83 890.4h-5.9v-15.72c0-22.92-14.57-34.68-31.55-34.68h-2.77c-17.33 0-31.54 11.52-31.54 34.68v.84h11.1v-.84c0-14.64 7.76-24.48 20.72-24.48h2.77c13.32 0 20.73 9.96 20.73 24.48v15.36h-61.47c-2.5 0-5.9 3.48-5.9 5.88v58.2c0 2.52 3.4 5.88 5.9 5.88h77.57c2.5 0 5.9-3.36 5.9-5.88v-58.08c0-2.52-3.4-5.64-5.54-5.64zm-34.68 34.08v24.12h-8.67v-24.12c-3.4-1.56-5.8-4.92-5.8-9 0-5.64 4.64-10.2 10.18-10.2s10.2 4.68 10.2 10.2c0 4.08-2.5 7.44-5.9 9z" stroke="#000" stroke-opacity="0" fill="#2a3282"/><g><use xlink:href="#U" transform="matrix(1,0,0,1,990,969) translate(1.375 14.4)"/><use xlink:href="#V" transform="matrix(1,0,0,1,990,969) translate(43.325 14.4)"/><use xlink:href="#W" transform="matrix(1,0,0,1,990,969) translate(92.725 14.4)"/><use xlink:href="#X" transform="matrix(1,0,0,1,990,969) translate(7.074999999999989 36)"/><use xlink:href="#Y" transform="matrix(1,0,0,1,990,969) translate(43.07499999999999 36)"/><use xlink:href="#Z" transform="matrix(1,0,0,1,990,969) translate(81.02499999999999 36)"/></g><path d="M1001.5 927.6H941" stroke="#303030" stroke-width="2" fill="none"/><path d="M1016.76 927.6l-14.26 4.64v-9.28z" stroke="#303030" stroke-width="2" fill="#303030"/><path d="M941.03 927.6H940M1242.78 370.62h36c1.65 0 3 1.34 3 3V797c0 1.66-1.35 3-3 3h-210.2c-1.66 0-3 1.34-3 3v18.5" stroke="#303030" stroke-width="2" fill="none"/><path d="M1242.8 371.62h-1.67l1-1.53v-.48h.67z" fill="#303030"/><path d="M1065.58 836.76l-4.64-14.26h9.27z" stroke="#303030" stroke-width="2" fill="#303030"/><defs><path fill="#303030" d="M205 0l-28-72H64L36 0H1l101-248h38L239 0h-34zm-38-99l-47-123c-12 45-31 82-46 123h93" id="aa"/><path fill="#303030" d="M24 0v-261h32V0H24" id="ab"/><path fill="#303030" d="M24-231v-30h32v30H24zM24 0v-190h32V0H24" id="ac"/><path fill="#303030" d="M96-169c-40 0-48 33-48 73s9 75 48 75c24 0 41-14 43-38l32 2c-6 37-31 61-74 61-59 0-76-41-82-99-10-93 101-131 147-64 4 7 5 14 7 22l-32 3c-4-21-16-35-41-35" id="ad"/><path fill="#303030" d="M100-194c63 0 86 42 84 106H49c0 40 14 67 53 68 26 1 43-12 49-29l28 8c-11 28-37 45-77 45C44 4 14-33 15-96c1-61 26-98 85-98zm52 81c6-60-76-77-97-28-3 7-6 17-6 28h103" id="ae"/><g id="a"><use transform="matrix(0.05,0,0,0.05,0,0)" xlink:href="#aa"/><use transform="matrix(0.05,0,0,0.05,12,0)" xlink:href="#ab"/><use transform="matrix(0.05,0,0,0.05,15.949999999999998,0)" xlink:href="#ac"/><use transform="matrix(0.05,0,0,0.05,19.9,0)" xlink:href="#ad"/><use transform="matrix(0.05,0,0,0.05,28.899999999999995,0)" xlink:href="#ae"/></g><path fill="#303030" d="M206 0h-36l-40-164L89 0H53L-1-190h32L70-26l43-164h34l41 164 42-164h31" id="af"/><path fill="#303030" d="M141-36C126-15 110 5 73 4 37 3 15-17 15-53c-1-64 63-63 125-63 3-35-9-54-41-54-24 1-41 7-42 31l-33-3c5-37 33-52 76-52 45 0 72 20 72 64v82c-1 20 7 32 28 27v20c-31 9-61-2-59-35zM48-53c0 20 12 33 32 33 41-3 63-29 60-74-43 2-92-5-92 41" id="ag"/><path fill="#303030" d="M117-194c89-4 53 116 60 194h-32v-121c0-31-8-49-39-48C34-167 62-67 57 0H25l-1-190h30c1 10-1 24 2 32 11-22 29-35 61-36" id="ah"/><path fill="#303030" d="M59-47c-2 24 18 29 38 22v24C64 9 27 4 27-40v-127H5v-23h24l9-43h21v43h35v23H59v120" id="ai"/><path fill="#303030" d="M135-143c-3-34-86-38-87 0 15 53 115 12 119 90S17 21 10-45l28-5c4 36 97 45 98 0-10-56-113-15-118-90-4-57 82-63 122-42 12 7 21 19 24 35" id="aj"/><g id="b"><use transform="matrix(0.05,0,0,0.05,0,0)" xlink:href="#af"/><use transform="matrix(0.05,0,0,0.05,12.950000000000001,0)" xlink:href="#ag"/><use transform="matrix(0.05,0,0,0.05,22.950000000000003,0)" xlink:href="#ah"/><use transform="matrix(0.05,0,0,0.05,32.95,0)" xlink:href="#ai"/><use transform="matrix(0.05,0,0,0.05,37.95,0)" xlink:href="#aj"/></g><path fill="#303030" d="M100-194c62-1 85 37 85 99 1 63-27 99-86 99S16-35 15-95c0-66 28-99 85-99zM99-20c44 1 53-31 53-75 0-43-8-75-51-75s-53 32-53 75 10 74 51 75" id="ak"/><g id="c"><use transform="matrix(0.05,0,0,0.05,0,0)" xlink:href="#ai"/><use transform="matrix(0.05,0,0,0.05,5,0)" xlink:href="#ak"/></g><path fill="#303030" d="M106-169C34-169 62-67 57 0H25v-261h32l-1 103c12-21 28-36 61-36 89 0 53 116 60 194h-32v-121c2-32-8-49-39-48" id="al"/><path fill="#303030" d="M114-163C36-179 61-72 57 0H25l-1-190h30c1 12-1 29 2 39 6-27 23-49 58-41v29" id="am"/><g id="d"><use transform="matrix(0.05,0,0,0.05,0,0)" xlink:href="#aj"/><use transform="matrix(0.05,0,0,0.05,9,0)" xlink:href="#al"/><use transform="matrix(0.05,0,0,0.05,19,0)" xlink:href="#ag"/><use transform="matrix(0.05,0,0,0.05,29,0)" xlink:href="#am"/><use transform="matrix(0.05,0,0,0.05,34.95,0)" xlink:href="#ae"/></g><use transform="matrix(0.05,0,0,0.05,0,0)" xlink:href="#ag" id="e"/><path fill="#303030" d="M101-234c-31-9-42 10-38 44h38v23H63V0H32v-167H5v-23h27c-7-52 17-82 69-68v24" id="an"/><path fill="#303030" d="M85-194c31 0 48 13 60 33l-1-100h32l1 261h-30c-2-10 0-23-3-31C134-8 116 4 85 4 32 4 16-35 15-94c0-66 23-100 70-100zm9 24c-40 0-46 34-46 75 0 40 6 74 45 74 42 0 51-32 51-76 0-42-9-74-50-73" id="ao"/><g id="f"><use transform="matrix(0.05,0,0,0.05,0,0)" xlink:href="#ad"/><use transform="matrix(0.05,0,0,0.05,9,0)" xlink:href="#ak"/><use transform="matrix(0.05,0,0,0.05,19,0)" xlink:href="#ah"/><use transform="matrix(0.05,0,0,0.05,29,0)" xlink:href="#an"/><use transform="matrix(0.05,0,0,0.05,34,0)" xlink:href="#ac"/><use transform="matrix(0.05,0,0,0.05,37.95,0)" xlink:href="#ao"/><use transform="matrix(0.05,0,0,0.05,47.95,0)" xlink:href="#ae"/><use transform="matrix(0.05,0,0,0.05,57.95,0)" xlink:href="#ah"/><use transform="matrix(0.05,0,0,0.05,67.95,0)" xlink:href="#ai"/><use transform="matrix(0.05,0,0,0.05,72.95,0)" xlink:href="#ac"/><use transform="matrix(0.05,0,0,0.05,76.9,0)" xlink:href="#ag"/><use transform="matrix(0.05,0,0,0.05,86.9,0)" xlink:href="#ab"/></g><path fill="#303030" d="M210-169c-67 3-38 105-44 169h-31v-121c0-29-5-50-35-48C34-165 62-65 56 0H25l-1-190h30c1 10-1 24 2 32 10-44 99-50 107 0 11-21 27-35 58-36 85-2 47 119 55 194h-31v-121c0-29-5-49-35-48" id="ap"/><path fill="#303030" d="M177-190C167-65 218 103 67 71c-23-6-38-20-44-43l32-5c15 47 100 32 89-28v-30C133-14 115 1 83 1 29 1 15-40 15-95c0-56 16-97 71-98 29-1 48 16 59 35 1-10 0-23 2-32h30zM94-22c36 0 50-32 50-73 0-42-14-75-50-75-39 0-46 34-46 75s6 73 46 73" id="aq"/><g id="g"><use transform="matrix(0.05,0,0,0.05,0,0)" xlink:href="#ap"/><use transform="matrix(0.05,0,0,0.05,14.950000000000001,0)" xlink:href="#ae"/><use transform="matrix(0.05,0,0,0.05,24.950000000000003,0)" xlink:href="#aj"/><use transform="matrix(0.05,0,0,0.05,33.95,0)" xlink:href="#aj"/><use transform="matrix(0.05,0,0,0.05,42.95,0)" xlink:href="#ag"/><use transform="matrix(0.05,0,0,0.05,52.95,0)" xlink:href="#aq"/><use transform="matrix(0.05,0,0,0.05,62.95,0)" xlink:href="#ae"/></g><g id="h"><use transform="matrix(0.05,0,0,0.05,0,0)" xlink:href="#af"/><use transform="matrix(0.05,0,0,0.05,12.950000000000001,0)" xlink:href="#ac"/><use transform="matrix(0.05,0,0,0.05,16.900000000000002,0)" xlink:href="#ai"/><use transform="matrix(0.05,0,0,0.05,21.900000000000002,0)" xlink:href="#al"/></g><path fill="#303030" d="M160-131c35 5 61 23 61 61C221 17 115-2 30 0v-248c76 3 177-17 177 60 0 33-19 50-47 57zm-97-11c50-1 110 9 110-42 0-47-63-36-110-37v79zm0 115c55-2 124 14 124-45 0-56-70-42-124-44v89" id="ar"/><path fill="#303030" d="M115-194c53 0 69 39 70 98 0 66-23 100-70 100C84 3 66-7 56-30L54 0H23l1-261h32v101c10-23 28-34 59-34zm-8 174c40 0 45-34 45-75 0-40-5-75-45-74-42 0-51 32-51 76 0 43 10 73 51 73" id="as"/><path fill="#303030" d="M68-38c1 34 0 65-14 84H32c9-13 17-26 17-46H33v-38h35" id="at"/><g id="i"><use transform="matrix(0.05,0,0,0.05,0,0)" xlink:href="#ar"/><use transform="matrix(0.05,0,0,0.05,12,0)" xlink:href="#ak"/><use transform="matrix(0.05,0,0,0.05,22,0)" xlink:href="#as"/><use transform="matrix(0.05,0,0,0.05,32,0)" xlink:href="#at"/></g><g id="j"><use transform="matrix(0.05,0,0,0.05,0,0)" xlink:href="#ag"/><use transform="matrix(0.05,0,0,0.05,10,0)" xlink:href="#ah"/><use transform="matrix(0.05,0,0,0.05,20,0)" xlink:href="#ao"/></g><path fill="#303030" d="M179-190L93 31C79 59 56 82 12 73V49c39 6 53-20 64-50L1-190h34L92-34l54-156h33" id="au"/><g id="k"><use transform="matrix(0.05,0,0,0.05,0,0)" xlink:href="#ak"/><use transform="matrix(0.05,0,0,0.05,10,0)" xlink:href="#ah"/><use transform="matrix(0.05,0,0,0.05,20,0)" xlink:href="#ab"/><use transform="matrix(0.05,0,0,0.05,23.95,0)" xlink:href="#au"/></g><path fill="#303030" d="M33 0v-38h34V0H33" id="av"/><g id="l"><use transform="matrix(0.05,0,0,0.05,0,0)" xlink:href="#ar"/><use transform="matrix(0.05,0,0,0.05,12,0)" xlink:href="#ak"/><use transform="matrix(0.05,0,0,0.05,22,0)" xlink:href="#as"/><use transform="matrix(0.05,0,0,0.05,32,0)" xlink:href="#av"/></g><path d="M143 4C61 4 22-44 18-125c-5-107 100-154 193-111 17 8 29 25 37 43l-32 9c-13-25-37-40-76-40-61 0-88 39-88 99 0 61 29 100 91 101 35 0 62-11 79-27v-45h-74v-28h105v86C228-13 192 4 143 4" id="aw"/><path d="M100-194c63 0 86 42 84 106H49c0 40 14 67 53 68 26 1 43-12 49-29l28 8c-11 28-37 45-77 45C44 4 14-33 15-96c1-61 26-98 85-98zm52 81c6-60-76-77-97-28-3 7-6 17-6 28h103" id="ax"/><path d="M117-194c89-4 53 116 60 194h-32v-121c0-31-8-49-39-48C34-167 62-67 57 0H25l-1-190h30c1 10-1 24 2 32 11-22 29-35 61-36" id="ay"/><path d="M114-163C36-179 61-72 57 0H25l-1-190h30c1 12-1 29 2 39 6-27 23-49 58-41v29" id="az"/><path d="M141-36C126-15 110 5 73 4 37 3 15-17 15-53c-1-64 63-63 125-63 3-35-9-54-41-54-24 1-41 7-42 31l-33-3c5-37 33-52 76-52 45 0 72 20 72 64v82c-1 20 7 32 28 27v20c-31 9-61-2-59-35zM48-53c0 20 12 33 32 33 41-3 63-29 60-74-43 2-92-5-92 41" id="aA"/><path d="M59-47c-2 24 18 29 38 22v24C64 9 27 4 27-40v-127H5v-23h24l9-43h21v43h35v23H59v120" id="aB"/><g id="n"><use transform="matrix(0.0493827160493827,0,0,0.0493827160493827,0,0)" xlink:href="#aw"/><use transform="matrix(0.0493827160493827,0,0,0.0493827160493827,13.827160493827156,0)" xlink:href="#ax"/><use transform="matrix(0.0493827160493827,0,0,0.0493827160493827,23.703703703703695,0)" xlink:href="#ay"/><use transform="matrix(0.0493827160493827,0,0,0.0493827160493827,33.58024691358023,0)" xlink:href="#ax"/><use transform="matrix(0.0493827160493827,0,0,0.0493827160493827,43.45679012345677,0)" xlink:href="#az"/><use transform="matrix(0.0493827160493827,0,0,0.0493827160493827,49.333333333333314,0)" xlink:href="#aA"/><use transform="matrix(0.0493827160493827,0,0,0.0493827160493827,59.20987654320986,0)" xlink:href="#aB"/><use transform="matrix(0.0493827160493827,0,0,0.0493827160493827,64.14814814814812,0)" xlink:href="#ax"/></g><path d="M30-248c87 1 191-15 191 75 0 78-77 80-158 76V0H30v-248zm33 125c57 0 124 11 124-50 0-59-68-47-124-48v98" id="aC"/><path d="M24-231v-30h32v30H24zM24 0v-190h32V0H24" id="aD"/><path d="M108 0H70L1-190h34L89-25l56-165h34" id="aE"/><g id="o"><use transform="matrix(0.0493827160493827,0,0,0.0493827160493827,0,0)" xlink:href="#aC"/><use transform="matrix(0.0493827160493827,0,0,0.0493827160493827,11.851851851851848,0)" xlink:href="#az"/><use transform="matrix(0.0493827160493827,0,0,0.0493827160493827,17.72839506172839,0)" xlink:href="#aD"/><use transform="matrix(0.0493827160493827,0,0,0.0493827160493827,21.629629629629623,0)" xlink:href="#aE"/><use transform="matrix(0.0493827160493827,0,0,0.0493827160493827,30.51851851851851,0)" xlink:href="#aA"/><use transform="matrix(0.0493827160493827,0,0,0.0493827160493827,40.39506172839505,0)" xlink:href="#aB"/><use transform="matrix(0.0493827160493827,0,0,0.0493827160493827,45.33333333333332,0)" xlink:href="#ax"/></g><path d="M85-194c31 0 48 13 60 33l-1-100h32l1 261h-30c-2-10 0-23-3-31C134-8 116 4 85 4 32 4 16-35 15-94c0-66 23-100 70-100zm9 24c-40 0-46 34-46 75 0 40 6 74 45 74 42 0 51-32 51-76 0-42-9-74-50-73" id="aF"/><g id="p"><use transform="matrix(0.0493827160493827,0,0,0.0493827160493827,0,0)" xlink:href="#aA"/><use transform="matrix(0.0493827160493827,0,0,0.0493827160493827,9.876543209876539,0)" xlink:href="#ay"/><use transform="matrix(0.0493827160493827,0,0,0.0493827160493827,19.753086419753078,0)" xlink:href="#aF"/></g><path d="M84 4C-5 8 30-112 23-190h32v120c0 31 7 50 39 49 72-2 45-101 50-169h31l1 190h-30c-1-10 1-25-2-33-11 22-28 36-60 37" id="aG"/><path d="M115-194c53 0 69 39 70 98 0 66-23 100-70 100C84 3 66-7 56-30L54 0H23l1-261h32v101c10-23 28-34 59-34zm-8 174c40 0 45-34 45-75 0-40-5-75-45-74-42 0-51 32-51 76 0 43 10 73 51 73" id="aH"/><path d="M24 0v-261h32V0H24" id="aI"/><path d="M96-169c-40 0-48 33-48 73s9 75 48 75c24 0 41-14 43-38l32 2c-6 37-31 61-74 61-59 0-76-41-82-99-10-93 101-131 147-64 4 7 5 14 7 22l-32 3c-4-21-16-35-41-35" id="aJ"/><g id="q"><use transform="matrix(0.0493827160493827,0,0,0.0493827160493827,0,0)" xlink:href="#aC"/><use transform="matrix(0.0493827160493827,0,0,0.0493827160493827,11.851851851851848,0)" xlink:href="#aG"/><use transform="matrix(0.0493827160493827,0,0,0.0493827160493827,21.728395061728385,0)" xlink:href="#aH"/><use transform="matrix(0.0493827160493827,0,0,0.0493827160493827,31.604938271604922,0)" xlink:href="#aI"/><use transform="matrix(0.0493827160493827,0,0,0.0493827160493827,35.506172839506156,0)" xlink:href="#aD"/><use transform="matrix(0.0493827160493827,0,0,0.0493827160493827,39.40740740740739,0)" xlink:href="#aJ"/></g><path d="M194 0L95-120 63-95V0H30v-248h33v124l119-124h40L117-140 236 0h-42" id="aK"/><path d="M179-190L93 31C79 59 56 82 12 73V49c39 6 53-20 64-50L1-190h34L92-34l54-156h33" id="aL"/><g id="r"><use transform="matrix(0.0493827160493827,0,0,0.0493827160493827,0,0)" xlink:href="#aK"/><use transform="matrix(0.0493827160493827,0,0,0.0493827160493827,11.851851851851848,0)" xlink:href="#ax"/><use transform="matrix(0.0493827160493827,0,0,0.0493827160493827,21.728395061728385,0)" xlink:href="#aL"/></g><g id="s"><use transform="matrix(0.0493827160493827,0,0,0.0493827160493827,0,0)" xlink:href="#aC"/><use transform="matrix(0.0493827160493827,0,0,0.0493827160493827,11.851851851851848,0)" xlink:href="#aA"/><use transform="matrix(0.0493827160493827,0,0,0.0493827160493827,21.728395061728385,0)" xlink:href="#aD"/><use transform="matrix(0.0493827160493827,0,0,0.0493827160493827,25.629629629629623,0)" xlink:href="#az"/></g><filter id="m" filterUnits="objectBoundingBox" x="-.08" y="-.03" width="1.16" height="1.17"><feOffset result="offOut" in="SourceAlpha" dy="6"/><feGaussianBlur result="blurOut" in="offOut" stdDeviation="5"/><feColorMatrix result="colorOut" in="blurOut" values="0 0 0 0 0 0 0 0 0 0 0 0 0 0 0 0 0 0 0.16862745098039217 0"/><feBlend in="SourceGraphic" in2="colorOut"/></filter><path d="M160-131c35 5 61 23 61 61C221 17 115-2 30 0v-248c76 3 177-17 177 60 0 33-19 50-47 57zm-97-11c50-1 110 9 110-42 0-47-63-36-110-37v79zm0 115c55-2 124 14 124-45 0-56-70-42-124-44v89" id="aM"/><path d="M100-194c62-1 85 37 85 99 1 63-27 99-86 99S16-35 15-95c0-66 28-99 85-99zM99-20c44 1 53-31 53-75 0-43-8-75-51-75s-53 32-53 75 10 74 51 75" id="aN"/><path d="M47-170H22l-4-78h33" id="aO"/><path d="M135-143c-3-34-86-38-87 0 15 53 115 12 119 90S17 21 10-45l28-5c4 36 97 45 98 0-10-56-113-15-118-90-4-57 82-63 122-42 12 7 21 19 24 35" id="aP"/><g id="u"><use transform="matrix(0.0493827160493827,0,0,0.0493827160493827,0,0)" xlink:href="#aM"/><use transform="matrix(0.0493827160493827,0,0,0.0493827160493827,11.851851851851848,0)" xlink:href="#aN"/><use transform="matrix(0.0493827160493827,0,0,0.0493827160493827,21.728395061728385,0)" xlink:href="#aH"/><use transform="matrix(0.0493827160493827,0,0,0.0493827160493827,31.604938271604922,0)" xlink:href="#aO"/><use transform="matrix(0.0493827160493827,0,0,0.0493827160493827,34.96296296296295,0)" xlink:href="#aP"/></g><g id="v"><use transform="matrix(0.0493827160493827,0,0,0.0493827160493827,0,0)" xlink:href="#aC"/><use transform="matrix(0.0493827160493827,0,0,0.0493827160493827,11.851851851851848,0)" xlink:href="#aG"/><use transform="matrix(0.0493827160493827,0,0,0.0493827160493827,21.728395061728385,0)" xlink:href="#aH"/><use transform="matrix(0.0493827160493827,0,0,0.0493827160493827,31.604938271604922,0)" xlink:href="#aI"/><use transform="matrix(0.0493827160493827,0,0,0.0493827160493827,35.506172839506156,0)" xlink:href="#aD"/><use transform="matrix(0.0493827160493827,0,0,0.0493827160493827,39.40740740740739,0)" xlink:href="#aJ"/></g><g id="w"><use transform="matrix(0.0493827160493827,0,0,0.0493827160493827,0,0)" xlink:href="#aK"/><use transform="matrix(0.0493827160493827,0,0,0.0493827160493827,11.851851851851848,0)" xlink:href="#ax"/><use transform="matrix(0.0493827160493827,0,0,0.0493827160493827,21.728395061728385,0)" xlink:href="#aL"/></g><filter id="t" filterUnits="objectBoundingBox" x="-.1" y="-.05" width="1.2" height="1.27"><feOffset result="offOut" in="SourceAlpha" dy="6"/><feGaussianBlur result="blurOut" in="offOut" stdDeviation="5"/><feColorMatrix result="colorOut" in="blurOut" values="0 0 0 0 0 0 0 0 0 0 0 0 0 0 0 0 0 0 0.16862745098039217 0"/><feBlend in="SourceGraphic" in2="colorOut"/></filter><path d="M205 0l-28-72H64L36 0H1l101-248h38L239 0h-34zm-38-99l-47-123c-12 45-31 82-46 123h93" id="aQ"/><g id="x"><use transform="matrix(0.0493827160493827,0,0,0.0493827160493827,0,0)" xlink:href="#aQ"/><use transform="matrix(0.0493827160493827,0,0,0.0493827160493827,11.851851851851848,0)" xlink:href="#aI"/><use transform="matrix(0.0493827160493827,0,0,0.0493827160493827,15.753086419753082,0)" xlink:href="#aD"/><use transform="matrix(0.0493827160493827,0,0,0.0493827160493827,19.654320987654316,0)" xlink:href="#aJ"/><use transform="matrix(0.0493827160493827,0,0,0.0493827160493827,28.5432098765432,0)" xlink:href="#ax"/><use transform="matrix(0.0493827160493827,0,0,0.0493827160493827,38.41975308641974,0)" xlink:href="#aO"/><use transform="matrix(0.0493827160493827,0,0,0.0493827160493827,41.777777777777764,0)" xlink:href="#aP"/></g><g id="y"><use transform="matrix(0.0493827160493827,0,0,0.0493827160493827,0,0)" xlink:href="#aM"/><use transform="matrix(0.0493827160493827,0,0,0.0493827160493827,11.851851851851848,0)" xlink:href="#aN"/><use transform="matrix(0.0493827160493827,0,0,0.0493827160493827,21.728395061728385,0)" xlink:href="#aH"/><use transform="matrix(0.0493827160493827,0,0,0.0493827160493827,31.604938271604922,0)" xlink:href="#aO"/><use transform="matrix(0.0493827160493827,0,0,0.0493827160493827,34.96296296296295,0)" xlink:href="#aP"/></g><g id="z"><use transform="matrix(0.05,0,0,0.05,0,0)" xlink:href="#aa"/><use transform="matrix(0.05,0,0,0.05,12,0)" xlink:href="#ab"/><use transform="matrix(0.05,0,0,0.05,15.949999999999998,0)" xlink:href="#ac"/><use transform="matrix(0.05,0,0,0.05,19.9,0)" xlink:href="#ad"/><use transform="matrix(0.05,0,0,0.05,28.899999999999995,0)" xlink:href="#ae"/></g><g id="A"><use transform="matrix(0.05,0,0,0.05,0,0)" xlink:href="#ar"/><use transform="matrix(0.05,0,0,0.05,12,0)" xlink:href="#ak"/><use transform="matrix(0.05,0,0,0.05,22,0)" xlink:href="#as"/></g><path fill="#303030" d="M233-177c-1 41-23 64-60 70L243 0h-38l-65-103H63V0H30v-248c88 3 205-21 203 71zM63-129c60-2 137 13 137-47 0-61-80-42-137-45v92" id="aR"/><path fill="#303030" d="M145-31C134-9 116 4 85 4 32 4 16-35 15-94c0-59 17-99 70-100 32-1 48 14 60 33 0-11-1-24 2-32h30l-1 268h-32zM93-21c41 0 51-33 51-76s-8-73-50-73c-40 0-46 35-46 75s5 74 45 74" id="aS"/><path fill="#303030" d="M84 4C-5 8 30-112 23-190h32v120c0 31 7 50 39 49 72-2 45-101 50-169h31l1 190h-30c-1-10 1-25-2-33-11 22-28 36-60 37" id="aT"/><g id="C"><use transform="matrix(0.05,0,0,0.05,0,0)" xlink:href="#aR"/><use transform="matrix(0.05,0,0,0.05,12.950000000000001,0)" xlink:href="#ae"/><use transform="matrix(0.05,0,0,0.05,22.950000000000003,0)" xlink:href="#aS"/><use transform="matrix(0.05,0,0,0.05,32.95,0)" xlink:href="#aT"/><use transform="matrix(0.05,0,0,0.05,42.95,0)" xlink:href="#ae"/><use transform="matrix(0.05,0,0,0.05,52.95,0)" xlink:href="#aj"/><use transform="matrix(0.05,0,0,0.05,61.95,0)" xlink:href="#ai"/></g><path fill="#303030" d="M47-170H22l-4-78h33" id="aU"/><g id="D"><use transform="matrix(0.05,0,0,0.05,0,0)" xlink:href="#ar"/><use transform="matrix(0.05,0,0,0.05,12,0)" xlink:href="#ak"/><use transform="matrix(0.05,0,0,0.05,22,0)" xlink:href="#as"/><use transform="matrix(0.05,0,0,0.05,32,0)" xlink:href="#aU"/><use transform="matrix(0.05,0,0,0.05,35.4,0)" xlink:href="#aj"/></g><path fill="#303030" d="M30-248c87 1 191-15 191 75 0 78-77 80-158 76V0H30v-248zm33 125c57 0 124 11 124-50 0-59-68-47-124-48v98" id="aV"/><g id="E"><use transform="matrix(0.05,0,0,0.05,0,0)" xlink:href="#aV"/><use transform="matrix(0.05,0,0,0.05,12,0)" xlink:href="#aT"/><use transform="matrix(0.05,0,0,0.05,22,0)" xlink:href="#as"/><use transform="matrix(0.05,0,0,0.05,32,0)" xlink:href="#ab"/><use transform="matrix(0.05,0,0,0.05,35.95,0)" xlink:href="#ac"/><use transform="matrix(0.05,0,0,0.05,39.900000000000006,0)" xlink:href="#ad"/></g><path fill="#303030" d="M194 0L95-120 63-95V0H30v-248h33v124l119-124h40L117-140 236 0h-42" id="aW"/><g id="F"><use transform="matrix(0.05,0,0,0.05,0,0)" xlink:href="#aW"/><use transform="matrix(0.05,0,0,0.05,12,0)" xlink:href="#ae"/><use transform="matrix(0.05,0,0,0.05,22,0)" xlink:href="#au"/></g><g id="G"><use transform="matrix(0.05,0,0,0.05,0,0)" xlink:href="#ar"/><use transform="matrix(0.05,0,0,0.05,12,0)" xlink:href="#ak"/><use transform="matrix(0.05,0,0,0.05,22,0)" xlink:href="#as"/></g><g id="H"><use transform="matrix(0.05,0,0,0.05,0,0)" xlink:href="#aj"/><use transform="matrix(0.05,0,0,0.05,9,0)" xlink:href="#ae"/><use transform="matrix(0.05,0,0,0.05,19,0)" xlink:href="#ah"/><use transform="matrix(0.05,0,0,0.05,29,0)" xlink:href="#ao"/><use transform="matrix(0.05,0,0,0.05,39,0)" xlink:href="#aj"/></g><g id="I"><use transform="matrix(0.05,0,0,0.05,0,0)" xlink:href="#al"/><use transform="matrix(0.05,0,0,0.05,10,0)" xlink:href="#ac"/><use transform="matrix(0.05,0,0,0.05,13.949999999999998,0)" xlink:href="#aj"/></g><path fill="#303030" d="M141 0L90-78 38 0H4l68-98-65-92h35l48 74 47-74h35l-64 92 68 98h-35" id="aX"/><g id="J"><use transform="matrix(0.05,0,0,0.05,0,0)" xlink:href="#aV"/><use transform="matrix(0.05,0,0,0.05,12,0)" xlink:href="#ab"/><use transform="matrix(0.05,0,0,0.05,15.949999999999998,0)" xlink:href="#ag"/><use transform="matrix(0.05,0,0,0.05,25.950000000000003,0)" xlink:href="#ac"/><use transform="matrix(0.05,0,0,0.05,29.899999999999995,0)" xlink:href="#ah"/><use transform="matrix(0.05,0,0,0.05,39.9,0)" xlink:href="#ai"/><use transform="matrix(0.05,0,0,0.05,44.9,0)" xlink:href="#ae"/><use transform="matrix(0.05,0,0,0.05,54.900000000000006,0)" xlink:href="#aX"/><use transform="matrix(0.05,0,0,0.05,63.900000000000006,0)" xlink:href="#ai"/></g><g id="K"><use transform="matrix(0.05,0,0,0.05,0,0)" xlink:href="#ap"/><use transform="matrix(0.05,0,0,0.05,14.950000000000001,0)" xlink:href="#ae"/><use transform="matrix(0.05,0,0,0.05,24.950000000000003,0)" xlink:href="#aj"/><use transform="matrix(0.05,0,0,0.05,33.95,0)" xlink:href="#aj"/><use transform="matrix(0.05,0,0,0.05,42.95,0)" xlink:href="#ag"/><use transform="matrix(0.05,0,0,0.05,52.95,0)" xlink:href="#aq"/><use transform="matrix(0.05,0,0,0.05,62.95,0)" xlink:href="#ae"/></g><g id="L"><use transform="matrix(0.05,0,0,0.05,0,0)" xlink:href="#an"/><use transform="matrix(0.05,0,0,0.05,5,0)" xlink:href="#ak"/><use transform="matrix(0.05,0,0,0.05,15,0)" xlink:href="#am"/></g><g id="M"><use transform="matrix(0.05,0,0,0.05,0,0)" xlink:href="#ar"/><use transform="matrix(0.05,0,0,0.05,12,0)" xlink:href="#ak"/><use transform="matrix(0.05,0,0,0.05,22,0)" xlink:href="#as"/></g><path fill="#303030" d="M185-189c-5-48-123-54-124 2 14 75 158 14 163 119 3 78-121 87-175 55-17-10-28-26-33-46l33-7c5 56 141 63 141-1 0-78-155-14-162-118-5-82 145-84 179-34 5 7 8 16 11 25" id="aY"/><g id="N"><use transform="matrix(0.05,0,0,0.05,0,0)" xlink:href="#aY"/><use transform="matrix(0.05,0,0,0.05,12,0)" xlink:href="#ai"/><use transform="matrix(0.05,0,0,0.05,17,0)" xlink:href="#ak"/><use transform="matrix(0.05,0,0,0.05,27,0)" xlink:href="#am"/><use transform="matrix(0.05,0,0,0.05,32.95,0)" xlink:href="#ae"/></g><g id="O"><use transform="matrix(0.05,0,0,0.05,0,0)" xlink:href="#aY"/><use transform="matrix(0.05,0,0,0.05,12,0)" xlink:href="#ae"/><use transform="matrix(0.05,0,0,0.05,22,0)" xlink:href="#ah"/><use transform="matrix(0.05,0,0,0.05,32,0)" xlink:href="#ao"/></g><path fill="#303030" d="M30 0v-248h187v28H63v79h144v27H63v87h162V0H30" id="aZ"/><path fill="#303030" d="M115-194c55 1 70 41 70 98S169 2 115 4C84 4 66-9 55-30l1 105H24l-1-265h31l2 30c10-21 28-34 59-34zm-8 174c40 0 45-34 45-75s-6-73-45-74c-42 0-51 32-51 76 0 43 10 73 51 73" id="ba"/><g id="P"><use transform="matrix(0.05,0,0,0.05,0,0)" xlink:href="#aZ"/><use transform="matrix(0.05,0,0,0.05,12,0)" xlink:href="#ah"/><use transform="matrix(0.05,0,0,0.05,22,0)" xlink:href="#ad"/><use transform="matrix(0.05,0,0,0.05,31,0)" xlink:href="#am"/><use transform="matrix(0.05,0,0,0.05,36.95,0)" xlink:href="#au"/><use transform="matrix(0.05,0,0,0.05,45.95,0)" xlink:href="#ba"/><use transform="matrix(0.05,0,0,0.05,55.95,0)" xlink:href="#ai"/><use transform="matrix(0.05,0,0,0.05,60.95,0)" xlink:href="#ae"/><use transform="matrix(0.05,0,0,0.05,70.95,0)" xlink:href="#ao"/></g><path fill="#303030" d="M240 0l2-218c-23 76-54 145-80 218h-23L58-218 59 0H30v-248h44l77 211c21-75 51-140 76-211h43V0h-30" id="bb"/><g id="Q"><use transform="matrix(0.05,0,0,0.05,0,0)" xlink:href="#bb"/><use transform="matrix(0.05,0,0,0.05,14.950000000000001,0)" xlink:href="#ae"/><use transform="matrix(0.05,0,0,0.05,24.950000000000003,0)" xlink:href="#aj"/><use transform="matrix(0.05,0,0,0.05,33.95,0)" xlink:href="#aj"/><use transform="matrix(0.05,0,0,0.05,42.95,0)" xlink:href="#ag"/><use transform="matrix(0.05,0,0,0.05,52.95,0)" xlink:href="#aq"/><use transform="matrix(0.05,0,0,0.05,62.95,0)" xlink:href="#ae"/></g><path d="M210-169c-67 3-38 105-44 169h-31v-121c0-29-5-50-35-48C34-165 62-65 56 0H25l-1-190h30c1 10-1 24 2 32 10-44 99-50 107 0 11-21 27-35 58-36 85-2 47 119 55 194h-31v-121c0-29-5-49-35-48" id="bc"/><g id="R"><use transform="matrix(0.05,0,0,0.05,0,0)" xlink:href="#aQ"/><use transform="matrix(0.05,0,0,0.05,12,0)" xlink:href="#aP"/><use transform="matrix(0.05,0,0,0.05,21,0)" xlink:href="#aL"/><use transform="matrix(0.05,0,0,0.05,30,0)" xlink:href="#bc"/><use transform="matrix(0.05,0,0,0.05,44.95,0)" xlink:href="#bc"/><use transform="matrix(0.05,0,0,0.05,59.900000000000006,0)" xlink:href="#ax"/><use transform="matrix(0.05,0,0,0.05,69.9,0)" xlink:href="#aB"/><use transform="matrix(0.05,0,0,0.05,74.9,0)" xlink:href="#az"/><use transform="matrix(0.05,0,0,0.05,80.85000000000001,0)" xlink:href="#aD"/><use transform="matrix(0.05,0,0,0.05,84.80000000000001,0)" xlink:href="#aJ"/><use transform="matrix(0.05,0,0,0.05,93.80000000000001,0)" xlink:href="#aA"/><use transform="matrix(0.05,0,0,0.05,103.80000000000001,0)" xlink:href="#aI"/><use transform="matrix(0.05,0,0,0.05,107.75,0)" xlink:href="#aI"/><use transform="matrix(0.05,0,0,0.05,111.7,0)" xlink:href="#aL"/></g><path d="M30 0v-248h187v28H63v79h144v27H63v87h162V0H30" id="bd"/><path d="M115-194c55 1 70 41 70 98S169 2 115 4C84 4 66-9 55-30l1 105H24l-1-265h31l2 30c10-21 28-34 59-34zm-8 174c40 0 45-34 45-75s-6-73-45-74c-42 0-51 32-51 76 0 43 10 73 51 73" id="be"/><g id="S"><use transform="matrix(0.05,0,0,0.05,0,0)" xlink:href="#bd"/><use transform="matrix(0.05,0,0,0.05,12,0)" xlink:href="#ay"/><use transform="matrix(0.05,0,0,0.05,22,0)" xlink:href="#aJ"/><use transform="matrix(0.05,0,0,0.05,31,0)" xlink:href="#az"/><use transform="matrix(0.05,0,0,0.05,36.95,0)" xlink:href="#aL"/><use transform="matrix(0.05,0,0,0.05,45.95,0)" xlink:href="#be"/><use transform="matrix(0.05,0,0,0.05,55.95,0)" xlink:href="#aB"/></g><path d="M240 0l2-218c-23 76-54 145-80 218h-23L58-218 59 0H30v-248h44l77 211c21-75 51-140 76-211h43V0h-30" id="bf"/><path d="M177-190C167-65 218 103 67 71c-23-6-38-20-44-43l32-5c15 47 100 32 89-28v-30C133-14 115 1 83 1 29 1 15-40 15-95c0-56 16-97 71-98 29-1 48 16 59 35 1-10 0-23 2-32h30zM94-22c36 0 50-32 50-73 0-42-14-75-50-75-39 0-46 34-46 75s6 73 46 73" id="bg"/><g id="T"><use transform="matrix(0.05,0,0,0.05,0,0)" xlink:href="#bf"/><use transform="matrix(0.05,0,0,0.05,14.950000000000001,0)" xlink:href="#ax"/><use transform="matrix(0.05,0,0,0.05,24.950000000000003,0)" xlink:href="#aP"/><use transform="matrix(0.05,0,0,0.05,33.95,0)" xlink:href="#aP"/><use transform="matrix(0.05,0,0,0.05,42.95,0)" xlink:href="#aA"/><use transform="matrix(0.05,0,0,0.05,52.95,0)" xlink:href="#bg"/><use transform="matrix(0.05,0,0,0.05,62.95,0)" xlink:href="#ax"/></g><path d="M140-251c81 0 123 46 123 126C263-46 219 4 140 4 59 4 17-45 17-125s42-126 123-126zm0 227c63 0 89-41 89-101s-29-99-89-99c-61 0-89 39-89 99S79-25 140-24" id="bh"/><g id="U"><use transform="matrix(0.05,0,0,0.05,0,0)" xlink:href="#bh"/><use transform="matrix(0.05,0,0,0.05,14,0)" xlink:href="#ay"/><use transform="matrix(0.05,0,0,0.05,24,0)" xlink:href="#aI"/><use transform="matrix(0.05,0,0,0.05,27.950000000000003,0)" xlink:href="#aL"/></g><g id="V"><use transform="matrix(0.05,0,0,0.05,0,0)" xlink:href="#aM"/><use transform="matrix(0.05,0,0,0.05,12,0)" xlink:href="#aN"/><use transform="matrix(0.05,0,0,0.05,22,0)" xlink:href="#aH"/><use transform="matrix(0.05,0,0,0.05,32,0)" xlink:href="#aO"/><use transform="matrix(0.05,0,0,0.05,35.4,0)" xlink:href="#aP"/></g><g id="W"><use transform="matrix(0.05,0,0,0.05,0,0)" xlink:href="#aC"/><use transform="matrix(0.05,0,0,0.05,12,0)" xlink:href="#az"/><use transform="matrix(0.05,0,0,0.05,17.95,0)" xlink:href="#aD"/><use transform="matrix(0.05,0,0,0.05,21.9,0)" xlink:href="#aE"/><use transform="matrix(0.05,0,0,0.05,30.899999999999995,0)" xlink:href="#aA"/><use transform="matrix(0.05,0,0,0.05,40.9,0)" xlink:href="#aB"/><use transform="matrix(0.05,0,0,0.05,45.9,0)" xlink:href="#ax"/></g><g id="X"><use transform="matrix(0.05,0,0,0.05,0,0)" xlink:href="#aK"/><use transform="matrix(0.05,0,0,0.05,12,0)" xlink:href="#ax"/><use transform="matrix(0.05,0,0,0.05,22,0)" xlink:href="#aL"/></g><path d="M212-179c-10-28-35-45-73-45-59 0-87 40-87 99 0 60 29 101 89 101 43 0 62-24 78-52l27 14C228-24 195 4 139 4 59 4 22-46 18-125c-6-104 99-153 187-111 19 9 31 26 39 46" id="bi"/><g id="Y"><use transform="matrix(0.05,0,0,0.05,0,0)" xlink:href="#bi"/><use transform="matrix(0.05,0,0,0.05,12.950000000000001,0)" xlink:href="#aA"/><use transform="matrix(0.05,0,0,0.05,22.950000000000003,0)" xlink:href="#ay"/></g><path d="M30-248c118-7 216 8 213 122C240-48 200 0 122 0H30v-248zM63-27c89 8 146-16 146-99s-60-101-146-95v194" id="bj"/><g id="Z"><use transform="matrix(0.05,0,0,0.05,0,0)" xlink:href="#bj"/><use transform="matrix(0.05,0,0,0.05,12.950000000000001,0)" xlink:href="#ax"/><use transform="matrix(0.05,0,0,0.05,22.950000000000003,0)" xlink:href="#aJ"/><use transform="matrix(0.05,0,0,0.05,31.950000000000003,0)" xlink:href="#az"/><use transform="matrix(0.05,0,0,0.05,37.900000000000006,0)" xlink:href="#aL"/><use transform="matrix(0.05,0,0,0.05,46.900000000000006,0)" xlink:href="#be"/><use transform="matrix(0.05,0,0,0.05,56.900000000000006,0)" xlink:href="#aB"/></g></defs></g></svg>