<svg xmlns="http://www.w3.org/2000/svg" xmlns:xlink="http://www.w3.org/1999/xlink" xmlns:lucid="lucid" width="1360" height="559"><g transform="translate(0 -88)" lucid:page-tab-id="0_0"><path d="M112.53 586.33c0-1.65 1.35-3 3-3H1217c1.66 0 3 1.35 3 3v54c0 1.66-1.34 3-3 3H115.53c-1.65 0-3-1.34-3-3z" fill="none"/><use xlink:href="#a" transform="matrix(1,0,0,1,112.53333333333345,583.3333333333334) translate(255.825 33.6)"/><use xlink:href="#b" transform="matrix(1,0,0,1,112.53333333333345,583.3333333333334) translate(307.725 33.6)"/><use xlink:href="#c" transform="matrix(1,0,0,1,112.53333333333345,583.3333333333334) translate(325.675 33.6)"/><use xlink:href="#d" transform="matrix(1,0,0,1,112.53333333333345,583.3333333333334) translate(340.675 33.6)"/><use xlink:href="#e" transform="matrix(1,0,0,1,112.53333333333345,583.3333333333334) translate(410.525 33.6)"/><use xlink:href="#f" transform="matrix(1,0,0,1,112.53333333333345,583.3333333333334) translate(447.425 33.6)"/><use xlink:href="#g" transform="matrix(1,0,0,1,112.53333333333345,583.3333333333334) translate(480.375 33.6)"/><use xlink:href="#h" transform="matrix(1,0,0,1,112.53333333333345,583.3333333333334) translate(565.325 33.6)"/><use xlink:href="#i" transform="matrix(1,0,0,1,112.53333333333345,583.3333333333334) translate(646.275 33.6)"/><use xlink:href="#j" transform="matrix(1,0,0,1,112.53333333333345,583.3333333333334) translate(680.275 33.6)"/><use xlink:href="#k" transform="matrix(1,0,0,1,112.53333333333345,583.3333333333334) translate(744.2249999999999 33.6)"/><use xlink:href="#l" transform="matrix(1,0,0,1,112.53333333333345,583.3333333333334) translate(774.2249999999999 33.6)"/><path d="M178.32 500h-76.64c-.88 0-1.68-.76-1.68-1.7v-5.12c0-18.18 11.92-33.43 29.52-37.7.48-.1.88-.05 1.28.17 5.92 3.2 12.48 3.2 18.4 0 .4-.22.8-.26 1.2-.17 17.68 4.27 29.6 19.52 29.6 37.7v5.13c0 .94-.8 1.7-1.68 1.7zm-74.88-3.43h73.12v-3.4c.08-16.35-10.56-30.07-26.32-34.17-3.36 1.65-6.48 2.4-10.24 2.4s-6.88-.7-10.24-2.4c-15.76 4.1-26.4 17.82-26.32 34.18z" stroke="#fff" stroke-opacity="0" fill="#232f3e"/><path d="M140 461.3c-3.67 0-6.8-.78-10.03-2.56-9.95-5.58-13.5-18.2-7.93-28.17 5.58-9.95 18.17-13.5 28.1-7.93 6.72 3.76 10.56 10.33 10.56 18.05 0 7.76-3.93 14.36-10.74 18.04-3.22 1.73-6.32 2.56-9.95 2.56zm0-37.83c-6.6-.17-12.26 3.18-15.44 8.96-4.5 8.4-1.4 18.8 6.94 23.34 5.4 2.93 11.36 2.93 16.77 0 5.7-3.1 9-8.68 8.96-15.2-.04-9.5-7.76-17.14-17.22-17.1z" stroke="#fff" stroke-opacity="0" fill="#232f3e"/><use xlink:href="#m" transform="matrix(1,0,0,1,70,509) translate(50.55 14.4)"/><path d="M1283.47 392.14l25.4 19.72v5.33c0 13.92-11.38 25.24-25.4 25.24-14 0-25.4-11.32-25.4-25.25v-5.34zM1297.94 449.45c16.1 0 29.06 9.68 29.06 25.44v31.85h-16.7V484.4h-2.88v22.35h-47.32V484.4h-2.87v22.35H1240V474.9c0-15.77 12.96-25.45 29.06-25.45z" fill="#7d7c7c"/><path d="M1283.45 386.76c13.9.1 25.1 11.43 25 25.26-.1 13.83-11.5 24.95-25.4 24.85-13.8-.1-24.95-11.22-25-25 0-13.88 11.4-25.1 25.35-25.1h.05zM1297.94 444.12c16.1 0 29.06 9.68 29.06 25.44v31.86h-16.7v-22.4h-2.88v22.4h-47.32v-22.4h-2.87v22.4H1240v-31.86c0-15.76 12.96-25.44 29.06-25.44z" fill="#d2d3d3"/><use xlink:href="#n" transform="matrix(1,0,0,1,1240,506.76) translate(27.5 14.4)"/><path d="M504 493.76c-13.25 0-24-12.1-24-27 0-11.93 6.5-22 16.58-25.68C496 406 536 399.26 552 412.76c8-20.25 48-13.5 48 6.75 24-6.74 48 20.26 32 54 16 27 0 60.76-32 47.26-8 17.55-40 17.55-48 0-16 13.5-48 6.75-48-27z" stroke="#b2b2b2" stroke-width="4" fill="#e5e5e5"/><use xlink:href="#o" transform="matrix(1,0,0,1,485,404.26) translate(29.049999999999997 55.3)"/><use xlink:href="#p" transform="matrix(1,0,0,1,485,404.26) translate(89.94999999999999 55.3)"/><use xlink:href="#q" transform="matrix(1,0,0,1,485,404.26) translate(32.55 76.9)"/><path d="M399.14 430.4h-5.9v-15.72c0-22.92-14.56-34.68-31.54-34.68h-2.77c-17.34 0-31.55 11.52-31.55 34.68v.84h11.08v-.84c0-14.64 7.78-24.48 20.74-24.48h2.77c13.3 0 20.73 9.96 20.73 24.48v15.36h-61.48c-2.5 0-5.9 3.48-5.9 5.88v58.2c0 2.52 3.4 5.88 5.9 5.88h77.57c2.5 0 5.88-3.36 5.88-5.88v-58.08c0-2.52-3.4-5.64-5.54-5.64zm-34.67 34.08v24.12h-8.67v-24.12c-3.4-1.56-5.8-4.92-5.8-9 0-5.64 4.64-10.2 10.18-10.2s10.2 4.68 10.2 10.2c0 4.08-2.52 7.44-5.9 9z" stroke="#000" stroke-opacity="0" fill="#2a3282"/><use xlink:href="#r" transform="matrix(1,0,0,1,285.315,509) translate(36.075 14.4)"/><use xlink:href="#s" transform="matrix(1,0,0,1,285.315,509) translate(80.975 14.4)"/><path d="M786.94 454.04h-6.14v-11.28c0-23.76-15.15-36-32.82-36h-2.88c-18.04 0-32.92 11.88-32.92 36v11.28h-6.04c-2.6 0-6.14 3.48-6.14 6.12v60.48c0 2.64 3.53 6.12 6.14 6.12h80.7c2.6 0 6.14-3.48 6.14-6.12v-60.48c-.27-2.64-3.8-6.12-6.04-6.12zm-36.08 35.76v25.08h-9.02V489.8c-3.53-1.68-6.13-5.16-6.13-9.36 0-5.76 4.93-10.56 10.6-10.56 5.86 0 10.7 4.8 10.7 10.56 0 3.84-2.6 7.32-6.14 9.36zm18.7-35.76h-46.03v-11.28c0-15.12 8-25.44 21.57-25.44h2.88c13.86 0 21.57 10.32 21.57 25.44v11.28z" stroke="#000" stroke-opacity="0" fill="#2a3282"/><use xlink:href="#t" transform="matrix(1,0,0,1,670,535.76) translate(31.099999999999994 14.4)"/><use xlink:href="#s" transform="matrix(1,0,0,1,670,535.76) translate(88.95 14.4)"/><g filter="url(#u)"><path d="M94.38 145.77h94.16c14.4 0 14.4 0 14.4 14.52v64c0 14.52 0 14.52-14.4 14.52H94.38c-14.38 0-14.38 0-14.38-14.52v-64c0-14.53 0-14.53 14.38-14.53z" fill="#7d7c7c"/><path d="M94.38 140h94.16c14.4 0 14.4 0 14.4 14.52v64c0 14.53 0 14.53-14.4 14.53H94.38c-14.38 0-14.38 0-14.38-14.52v-64C80 140 80 140 94.38 140z" fill="#fff"/><path d="M194.3 169.64c0 12.26-9.92 22.22-22.12 22.22-12.2 0-22.1-9.96-22.1-22.22 0-12.26 9.9-22.2 22.1-22.2 12.2 0 22.1 9.94 22.1 22.2z" fill="#759c3e"/><path d="M187.62 169.64c0 3.2-2.58 5.8-5.77 5.8-3.18 0-5.77-2.6-5.77-5.8 0-3.2 2.6-5.8 5.77-5.8 3.2 0 5.77 2.6 5.77 5.8z" fill="#fff"/><path d="M164.7 179.1h-25.56l-2.3-4.05-8.66.8-3.33-3.4-3.03-.68-7.87 4.75-9.8-7.58 5.38-8.7h55.17v18.85z" fill="#759c3e"/><path d="M132.82 203.84c0 12.26-9.9 22.2-22.1 22.2-12.2 0-22.1-9.94-22.1-22.2s9.9-22.2 22.1-22.2c12.2 0 22.1 9.94 22.1 22.2z" fill="#7d7c7c"/><path d="M106.82 203.83c0 3.2-2.58 5.8-5.77 5.8-3.18 0-5.77-2.6-5.77-5.8 0-3.2 2.6-5.8 5.77-5.8 3.2 0 5.77 2.6 5.77 5.8z" fill="#fff"/><path d="M118.22 194.4h25.55l2.3 4.05 8.66-.8 3.33 3.4 3.03.67 7.86-4.76 9.8 7.57-5.38 8.74h-55.16V194.4z" fill="#7d7c7c"/><use xlink:href="#v" transform="matrix(1,0,0,1,80,238.82972915595587) translate(15.234567901234584 17.777777777777775)"/><use xlink:href="#w" transform="matrix(1,0,0,1,80,238.82972915595587) translate(5.3888888888889 47.11111111111111)"/><use xlink:href="#x" transform="matrix(1,0,0,1,80,238.82972915595587) translate(80.57407407407406 47.11111111111111)"/><use xlink:href="#y" transform="matrix(1,0,0,1,80,238.82972915595587) translate(9.092592592592595 76.44444444444444)"/><use xlink:href="#z" transform="matrix(1,0,0,1,80,238.82972915595587) translate(75.6358024691358 76.44444444444444)"/><use xlink:href="#A" transform="matrix(1,0,0,1,80,238.82972915595587) translate(41.808641975308646 105.77777777777777)"/></g><g filter="url(#B)"><path d="M690.06 176.15c0 13.16-11.2 23.84-25.03 23.84-13.82 0-25.03-10.7-25.03-23.85 0-13.17 11.2-23.85 25.03-23.85 13.82 0 25.03 10.68 25.03 23.85z" fill="#6f5e87"/><path d="M673.5 166.02h28.96l2.6 4.33 9.82-.87 3.77 3.67 3.43.73 20.04-2.47v5.5l-6.1 9.38H673.5v-20.26zM640 170.65h24.1v6.23H640v-6.23z" fill="#6f5e87"/><path d="M690.06 170.65c0 13.17-11.2 23.85-25.03 23.85-13.82 0-25.03-10.68-25.03-23.85 0-13.16 11.2-23.84 25.03-23.84 13.82 0 25.03 10.7 25.03 23.85z" fill="#999"/><path d="M660.6 170.65c0 3.44-2.92 6.23-6.53 6.23-3.6 0-6.53-2.8-6.53-6.23 0-3.44 2.93-6.23 6.53-6.23s6.54 2.8 6.54 6.23z" fill="#fff"/><path d="M673.5 160.53h28.96l2.6 4.33 9.82-.85 3.77 3.66 3.43.72 8.92-5.08 11.12 8.1-6.1 9.38H673.5v-20.25z" fill="#999"/><use xlink:href="#C" transform="matrix(1,0,0,1,640,200) translate(19.83333333333334 17.777777777777775)"/><use xlink:href="#D" transform="matrix(1,0,0,1,640,200) translate(21.31481481481482 47.11111111111111)"/><use xlink:href="#E" transform="matrix(1,0,0,1,640,200) translate(32.3641975308642 76.44444444444444)"/></g><g filter="url(#B)"><path d="M390.06 249.34c0 13.16-11.2 23.85-25.03 23.85-13.82 0-25.03-10.7-25.03-23.86s11.2-23.85 25.03-23.85c13.82 0 25.03 10.68 25.03 23.84z" fill="#4b612c"/><path d="M373.5 239.2h28.96l2.6 4.35 9.82-.87 3.77 3.66 3.43.73 20.04-2.47v5.5l-6.1 9.37H373.5V239.2zM340 243.85h24.1v6.22H340v-6.22z" fill="#4b612c"/><path d="M390.06 243.85c0 13.16-11.2 23.84-25.03 23.84-13.82 0-25.03-10.7-25.03-23.85 0-13.17 11.2-23.85 25.03-23.85 13.82 0 25.03 10.68 25.03 23.85z" fill="#759c3e"/><path d="M360.6 243.84c0 3.44-2.92 6.23-6.53 6.23-3.6 0-6.53-2.8-6.53-6.23 0-3.43 2.93-6.22 6.53-6.22s6.54 2.8 6.54 6.22z" fill="#fff"/><path d="M373.5 233.72h28.96l2.6 4.33 9.82-.85 3.77 3.65 3.43.73 8.92-5.1 11.12 8.12-6.1 9.37H373.5v-20.25z" fill="#759c3e"/><use xlink:href="#C" transform="matrix(1,0,0,1,340,273.1935882352941) translate(19.83333333333334 17.777777777777775)"/><use xlink:href="#F" transform="matrix(1,0,0,1,340,273.1935882352941) translate(16.993827160493836 47.11111111111111)"/><use xlink:href="#E" transform="matrix(1,0,0,1,340,273.1935882352941) translate(32.3641975308642 76.44444444444444)"/></g><path d="M1241.18 227.22c11.06 0 18.8 6.98 18.8 16.92v21.58h-9.72v-14.64h-2.67v14.64h-14.98c-1-10.94-9.84-18.38-22.24-18.38h-8.62v-5.97c9.5-.85 17.12-4.5 17.94-14.2h.87zM1179.34 227.2h.93c.88 9.68 8.44 13.34 17.93 14.2v5.93h-8.44c-12.4 0-21.3 7.48-22.23 18.4h-14.67v-14.66h-2.67l-.02 14.65H1140V244.1c0-10 7.74-16.94 18.86-16.94z" fill="#7d7c7c"/><path d="M1210.3 256.43c11.06 0 18.8 6.98 18.8 16.93V295h-9.78v-14.7h-2.62v14.65h-33.07V280.3h-2.56v14.65h-10.2v-21.6c0-9.94 7.75-16.92 18.8-16.92zM1169.06 185.06l16.32 11.6v5c.1 9.14-7.18 16.6-16.28 16.7h-.04c-8.94 0-16.32-7.47-16.32-17.42v-4.4zM1230.86 185.06l16.32 11.6v5c.1 9.14-7.18 16.6-16.28 16.7h-.04c-8.94 0-16.32-7.47-16.32-17.42v-4.4zM1200 207.84l14.4 10.2v4.5c.14 8.07-6.28 14.72-14.35 14.87h-.06c-8.17-.2-14.63-6.94-14.42-15.1 0-.12 0-.2.02-.33v-4.02z" fill="#7d7c7c"/><path d="M1230.88 180c9.18-.17 16.76 7.16 16.93 16.35.17 9.2-7.14 16.78-16.32 16.94-9.18.16-16.76-7.17-16.92-16.35v-.34c-.07-9.08 7.2-16.53 16.32-16.6zM1199.96 202.7c8.14-.2 14.9 6.25 15.1 14.4.18 8.15-6.25 14.9-14.4 15.12-8.13.18-14.9-6.26-15.1-14.4v-.36c-.08-8.07 6.35-14.65 14.4-14.77zM1241.18 222.08c11.06 0 18.8 6.98 18.8 16.94v21.64h-9.72V246h-2.67v14.66h-14.98c-1-10.96-9.84-18.36-22.24-18.36h-8.62v-1.9c9.73-.96 17.12-8.52 17.94-18.24h.87zM1179.34 222.1h.93c.82 9.75 8.2 17.3 17.93 18.27v1.85h-8.44c-12.4 0-21.3 7.48-22.23 18.4h-14.67V246h-2.67l-.02 14.65H1140v-21.63c0-10 7.74-16.93 18.86-16.93z" fill="#d2d3d3"/><path d="M1210.3 251.37c11.06 0 18.8 6.98 18.8 16.93v21.63h-9.78v-14.65h-2.62v14.65h-33.07v-14.65h-2.56v14.65h-10.2V268.3c0-9.95 7.75-16.93 18.8-16.93zM1169.07 180c9.18-.17 16.76 7.16 16.93 16.35.16 9.2-7.15 16.78-16.33 16.94-9.18.16-16.76-7.17-16.93-16.35v-.34c-.06-9.08 7.22-16.5 16.33-16.6z" fill="#d2d3d3"/><use xlink:href="#G" transform="matrix(1,0,0,1,1140,295) translate(22.025 14.4)"/><path d="M140 419.03v-36c0-1.66-1.34-3-3-3H43c-1.66 0-3-1.35-3-3V202.4c0-1.64 1.34-3 3-3h18.5" stroke="#303030" stroke-width="2" fill="none"/><path d="M141 420.08l-.75-.07-1.25.1V419h2z" fill="#303030"/><path d="M76.76 199.4l-14.26 4.65v-9.27z" stroke="#303030" stroke-width="2" fill="#303030"/><path d="M162.36 460H296.8" stroke="#303030" stroke-width="2" fill="none"/><path fill="#303030"/><path d="M312.08 460l-14.27 4.64v-9.28z" stroke="#303030" stroke-width="2" fill="#303030"/><path d="M438.88 256.6h138.6c1.67 0 3 1.34 3 3v121.1" stroke="#303030" stroke-width="2" fill="none"/><path d="M438.9 257.6h-1.67l1.3-2h.38z" fill="#303030"/><path d="M580.5 395.97l-4.64-14.26h9.27z" stroke="#303030" stroke-width="2" fill="#303030"/><path d="M405.7 466.76h53.8" stroke="#303030" stroke-width="2" fill="none"/><path d="M405.7 467.76h-1v-2h1z" fill="#303030"/><path d="M474.76 466.76l-14.26 4.64v-9.28z" stroke="#303030" stroke-width="2" fill="#303030"/><path d="M637.7 466.97h30.64c0 .02 0 .03.02.03h13.14" stroke="#303030" stroke-width="2" fill="none"/><path d="M637.72 467.97h-1.37l.7-2h.67z" fill="#303030"/><path d="M696.76 467l-14.26 4.63v-9.27z" stroke="#303030" stroke-width="2" fill="#303030"/><path d="M141.46 139v-26c0-1.66 1.35-3 3-3H329.4c1.66 0 3 1.34 3 3v67.4c0 1.66 1.34 3 3 3h287.37" stroke="#303030" stroke-width="2" fill="none"/><path d="M142.46 140h-2v-1.03h2z" fill="#303030"/><path d="M638.03 183.4l-14.26 4.64v-9.27z" stroke="#303030" stroke-width="2" fill="#303030"/><path d="M203.93 199.4h65.17c1.65 0 3 1.36 3 3v51.2c0 1.65 1.34 3 3 3h47.67" stroke="#303030" stroke-width="2" fill="none"/><path d="M203.95 200.4h-1.02v-2h1.02z" fill="#303030"/><path d="M338.03 256.6l-14.26 4.63v-9.27z" stroke="#303030" stroke-width="2" fill="#303030"/><path d="M738.88 183.4h194.6c1.64 0 3 1.35 3 3v193.77" stroke="#303030" stroke-width="2" fill="none"/><path d="M738.9 184.4h-1.67l1.3-2h.38z" fill="#303030"/><path d="M936.47 395.44l-4.64-14.27h9.27z" stroke="#303030" stroke-width="2" fill="#303030"/><path d="M864 493.76c-13.25 0-24-12.1-24-27 0-11.93 6.5-22 16.58-25.68C856 406 896 399.26 912 412.76c8-20.25 48-13.5 48 6.75 24-6.74 48 20.26 32 54 16 27 0 60.76-32 47.26-8 17.55-40 17.55-48 0-16 13.5-48 6.75-48-27z" stroke="#b2b2b2" stroke-width="4" fill="#e5e5e5"/><use xlink:href="#H" transform="matrix(1,0,0,1,845,404.26) translate(32.55 55.3)"/><use xlink:href="#p" transform="matrix(1,0,0,1,845,404.26) translate(86.45 55.3)"/><use xlink:href="#I" transform="matrix(1,0,0,1,845,404.26) translate(32.074999999999996 76.9)"/><path d="M794 494.36h43.63" stroke="#303030" stroke-width="2" fill="none"/><path d="M794 495.36h-1v-2h1z" fill="#303030"/><path d="M852.9 494.36L838.63 499v-9.28z" stroke="#303030" stroke-width="2" fill="#303030"/><path d="M1159.14 449.66h-5.9v-15.72c0-22.92-14.56-34.68-31.54-34.68h-2.77c-17.34 0-31.55 11.52-31.55 34.68v.84h11.08v-.84c0-14.64 7.78-24.48 20.74-24.48h2.77c13.3 0 20.73 9.96 20.73 24.48v15.36h-61.48c-2.5 0-5.9 3.48-5.9 5.88v58.2c0 2.52 3.4 5.88 5.9 5.88h77.57c2.5 0 5.88-3.36 5.88-5.88V455.3c0-2.52-3.4-5.64-5.54-5.64zm-34.67 34.08v24.12h-8.67v-24.12c-3.4-1.56-5.8-4.92-5.8-9 0-5.64 4.64-10.2 10.18-10.2s10.2 4.68 10.2 10.2c0 4.08-2.52 7.44-5.9 9z" stroke="#000" stroke-opacity="0" fill="#2a3282"/><g><use xlink:href="#r" transform="matrix(1,0,0,1,1045.315,528.26) translate(36.075 14.4)"/><use xlink:href="#s" transform="matrix(1,0,0,1,1045.315,528.26) translate(80.975 14.4)"/></g><path d="M997.68 467H1033c1.66 0 3 1.35 3 3v13.86c0 1.66 1.34 3 3 3h17.8" stroke="#303030" stroke-width="2" fill="none"/><path d="M997.7 468h-1.36l.7-2h.67z" fill="#303030"/><path d="M1072.08 486.86l-14.27 4.64v-9.28z" stroke="#303030" stroke-width="2" fill="#303030"/><path d="M1165.68 486.02h35.42c1.65 0 3-1.34 3-3v-23.26c0-1.66 1.34-3 3-3h17.9" stroke="#303030" stroke-width="2" fill="none"/><path d="M1165.7 487.02h-1.02v-2h1.03z" fill="#303030"/><path d="M1240.27 456.76L1226 461.4v-9.28z" stroke="#303030" stroke-width="2" fill="#303030"/><path d="M691.07 159.53v-36c0-1.66 1.34-3 3-3H1197c1.66 0 3 1.34 3 3v60.66" stroke="#303030" stroke-width="2" fill="none"/><path d="M690.07 160.53v-1.03h2v1.03z" fill="#303030"/><path d="M1200 199.46l-4.64-14.27h9.28z" stroke="#303030" stroke-width="2" fill="#303030"/><defs><path fill="#303030" d="M127-220V0H93v-220H8v-28h204v28h-85" id="J"/><path fill="#303030" d="M106-169C34-169 62-67 57 0H25v-261h32l-1 103c12-21 28-36 61-36 89 0 53 116 60 194h-32v-121c2-32-8-49-39-48" id="K"/><path fill="#303030" d="M100-194c63 0 86 42 84 106H49c0 40 14 67 53 68 26 1 43-12 49-29l28 8c-11 28-37 45-77 45C44 4 14-33 15-96c1-61 26-98 85-98zm52 81c6-60-76-77-97-28-3 7-6 17-6 28h103" id="L"/><path fill="#303030" d="M114-163C36-179 61-72 57 0H25l-1-190h30c1 12-1 29 2 39 6-27 23-49 58-41v29" id="M"/><g id="a"><use transform="matrix(0.05,0,0,0.05,0,0)" xlink:href="#J"/><use transform="matrix(0.05,0,0,0.05,10.950000000000001,0)" xlink:href="#K"/><use transform="matrix(0.05,0,0,0.05,20.950000000000003,0)" xlink:href="#L"/><use transform="matrix(0.05,0,0,0.05,30.950000000000003,0)" xlink:href="#M"/><use transform="matrix(0.05,0,0,0.05,36.900000000000006,0)" xlink:href="#L"/></g><path fill="#303030" d="M24-231v-30h32v30H24zM24 0v-190h32V0H24" id="N"/><path fill="#303030" d="M135-143c-3-34-86-38-87 0 15 53 115 12 119 90S17 21 10-45l28-5c4 36 97 45 98 0-10-56-113-15-118-90-4-57 82-63 122-42 12 7 21 19 24 35" id="O"/><g id="b"><use transform="matrix(0.05,0,0,0.05,0,0)" xlink:href="#N"/><use transform="matrix(0.05,0,0,0.05,3.95,0)" xlink:href="#O"/></g><path fill="#303030" d="M141-36C126-15 110 5 73 4 37 3 15-17 15-53c-1-64 63-63 125-63 3-35-9-54-41-54-24 1-41 7-42 31l-33-3c5-37 33-52 76-52 45 0 72 20 72 64v82c-1 20 7 32 28 27v20c-31 9-61-2-59-35zM48-53c0 20 12 33 32 33 41-3 63-29 60-74-43 2-92-5-92 41" id="P"/><use transform="matrix(0.05,0,0,0.05,0,0)" xlink:href="#P" id="c"/><path fill="#303030" d="M115-194c55 1 70 41 70 98S169 2 115 4C84 4 66-9 55-30l1 105H24l-1-265h31l2 30c10-21 28-34 59-34zm-8 174c40 0 45-34 45-75s-6-73-45-74c-42 0-51 32-51 76 0 43 10 73 51 73" id="Q"/><path fill="#303030" d="M100-194c62-1 85 37 85 99 1 63-27 99-86 99S16-35 15-95c0-66 28-99 85-99zM99-20c44 1 53-31 53-75 0-43-8-75-51-75s-53 32-53 75 10 74 51 75" id="R"/><path fill="#303030" d="M115-194c53 0 69 39 70 98 0 66-23 100-70 100C84 3 66-7 56-30L54 0H23l1-261h32v101c10-23 28-34 59-34zm-8 174c40 0 45-34 45-75 0-40-5-75-45-74-42 0-51 32-51 76 0 43 10 73 51 73" id="S"/><path fill="#303030" d="M24 0v-261h32V0H24" id="T"/><path fill="#303030" d="M210-169c-67 3-38 105-44 169h-31v-121c0-29-5-50-35-48C34-165 62-65 56 0H25l-1-190h30c1 10-1 24 2 32 10-44 99-50 107 0 11-21 27-35 58-36 85-2 47 119 55 194h-31v-121c0-29-5-49-35-48" id="U"/><g id="d"><use transform="matrix(0.05,0,0,0.05,0,0)" xlink:href="#Q"/><use transform="matrix(0.05,0,0,0.05,10,0)" xlink:href="#M"/><use transform="matrix(0.05,0,0,0.05,15.949999999999998,0)" xlink:href="#R"/><use transform="matrix(0.05,0,0,0.05,25.950000000000003,0)" xlink:href="#S"/><use transform="matrix(0.05,0,0,0.05,35.95,0)" xlink:href="#T"/><use transform="matrix(0.05,0,0,0.05,39.900000000000006,0)" xlink:href="#L"/><use transform="matrix(0.05,0,0,0.05,49.900000000000006,0)" xlink:href="#U"/></g><path fill="#303030" d="M206 0h-36l-40-164L89 0H53L-1-190h32L70-26l43-164h34l41 164 42-164h31" id="V"/><path fill="#303030" d="M59-47c-2 24 18 29 38 22v24C64 9 27 4 27-40v-127H5v-23h24l9-43h21v43h35v23H59v120" id="W"/><g id="e"><use transform="matrix(0.05,0,0,0.05,0,0)" xlink:href="#V"/><use transform="matrix(0.05,0,0,0.05,12.950000000000001,0)" xlink:href="#N"/><use transform="matrix(0.05,0,0,0.05,16.900000000000002,0)" xlink:href="#W"/><use transform="matrix(0.05,0,0,0.05,21.900000000000002,0)" xlink:href="#K"/></g><g id="f"><use transform="matrix(0.05,0,0,0.05,0,0)" xlink:href="#W"/><use transform="matrix(0.05,0,0,0.05,5,0)" xlink:href="#K"/><use transform="matrix(0.05,0,0,0.05,15,0)" xlink:href="#N"/><use transform="matrix(0.05,0,0,0.05,18.95,0)" xlink:href="#O"/></g><path fill="#303030" d="M96-169c-40 0-48 33-48 73s9 75 48 75c24 0 41-14 43-38l32 2c-6 37-31 61-74 61-59 0-76-41-82-99-10-93 101-131 147-64 4 7 5 14 7 22l-32 3c-4-21-16-35-41-35" id="X"/><path fill="#303030" d="M33-154v-36h34v36H33zM33 0v-36h34V0H33" id="Y"/><g id="g"><use transform="matrix(0.05,0,0,0.05,0,0)" xlink:href="#P"/><use transform="matrix(0.05,0,0,0.05,10,0)" xlink:href="#Q"/><use transform="matrix(0.05,0,0,0.05,20,0)" xlink:href="#Q"/><use transform="matrix(0.05,0,0,0.05,30,0)" xlink:href="#M"/><use transform="matrix(0.05,0,0,0.05,35.95,0)" xlink:href="#R"/><use transform="matrix(0.05,0,0,0.05,45.95,0)" xlink:href="#P"/><use transform="matrix(0.05,0,0,0.05,55.95,0)" xlink:href="#X"/><use transform="matrix(0.05,0,0,0.05,64.95,0)" xlink:href="#K"/><use transform="matrix(0.05,0,0,0.05,74.95,0)" xlink:href="#Y"/></g><path fill="#303030" d="M30 0v-248h187v28H63v79h144v27H63v87h162V0H30" id="Z"/><path fill="#303030" d="M108 0H70L1-190h34L89-25l56-165h34" id="aa"/><path fill="#303030" d="M179-190L93 31C79 59 56 82 12 73V49c39 6 53-20 64-50L1-190h34L92-34l54-156h33" id="ab"/><path fill="#303030" d="M117-194c89-4 53 116 60 194h-32v-121c0-31-8-49-39-48C34-167 62-67 57 0H25l-1-190h30c1 10-1 24 2 32 11-22 29-35 61-36" id="ac"/><g id="h"><use transform="matrix(0.05,0,0,0.05,0,0)" xlink:href="#Z"/><use transform="matrix(0.05,0,0,0.05,12,0)" xlink:href="#aa"/><use transform="matrix(0.05,0,0,0.05,21,0)" xlink:href="#L"/><use transform="matrix(0.05,0,0,0.05,31,0)" xlink:href="#M"/><use transform="matrix(0.05,0,0,0.05,36.95,0)" xlink:href="#ab"/><use transform="matrix(0.05,0,0,0.05,45.95,0)" xlink:href="#R"/><use transform="matrix(0.05,0,0,0.05,55.95,0)" xlink:href="#ac"/><use transform="matrix(0.05,0,0,0.05,65.95,0)" xlink:href="#L"/></g><g id="i"><use transform="matrix(0.05,0,0,0.05,0,0)" xlink:href="#X"/><use transform="matrix(0.05,0,0,0.05,9,0)" xlink:href="#P"/><use transform="matrix(0.05,0,0,0.05,19,0)" xlink:href="#ac"/></g><path fill="#303030" d="M85-194c31 0 48 13 60 33l-1-100h32l1 261h-30c-2-10 0-23-3-31C134-8 116 4 85 4 32 4 16-35 15-94c0-66 23-100 70-100zm9 24c-40 0-46 34-46 75 0 40 6 74 45 74 42 0 51-32 51-76 0-42-9-74-50-73" id="ad"/><g id="j"><use transform="matrix(0.05,0,0,0.05,0,0)" xlink:href="#ad"/><use transform="matrix(0.05,0,0,0.05,10,0)" xlink:href="#L"/><use transform="matrix(0.05,0,0,0.05,20,0)" xlink:href="#X"/><use transform="matrix(0.05,0,0,0.05,29,0)" xlink:href="#M"/><use transform="matrix(0.05,0,0,0.05,34.95,0)" xlink:href="#ab"/><use transform="matrix(0.05,0,0,0.05,43.95,0)" xlink:href="#Q"/><use transform="matrix(0.05,0,0,0.05,53.95,0)" xlink:href="#W"/></g><g id="k"><use transform="matrix(0.05,0,0,0.05,0,0)" xlink:href="#W"/><use transform="matrix(0.05,0,0,0.05,5,0)" xlink:href="#K"/><use transform="matrix(0.05,0,0,0.05,15,0)" xlink:href="#L"/></g><path fill="#303030" d="M177-190C167-65 218 103 67 71c-23-6-38-20-44-43l32-5c15 47 100 32 89-28v-30C133-14 115 1 83 1 29 1 15-40 15-95c0-56 16-97 71-98 29-1 48 16 59 35 1-10 0-23 2-32h30zM94-22c36 0 50-32 50-73 0-42-14-75-50-75-39 0-46 34-46 75s6 73 46 73" id="ae"/><path fill="#303030" d="M33 0v-38h34V0H33" id="af"/><g id="l"><use transform="matrix(0.05,0,0,0.05,0,0)" xlink:href="#U"/><use transform="matrix(0.05,0,0,0.05,14.950000000000001,0)" xlink:href="#L"/><use transform="matrix(0.05,0,0,0.05,24.950000000000003,0)" xlink:href="#O"/><use transform="matrix(0.05,0,0,0.05,33.95,0)" xlink:href="#O"/><use transform="matrix(0.05,0,0,0.05,42.95,0)" xlink:href="#P"/><use transform="matrix(0.05,0,0,0.05,52.95,0)" xlink:href="#ae"/><use transform="matrix(0.05,0,0,0.05,62.95,0)" xlink:href="#L"/><use transform="matrix(0.05,0,0,0.05,72.95,0)" xlink:href="#af"/></g><path fill="#303030" d="M205 0l-28-72H64L36 0H1l101-248h38L239 0h-34zm-38-99l-47-123c-12 45-31 82-46 123h93" id="ag"/><g id="m"><use transform="matrix(0.05,0,0,0.05,0,0)" xlink:href="#ag"/><use transform="matrix(0.05,0,0,0.05,12,0)" xlink:href="#T"/><use transform="matrix(0.05,0,0,0.05,15.949999999999998,0)" xlink:href="#N"/><use transform="matrix(0.05,0,0,0.05,19.9,0)" xlink:href="#X"/><use transform="matrix(0.05,0,0,0.05,28.899999999999995,0)" xlink:href="#L"/></g><path fill="#303030" d="M160-131c35 5 61 23 61 61C221 17 115-2 30 0v-248c76 3 177-17 177 60 0 33-19 50-47 57zm-97-11c50-1 110 9 110-42 0-47-63-36-110-37v79zm0 115c55-2 124 14 124-45 0-56-70-42-124-44v89" id="ah"/><g id="n"><use transform="matrix(0.05,0,0,0.05,0,0)" xlink:href="#ah"/><use transform="matrix(0.05,0,0,0.05,12,0)" xlink:href="#R"/><use transform="matrix(0.05,0,0,0.05,22,0)" xlink:href="#S"/></g><path fill="#303030" d="M30-248c87 1 191-15 191 75 0 78-77 80-158 76V0H30v-248zm33 125c57 0 124 11 124-50 0-59-68-47-124-48v98" id="ai"/><g id="o"><use transform="matrix(0.05,0,0,0.05,0,0)" xlink:href="#ai"/><use transform="matrix(0.05,0,0,0.05,12,0)" xlink:href="#M"/><use transform="matrix(0.05,0,0,0.05,17.95,0)" xlink:href="#N"/><use transform="matrix(0.05,0,0,0.05,21.9,0)" xlink:href="#aa"/><use transform="matrix(0.05,0,0,0.05,30.899999999999995,0)" xlink:href="#P"/><use transform="matrix(0.05,0,0,0.05,40.9,0)" xlink:href="#W"/><use transform="matrix(0.05,0,0,0.05,45.9,0)" xlink:href="#L"/></g><path fill="#303030" d="M194 0L95-120 63-95V0H30v-248h33v124l119-124h40L117-140 236 0h-42" id="aj"/><g id="p"><use transform="matrix(0.05,0,0,0.05,0,0)" xlink:href="#aj"/><use transform="matrix(0.05,0,0,0.05,12,0)" xlink:href="#L"/><use transform="matrix(0.05,0,0,0.05,22,0)" xlink:href="#ab"/></g><g id="q"><use transform="matrix(0.05,0,0,0.05,0,0)" xlink:href="#Z"/><use transform="matrix(0.05,0,0,0.05,12,0)" xlink:href="#ac"/><use transform="matrix(0.05,0,0,0.05,22,0)" xlink:href="#X"/><use transform="matrix(0.05,0,0,0.05,31,0)" xlink:href="#M"/><use transform="matrix(0.05,0,0,0.05,36.95,0)" xlink:href="#ab"/><use transform="matrix(0.05,0,0,0.05,45.95,0)" xlink:href="#Q"/><use transform="matrix(0.05,0,0,0.05,55.95,0)" xlink:href="#W"/><use transform="matrix(0.05,0,0,0.05,60.95,0)" xlink:href="#N"/><use transform="matrix(0.05,0,0,0.05,64.9,0)" xlink:href="#R"/><use transform="matrix(0.05,0,0,0.05,74.9,0)" xlink:href="#ac"/></g><path d="M30-248c87 1 191-15 191 75 0 78-77 80-158 76V0H30v-248zm33 125c57 0 124 11 124-50 0-59-68-47-124-48v98" id="ak"/><path d="M24 0v-261h32V0H24" id="al"/><path d="M141-36C126-15 110 5 73 4 37 3 15-17 15-53c-1-64 63-63 125-63 3-35-9-54-41-54-24 1-41 7-42 31l-33-3c5-37 33-52 76-52 45 0 72 20 72 64v82c-1 20 7 32 28 27v20c-31 9-61-2-59-35zM48-53c0 20 12 33 32 33 41-3 63-29 60-74-43 2-92-5-92 41" id="am"/><path d="M24-231v-30h32v30H24zM24 0v-190h32V0H24" id="an"/><path d="M117-194c89-4 53 116 60 194h-32v-121c0-31-8-49-39-48C34-167 62-67 57 0H25l-1-190h30c1 10-1 24 2 32 11-22 29-35 61-36" id="ao"/><g id="r"><use transform="matrix(0.05,0,0,0.05,0,0)" xlink:href="#ak"/><use transform="matrix(0.05,0,0,0.05,12,0)" xlink:href="#al"/><use transform="matrix(0.05,0,0,0.05,15.949999999999998,0)" xlink:href="#am"/><use transform="matrix(0.05,0,0,0.05,25.950000000000003,0)" xlink:href="#an"/><use transform="matrix(0.05,0,0,0.05,29.899999999999995,0)" xlink:href="#ao"/></g><path d="M127-220V0H93v-220H8v-28h204v28h-85" id="ap"/><path d="M100-194c63 0 86 42 84 106H49c0 40 14 67 53 68 26 1 43-12 49-29l28 8c-11 28-37 45-77 45C44 4 14-33 15-96c1-61 26-98 85-98zm52 81c6-60-76-77-97-28-3 7-6 17-6 28h103" id="aq"/><path d="M141 0L90-78 38 0H4l68-98-65-92h35l48 74 47-74h35l-64 92 68 98h-35" id="ar"/><path d="M59-47c-2 24 18 29 38 22v24C64 9 27 4 27-40v-127H5v-23h24l9-43h21v43h35v23H59v120" id="as"/><g id="s"><use transform="matrix(0.05,0,0,0.05,0,0)" xlink:href="#ap"/><use transform="matrix(0.05,0,0,0.05,8.950000000000001,0)" xlink:href="#aq"/><use transform="matrix(0.05,0,0,0.05,18.950000000000003,0)" xlink:href="#ar"/><use transform="matrix(0.05,0,0,0.05,27.950000000000003,0)" xlink:href="#as"/></g><path d="M212-179c-10-28-35-45-73-45-59 0-87 40-87 99 0 60 29 101 89 101 43 0 62-24 78-52l27 14C228-24 195 4 139 4 59 4 22-46 18-125c-6-104 99-153 187-111 19 9 31 26 39 46" id="at"/><path d="M115-194c55 1 70 41 70 98S169 2 115 4C84 4 66-9 55-30l1 105H24l-1-265h31l2 30c10-21 28-34 59-34zm-8 174c40 0 45-34 45-75s-6-73-45-74c-42 0-51 32-51 76 0 43 10 73 51 73" id="au"/><path d="M106-169C34-169 62-67 57 0H25v-261h32l-1 103c12-21 28-36 61-36 89 0 53 116 60 194h-32v-121c2-32-8-49-39-48" id="av"/><path d="M114-163C36-179 61-72 57 0H25l-1-190h30c1 12-1 29 2 39 6-27 23-49 58-41v29" id="aw"/><g id="t"><use transform="matrix(0.05,0,0,0.05,0,0)" xlink:href="#at"/><use transform="matrix(0.05,0,0,0.05,12.950000000000001,0)" xlink:href="#an"/><use transform="matrix(0.05,0,0,0.05,16.900000000000002,0)" xlink:href="#au"/><use transform="matrix(0.05,0,0,0.05,26.900000000000002,0)" xlink:href="#av"/><use transform="matrix(0.05,0,0,0.05,36.900000000000006,0)" xlink:href="#aq"/><use transform="matrix(0.05,0,0,0.05,46.900000000000006,0)" xlink:href="#aw"/></g><path d="M143 4C61 4 22-44 18-125c-5-107 100-154 193-111 17 8 29 25 37 43l-32 9c-13-25-37-40-76-40-61 0-88 39-88 99 0 61 29 100 91 101 35 0 62-11 79-27v-45h-74v-28h105v86C228-13 192 4 143 4" id="ax"/><g id="v"><use transform="matrix(0.061728395061728385,0,0,0.061728395061728385,0,0)" xlink:href="#ax"/><use transform="matrix(0.061728395061728385,0,0,0.061728395061728385,17.28395061728395,0)" xlink:href="#aq"/><use transform="matrix(0.061728395061728385,0,0,0.061728395061728385,29.629629629629626,0)" xlink:href="#ao"/><use transform="matrix(0.061728395061728385,0,0,0.061728395061728385,41.9753086419753,0)" xlink:href="#aq"/><use transform="matrix(0.061728395061728385,0,0,0.061728395061728385,54.32098765432098,0)" xlink:href="#aw"/><use transform="matrix(0.061728395061728385,0,0,0.061728395061728385,61.66666666666666,0)" xlink:href="#am"/><use transform="matrix(0.061728395061728385,0,0,0.061728395061728385,74.01234567901233,0)" xlink:href="#as"/><use transform="matrix(0.061728395061728385,0,0,0.061728395061728385,80.18518518518516,0)" xlink:href="#aq"/></g><path d="M108 0H70L1-190h34L89-25l56-165h34" id="ay"/><g id="w"><use transform="matrix(0.061728395061728385,0,0,0.061728395061728385,0,0)" xlink:href="#ak"/><use transform="matrix(0.061728395061728385,0,0,0.061728395061728385,14.814814814814813,0)" xlink:href="#aw"/><use transform="matrix(0.061728395061728385,0,0,0.061728395061728385,22.16049382716049,0)" xlink:href="#an"/><use transform="matrix(0.061728395061728385,0,0,0.061728395061728385,27.03703703703703,0)" xlink:href="#ay"/><use transform="matrix(0.061728395061728385,0,0,0.061728395061728385,38.14814814814814,0)" xlink:href="#am"/><use transform="matrix(0.061728395061728385,0,0,0.061728395061728385,50.493827160493815,0)" xlink:href="#as"/><use transform="matrix(0.061728395061728385,0,0,0.061728395061728385,56.66666666666666,0)" xlink:href="#aq"/></g><path d="M85-194c31 0 48 13 60 33l-1-100h32l1 261h-30c-2-10 0-23-3-31C134-8 116 4 85 4 32 4 16-35 15-94c0-66 23-100 70-100zm9 24c-40 0-46 34-46 75 0 40 6 74 45 74 42 0 51-32 51-76 0-42-9-74-50-73" id="az"/><g id="x"><use transform="matrix(0.061728395061728385,0,0,0.061728395061728385,0,0)" xlink:href="#am"/><use transform="matrix(0.061728395061728385,0,0,0.061728395061728385,12.345679012345677,0)" xlink:href="#ao"/><use transform="matrix(0.061728395061728385,0,0,0.061728395061728385,24.691358024691354,0)" xlink:href="#az"/></g><path d="M84 4C-5 8 30-112 23-190h32v120c0 31 7 50 39 49 72-2 45-101 50-169h31l1 190h-30c-1-10 1-25-2-33-11 22-28 36-60 37" id="aA"/><path d="M115-194c53 0 69 39 70 98 0 66-23 100-70 100C84 3 66-7 56-30L54 0H23l1-261h32v101c10-23 28-34 59-34zm-8 174c40 0 45-34 45-75 0-40-5-75-45-74-42 0-51 32-51 76 0 43 10 73 51 73" id="aB"/><path d="M96-169c-40 0-48 33-48 73s9 75 48 75c24 0 41-14 43-38l32 2c-6 37-31 61-74 61-59 0-76-41-82-99-10-93 101-131 147-64 4 7 5 14 7 22l-32 3c-4-21-16-35-41-35" id="aC"/><g id="y"><use transform="matrix(0.061728395061728385,0,0,0.061728395061728385,0,0)" xlink:href="#ak"/><use transform="matrix(0.061728395061728385,0,0,0.061728395061728385,14.814814814814813,0)" xlink:href="#aA"/><use transform="matrix(0.061728395061728385,0,0,0.061728395061728385,27.16049382716049,0)" xlink:href="#aB"/><use transform="matrix(0.061728395061728385,0,0,0.061728395061728385,39.50617283950616,0)" xlink:href="#al"/><use transform="matrix(0.061728395061728385,0,0,0.061728395061728385,44.38271604938271,0)" xlink:href="#an"/><use transform="matrix(0.061728395061728385,0,0,0.061728395061728385,49.25925925925925,0)" xlink:href="#aC"/></g><path d="M194 0L95-120 63-95V0H30v-248h33v124l119-124h40L117-140 236 0h-42" id="aD"/><path d="M179-190L93 31C79 59 56 82 12 73V49c39 6 53-20 64-50L1-190h34L92-34l54-156h33" id="aE"/><g id="z"><use transform="matrix(0.061728395061728385,0,0,0.061728395061728385,0,0)" xlink:href="#aD"/><use transform="matrix(0.061728395061728385,0,0,0.061728395061728385,14.814814814814813,0)" xlink:href="#aq"/><use transform="matrix(0.061728395061728385,0,0,0.061728395061728385,27.16049382716049,0)" xlink:href="#aE"/></g><g id="A"><use transform="matrix(0.061728395061728385,0,0,0.061728395061728385,0,0)" xlink:href="#ak"/><use transform="matrix(0.061728395061728385,0,0,0.061728395061728385,14.814814814814813,0)" xlink:href="#am"/><use transform="matrix(0.061728395061728385,0,0,0.061728395061728385,27.16049382716049,0)" xlink:href="#an"/><use transform="matrix(0.061728395061728385,0,0,0.061728395061728385,32.03703703703703,0)" xlink:href="#aw"/></g><filter id="u" filterUnits="objectBoundingBox" x="-.08" y="-.03" width="1.16" height="1.17"><feOffset result="offOut" in="SourceAlpha" dy="6"/><feGaussianBlur result="blurOut" in="offOut" stdDeviation="5"/><feColorMatrix result="colorOut" in="blurOut" values="0 0 0 0 0 0 0 0 0 0 0 0 0 0 0 0 0 0 0.16862745098039217 0"/><feBlend in="SourceGraphic" in2="colorOut"/></filter><path d="M205 0l-28-72H64L36 0H1l101-248h38L239 0h-34zm-38-99l-47-123c-12 45-31 82-46 123h93" id="aF"/><path d="M47-170H22l-4-78h33" id="aG"/><path d="M135-143c-3-34-86-38-87 0 15 53 115 12 119 90S17 21 10-45l28-5c4 36 97 45 98 0-10-56-113-15-118-90-4-57 82-63 122-42 12 7 21 19 24 35" id="aH"/><g id="C"><use transform="matrix(0.061728395061728385,0,0,0.061728395061728385,0,0)" xlink:href="#aF"/><use transform="matrix(0.061728395061728385,0,0,0.061728395061728385,14.814814814814813,0)" xlink:href="#al"/><use transform="matrix(0.061728395061728385,0,0,0.061728395061728385,19.691358024691354,0)" xlink:href="#an"/><use transform="matrix(0.061728395061728385,0,0,0.061728395061728385,24.5679012345679,0)" xlink:href="#aC"/><use transform="matrix(0.061728395061728385,0,0,0.061728395061728385,35.679012345679006,0)" xlink:href="#aq"/><use transform="matrix(0.061728395061728385,0,0,0.061728395061728385,48.02469135802468,0)" xlink:href="#aG"/><use transform="matrix(0.061728395061728385,0,0,0.061728395061728385,52.222222222222214,0)" xlink:href="#aH"/></g><g id="D"><use transform="matrix(0.061728395061728385,0,0,0.061728395061728385,0,0)" xlink:href="#ak"/><use transform="matrix(0.061728395061728385,0,0,0.061728395061728385,14.814814814814813,0)" xlink:href="#aA"/><use transform="matrix(0.061728395061728385,0,0,0.061728395061728385,27.16049382716049,0)" xlink:href="#aB"/><use transform="matrix(0.061728395061728385,0,0,0.061728395061728385,39.50617283950616,0)" xlink:href="#al"/><use transform="matrix(0.061728395061728385,0,0,0.061728395061728385,44.38271604938271,0)" xlink:href="#an"/><use transform="matrix(0.061728395061728385,0,0,0.061728395061728385,49.25925925925925,0)" xlink:href="#aC"/></g><g id="E"><use transform="matrix(0.061728395061728385,0,0,0.061728395061728385,0,0)" xlink:href="#aD"/><use transform="matrix(0.061728395061728385,0,0,0.061728395061728385,14.814814814814813,0)" xlink:href="#aq"/><use transform="matrix(0.061728395061728385,0,0,0.061728395061728385,27.16049382716049,0)" xlink:href="#aE"/></g><filter id="B" filterUnits="objectBoundingBox" x="-.1" y="-.05" width="1.2" height="1.27"><feOffset result="offOut" in="SourceAlpha" dy="6"/><feGaussianBlur result="blurOut" in="offOut" stdDeviation="5"/><feColorMatrix result="colorOut" in="blurOut" values="0 0 0 0 0 0 0 0 0 0 0 0 0 0 0 0 0 0 0.16862745098039217 0"/><feBlend in="SourceGraphic" in2="colorOut"/></filter><g id="F"><use transform="matrix(0.061728395061728385,0,0,0.061728395061728385,0,0)" xlink:href="#ak"/><use transform="matrix(0.061728395061728385,0,0,0.061728395061728385,14.814814814814813,0)" xlink:href="#aw"/><use transform="matrix(0.061728395061728385,0,0,0.061728395061728385,22.16049382716049,0)" xlink:href="#an"/><use transform="matrix(0.061728395061728385,0,0,0.061728395061728385,27.03703703703703,0)" xlink:href="#ay"/><use transform="matrix(0.061728395061728385,0,0,0.061728395061728385,38.14814814814814,0)" xlink:href="#am"/><use transform="matrix(0.061728395061728385,0,0,0.061728395061728385,50.493827160493815,0)" xlink:href="#as"/><use transform="matrix(0.061728395061728385,0,0,0.061728395061728385,56.66666666666666,0)" xlink:href="#aq"/></g><g id="G"><use transform="matrix(0.05,0,0,0.05,0,0)" xlink:href="#Z"/><use transform="matrix(0.05,0,0,0.05,12,0)" xlink:href="#aa"/><use transform="matrix(0.05,0,0,0.05,21,0)" xlink:href="#L"/><use transform="matrix(0.05,0,0,0.05,31,0)" xlink:href="#M"/><use transform="matrix(0.05,0,0,0.05,36.95,0)" xlink:href="#ab"/><use transform="matrix(0.05,0,0,0.05,45.95,0)" xlink:href="#R"/><use transform="matrix(0.05,0,0,0.05,55.95,0)" xlink:href="#ac"/><use transform="matrix(0.05,0,0,0.05,65.95,0)" xlink:href="#L"/></g><path fill="#303030" d="M84 4C-5 8 30-112 23-190h32v120c0 31 7 50 39 49 72-2 45-101 50-169h31l1 190h-30c-1-10 1-25-2-33-11 22-28 36-60 37" id="aI"/><g id="H"><use transform="matrix(0.05,0,0,0.05,0,0)" xlink:href="#ai"/><use transform="matrix(0.05,0,0,0.05,12,0)" xlink:href="#aI"/><use transform="matrix(0.05,0,0,0.05,22,0)" xlink:href="#S"/><use transform="matrix(0.05,0,0,0.05,32,0)" xlink:href="#T"/><use transform="matrix(0.05,0,0,0.05,35.95,0)" xlink:href="#N"/><use transform="matrix(0.05,0,0,0.05,39.900000000000006,0)" xlink:href="#X"/></g><path fill="#303030" d="M30-248c118-7 216 8 213 122C240-48 200 0 122 0H30v-248zM63-27c89 8 146-16 146-99s-60-101-146-95v194" id="aJ"/><g id="I"><use transform="matrix(0.05,0,0,0.05,0,0)" xlink:href="#aJ"/><use transform="matrix(0.05,0,0,0.05,12.950000000000001,0)" xlink:href="#L"/><use transform="matrix(0.05,0,0,0.05,22.950000000000003,0)" xlink:href="#X"/><use transform="matrix(0.05,0,0,0.05,31.950000000000003,0)" xlink:href="#M"/><use transform="matrix(0.05,0,0,0.05,37.900000000000006,0)" xlink:href="#ab"/><use transform="matrix(0.05,0,0,0.05,46.900000000000006,0)" xlink:href="#Q"/><use transform="matrix(0.05,0,0,0.05,56.900000000000006,0)" xlink:href="#W"/><use transform="matrix(0.05,0,0,0.05,61.900000000000006,0)" xlink:href="#N"/><use transform="matrix(0.05,0,0,0.05,65.85000000000001,0)" xlink:href="#R"/><use transform="matrix(0.05,0,0,0.05,75.85000000000001,0)" xlink:href="#ac"/></g></defs></g></svg>