<svg xmlns="http://www.w3.org/2000/svg" xmlns:xlink="http://www.w3.org/1999/xlink" xmlns:lucid="lucid" width="1254.73" height="1071"><g transform="translate(-49 -180)" lucid:page-tab-id="Rd8yaQQiDG.i"><path d="M454.46 213c0-1.66 1.35-3 3-3H747.2c1.65 0 3 1.34 3 3v54c0 1.66-1.35 3-3 3H457.46c-1.65 0-3-1.34-3-3z" fill="none"/><use xlink:href="#a" transform="matrix(1,0,0,1,454.46332798304775,210) translate(8.074999999999989 22.799999999999997)"/><use xlink:href="#b" transform="matrix(1,0,0,1,454.46332798304775,210) translate(45.07499999999999 22.799999999999997)"/><use xlink:href="#c" transform="matrix(1,0,0,1,454.46332798304775,210) translate(97.02499999999999 22.799999999999997)"/><use xlink:href="#d" transform="matrix(1,0,0,1,454.46332798304775,210) translate(184.975 22.799999999999997)"/><use xlink:href="#e" transform="matrix(1,0,0,1,454.46332798304775,210) translate(214.975 22.799999999999997)"/><use xlink:href="#f" transform="matrix(1,0,0,1,454.46332798304775,210) translate(44.125 44.4)"/><use xlink:href="#g" transform="matrix(1,0,0,1,454.46332798304775,210) translate(85.025 44.4)"/><use xlink:href="#h" transform="matrix(1,0,0,1,454.46332798304775,210) translate(128.925 44.4)"/><use xlink:href="#i" transform="matrix(1,0,0,1,454.46332798304775,210) translate(157.875 44.4)"/><use xlink:href="#j" transform="matrix(1,0,0,1,454.46332798304775,210) translate(187.875 44.4)"/><path d="M428.52 280h-76.64c-.88 0-1.68-.76-1.68-1.7v-5.12c0-18.18 11.92-33.43 29.52-37.7.48-.1.88-.05 1.28.17 5.92 3.2 12.48 3.2 18.4 0 .4-.22.8-.26 1.2-.17 17.68 4.27 29.6 19.52 29.6 37.7v5.13c0 .94-.8 1.7-1.68 1.7zm-74.88-3.43h73.12v-3.4c.08-16.35-10.56-30.07-26.32-34.17-3.36 1.65-6.48 2.4-10.24 2.4s-6.88-.7-10.24-2.4c-15.76 4.1-26.4 17.82-26.32 34.18z" stroke="#fff" stroke-opacity="0" fill="#232f3e"/><path d="M390.2 241.3c-3.67 0-6.8-.78-10.03-2.56-9.95-5.58-13.5-18.2-7.93-28.17 5.57-9.95 18.17-13.5 28.08-7.93 6.73 3.76 10.57 10.33 10.57 18.05 0 7.76-3.93 14.36-10.74 18.04-3.23 1.73-6.32 2.56-9.96 2.56zm0-37.83c-6.6-.17-12.26 3.18-15.44 8.96-4.5 8.4-1.4 18.8 6.94 23.34 5.4 2.93 11.35 2.93 16.76 0 5.7-3.1 9-8.68 8.96-15.2-.04-9.5-7.76-17.14-17.22-17.1z" stroke="#fff" stroke-opacity="0" fill="#232f3e"/><g filter="url(#k)"><path d="M253.1 385.77h94.18c14.38 0 14.38 0 14.38 14.52v64c0 14.52 0 14.52-14.38 14.52H253.1c-14.37 0-14.37 0-14.37-14.52v-64c0-14.53 0-14.53 14.38-14.53z" fill="#7d7c7c"/><path d="M253.1 380h94.18c14.38 0 14.38 0 14.38 14.52v64c0 14.53 0 14.53-14.38 14.53H253.1c-14.37 0-14.37 0-14.37-14.52v-64c0-14.53 0-14.53 14.38-14.53z" fill="#fff"/><path d="M353.02 409.64c0 12.26-9.9 22.22-22.1 22.22-12.2 0-22.1-9.96-22.1-22.22 0-12.26 9.9-22.2 22.1-22.2 12.2 0 22.1 9.94 22.1 22.2z" fill="#759c3e"/><path d="M346.35 409.64c0 3.2-2.58 5.8-5.77 5.8-3.18 0-5.77-2.6-5.77-5.8 0-3.2 2.6-5.8 5.78-5.8 3.2 0 5.77 2.6 5.77 5.8z" fill="#fff"/><path d="M323.43 419.1h-25.56l-2.3-4.05-8.66.8-3.32-3.4-3.02-.68-7.88 4.75-9.8-7.58 5.38-8.7h55.17v18.85z" fill="#759c3e"/><path d="M291.55 443.84c0 12.26-9.9 22.2-22.1 22.2-12.2 0-22.1-9.94-22.1-22.2s9.9-22.2 22.1-22.2c12.2 0 22.1 9.94 22.1 22.2z" fill="#7d7c7c"/><path d="M265.55 443.83c0 3.2-2.58 5.8-5.77 5.8-3.18 0-5.77-2.6-5.77-5.8 0-3.2 2.6-5.8 5.78-5.8 3.2 0 5.77 2.6 5.77 5.8z" fill="#fff"/><path d="M276.95 434.4h25.55l2.3 4.05 8.66-.8 3.33 3.4 3.02.67 7.87-4.76 9.8 7.57-5.4 8.74h-55.15V434.4z" fill="#7d7c7c"/><use xlink:href="#l" transform="matrix(1,0,0,1,238.731501477197,478.8297291559559) translate(24.487654320987666 14.222222222222218)"/><use xlink:href="#m" transform="matrix(1,0,0,1,238.731501477197,478.8297291559559) translate(16.61111111111113 37.68888888888888)"/><use xlink:href="#n" transform="matrix(1,0,0,1,238.731501477197,478.8297291559559) translate(76.75925925925927 37.68888888888888)"/><use xlink:href="#o" transform="matrix(1,0,0,1,238.731501477197,478.8297291559559) translate(1.351851851851869 61.15555555555555)"/><use xlink:href="#p" transform="matrix(1,0,0,1,238.731501477197,478.8297291559559) translate(54.58641975308642 61.15555555555555)"/><use xlink:href="#q" transform="matrix(1,0,0,1,238.731501477197,478.8297291559559) translate(90.14197530864197 61.15555555555555)"/></g><g filter="url(#r)"><path d="M1068.8 489.34c0 13.16-11.22 23.85-25.04 23.85-13.8 0-25.03-10.7-25.03-23.86s11.22-23.85 25.03-23.85c13.82 0 25.04 10.68 25.04 23.84z" fill="#307f95"/><path d="M1052.23 479.2h28.96l2.6 4.35 9.8-.87 3.78 3.66 3.43.73 20.05-2.47v5.5l-6.1 9.37h-62.52V479.2zM1018.73 483.85h24.1v6.22h-24.1v-6.22z" fill="#307f95"/><path d="M1068.8 483.85c0 13.16-11.22 23.84-25.04 23.84-13.8 0-25.03-10.7-25.03-23.85 0-13.17 11.22-23.85 25.03-23.85 13.82 0 25.04 10.68 25.04 23.85z" fill="#5abaa7"/><path d="M1039.34 483.84c0 3.44-2.93 6.23-6.53 6.23s-6.53-2.8-6.53-6.23c0-3.43 2.93-6.22 6.54-6.22 3.6 0 6.54 2.8 6.54 6.22z" fill="#fff"/><path d="M1052.23 473.72h28.96l2.6 4.33 9.8-.85 3.78 3.65 3.43.73 8.94-5.1 11.1 8.12-6.1 9.37h-62.5v-20.25z" fill="#5abaa7"/><use xlink:href="#s" transform="matrix(1,0,0,1,1018.7315014771971,513.1935882352941) translate(2.9567901234568126 14.222222222222218)"/><use xlink:href="#t" transform="matrix(1,0,0,1,1018.7315014771971,513.1935882352941) translate(51.74691358024692 14.222222222222218)"/><use xlink:href="#u" transform="matrix(1,0,0,1,1018.7315014771971,513.1935882352941) translate(36.19135802469137 37.68888888888888)"/></g><g filter="url(#r)"><path d="M148.8 369.34c0 13.16-11.22 23.85-25.04 23.85-13.8 0-25.03-10.7-25.03-23.86s11.22-23.85 25.03-23.85c13.82 0 25.04 10.68 25.04 23.84z" fill="#4b612c"/><path d="M132.23 359.2h28.96l2.6 4.35 9.8-.87 3.78 3.66 3.43.73 20.05-2.47v5.5l-6.1 9.37h-62.52V359.2zM98.73 363.85h24.1v6.22h-24.1v-6.22z" fill="#4b612c"/><path d="M148.8 363.85c0 13.16-11.22 23.84-25.04 23.84-13.8 0-25.03-10.7-25.03-23.85 0-13.17 11.22-23.85 25.03-23.85 13.82 0 25.04 10.68 25.04 23.85z" fill="#759c3e"/><path d="M119.34 363.84c0 3.44-2.93 6.23-6.53 6.23s-6.53-2.8-6.53-6.23c0-3.43 2.93-6.22 6.54-6.22 3.6 0 6.54 2.8 6.54 6.22z" fill="#fff"/><path d="M132.23 353.72h28.96l2.6 4.33 9.8-.85 3.78 3.65 3.43.73 8.94-5.1 11.1 8.12-6.1 9.37h-62.5v-20.25z" fill="#759c3e"/><use xlink:href="#v" transform="matrix(1,0,0,1,98.73150147719707,393.1935882352941) translate(26.166666666666675 14.222222222222218)"/><use xlink:href="#m" transform="matrix(1,0,0,1,98.73150147719707,393.1935882352941) translate(6.117283950617299 37.68888888888888)"/><use xlink:href="#u" transform="matrix(1,0,0,1,98.73150147719707,393.1935882352941) translate(66.26543209876543 37.68888888888888)"/></g><path d="M398.73 321v880.5M398.73 321.03V320" stroke="#303030" stroke-width="2" fill="none"/><path d="M398.73 1216.76l-4.63-14.26h9.27z" stroke="#303030" stroke-width="2" fill="#303030"/><g filter="url(#k)"><path d="M868.85 385.77H963c14.4 0 14.4 0 14.4 14.52v64c0 14.52 0 14.52-14.4 14.52h-94.15c-14.4 0-14.4 0-14.4-14.52v-64c0-14.53 0-14.53 14.4-14.53z" fill="#7d7c7c"/><path d="M868.85 380H963c14.4 0 14.4 0 14.4 14.52v64c0 14.53 0 14.53-14.4 14.53h-94.15c-14.4 0-14.4 0-14.4-14.52v-64c0-14.53 0-14.53 14.4-14.53z" fill="#fff"/><path d="M968.75 409.64c0 12.26-9.9 22.22-22.1 22.22-12.2 0-22.1-9.96-22.1-22.22 0-12.26 9.9-22.2 22.1-22.2 12.2 0 22.1 9.94 22.1 22.2z" fill="#759c3e"/><path d="M962.1 409.64c0 3.2-2.6 5.8-5.8 5.8-3.17 0-5.76-2.6-5.76-5.8 0-3.2 2.6-5.8 5.77-5.8 3.2 0 5.8 2.6 5.8 5.8z" fill="#fff"/><path d="M939.16 419.1H913.6l-2.3-4.05-8.65.8-3.33-3.4-3.03-.68-7.88 4.75-9.8-7.58 5.38-8.7h55.16v18.85z" fill="#759c3e"/><path d="M907.3 443.84c0 12.26-9.92 22.2-22.12 22.2-12.2 0-22.1-9.94-22.1-22.2s9.9-22.2 22.1-22.2c12.2 0 22.1 9.94 22.1 22.2z" fill="#7d7c7c"/><path d="M881.3 443.83c0 3.2-2.6 5.8-5.8 5.8-3.17 0-5.76-2.6-5.76-5.8 0-3.2 2.6-5.8 5.77-5.8 3.2 0 5.8 2.6 5.8 5.8z" fill="#fff"/><path d="M892.68 434.4h25.56l2.3 4.05 8.66-.8 3.33 3.4 3.02.67 7.88-4.76 9.8 7.57-5.38 8.74h-55.17V434.4z" fill="#7d7c7c"/><use xlink:href="#l" transform="matrix(1,0,0,1,854.4633279830477,478.8297291559559) translate(24.487654320987666 14.222222222222218)"/><use xlink:href="#m" transform="matrix(1,0,0,1,854.4633279830477,478.8297291559559) translate(16.61111111111113 37.68888888888888)"/><use xlink:href="#n" transform="matrix(1,0,0,1,854.4633279830477,478.8297291559559) translate(76.75925925925927 37.68888888888888)"/><use xlink:href="#o" transform="matrix(1,0,0,1,854.4633279830477,478.8297291559559) translate(1.351851851851869 61.15555555555555)"/><use xlink:href="#p" transform="matrix(1,0,0,1,854.4633279830477,478.8297291559559) translate(54.58641975308642 61.15555555555555)"/><use xlink:href="#q" transform="matrix(1,0,0,1,854.4633279830477,478.8297291559559) translate(90.14197530864197 61.15555555555555)"/></g><g filter="url(#r)"><path d="M1068.8 369.34c0 13.16-11.22 23.85-25.04 23.85-13.8 0-25.03-10.7-25.03-23.86s11.22-23.85 25.03-23.85c13.82 0 25.04 10.68 25.04 23.84z" fill="#106bcb"/><path d="M1052.23 359.2h28.96l2.6 4.35 9.8-.87 3.78 3.66 3.43.73 20.05-2.47v5.5l-6.1 9.37h-62.52V359.2zM1018.73 363.85h24.1v6.22h-24.1v-6.22z" fill="#106bcb"/><path d="M1068.8 363.85c0 13.16-11.22 23.84-25.04 23.84-13.8 0-25.03-10.7-25.03-23.85 0-13.17 11.22-23.85 25.03-23.85 13.82 0 25.04 10.68 25.04 23.85z" fill="#3aa6dd"/><path d="M1039.34 363.84c0 3.44-2.93 6.23-6.53 6.23s-6.53-2.8-6.53-6.23c0-3.43 2.93-6.22 6.54-6.22 3.6 0 6.54 2.8 6.54 6.22z" fill="#fff"/><path d="M1052.23 353.72h28.96l2.6 4.33 9.8-.85 3.78 3.65 3.43.73 8.94-5.1 11.1 8.12-6.1 9.37h-62.5v-20.25z" fill="#3aa6dd"/><use xlink:href="#w" transform="matrix(1,0,0,1,1018.7315014771971,393.1935882352941) translate(29.574074074074083 14.222222222222218)"/><use xlink:href="#m" transform="matrix(1,0,0,1,1018.7315014771971,393.1935882352941) translate(6.117283950617299 37.68888888888888)"/><use xlink:href="#u" transform="matrix(1,0,0,1,1018.7315014771971,393.1935882352941) translate(66.26543209876543 37.68888888888888)"/></g><path d="M230.2 320v-37c0-1.66 1.34-3 3-3h317v40zM550.2 280h525.53c1.66 0 3 1.34 3 3v37H550.2z" fill="#d2d3d3"/><path d="M550.2 1060h-317c-1.66 0-3-1.34-3-3V320h320zM1078.73 320v737c0 1.66-1.34 3-3 3H550.2V320z" fill="none"/><use xlink:href="#x" transform="matrix(1,0,0,1,230.19515448889842,280) translate(140.55 32.8)"/><use xlink:href="#y" transform="matrix(1,0,0,1,550.1951544888984,280) translate(248.5 32.8)"/><path d="M852.78 280h-76.64c-.88 0-1.68-.76-1.68-1.7v-5.12c0-18.18 11.92-33.43 29.52-37.7.48-.1.88-.05 1.28.17 5.92 3.2 12.48 3.2 18.4 0 .4-.22.8-.26 1.2-.17 17.68 4.27 29.6 19.52 29.6 37.7v5.13c0 .94-.8 1.7-1.68 1.7zm-74.88-3.43h73.12v-3.4c.08-16.35-10.56-30.07-26.32-34.17-3.36 1.65-6.48 2.4-10.24 2.4s-6.88-.7-10.24-2.4c-15.76 4.1-26.4 17.82-26.32 34.18z" stroke="#fff" stroke-opacity="0" fill="#232f3e"/><path d="M814.47 241.3c-3.67 0-6.8-.78-10.03-2.56-9.96-5.58-13.5-18.2-7.93-28.17 5.58-9.95 18.18-13.5 28.1-7.93 6.72 3.76 10.56 10.33 10.56 18.05 0 7.76-3.92 14.36-10.74 18.04-3.22 1.73-6.3 2.56-9.95 2.56zm0-37.83c-6.6-.17-12.26 3.18-15.44 8.96-4.5 8.4-1.4 18.8 6.93 23.34 5.4 2.93 11.36 2.93 16.77 0 5.7-3.1 9-8.68 8.96-15.2-.05-9.5-7.77-17.14-17.23-17.1z" stroke="#fff" stroke-opacity="0" fill="#232f3e"/><path d="M818.73 321v880.5M818.73 321.03V320" stroke="#303030" stroke-width="2" fill="none"/><path d="M818.73 1216.76l-4.63-14.26h9.27z" stroke="#303030" stroke-width="2" fill="#303030"/><path d="M300.2 361.5v-21.04c0-1.65 1.34-3 3-3h94.53" stroke="#303030" stroke-width="2" fill="none"/><path d="M300.2 376.76l-4.64-14.26h9.27z" stroke="#303030" stroke-width="2" fill="#303030"/><path d="M397.7 337.46h1.03M915.93 361.5v-17.22c0-1.66-1.35-3-3-3h-93.2" stroke="#303030" stroke-width="2" fill="none"/><path d="M915.93 376.76l-4.64-14.26h9.26z" stroke="#303030" stroke-width="2" fill="#303030"/><path d="M819.76 341.28h-1.03" stroke="#303030" stroke-width="2" fill="none"/><g filter="url(#r)"><path d="M148.8 489.34c0 13.16-11.22 23.85-25.04 23.85-13.8 0-25.03-10.7-25.03-23.86s11.22-23.85 25.03-23.85c13.82 0 25.04 10.68 25.04 23.84z" fill="#d58862"/><path d="M132.23 479.2h28.96l2.6 4.35 9.8-.87 3.78 3.66 3.43.73 20.05-2.47v5.5l-6.1 9.37h-62.52V479.2zM98.73 483.85h24.1v6.22h-24.1v-6.22z" fill="#d58862"/><path d="M148.8 483.85c0 13.16-11.22 23.84-25.04 23.84-13.8 0-25.03-10.7-25.03-23.85 0-13.17 11.22-23.85 25.03-23.85 13.82 0 25.04 10.68 25.04 23.85z" fill="#ffc374"/><path d="M119.34 483.84c0 3.44-2.93 6.23-6.53 6.23s-6.53-2.8-6.53-6.23c0-3.43 2.93-6.22 6.54-6.22 3.6 0 6.54 2.8 6.54 6.22z" fill="#fff"/><path d="M132.23 473.72h28.96l2.6 4.33 9.8-.85 3.78 3.65 3.43.73 8.94-5.1 11.1 8.12-6.1 9.37h-62.5v-20.25z" fill="#ffc374"/><use xlink:href="#v" transform="matrix(1,0,0,1,98.73150147719707,513.1935882352941) translate(26.166666666666675 14.222222222222218)"/><use xlink:href="#o" transform="matrix(1,0,0,1,98.73150147719707,513.1935882352941) translate(9.57407407407409 37.68888888888888)"/><use xlink:href="#u" transform="matrix(1,0,0,1,98.73150147719707,513.1935882352941) translate(62.80864197530864 37.68888888888888)"/></g><path d="M509.16 414.2H399.73v-2h109.43zm291.07 0H708.3v-2h91.93z" fill="#303030"/><path d="M399.76 414.2h-1.03v-2h1.03zM815.5 413.2l-14.27 4.63v-9.27z" fill="#303030"/><path d="M818.73 413.2l-18.5 6V407.2zm-16.5 3.25l10.03-3.26-10.03-3.27z" fill="#303030"/><use xlink:href="#z" transform="matrix(1,0,0,1,509.1565014771971,402.3935882352941) translate(0 14.4)"/><use xlink:href="#A" transform="matrix(1,0,0,1,509.1565014771971,402.3935882352941) translate(5 14.4)"/><use xlink:href="#B" transform="matrix(1,0,0,1,509.1565014771971,402.3935882352941) translate(57.95 14.4)"/><use xlink:href="#C" transform="matrix(1,0,0,1,509.1565014771971,402.3935882352941) translate(114.25 14.4)"/><use xlink:href="#D" transform="matrix(1,0,0,1,509.1565014771971,402.3935882352941) translate(168.15 14.4)"/><path d="M515.1 483.04h-97.87v-2h97.88zm302.63 0H702.36v-2h115.37zM416.23 486.68l-14.26-4.64 14.26-4.63z" fill="#303030"/><path d="M417.23 488.06l-18.5-6.02 18.5-6zm-12.03-6.02l10.03 3.26v-6.5zM818.73 483.04h-1.02v-2h1.03z" fill="#303030"/><use xlink:href="#E" transform="matrix(1,0,0,1,515.1065014771971,471.2442371897533) translate(0 14.4)"/><use xlink:href="#F" transform="matrix(1,0,0,1,515.1065014771971,471.2442371897533) translate(52.95 14.4)"/><use xlink:href="#C" transform="matrix(1,0,0,1,515.1065014771971,471.2442371897533) translate(102.35 14.4)"/><use xlink:href="#D" transform="matrix(1,0,0,1,515.1065014771971,471.2442371897533) translate(156.25 14.4)"/><path d="M318.73 583c0-1.66 1.34-3 3-3h154c1.66 0 3 1.34 3 3v117c-26.72-20.04-43.36-20.04-53.44-20.04-16 0-37.3 20.04-53.3 20.04-9.9 0-26.7 0-53.27-20.04z" fill="#e5e5e5"/><use xlink:href="#G" transform="matrix(1,0,0,1,323.73150147719707,585) translate(1.5749999999999886 37.8)"/><use xlink:href="#e" transform="matrix(1,0,0,1,323.73150147719707,585) translate(75.475 37.8)"/><use xlink:href="#H" transform="matrix(1,0,0,1,323.73150147719707,585) translate(46.025 59.4)"/><use xlink:href="#I" transform="matrix(1,0,0,1,323.73150147719707,585) translate(71.975 59.4)"/><path d="M317.73 640H293.2c-1.66 0-3 1.34-3 3v58.5" stroke="#303030" stroke-width="2" fill="none"/><path d="M318.73 641h-1.02v-2h1.03z" fill="#303030"/><path d="M290.2 716.76l-4.64-14.26h9.27z" stroke="#303030" stroke-width="2" fill="#303030"/><path d="M337.7 947.6h60.03" stroke="#303030" stroke-width="2" fill="none"/><path d="M337.7 948.6h-1v-2h1z" fill="#303030"/><path d="M397.7 947.6h1.03" stroke="#303030" stroke-width="2" fill="none"/><path d="M519.33 949.12h-119.6v-2h119.6zm280.9 0h-152v-2h152z" fill="#303030"/><path d="M399.76 949.12h-1.03v-2h1.03zM815.5 948.12l-14.27 4.63v-9.27z" fill="#303030"/><path d="M818.73 948.12l-18.5 6V942.1zm-16.5 3.26l10.03-3.26-10.03-3.26z" fill="#303030"/><use xlink:href="#z" transform="matrix(1,0,0,1,519.3305733042637,937.3165723892739) translate(0 14.4)"/><use xlink:href="#J" transform="matrix(1,0,0,1,519.3305733042637,937.3165723892739) translate(5 14.4)"/><use xlink:href="#K" transform="matrix(1,0,0,1,519.3305733042637,937.3165723892739) translate(52 14.4)"/><path d="M330.64 907.28h-6.13V896c0-23.76-15.15-36-32.82-36h-2.88c-18.04 0-32.92 11.88-32.92 36v11.28h-6.04c-2.6 0-6.14 3.48-6.14 6.12v60.48c0 2.64 3.54 6.12 6.14 6.12h80.7c2.6 0 6.15-3.48 6.15-6.12V913.4c-.3-2.64-3.82-6.12-6.06-6.12zm-36.07 35.76v25.08h-9.02v-25.08c-3.54-1.68-6.14-5.16-6.14-9.36 0-5.76 4.94-10.56 10.6-10.56 5.87 0 10.7 4.8 10.7 10.56 0 3.84-2.6 7.32-6.13 9.36zm18.7-35.76h-46.04V896c0-15.12 8-25.44 21.57-25.44h2.88c13.86 0 21.58 10.32 21.58 25.44v11.28z" stroke="#000" stroke-opacity="0" fill="#2a3282"/><use xlink:href="#L" transform="matrix(1,0,0,1,213.70265448891024,989) translate(16.14999999999999 14.4)"/><use xlink:href="#M" transform="matrix(1,0,0,1,213.70265448891024,989) translate(7.049999999999997 36)"/><use xlink:href="#N" transform="matrix(1,0,0,1,213.70265448891024,989) translate(73 36)"/><path d="M962.56 910.92h-5.9V895.2c0-22.92-14.57-34.68-31.55-34.68h-2.76c-17.33 0-31.54 11.52-31.54 34.68v.84h11.08v-.84c0-14.64 7.77-24.48 20.73-24.48h2.78c13.32 0 20.74 9.96 20.74 24.48v15.36h-61.48c-2.5 0-5.9 3.48-5.9 5.88v58.2c0 2.52 3.4 5.88 5.9 5.88h77.56c2.5 0 5.9-3.36 5.9-5.88v-58.08c0-2.52-3.4-5.64-5.54-5.64zM927.9 945v24.12h-8.68V945c-3.4-1.56-5.8-4.92-5.8-9 0-5.64 4.63-10.2 10.18-10.2 5.54 0 10.18 4.68 10.18 10.2 0 4.08-2.5 7.44-5.9 9z" stroke="#000" stroke-opacity="0" fill="#2a3282"/><use xlink:href="#O" transform="matrix(1,0,0,1,848.7315014771971,989.5165723892738) translate(1.4249999999999972 14.4)"/><use xlink:href="#P" transform="matrix(1,0,0,1,848.7315014771971,989.5165723892738) translate(43.375 14.4)"/><use xlink:href="#Q" transform="matrix(1,0,0,1,848.7315014771971,989.5165723892738) translate(99.675 14.4)"/><use xlink:href="#R" transform="matrix(1,0,0,1,848.7315014771971,989.5165723892738) translate(7.074999999999989 36)"/><use xlink:href="#S" transform="matrix(1,0,0,1,848.7315014771971,989.5165723892738) translate(43.07499999999999 36)"/><use xlink:href="#T" transform="matrix(1,0,0,1,848.7315014771971,989.5165723892738) translate(81.02499999999999 36)"/><path d="M860.23 948.12h-40.5" stroke="#303030" stroke-width="2" fill="none"/><path d="M875.5 948.12l-14.27 4.63v-9.27z" stroke="#303030" stroke-width="2" fill="#303030"/><path d="M819.76 948.12h-1.03" stroke="#303030" stroke-width="2" fill="none"/><g filter="url(#r)"><path d="M148.8 609.34c0 13.16-11.22 23.85-25.04 23.85-13.8 0-25.03-10.7-25.03-23.86s11.22-23.85 25.03-23.85c13.82 0 25.04 10.68 25.04 23.84z" fill="#307f95"/><path d="M132.23 599.2h28.96l2.6 4.35 9.8-.87 3.78 3.66 3.43.73 20.05-2.47v5.5l-6.1 9.37h-62.52V599.2zM98.73 603.85h24.1v6.22h-24.1v-6.22z" fill="#307f95"/><path d="M148.8 603.85c0 13.16-11.22 23.84-25.04 23.84-13.8 0-25.03-10.7-25.03-23.85 0-13.17 11.22-23.85 25.03-23.85 13.82 0 25.04 10.68 25.04 23.85z" fill="#5abaa7"/><path d="M119.34 603.84c0 3.44-2.93 6.23-6.53 6.23s-6.53-2.8-6.53-6.23c0-3.43 2.93-6.22 6.54-6.22 3.6 0 6.54 2.8 6.54 6.22z" fill="#fff"/><path d="M132.23 593.72h28.96l2.6 4.33 9.8-.85 3.78 3.65 3.43.73 8.94-5.1 11.1 8.12-6.1 9.37h-62.5v-20.25z" fill="#5abaa7"/><use xlink:href="#s" transform="matrix(1,0,0,1,98.73150147719707,633.1935882352941) translate(2.9567901234568126 14.222222222222218)"/><use xlink:href="#t" transform="matrix(1,0,0,1,98.73150147719707,633.1935882352941) translate(51.74691358024692 14.222222222222218)"/><use xlink:href="#u" transform="matrix(1,0,0,1,98.73150147719707,633.1935882352941) translate(36.19135802469137 37.68888888888888)"/></g><g filter="url(#r)"><path d="M1068.8 609.34c0 13.16-11.22 23.85-25.04 23.85-13.8 0-25.03-10.7-25.03-23.86s11.22-23.85 25.03-23.85c13.82 0 25.04 10.68 25.04 23.84z" fill="#d58862"/><path d="M1052.23 599.2h28.96l2.6 4.35 9.8-.87 3.78 3.66 3.43.73 20.05-2.47v5.5l-6.1 9.37h-62.52V599.2zM1018.73 603.85h24.1v6.22h-24.1v-6.22z" fill="#d58862"/><path d="M1068.8 603.85c0 13.16-11.22 23.84-25.04 23.84-13.8 0-25.03-10.7-25.03-23.85 0-13.17 11.22-23.85 25.03-23.85 13.82 0 25.04 10.68 25.04 23.85z" fill="#ffc374"/><path d="M1039.34 603.84c0 3.44-2.93 6.23-6.53 6.23s-6.53-2.8-6.53-6.23c0-3.43 2.93-6.22 6.54-6.22 3.6 0 6.54 2.8 6.54 6.22z" fill="#fff"/><path d="M1052.23 593.72h28.96l2.6 4.33 9.8-.85 3.78 3.65 3.43.73 8.94-5.1 11.1 8.12-6.1 9.37h-62.5v-20.25z" fill="#ffc374"/><use xlink:href="#v" transform="matrix(1,0,0,1,1018.7315014771971,633.1935882352941) translate(26.166666666666675 14.222222222222218)"/><use xlink:href="#o" transform="matrix(1,0,0,1,1018.7315014771971,633.1935882352941) translate(9.57407407407409 37.68888888888888)"/><use xlink:href="#u" transform="matrix(1,0,0,1,1018.7315014771971,633.1935882352941) translate(62.80864197530864 37.68888888888888)"/></g><path d="M750.2 583c0-1.66 1.34-3 3-3h154c1.65 0 3 1.34 3 3v117c-26.72-20.04-43.36-20.04-53.44-20.04-16 0-37.28 20.04-53.28 20.04-9.92 0-26.72 0-53.28-20.04z" fill="#e5e5e5"/><use xlink:href="#G" transform="matrix(1,0,0,1,755.1951544888984,585) translate(1.5749999999999886 37.8)"/><use xlink:href="#e" transform="matrix(1,0,0,1,755.1951544888984,585) translate(75.475 37.8)"/><use xlink:href="#f" transform="matrix(1,0,0,1,755.1951544888984,585) translate(35.1 59.4)"/><use xlink:href="#U" transform="matrix(1,0,0,1,755.1951544888984,585) translate(76 59.4)"/><path d="M547.04 641h-67.3v-2h67.3zm184.65 0h-49.8v-2h49.8z" fill="#303030"/><path d="M479.76 641h-1.03v-2h1.03zM746.96 640l-14.27 4.64v-9.28z" fill="#303030"/><path d="M750.2 640l-18.5 6v-12zm-16.5 3.26L743.7 640l-10.03-3.26z" fill="#303030"/><use xlink:href="#V" transform="matrix(1,0,0,1,547.0383279830478,618.4) translate(0.0049999999999954525 14.4)"/><use xlink:href="#d" transform="matrix(1,0,0,1,547.0383279830478,618.4) translate(31.904999999999998 14.4)"/><use xlink:href="#W" transform="matrix(1,0,0,1,547.0383279830478,618.4) translate(61.905 14.4)"/><use xlink:href="#X" transform="matrix(1,0,0,1,547.0383279830478,618.4) translate(19.980000000000004 36)"/><use xlink:href="#Y" transform="matrix(1,0,0,1,547.0383279830478,618.4) translate(49.980000000000004 36)"/><path d="M218.73 723c0-1.66 1.34-3 3-3h136.93c1.66 0 3 1.34 3 3v74c0 1.66-1.34 3-3 3H221.73c-1.66 0-3-1.34-3-3z" fill="#e5e5e5"/><use xlink:href="#Z" transform="matrix(1,0,0,1,230.73150147719707,732) translate(-9.850000000000009 14.4)"/><use xlink:href="#aa" transform="matrix(1,0,0,1,230.73150147719707,732) translate(23.525 36)"/><use xlink:href="#ab" transform="matrix(1,0,0,1,230.73150147719707,732) translate(70.475 36)"/><use xlink:href="#ac" transform="matrix(1,0,0,1,230.73150147719707,732) translate(25.049999999999997 57.6)"/><path d="M291.2 841.5h-2v-5.4h2zm0-27h-2V801h2z" fill="#303030"/><path d="M291.2 801.03h-2V800h2zM290.2 856.76l-4.64-14.26h9.27z" fill="#303030"/><path d="M290.2 860l-6.02-18.5h12.03zm-3.26-16.5l3.26 10.03 3.25-10.03z" fill="#303030"/><g><use xlink:href="#ad" transform="matrix(1,0,0,1,266.2201544812712,814.5121771004157) translate(0 14.4)"/></g><path d="M99 377.6H63.2l-1.56.64-.64 1.56v563.04l.64 1.56 1.56.64h162v2H62.8l-2.7-1.1-1.1-2.7V379.4l1.1-2.7 2.7-1.1H99z" fill="#303030"/><path d="M100.28 377.6h-1.3v-2h.74zM240.47 946.04l-14.27 4.64v-9.28z" fill="#303030"/><path d="M243.7 946.04l-18.5 6v-12zm-16.5 3.26l10.03-3.26-10.03-3.26z" fill="#303030"/><path d="M1117.62 616.6h36c1.65 0 3 1.34 3 3v197.92c0 1.65-1.35 3-3 3h-226.3c-1.67 0-3 1.34-3 3v18.5" stroke="#303030" stroke-width="2" fill="none"/><path d="M1117.64 617.6h-1.68l1.3-2h.38z" fill="#303030"/><path d="M924.3 857.28L919.68 843h9.28z" stroke="#303030" stroke-width="2" fill="#303030"/><path d="M911.2 640h24.53c1.66 0 3 1.34 3 3v58.5" stroke="#303030" stroke-width="2" fill="none"/><path d="M911.22 641h-1.02v-2h1.02z" fill="#303030"/><path d="M938.73 716.76l-4.63-14.26h9.27z" stroke="#303030" stroke-width="2" fill="#303030"/><path d="M858.73 723c0-1.66 1.34-3 3-3h154c1.66 0 3 1.34 3 3v74c0 1.66-1.34 3-3 3h-154c-1.66 0-3-1.34-3-3z" fill="#e5e5e5"/><g><use xlink:href="#ae" transform="matrix(1,0,0,1,870.7315014771971,732) translate(-1.3500000000000085 14.4)"/><use xlink:href="#af" transform="matrix(1,0,0,1,870.7315014771971,732) translate(32.025 36)"/><use xlink:href="#ab" transform="matrix(1,0,0,1,870.7315014771971,732) translate(78.975 36)"/><use xlink:href="#ac" transform="matrix(1,0,0,1,870.7315014771971,732) translate(33.55 57.6)"/></g><path d="M969.1 947.28h12.54" stroke="#303030" stroke-width="2" fill="none"/><path d="M969.13 948.28h-1.03v-2h1.03z" fill="#303030"/><path d="M996.9 947.28l-14.26 4.63v-9.26z" stroke="#303030" stroke-width="2" fill="#303030"/><path d="M1019.73 760h56c1.66 0 3 1.34 3 3v52.52c-2.76 0-5 2.24-5 5s2.24 5 5 5v44.4" stroke="#303030" stroke-width="2" fill="none"/><path d="M1019.76 761h-1.03v-2h1.03z" fill="#303030"/><path d="M1078.73 885.18l-4.63-14.27h9.27z" stroke="#303030" stroke-width="2" fill="#303030"/><path d="M1076.33 889.08c1.33-1 3.48-1 4.8 0l75.2 56.4c1.33 1 1.33 2.6 0 3.6l-75.2 56.4c-1.32 1-3.47 1-4.8 0l-75.2-56.4c-1.32-1-1.32-2.6 0-3.6z" fill="#e5e5e5"/><g><use xlink:href="#ag" transform="matrix(1,0,0,1,1003.7315014771971,892.2765723892738) translate(63.525 37)"/><use xlink:href="#ah" transform="matrix(1,0,0,1,1003.7315014771971,892.2765723892738) translate(29.525 58.6)"/><use xlink:href="#ai" transform="matrix(1,0,0,1,1003.7315014771971,892.2765723892738) translate(59.525 58.6)"/><use xlink:href="#aj" transform="matrix(1,0,0,1,1003.7315014771971,892.2765723892738) translate(45.525 80.20000000000002)"/></g><path d="M1078.8 1061.5h-2v-7.63h2zm.93-29.23h-2v-25.13h2z" fill="#303030"/><path d="M1079.16 1006.2l.57-.2v1.16h-2V1006zM1077.8 1076.76l-4.64-14.26h9.27z" fill="#303030"/><path d="M1077.8 1080l-6-18.5h12zm-3.26-16.5l3.26 10.03 3.26-10.03z" fill="#303030"/><g><use xlink:href="#ak" transform="matrix(1,0,0,1,1063.5891485360205,1032.2688150349861) translate(0 14.4)"/></g><path d="M1114.44 1080c13.5 0 24.42 7.73 24.42 17.28 0 9.54-10.93 17.27-24.42 17.27h-73.28c-13.5 0-24.43-7.73-24.43-17.27 0-9.55 10.94-17.28 24.43-17.28z" fill="#e5e5e5"/><g><use xlink:href="#al" transform="matrix(1,0,0,1,1021.7315014771968,1085) translate(26.575 16.1)"/></g><path d="M1204.73 966.5h-2v-8.42h2zm-46.4-18.22v-2h29.6v2z" fill="#303030"/><path d="M1158.35 948.28h-1.58l.56-1-.56-1h1.58zM1203.73 981.76l-4.63-14.26h9.27z" fill="#303030"/><path d="M1203.73 985l-6-18.5h12zm-3.26-16.5l3.26 10.03 3.26-10.03z" fill="#303030"/><g><use xlink:href="#am" transform="matrix(1,0,0,1,1187.9152717825602,936.4765723892739) translate(0 14.4)"/></g><path d="M1251.73 985c17.67 0 32 17.9 32 40s-14.33 40-32 40h-96c-17.67 0-32-17.9-32-40s14.33-40 32-40z" fill="#e5e5e5"/><g><use xlink:href="#an" transform="matrix(1,0,0,1,1128.731501477197,990) translate(26.074999999999996 17)"/><use xlink:href="#ao" transform="matrix(1,0,0,1,1128.731501477197,990) translate(107.975 17)"/><use xlink:href="#ap" transform="matrix(1,0,0,1,1128.731501477197,990) translate(20.049999999999997 38.6)"/><use xlink:href="#aq" transform="matrix(1,0,0,1,1128.731501477197,990) translate(98 38.6)"/><use xlink:href="#ar" transform="matrix(1,0,0,1,1128.731501477197,990) translate(46.55 60.2)"/></g><defs><path fill="#303030" d="M160-131c35 5 61 23 61 61C221 17 115-2 30 0v-248c76 3 177-17 177 60 0 33-19 50-47 57zm-97-11c50-1 110 9 110-42 0-47-63-36-110-37v79zm0 115c55-2 124 14 124-45 0-56-70-42-124-44v89" id="as"/><path fill="#303030" d="M100-194c62-1 85 37 85 99 1 63-27 99-86 99S16-35 15-95c0-66 28-99 85-99zM99-20c44 1 53-31 53-75 0-43-8-75-51-75s-53 32-53 75 10 74 51 75" id="at"/><path fill="#303030" d="M115-194c53 0 69 39 70 98 0 66-23 100-70 100C84 3 66-7 56-30L54 0H23l1-261h32v101c10-23 28-34 59-34zm-8 174c40 0 45-34 45-75 0-40-5-75-45-74-42 0-51 32-51 76 0 43 10 73 51 73" id="au"/><g id="a"><use transform="matrix(0.05,0,0,0.05,0,0)" xlink:href="#as"/><use transform="matrix(0.05,0,0,0.05,12,0)" xlink:href="#at"/><use transform="matrix(0.05,0,0,0.05,22,0)" xlink:href="#au"/></g><path fill="#303030" d="M206 0h-36l-40-164L89 0H53L-1-190h32L70-26l43-164h34l41 164 42-164h31" id="av"/><path fill="#303030" d="M141-36C126-15 110 5 73 4 37 3 15-17 15-53c-1-64 63-63 125-63 3-35-9-54-41-54-24 1-41 7-42 31l-33-3c5-37 33-52 76-52 45 0 72 20 72 64v82c-1 20 7 32 28 27v20c-31 9-61-2-59-35zM48-53c0 20 12 33 32 33 41-3 63-29 60-74-43 2-92-5-92 41" id="aw"/><path fill="#303030" d="M117-194c89-4 53 116 60 194h-32v-121c0-31-8-49-39-48C34-167 62-67 57 0H25l-1-190h30c1 10-1 24 2 32 11-22 29-35 61-36" id="ax"/><path fill="#303030" d="M59-47c-2 24 18 29 38 22v24C64 9 27 4 27-40v-127H5v-23h24l9-43h21v43h35v23H59v120" id="ay"/><path fill="#303030" d="M135-143c-3-34-86-38-87 0 15 53 115 12 119 90S17 21 10-45l28-5c4 36 97 45 98 0-10-56-113-15-118-90-4-57 82-63 122-42 12 7 21 19 24 35" id="az"/><g id="b"><use transform="matrix(0.05,0,0,0.05,0,0)" xlink:href="#av"/><use transform="matrix(0.05,0,0,0.05,12.950000000000001,0)" xlink:href="#aw"/><use transform="matrix(0.05,0,0,0.05,22.950000000000003,0)" xlink:href="#ax"/><use transform="matrix(0.05,0,0,0.05,32.95,0)" xlink:href="#ay"/><use transform="matrix(0.05,0,0,0.05,37.95,0)" xlink:href="#az"/></g><path fill="#303030" d="M84 4C-5 8 30-112 23-190h32v120c0 31 7 50 39 49 72-2 45-101 50-169h31l1 190h-30c-1-10 1-25-2-33-11 22-28 36-60 37" id="aA"/><path fill="#303030" d="M114-163C36-179 61-72 57 0H25l-1-190h30c1 12-1 29 2 39 6-27 23-49 58-41v29" id="aB"/><path fill="#303030" d="M96-169c-40 0-48 33-48 73s9 75 48 75c24 0 41-14 43-38l32 2c-6 37-31 61-74 61-59 0-76-41-82-99-10-93 101-131 147-64 4 7 5 14 7 22l-32 3c-4-21-16-35-41-35" id="aC"/><path fill="#303030" d="M100-194c63 0 86 42 84 106H49c0 40 14 67 53 68 26 1 43-12 49-29l28 8c-11 28-37 45-77 45C44 4 14-33 15-96c1-61 26-98 85-98zm52 81c6-60-76-77-97-28-3 7-6 17-6 28h103" id="aD"/><g id="c"><use transform="matrix(0.05,0,0,0.05,0,0)" xlink:href="#aw"/><use transform="matrix(0.05,0,0,0.05,10,0)" xlink:href="#az"/><use transform="matrix(0.05,0,0,0.05,19,0)" xlink:href="#az"/><use transform="matrix(0.05,0,0,0.05,28,0)" xlink:href="#aA"/><use transform="matrix(0.05,0,0,0.05,38,0)" xlink:href="#aB"/><use transform="matrix(0.05,0,0,0.05,43.95,0)" xlink:href="#aw"/><use transform="matrix(0.05,0,0,0.05,53.95,0)" xlink:href="#ax"/><use transform="matrix(0.05,0,0,0.05,63.95,0)" xlink:href="#aC"/><use transform="matrix(0.05,0,0,0.05,72.95,0)" xlink:href="#aD"/></g><path fill="#303030" d="M106-169C34-169 62-67 57 0H25v-261h32l-1 103c12-21 28-36 61-36 89 0 53 116 60 194h-32v-121c2-32-8-49-39-48" id="aE"/><g id="d"><use transform="matrix(0.05,0,0,0.05,0,0)" xlink:href="#ay"/><use transform="matrix(0.05,0,0,0.05,5,0)" xlink:href="#aE"/><use transform="matrix(0.05,0,0,0.05,15,0)" xlink:href="#aD"/></g><path fill="#303030" d="M210-169c-67 3-38 105-44 169h-31v-121c0-29-5-50-35-48C34-165 62-65 56 0H25l-1-190h30c1 10-1 24 2 32 10-44 99-50 107 0 11-21 27-35 58-36 85-2 47 119 55 194h-31v-121c0-29-5-49-35-48" id="aF"/><path fill="#303030" d="M177-190C167-65 218 103 67 71c-23-6-38-20-44-43l32-5c15 47 100 32 89-28v-30C133-14 115 1 83 1 29 1 15-40 15-95c0-56 16-97 71-98 29-1 48 16 59 35 1-10 0-23 2-32h30zM94-22c36 0 50-32 50-73 0-42-14-75-50-75-39 0-46 34-46 75s6 73 46 73" id="aG"/><g id="e"><use transform="matrix(0.05,0,0,0.05,0,0)" xlink:href="#aF"/><use transform="matrix(0.05,0,0,0.05,14.950000000000001,0)" xlink:href="#aD"/><use transform="matrix(0.05,0,0,0.05,24.950000000000003,0)" xlink:href="#az"/><use transform="matrix(0.05,0,0,0.05,33.95,0)" xlink:href="#az"/><use transform="matrix(0.05,0,0,0.05,42.95,0)" xlink:href="#aw"/><use transform="matrix(0.05,0,0,0.05,52.95,0)" xlink:href="#aG"/><use transform="matrix(0.05,0,0,0.05,62.95,0)" xlink:href="#aD"/></g><path fill="#303030" d="M101-234c-31-9-42 10-38 44h38v23H63V0H32v-167H5v-23h27c-7-52 17-82 69-68v24" id="aH"/><g id="f"><use transform="matrix(0.05,0,0,0.05,0,0)" xlink:href="#aH"/><use transform="matrix(0.05,0,0,0.05,5,0)" xlink:href="#aB"/><use transform="matrix(0.05,0,0,0.05,10.95,0)" xlink:href="#at"/><use transform="matrix(0.05,0,0,0.05,20.95,0)" xlink:href="#aF"/></g><path fill="#303030" d="M205 0l-28-72H64L36 0H1l101-248h38L239 0h-34zm-38-99l-47-123c-12 45-31 82-46 123h93" id="aI"/><path fill="#303030" d="M24 0v-261h32V0H24" id="aJ"/><path fill="#303030" d="M24-231v-30h32v30H24zM24 0v-190h32V0H24" id="aK"/><g id="g"><use transform="matrix(0.05,0,0,0.05,0,0)" xlink:href="#aI"/><use transform="matrix(0.05,0,0,0.05,12,0)" xlink:href="#aJ"/><use transform="matrix(0.05,0,0,0.05,15.949999999999998,0)" xlink:href="#aK"/><use transform="matrix(0.05,0,0,0.05,19.9,0)" xlink:href="#aC"/><use transform="matrix(0.05,0,0,0.05,28.899999999999995,0)" xlink:href="#aD"/></g><path fill="#303030" d="M85-194c31 0 48 13 60 33l-1-100h32l1 261h-30c-2-10 0-23-3-31C134-8 116 4 85 4 32 4 16-35 15-94c0-66 23-100 70-100zm9 24c-40 0-46 34-46 75 0 40 6 74 45 74 42 0 51-32 51-76 0-42-9-74-50-73" id="aL"/><g id="h"><use transform="matrix(0.05,0,0,0.05,0,0)" xlink:href="#aL"/><use transform="matrix(0.05,0,0,0.05,10,0)" xlink:href="#aK"/><use transform="matrix(0.05,0,0,0.05,13.949999999999998,0)" xlink:href="#aL"/></g><g id="i"><use transform="matrix(0.05,0,0,0.05,0,0)" xlink:href="#ax"/><use transform="matrix(0.05,0,0,0.05,10,0)" xlink:href="#at"/><use transform="matrix(0.05,0,0,0.05,20,0)" xlink:href="#ay"/></g><path fill="#303030" d="M33 0v-38h34V0H33" id="aM"/><g id="j"><use transform="matrix(0.05,0,0,0.05,0,0)" xlink:href="#aC"/><use transform="matrix(0.05,0,0,0.05,9,0)" xlink:href="#aE"/><use transform="matrix(0.05,0,0,0.05,19,0)" xlink:href="#aw"/><use transform="matrix(0.05,0,0,0.05,29,0)" xlink:href="#ax"/><use transform="matrix(0.05,0,0,0.05,39,0)" xlink:href="#aG"/><use transform="matrix(0.05,0,0,0.05,49,0)" xlink:href="#aD"/><use transform="matrix(0.05,0,0,0.05,59,0)" xlink:href="#aM"/></g><path d="M143 4C61 4 22-44 18-125c-5-107 100-154 193-111 17 8 29 25 37 43l-32 9c-13-25-37-40-76-40-61 0-88 39-88 99 0 61 29 100 91 101 35 0 62-11 79-27v-45h-74v-28h105v86C228-13 192 4 143 4" id="aN"/><path d="M100-194c63 0 86 42 84 106H49c0 40 14 67 53 68 26 1 43-12 49-29l28 8c-11 28-37 45-77 45C44 4 14-33 15-96c1-61 26-98 85-98zm52 81c6-60-76-77-97-28-3 7-6 17-6 28h103" id="aO"/><path d="M117-194c89-4 53 116 60 194h-32v-121c0-31-8-49-39-48C34-167 62-67 57 0H25l-1-190h30c1 10-1 24 2 32 11-22 29-35 61-36" id="aP"/><path d="M114-163C36-179 61-72 57 0H25l-1-190h30c1 12-1 29 2 39 6-27 23-49 58-41v29" id="aQ"/><path d="M141-36C126-15 110 5 73 4 37 3 15-17 15-53c-1-64 63-63 125-63 3-35-9-54-41-54-24 1-41 7-42 31l-33-3c5-37 33-52 76-52 45 0 72 20 72 64v82c-1 20 7 32 28 27v20c-31 9-61-2-59-35zM48-53c0 20 12 33 32 33 41-3 63-29 60-74-43 2-92-5-92 41" id="aR"/><path d="M59-47c-2 24 18 29 38 22v24C64 9 27 4 27-40v-127H5v-23h24l9-43h21v43h35v23H59v120" id="aS"/><g id="l"><use transform="matrix(0.0493827160493827,0,0,0.0493827160493827,0,0)" xlink:href="#aN"/><use transform="matrix(0.0493827160493827,0,0,0.0493827160493827,13.827160493827156,0)" xlink:href="#aO"/><use transform="matrix(0.0493827160493827,0,0,0.0493827160493827,23.703703703703695,0)" xlink:href="#aP"/><use transform="matrix(0.0493827160493827,0,0,0.0493827160493827,33.58024691358023,0)" xlink:href="#aO"/><use transform="matrix(0.0493827160493827,0,0,0.0493827160493827,43.45679012345677,0)" xlink:href="#aQ"/><use transform="matrix(0.0493827160493827,0,0,0.0493827160493827,49.333333333333314,0)" xlink:href="#aR"/><use transform="matrix(0.0493827160493827,0,0,0.0493827160493827,59.20987654320986,0)" xlink:href="#aS"/><use transform="matrix(0.0493827160493827,0,0,0.0493827160493827,64.14814814814812,0)" xlink:href="#aO"/></g><path d="M30-248c87 1 191-15 191 75 0 78-77 80-158 76V0H30v-248zm33 125c57 0 124 11 124-50 0-59-68-47-124-48v98" id="aT"/><path d="M24-231v-30h32v30H24zM24 0v-190h32V0H24" id="aU"/><path d="M108 0H70L1-190h34L89-25l56-165h34" id="aV"/><g id="m"><use transform="matrix(0.0493827160493827,0,0,0.0493827160493827,0,0)" xlink:href="#aT"/><use transform="matrix(0.0493827160493827,0,0,0.0493827160493827,11.851851851851848,0)" xlink:href="#aQ"/><use transform="matrix(0.0493827160493827,0,0,0.0493827160493827,17.72839506172839,0)" xlink:href="#aU"/><use transform="matrix(0.0493827160493827,0,0,0.0493827160493827,21.629629629629623,0)" xlink:href="#aV"/><use transform="matrix(0.0493827160493827,0,0,0.0493827160493827,30.51851851851851,0)" xlink:href="#aR"/><use transform="matrix(0.0493827160493827,0,0,0.0493827160493827,40.39506172839505,0)" xlink:href="#aS"/><use transform="matrix(0.0493827160493827,0,0,0.0493827160493827,45.33333333333332,0)" xlink:href="#aO"/></g><path d="M85-194c31 0 48 13 60 33l-1-100h32l1 261h-30c-2-10 0-23-3-31C134-8 116 4 85 4 32 4 16-35 15-94c0-66 23-100 70-100zm9 24c-40 0-46 34-46 75 0 40 6 74 45 74 42 0 51-32 51-76 0-42-9-74-50-73" id="aW"/><g id="n"><use transform="matrix(0.0493827160493827,0,0,0.0493827160493827,0,0)" xlink:href="#aR"/><use transform="matrix(0.0493827160493827,0,0,0.0493827160493827,9.876543209876539,0)" xlink:href="#aP"/><use transform="matrix(0.0493827160493827,0,0,0.0493827160493827,19.753086419753078,0)" xlink:href="#aW"/></g><path d="M84 4C-5 8 30-112 23-190h32v120c0 31 7 50 39 49 72-2 45-101 50-169h31l1 190h-30c-1-10 1-25-2-33-11 22-28 36-60 37" id="aX"/><path d="M115-194c53 0 69 39 70 98 0 66-23 100-70 100C84 3 66-7 56-30L54 0H23l1-261h32v101c10-23 28-34 59-34zm-8 174c40 0 45-34 45-75 0-40-5-75-45-74-42 0-51 32-51 76 0 43 10 73 51 73" id="aY"/><path d="M24 0v-261h32V0H24" id="aZ"/><path d="M96-169c-40 0-48 33-48 73s9 75 48 75c24 0 41-14 43-38l32 2c-6 37-31 61-74 61-59 0-76-41-82-99-10-93 101-131 147-64 4 7 5 14 7 22l-32 3c-4-21-16-35-41-35" id="ba"/><g id="o"><use transform="matrix(0.0493827160493827,0,0,0.0493827160493827,0,0)" xlink:href="#aT"/><use transform="matrix(0.0493827160493827,0,0,0.0493827160493827,11.851851851851848,0)" xlink:href="#aX"/><use transform="matrix(0.0493827160493827,0,0,0.0493827160493827,21.728395061728385,0)" xlink:href="#aY"/><use transform="matrix(0.0493827160493827,0,0,0.0493827160493827,31.604938271604922,0)" xlink:href="#aZ"/><use transform="matrix(0.0493827160493827,0,0,0.0493827160493827,35.506172839506156,0)" xlink:href="#aU"/><use transform="matrix(0.0493827160493827,0,0,0.0493827160493827,39.40740740740739,0)" xlink:href="#ba"/></g><path d="M194 0L95-120 63-95V0H30v-248h33v124l119-124h40L117-140 236 0h-42" id="bb"/><path d="M179-190L93 31C79 59 56 82 12 73V49c39 6 53-20 64-50L1-190h34L92-34l54-156h33" id="bc"/><g id="p"><use transform="matrix(0.0493827160493827,0,0,0.0493827160493827,0,0)" xlink:href="#bb"/><use transform="matrix(0.0493827160493827,0,0,0.0493827160493827,11.851851851851848,0)" xlink:href="#aO"/><use transform="matrix(0.0493827160493827,0,0,0.0493827160493827,21.728395061728385,0)" xlink:href="#bc"/></g><g id="q"><use transform="matrix(0.0493827160493827,0,0,0.0493827160493827,0,0)" xlink:href="#aT"/><use transform="matrix(0.0493827160493827,0,0,0.0493827160493827,11.851851851851848,0)" xlink:href="#aR"/><use transform="matrix(0.0493827160493827,0,0,0.0493827160493827,21.728395061728385,0)" xlink:href="#aU"/><use transform="matrix(0.0493827160493827,0,0,0.0493827160493827,25.629629629629623,0)" xlink:href="#aQ"/></g><filter id="k" filterUnits="objectBoundingBox" x="-.08" y="-.03" width="1.16" height="1.17"><feOffset result="offOut" in="SourceAlpha" dy="6"/><feGaussianBlur result="blurOut" in="offOut" stdDeviation="5"/><feColorMatrix result="colorOut" in="blurOut" values="0 0 0 0 0 0 0 0 0 0 0 0 0 0 0 0 0 0 0.16862745098039217 0"/><feBlend in="SourceGraphic" in2="colorOut"/></filter><path d="M160-131c35 5 61 23 61 61C221 17 115-2 30 0v-248c76 3 177-17 177 60 0 33-19 50-47 57zm-97-11c50-1 110 9 110-42 0-47-63-36-110-37v79zm0 115c55-2 124 14 124-45 0-56-70-42-124-44v89" id="bd"/><path d="M100-194c62-1 85 37 85 99 1 63-27 99-86 99S16-35 15-95c0-66 28-99 85-99zM99-20c44 1 53-31 53-75 0-43-8-75-51-75s-53 32-53 75 10 74 51 75" id="be"/><path d="M47-170H22l-4-78h33" id="bf"/><path d="M135-143c-3-34-86-38-87 0 15 53 115 12 119 90S17 21 10-45l28-5c4 36 97 45 98 0-10-56-113-15-118-90-4-57 82-63 122-42 12 7 21 19 24 35" id="bg"/><g id="s"><use transform="matrix(0.0493827160493827,0,0,0.0493827160493827,0,0)" xlink:href="#bd"/><use transform="matrix(0.0493827160493827,0,0,0.0493827160493827,11.851851851851848,0)" xlink:href="#be"/><use transform="matrix(0.0493827160493827,0,0,0.0493827160493827,21.728395061728385,0)" xlink:href="#aY"/><use transform="matrix(0.0493827160493827,0,0,0.0493827160493827,31.604938271604922,0)" xlink:href="#bf"/><use transform="matrix(0.0493827160493827,0,0,0.0493827160493827,34.96296296296295,0)" xlink:href="#bg"/></g><g id="t"><use transform="matrix(0.0493827160493827,0,0,0.0493827160493827,0,0)" xlink:href="#aT"/><use transform="matrix(0.0493827160493827,0,0,0.0493827160493827,11.851851851851848,0)" xlink:href="#aX"/><use transform="matrix(0.0493827160493827,0,0,0.0493827160493827,21.728395061728385,0)" xlink:href="#aY"/><use transform="matrix(0.0493827160493827,0,0,0.0493827160493827,31.604938271604922,0)" xlink:href="#aZ"/><use transform="matrix(0.0493827160493827,0,0,0.0493827160493827,35.506172839506156,0)" xlink:href="#aU"/><use transform="matrix(0.0493827160493827,0,0,0.0493827160493827,39.40740740740739,0)" xlink:href="#ba"/></g><g id="u"><use transform="matrix(0.0493827160493827,0,0,0.0493827160493827,0,0)" xlink:href="#bb"/><use transform="matrix(0.0493827160493827,0,0,0.0493827160493827,11.851851851851848,0)" xlink:href="#aO"/><use transform="matrix(0.0493827160493827,0,0,0.0493827160493827,21.728395061728385,0)" xlink:href="#bc"/></g><filter id="r" filterUnits="objectBoundingBox" x="-.1" y="-.05" width="1.2" height="1.27"><feOffset result="offOut" in="SourceAlpha" dy="6"/><feGaussianBlur result="blurOut" in="offOut" stdDeviation="5"/><feColorMatrix result="colorOut" in="blurOut" values="0 0 0 0 0 0 0 0 0 0 0 0 0 0 0 0 0 0 0.16862745098039217 0"/><feBlend in="SourceGraphic" in2="colorOut"/></filter><path d="M205 0l-28-72H64L36 0H1l101-248h38L239 0h-34zm-38-99l-47-123c-12 45-31 82-46 123h93" id="bh"/><g id="v"><use transform="matrix(0.0493827160493827,0,0,0.0493827160493827,0,0)" xlink:href="#bh"/><use transform="matrix(0.0493827160493827,0,0,0.0493827160493827,11.851851851851848,0)" xlink:href="#aZ"/><use transform="matrix(0.0493827160493827,0,0,0.0493827160493827,15.753086419753082,0)" xlink:href="#aU"/><use transform="matrix(0.0493827160493827,0,0,0.0493827160493827,19.654320987654316,0)" xlink:href="#ba"/><use transform="matrix(0.0493827160493827,0,0,0.0493827160493827,28.5432098765432,0)" xlink:href="#aO"/><use transform="matrix(0.0493827160493827,0,0,0.0493827160493827,38.41975308641974,0)" xlink:href="#bf"/><use transform="matrix(0.0493827160493827,0,0,0.0493827160493827,41.777777777777764,0)" xlink:href="#bg"/></g><g id="w"><use transform="matrix(0.0493827160493827,0,0,0.0493827160493827,0,0)" xlink:href="#bd"/><use transform="matrix(0.0493827160493827,0,0,0.0493827160493827,11.851851851851848,0)" xlink:href="#be"/><use transform="matrix(0.0493827160493827,0,0,0.0493827160493827,21.728395061728385,0)" xlink:href="#aY"/><use transform="matrix(0.0493827160493827,0,0,0.0493827160493827,31.604938271604922,0)" xlink:href="#bf"/><use transform="matrix(0.0493827160493827,0,0,0.0493827160493827,34.96296296296295,0)" xlink:href="#bg"/></g><g id="x"><use transform="matrix(0.05,0,0,0.05,0,0)" xlink:href="#aI"/><use transform="matrix(0.05,0,0,0.05,12,0)" xlink:href="#aJ"/><use transform="matrix(0.05,0,0,0.05,15.949999999999998,0)" xlink:href="#aK"/><use transform="matrix(0.05,0,0,0.05,19.9,0)" xlink:href="#aC"/><use transform="matrix(0.05,0,0,0.05,28.899999999999995,0)" xlink:href="#aD"/></g><g id="y"><use transform="matrix(0.05,0,0,0.05,0,0)" xlink:href="#as"/><use transform="matrix(0.05,0,0,0.05,12,0)" xlink:href="#at"/><use transform="matrix(0.05,0,0,0.05,22,0)" xlink:href="#au"/></g><path fill="#303030" d="M185-189c-5-48-123-54-124 2 14 75 158 14 163 119 3 78-121 87-175 55-17-10-28-26-33-46l33-7c5 56 141 63 141-1 0-78-155-14-162-118-5-82 145-84 179-34 5 7 8 16 11 25" id="bi"/><g id="A"><use transform="matrix(0.05,0,0,0.05,0,0)" xlink:href="#bi"/><use transform="matrix(0.05,0,0,0.05,12,0)" xlink:href="#aE"/><use transform="matrix(0.05,0,0,0.05,22,0)" xlink:href="#aw"/><use transform="matrix(0.05,0,0,0.05,32,0)" xlink:href="#aB"/><use transform="matrix(0.05,0,0,0.05,37.95,0)" xlink:href="#aD"/></g><path fill="#303030" d="M47-170H22l-4-78h33" id="bj"/><g id="B"><use transform="matrix(0.05,0,0,0.05,0,0)" xlink:href="#aI"/><use transform="matrix(0.05,0,0,0.05,12,0)" xlink:href="#aJ"/><use transform="matrix(0.05,0,0,0.05,15.949999999999998,0)" xlink:href="#aK"/><use transform="matrix(0.05,0,0,0.05,19.9,0)" xlink:href="#aC"/><use transform="matrix(0.05,0,0,0.05,28.899999999999995,0)" xlink:href="#aD"/><use transform="matrix(0.05,0,0,0.05,38.9,0)" xlink:href="#bj"/><use transform="matrix(0.05,0,0,0.05,42.3,0)" xlink:href="#az"/></g><path fill="#303030" d="M30-248c87 1 191-15 191 75 0 78-77 80-158 76V0H30v-248zm33 125c57 0 124 11 124-50 0-59-68-47-124-48v98" id="bk"/><g id="C"><use transform="matrix(0.05,0,0,0.05,0,0)" xlink:href="#bk"/><use transform="matrix(0.05,0,0,0.05,12,0)" xlink:href="#aA"/><use transform="matrix(0.05,0,0,0.05,22,0)" xlink:href="#au"/><use transform="matrix(0.05,0,0,0.05,32,0)" xlink:href="#aJ"/><use transform="matrix(0.05,0,0,0.05,35.95,0)" xlink:href="#aK"/><use transform="matrix(0.05,0,0,0.05,39.900000000000006,0)" xlink:href="#aC"/></g><path fill="#303030" d="M194 0L95-120 63-95V0H30v-248h33v124l119-124h40L117-140 236 0h-42" id="bl"/><path fill="#303030" d="M179-190L93 31C79 59 56 82 12 73V49c39 6 53-20 64-50L1-190h34L92-34l54-156h33" id="bm"/><g id="D"><use transform="matrix(0.05,0,0,0.05,0,0)" xlink:href="#bl"/><use transform="matrix(0.05,0,0,0.05,12,0)" xlink:href="#aD"/><use transform="matrix(0.05,0,0,0.05,22,0)" xlink:href="#bm"/></g><g id="E"><use transform="matrix(0.05,0,0,0.05,0,0)" xlink:href="#bi"/><use transform="matrix(0.05,0,0,0.05,12,0)" xlink:href="#aE"/><use transform="matrix(0.05,0,0,0.05,22,0)" xlink:href="#aw"/><use transform="matrix(0.05,0,0,0.05,32,0)" xlink:href="#aB"/><use transform="matrix(0.05,0,0,0.05,37.95,0)" xlink:href="#aD"/></g><g id="F"><use transform="matrix(0.05,0,0,0.05,0,0)" xlink:href="#as"/><use transform="matrix(0.05,0,0,0.05,12,0)" xlink:href="#at"/><use transform="matrix(0.05,0,0,0.05,22,0)" xlink:href="#au"/><use transform="matrix(0.05,0,0,0.05,32,0)" xlink:href="#bj"/><use transform="matrix(0.05,0,0,0.05,35.4,0)" xlink:href="#az"/></g><path fill="#303030" d="M141 0L90-78 38 0H4l68-98-65-92h35l48 74 47-74h35l-64 92 68 98h-35" id="bn"/><g id="G"><use transform="matrix(0.05,0,0,0.05,0,0)" xlink:href="#bk"/><use transform="matrix(0.05,0,0,0.05,12,0)" xlink:href="#aJ"/><use transform="matrix(0.05,0,0,0.05,15.949999999999998,0)" xlink:href="#aw"/><use transform="matrix(0.05,0,0,0.05,25.950000000000003,0)" xlink:href="#aK"/><use transform="matrix(0.05,0,0,0.05,29.899999999999995,0)" xlink:href="#ax"/><use transform="matrix(0.05,0,0,0.05,39.9,0)" xlink:href="#ay"/><use transform="matrix(0.05,0,0,0.05,44.9,0)" xlink:href="#aD"/><use transform="matrix(0.05,0,0,0.05,54.900000000000006,0)" xlink:href="#bn"/><use transform="matrix(0.05,0,0,0.05,63.900000000000006,0)" xlink:href="#ay"/></g><g id="H"><use transform="matrix(0.05,0,0,0.05,0,0)" xlink:href="#aH"/><use transform="matrix(0.05,0,0,0.05,5,0)" xlink:href="#at"/><use transform="matrix(0.05,0,0,0.05,15,0)" xlink:href="#aB"/></g><g id="I"><use transform="matrix(0.05,0,0,0.05,0,0)" xlink:href="#as"/><use transform="matrix(0.05,0,0,0.05,12,0)" xlink:href="#at"/><use transform="matrix(0.05,0,0,0.05,22,0)" xlink:href="#au"/></g><g id="J"><use transform="matrix(0.05,0,0,0.05,0,0)" xlink:href="#bi"/><use transform="matrix(0.05,0,0,0.05,12,0)" xlink:href="#aD"/><use transform="matrix(0.05,0,0,0.05,22,0)" xlink:href="#ax"/><use transform="matrix(0.05,0,0,0.05,32,0)" xlink:href="#aL"/></g><g id="K"><use transform="matrix(0.05,0,0,0.05,0,0)" xlink:href="#bi"/><use transform="matrix(0.05,0,0,0.05,12,0)" xlink:href="#aK"/><use transform="matrix(0.05,0,0,0.05,15.949999999999998,0)" xlink:href="#aG"/><use transform="matrix(0.05,0,0,0.05,25.950000000000003,0)" xlink:href="#ax"/><use transform="matrix(0.05,0,0,0.05,35.95,0)" xlink:href="#aw"/><use transform="matrix(0.05,0,0,0.05,45.95,0)" xlink:href="#ay"/><use transform="matrix(0.05,0,0,0.05,50.95,0)" xlink:href="#aA"/><use transform="matrix(0.05,0,0,0.05,60.95,0)" xlink:href="#aB"/><use transform="matrix(0.05,0,0,0.05,66.9,0)" xlink:href="#aD"/></g><path d="M210-169c-67 3-38 105-44 169h-31v-121c0-29-5-50-35-48C34-165 62-65 56 0H25l-1-190h30c1 10-1 24 2 32 10-44 99-50 107 0 11-21 27-35 58-36 85-2 47 119 55 194h-31v-121c0-29-5-49-35-48" id="bo"/><g id="L"><use transform="matrix(0.05,0,0,0.05,0,0)" xlink:href="#bh"/><use transform="matrix(0.05,0,0,0.05,12,0)" xlink:href="#bg"/><use transform="matrix(0.05,0,0,0.05,21,0)" xlink:href="#bc"/><use transform="matrix(0.05,0,0,0.05,30,0)" xlink:href="#bo"/><use transform="matrix(0.05,0,0,0.05,44.95,0)" xlink:href="#bo"/><use transform="matrix(0.05,0,0,0.05,59.900000000000006,0)" xlink:href="#aO"/><use transform="matrix(0.05,0,0,0.05,69.9,0)" xlink:href="#aS"/><use transform="matrix(0.05,0,0,0.05,74.9,0)" xlink:href="#aQ"/><use transform="matrix(0.05,0,0,0.05,80.85000000000001,0)" xlink:href="#aU"/><use transform="matrix(0.05,0,0,0.05,84.80000000000001,0)" xlink:href="#ba"/><use transform="matrix(0.05,0,0,0.05,93.80000000000001,0)" xlink:href="#aR"/><use transform="matrix(0.05,0,0,0.05,103.80000000000001,0)" xlink:href="#aZ"/><use transform="matrix(0.05,0,0,0.05,107.75,0)" xlink:href="#aZ"/><use transform="matrix(0.05,0,0,0.05,111.7,0)" xlink:href="#bc"/></g><path d="M30 0v-248h187v28H63v79h144v27H63v87h162V0H30" id="bp"/><path d="M115-194c55 1 70 41 70 98S169 2 115 4C84 4 66-9 55-30l1 105H24l-1-265h31l2 30c10-21 28-34 59-34zm-8 174c40 0 45-34 45-75s-6-73-45-74c-42 0-51 32-51 76 0 43 10 73 51 73" id="bq"/><g id="M"><use transform="matrix(0.05,0,0,0.05,0,0)" xlink:href="#bp"/><use transform="matrix(0.05,0,0,0.05,12,0)" xlink:href="#aP"/><use transform="matrix(0.05,0,0,0.05,22,0)" xlink:href="#ba"/><use transform="matrix(0.05,0,0,0.05,31,0)" xlink:href="#aQ"/><use transform="matrix(0.05,0,0,0.05,36.95,0)" xlink:href="#bc"/><use transform="matrix(0.05,0,0,0.05,45.95,0)" xlink:href="#bq"/><use transform="matrix(0.05,0,0,0.05,55.95,0)" xlink:href="#aS"/></g><path d="M240 0l2-218c-23 76-54 145-80 218h-23L58-218 59 0H30v-248h44l77 211c21-75 51-140 76-211h43V0h-30" id="br"/><path d="M177-190C167-65 218 103 67 71c-23-6-38-20-44-43l32-5c15 47 100 32 89-28v-30C133-14 115 1 83 1 29 1 15-40 15-95c0-56 16-97 71-98 29-1 48 16 59 35 1-10 0-23 2-32h30zM94-22c36 0 50-32 50-73 0-42-14-75-50-75-39 0-46 34-46 75s6 73 46 73" id="bs"/><g id="N"><use transform="matrix(0.05,0,0,0.05,0,0)" xlink:href="#br"/><use transform="matrix(0.05,0,0,0.05,14.950000000000001,0)" xlink:href="#aO"/><use transform="matrix(0.05,0,0,0.05,24.950000000000003,0)" xlink:href="#bg"/><use transform="matrix(0.05,0,0,0.05,33.95,0)" xlink:href="#bg"/><use transform="matrix(0.05,0,0,0.05,42.95,0)" xlink:href="#aR"/><use transform="matrix(0.05,0,0,0.05,52.95,0)" xlink:href="#bs"/><use transform="matrix(0.05,0,0,0.05,62.95,0)" xlink:href="#aO"/></g><path d="M140-251c81 0 123 46 123 126C263-46 219 4 140 4 59 4 17-45 17-125s42-126 123-126zm0 227c63 0 89-41 89-101s-29-99-89-99c-61 0-89 39-89 99S79-25 140-24" id="bt"/><g id="O"><use transform="matrix(0.05,0,0,0.05,0,0)" xlink:href="#bt"/><use transform="matrix(0.05,0,0,0.05,14,0)" xlink:href="#aP"/><use transform="matrix(0.05,0,0,0.05,24,0)" xlink:href="#aZ"/><use transform="matrix(0.05,0,0,0.05,27.950000000000003,0)" xlink:href="#bc"/></g><g id="P"><use transform="matrix(0.05,0,0,0.05,0,0)" xlink:href="#bh"/><use transform="matrix(0.05,0,0,0.05,12,0)" xlink:href="#aZ"/><use transform="matrix(0.05,0,0,0.05,15.949999999999998,0)" xlink:href="#aU"/><use transform="matrix(0.05,0,0,0.05,19.9,0)" xlink:href="#ba"/><use transform="matrix(0.05,0,0,0.05,28.899999999999995,0)" xlink:href="#aO"/><use transform="matrix(0.05,0,0,0.05,38.9,0)" xlink:href="#bf"/><use transform="matrix(0.05,0,0,0.05,42.3,0)" xlink:href="#bg"/></g><g id="Q"><use transform="matrix(0.05,0,0,0.05,0,0)" xlink:href="#aT"/><use transform="matrix(0.05,0,0,0.05,12,0)" xlink:href="#aX"/><use transform="matrix(0.05,0,0,0.05,22,0)" xlink:href="#aY"/><use transform="matrix(0.05,0,0,0.05,32,0)" xlink:href="#aZ"/><use transform="matrix(0.05,0,0,0.05,35.95,0)" xlink:href="#aU"/><use transform="matrix(0.05,0,0,0.05,39.900000000000006,0)" xlink:href="#ba"/></g><g id="R"><use transform="matrix(0.05,0,0,0.05,0,0)" xlink:href="#bb"/><use transform="matrix(0.05,0,0,0.05,12,0)" xlink:href="#aO"/><use transform="matrix(0.05,0,0,0.05,22,0)" xlink:href="#bc"/></g><path d="M212-179c-10-28-35-45-73-45-59 0-87 40-87 99 0 60 29 101 89 101 43 0 62-24 78-52l27 14C228-24 195 4 139 4 59 4 22-46 18-125c-6-104 99-153 187-111 19 9 31 26 39 46" id="bu"/><g id="S"><use transform="matrix(0.05,0,0,0.05,0,0)" xlink:href="#bu"/><use transform="matrix(0.05,0,0,0.05,12.950000000000001,0)" xlink:href="#aR"/><use transform="matrix(0.05,0,0,0.05,22.950000000000003,0)" xlink:href="#aP"/></g><path d="M30-248c118-7 216 8 213 122C240-48 200 0 122 0H30v-248zM63-27c89 8 146-16 146-99s-60-101-146-95v194" id="bv"/><g id="T"><use transform="matrix(0.05,0,0,0.05,0,0)" xlink:href="#bv"/><use transform="matrix(0.05,0,0,0.05,12.950000000000001,0)" xlink:href="#aO"/><use transform="matrix(0.05,0,0,0.05,22.950000000000003,0)" xlink:href="#ba"/><use transform="matrix(0.05,0,0,0.05,31.950000000000003,0)" xlink:href="#aQ"/><use transform="matrix(0.05,0,0,0.05,37.900000000000006,0)" xlink:href="#bc"/><use transform="matrix(0.05,0,0,0.05,46.900000000000006,0)" xlink:href="#bq"/><use transform="matrix(0.05,0,0,0.05,56.900000000000006,0)" xlink:href="#aS"/></g><g id="U"><use transform="matrix(0.05,0,0,0.05,0,0)" xlink:href="#aI"/><use transform="matrix(0.05,0,0,0.05,12,0)" xlink:href="#aJ"/><use transform="matrix(0.05,0,0,0.05,15.949999999999998,0)" xlink:href="#aK"/><use transform="matrix(0.05,0,0,0.05,19.9,0)" xlink:href="#aC"/><use transform="matrix(0.05,0,0,0.05,28.899999999999995,0)" xlink:href="#aD"/></g><path fill="#303030" d="M30-248c118-7 216 8 213 122C240-48 200 0 122 0H30v-248zM63-27c89 8 146-16 146-99s-60-101-146-95v194" id="bw"/><g id="V"><use transform="matrix(0.05,0,0,0.05,0,0)" xlink:href="#bw"/><use transform="matrix(0.05,0,0,0.05,12.950000000000001,0)" xlink:href="#aK"/><use transform="matrix(0.05,0,0,0.05,16.900000000000002,0)" xlink:href="#aL"/></g><g id="W"><use transform="matrix(0.05,0,0,0.05,0,0)" xlink:href="#aF"/><use transform="matrix(0.05,0,0,0.05,14.950000000000001,0)" xlink:href="#aD"/><use transform="matrix(0.05,0,0,0.05,24.950000000000003,0)" xlink:href="#az"/><use transform="matrix(0.05,0,0,0.05,33.95,0)" xlink:href="#az"/><use transform="matrix(0.05,0,0,0.05,42.95,0)" xlink:href="#aw"/><use transform="matrix(0.05,0,0,0.05,52.95,0)" xlink:href="#aG"/><use transform="matrix(0.05,0,0,0.05,62.95,0)" xlink:href="#aD"/></g><g id="X"><use transform="matrix(0.05,0,0,0.05,0,0)" xlink:href="#aG"/><use transform="matrix(0.05,0,0,0.05,10,0)" xlink:href="#aD"/><use transform="matrix(0.05,0,0,0.05,20,0)" xlink:href="#ay"/></g><path fill="#303030" d="M103-251c84 0 111 97 45 133-19 10-37 24-39 52H78c0-63 77-55 77-114 0-30-21-42-52-43-32 0-53 17-56 46l-32-2c7-45 34-72 88-72zM77 0v-35h34V0H77" id="bx"/><g id="Y"><use transform="matrix(0.05,0,0,0.05,0,0)" xlink:href="#aw"/><use transform="matrix(0.05,0,0,0.05,10,0)" xlink:href="#aJ"/><use transform="matrix(0.05,0,0,0.05,13.949999999999998,0)" xlink:href="#ay"/><use transform="matrix(0.05,0,0,0.05,18.95,0)" xlink:href="#aD"/><use transform="matrix(0.05,0,0,0.05,28.950000000000003,0)" xlink:href="#aB"/><use transform="matrix(0.05,0,0,0.05,34.9,0)" xlink:href="#aD"/><use transform="matrix(0.05,0,0,0.05,44.9,0)" xlink:href="#aL"/><use transform="matrix(0.05,0,0,0.05,54.900000000000006,0)" xlink:href="#bx"/></g><path fill="#303030" d="M212-179c-10-28-35-45-73-45-59 0-87 40-87 99 0 60 29 101 89 101 43 0 62-24 78-52l27 14C228-24 195 4 139 4 59 4 22-46 18-125c-6-104 99-153 187-111 19 9 31 26 39 46" id="by"/><path fill="#303030" d="M115-194c55 1 70 41 70 98S169 2 115 4C84 4 66-9 55-30l1 105H24l-1-265h31l2 30c10-21 28-34 59-34zm-8 174c40 0 45-34 45-75s-6-73-45-74c-42 0-51 32-51 76 0 43 10 73 51 73" id="bz"/><g id="Z"><use transform="matrix(0.05,0,0,0.05,0,0)" xlink:href="#by"/><use transform="matrix(0.05,0,0,0.05,12.950000000000001,0)" xlink:href="#aB"/><use transform="matrix(0.05,0,0,0.05,18.900000000000002,0)" xlink:href="#bm"/><use transform="matrix(0.05,0,0,0.05,27.900000000000002,0)" xlink:href="#bz"/><use transform="matrix(0.05,0,0,0.05,37.900000000000006,0)" xlink:href="#ay"/><use transform="matrix(0.05,0,0,0.05,42.900000000000006,0)" xlink:href="#at"/><use transform="matrix(0.05,0,0,0.05,52.900000000000006,0)" xlink:href="#aG"/><use transform="matrix(0.05,0,0,0.05,62.900000000000006,0)" xlink:href="#aB"/><use transform="matrix(0.05,0,0,0.05,68.85000000000001,0)" xlink:href="#aw"/><use transform="matrix(0.05,0,0,0.05,78.85000000000001,0)" xlink:href="#bz"/><use transform="matrix(0.05,0,0,0.05,88.85000000000001,0)" xlink:href="#aE"/><use transform="matrix(0.05,0,0,0.05,98.85000000000001,0)" xlink:href="#aK"/><use transform="matrix(0.05,0,0,0.05,102.80000000000001,0)" xlink:href="#aC"/><use transform="matrix(0.05,0,0,0.05,111.80000000000001,0)" xlink:href="#aw"/><use transform="matrix(0.05,0,0,0.05,121.80000000000001,0)" xlink:href="#aJ"/><use transform="matrix(0.05,0,0,0.05,125.75,0)" xlink:href="#aJ"/><use transform="matrix(0.05,0,0,0.05,129.70000000000002,0)" xlink:href="#bm"/></g><path fill="#303030" d="M197 0v-115H63V0H30v-248h33v105h134v-105h34V0h-34" id="bA"/><g id="aa"><use transform="matrix(0.05,0,0,0.05,0,0)" xlink:href="#bA"/><use transform="matrix(0.05,0,0,0.05,12.950000000000001,0)" xlink:href="#aw"/><use transform="matrix(0.05,0,0,0.05,22.950000000000003,0)" xlink:href="#az"/><use transform="matrix(0.05,0,0,0.05,31.950000000000003,0)" xlink:href="#aE"/></g><g id="ab"><use transform="matrix(0.05,0,0,0.05,0,0)" xlink:href="#ay"/><use transform="matrix(0.05,0,0,0.05,5,0)" xlink:href="#aE"/><use transform="matrix(0.05,0,0,0.05,15,0)" xlink:href="#aD"/></g><g id="ac"><use transform="matrix(0.05,0,0,0.05,0,0)" xlink:href="#bk"/><use transform="matrix(0.05,0,0,0.05,12,0)" xlink:href="#aJ"/><use transform="matrix(0.05,0,0,0.05,15.949999999999998,0)" xlink:href="#aw"/><use transform="matrix(0.05,0,0,0.05,25.950000000000003,0)" xlink:href="#aK"/><use transform="matrix(0.05,0,0,0.05,29.899999999999995,0)" xlink:href="#ax"/><use transform="matrix(0.05,0,0,0.05,39.9,0)" xlink:href="#ay"/><use transform="matrix(0.05,0,0,0.05,44.9,0)" xlink:href="#aD"/><use transform="matrix(0.05,0,0,0.05,54.900000000000006,0)" xlink:href="#bn"/><use transform="matrix(0.05,0,0,0.05,63.900000000000006,0)" xlink:href="#ay"/></g><g id="ad"><use transform="matrix(0.05,0,0,0.05,0,0)" xlink:href="#aL"/><use transform="matrix(0.05,0,0,0.05,10,0)" xlink:href="#aK"/><use transform="matrix(0.05,0,0,0.05,13.949999999999998,0)" xlink:href="#aG"/><use transform="matrix(0.05,0,0,0.05,23.95,0)" xlink:href="#aD"/><use transform="matrix(0.05,0,0,0.05,33.95,0)" xlink:href="#az"/><use transform="matrix(0.05,0,0,0.05,42.95,0)" xlink:href="#ay"/></g><g id="ae"><use transform="matrix(0.05,0,0,0.05,0,0)" xlink:href="#by"/><use transform="matrix(0.05,0,0,0.05,12.950000000000001,0)" xlink:href="#aB"/><use transform="matrix(0.05,0,0,0.05,18.900000000000002,0)" xlink:href="#bm"/><use transform="matrix(0.05,0,0,0.05,27.900000000000002,0)" xlink:href="#bz"/><use transform="matrix(0.05,0,0,0.05,37.900000000000006,0)" xlink:href="#ay"/><use transform="matrix(0.05,0,0,0.05,42.900000000000006,0)" xlink:href="#at"/><use transform="matrix(0.05,0,0,0.05,52.900000000000006,0)" xlink:href="#aG"/><use transform="matrix(0.05,0,0,0.05,62.900000000000006,0)" xlink:href="#aB"/><use transform="matrix(0.05,0,0,0.05,68.85000000000001,0)" xlink:href="#aw"/><use transform="matrix(0.05,0,0,0.05,78.85000000000001,0)" xlink:href="#bz"/><use transform="matrix(0.05,0,0,0.05,88.85000000000001,0)" xlink:href="#aE"/><use transform="matrix(0.05,0,0,0.05,98.85000000000001,0)" xlink:href="#aK"/><use transform="matrix(0.05,0,0,0.05,102.80000000000001,0)" xlink:href="#aC"/><use transform="matrix(0.05,0,0,0.05,111.80000000000001,0)" xlink:href="#aw"/><use transform="matrix(0.05,0,0,0.05,121.80000000000001,0)" xlink:href="#aJ"/><use transform="matrix(0.05,0,0,0.05,125.75,0)" xlink:href="#aJ"/><use transform="matrix(0.05,0,0,0.05,129.70000000000002,0)" xlink:href="#bm"/></g><g id="af"><use transform="matrix(0.05,0,0,0.05,0,0)" xlink:href="#bA"/><use transform="matrix(0.05,0,0,0.05,12.950000000000001,0)" xlink:href="#aw"/><use transform="matrix(0.05,0,0,0.05,22.950000000000003,0)" xlink:href="#az"/><use transform="matrix(0.05,0,0,0.05,31.950000000000003,0)" xlink:href="#aE"/></g><g id="ag"><use transform="matrix(0.05,0,0,0.05,0,0)" xlink:href="#bw"/><use transform="matrix(0.05,0,0,0.05,12.950000000000001,0)" xlink:href="#at"/></g><g id="ah"><use transform="matrix(0.05,0,0,0.05,0,0)" xlink:href="#ay"/><use transform="matrix(0.05,0,0,0.05,5,0)" xlink:href="#aE"/><use transform="matrix(0.05,0,0,0.05,15,0)" xlink:href="#aD"/></g><g id="ai"><use transform="matrix(0.05,0,0,0.05,0,0)" xlink:href="#bA"/><use transform="matrix(0.05,0,0,0.05,12.950000000000001,0)" xlink:href="#aw"/><use transform="matrix(0.05,0,0,0.05,22.950000000000003,0)" xlink:href="#az"/><use transform="matrix(0.05,0,0,0.05,31.950000000000003,0)" xlink:href="#aE"/><use transform="matrix(0.05,0,0,0.05,41.95,0)" xlink:href="#aD"/><use transform="matrix(0.05,0,0,0.05,51.95,0)" xlink:href="#az"/></g><path fill="#303030" d="M240 0l2-218c-23 76-54 145-80 218h-23L58-218 59 0H30v-248h44l77 211c21-75 51-140 76-211h43V0h-30" id="bB"/><g id="aj"><use transform="matrix(0.05,0,0,0.05,0,0)" xlink:href="#bB"/><use transform="matrix(0.05,0,0,0.05,14.950000000000001,0)" xlink:href="#aw"/><use transform="matrix(0.05,0,0,0.05,24.950000000000003,0)" xlink:href="#ay"/><use transform="matrix(0.05,0,0,0.05,29.950000000000003,0)" xlink:href="#aC"/><use transform="matrix(0.05,0,0,0.05,38.95,0)" xlink:href="#aE"/><use transform="matrix(0.05,0,0,0.05,48.95,0)" xlink:href="#bx"/></g><path fill="#303030" d="M137-103V0h-34v-103L8-248h37l75 118 75-118h37" id="bC"/><g id="ak"><use transform="matrix(0.05,0,0,0.05,0,0)" xlink:href="#bC"/><use transform="matrix(0.05,0,0,0.05,10.35,0)" xlink:href="#aD"/><use transform="matrix(0.05,0,0,0.05,20.35,0)" xlink:href="#az"/></g><path fill="#303030" d="M137 0h-34L2-248h35l83 218 83-218h36" id="bD"/><g id="al"><use transform="matrix(0.05,0,0,0.05,0,0)" xlink:href="#bD"/><use transform="matrix(0.05,0,0,0.05,11,0)" xlink:href="#aD"/><use transform="matrix(0.05,0,0,0.05,21,0)" xlink:href="#aB"/><use transform="matrix(0.05,0,0,0.05,26.950000000000003,0)" xlink:href="#aK"/><use transform="matrix(0.05,0,0,0.05,30.899999999999995,0)" xlink:href="#aH"/><use transform="matrix(0.05,0,0,0.05,35.9,0)" xlink:href="#aK"/><use transform="matrix(0.05,0,0,0.05,39.85,0)" xlink:href="#aD"/><use transform="matrix(0.05,0,0,0.05,49.85,0)" xlink:href="#aL"/></g><path fill="#303030" d="M190 0L58-211 59 0H30v-248h39L202-35l-2-213h31V0h-41" id="bE"/><g id="am"><use transform="matrix(0.05,0,0,0.05,0,0)" xlink:href="#bE"/><use transform="matrix(0.05,0,0,0.05,12.950000000000001,0)" xlink:href="#at"/></g><g id="an"><use transform="matrix(0.05,0,0,0.05,0,0)" xlink:href="#bi"/><use transform="matrix(0.05,0,0,0.05,12,0)" xlink:href="#aK"/><use transform="matrix(0.05,0,0,0.05,15.949999999999998,0)" xlink:href="#aG"/><use transform="matrix(0.05,0,0,0.05,25.950000000000003,0)" xlink:href="#ax"/><use transform="matrix(0.05,0,0,0.05,35.95,0)" xlink:href="#aw"/><use transform="matrix(0.05,0,0,0.05,45.95,0)" xlink:href="#ay"/><use transform="matrix(0.05,0,0,0.05,50.95,0)" xlink:href="#aA"/><use transform="matrix(0.05,0,0,0.05,60.95,0)" xlink:href="#aB"/><use transform="matrix(0.05,0,0,0.05,66.9,0)" xlink:href="#aD"/></g><g id="ao"><use transform="matrix(0.05,0,0,0.05,0,0)" xlink:href="#at"/><use transform="matrix(0.05,0,0,0.05,10,0)" xlink:href="#aB"/></g><g id="ap"><use transform="matrix(0.05,0,0,0.05,0,0)" xlink:href="#bB"/><use transform="matrix(0.05,0,0,0.05,14.950000000000001,0)" xlink:href="#aD"/><use transform="matrix(0.05,0,0,0.05,24.950000000000003,0)" xlink:href="#az"/><use transform="matrix(0.05,0,0,0.05,33.95,0)" xlink:href="#az"/><use transform="matrix(0.05,0,0,0.05,42.95,0)" xlink:href="#aw"/><use transform="matrix(0.05,0,0,0.05,52.95,0)" xlink:href="#aG"/><use transform="matrix(0.05,0,0,0.05,62.95,0)" xlink:href="#aD"/></g><g id="aq"><use transform="matrix(0.05,0,0,0.05,0,0)" xlink:href="#av"/><use transform="matrix(0.05,0,0,0.05,12.950000000000001,0)" xlink:href="#aw"/><use transform="matrix(0.05,0,0,0.05,22.950000000000003,0)" xlink:href="#az"/></g><g id="ar"><use transform="matrix(0.05,0,0,0.05,0,0)" xlink:href="#aI"/><use transform="matrix(0.05,0,0,0.05,12,0)" xlink:href="#aJ"/><use transform="matrix(0.05,0,0,0.05,15.949999999999998,0)" xlink:href="#ay"/><use transform="matrix(0.05,0,0,0.05,20.95,0)" xlink:href="#aD"/><use transform="matrix(0.05,0,0,0.05,30.950000000000003,0)" xlink:href="#aB"/><use transform="matrix(0.05,0,0,0.05,36.9,0)" xlink:href="#aD"/><use transform="matrix(0.05,0,0,0.05,46.9,0)" xlink:href="#aL"/></g></defs></g></svg>