<?xml version="1.0" encoding="utf-8" standalone="no"?>
<!DOCTYPE svg PUBLIC "-//W3C//DTD SVG 1.1//EN"
  "http://www.w3.org/Graphics/SVG/1.1/DTD/svg11.dtd">
<!-- Created with matplotlib (https://matplotlib.org/) -->
<svg height="252pt" version="1.1" viewBox="0 0 252 252" width="252pt" xmlns="http://www.w3.org/2000/svg" xmlns:xlink="http://www.w3.org/1999/xlink">
 <metadata>
  <rdf:RDF xmlns:cc="http://creativecommons.org/ns#" xmlns:dc="http://purl.org/dc/elements/1.1/" xmlns:rdf="http://www.w3.org/1999/02/22-rdf-syntax-ns#">
   <cc:Work>
    <dc:type rdf:resource="http://purl.org/dc/dcmitype/StillImage"/>
    <dc:date>2021-10-23T09:48:48.059573</dc:date>
    <dc:format>image/svg+xml</dc:format>
    <dc:creator>
     <cc:Agent>
      <dc:title>Matplotlib v3.3.2, https://matplotlib.org/</dc:title>
     </cc:Agent>
    </dc:creator>
   </cc:Work>
  </rdf:RDF>
 </metadata>
 <defs>
  <style type="text/css">*{stroke-linecap:butt;stroke-linejoin:round;}</style>
 </defs>
 <g id="figure_1">
  <g id="patch_1">
   <path d="M 0 252 
L 252 252 
L 252 0 
L 0 0 
z
" style="fill:none;"/>
  </g>
  <g id="axes_1">
   <g id="patch_2">
    <path d="M 31.5 220.5 
L 226.8 220.5 
L 226.8 30.24 
L 31.5 30.24 
z
" style="fill:#ffffff;"/>
   </g>
   <g id="matplotlib.axis_1">
    <g id="xtick_1">
     <g id="line2d_1">
      <path clip-path="url(#p41d8a16cc2)" d="M 70.554515 220.5 
L 70.554515 30.24 
" style="fill:none;stroke:#b0b0b0;stroke-linecap:square;stroke-width:0.8;"/>
     </g>
     <g id="line2d_2">
      <defs>
       <path d="M 0 0 
L 0 3.5 
" id="md314049132" style="stroke:#000000;stroke-width:0.8;"/>
      </defs>
      <g>
       <use style="stroke:#000000;stroke-width:0.8;" x="70.554515" xlink:href="#md314049132" y="220.5"/>
      </g>
     </g>
     <g id="text_1">
      <!-- 60 -->
      <g transform="translate(64.192015 235.098437)scale(0.1 -0.1)">
       <defs>
        <path d="M 33.015625 40.375 
Q 26.375 40.375 22.484375 35.828125 
Q 18.609375 31.296875 18.609375 23.390625 
Q 18.609375 15.53125 22.484375 10.953125 
Q 26.375 6.390625 33.015625 6.390625 
Q 39.65625 6.390625 43.53125 10.953125 
Q 47.40625 15.53125 47.40625 23.390625 
Q 47.40625 31.296875 43.53125 35.828125 
Q 39.65625 40.375 33.015625 40.375 
z
M 52.59375 71.296875 
L 52.59375 62.3125 
Q 48.875 64.0625 45.09375 64.984375 
Q 41.3125 65.921875 37.59375 65.921875 
Q 27.828125 65.921875 22.671875 59.328125 
Q 17.53125 52.734375 16.796875 39.40625 
Q 19.671875 43.65625 24.015625 45.921875 
Q 28.375 48.1875 33.59375 48.1875 
Q 44.578125 48.1875 50.953125 41.515625 
Q 57.328125 34.859375 57.328125 23.390625 
Q 57.328125 12.15625 50.6875 5.359375 
Q 44.046875 -1.421875 33.015625 -1.421875 
Q 20.359375 -1.421875 13.671875 8.265625 
Q 6.984375 17.96875 6.984375 36.375 
Q 6.984375 53.65625 15.1875 63.9375 
Q 23.390625 74.21875 37.203125 74.21875 
Q 40.921875 74.21875 44.703125 73.484375 
Q 48.484375 72.75 52.59375 71.296875 
z
" id="DejaVuSans-54"/>
        <path d="M 31.78125 66.40625 
Q 24.171875 66.40625 20.328125 58.90625 
Q 16.5 51.421875 16.5 36.375 
Q 16.5 21.390625 20.328125 13.890625 
Q 24.171875 6.390625 31.78125 6.390625 
Q 39.453125 6.390625 43.28125 13.890625 
Q 47.125 21.390625 47.125 36.375 
Q 47.125 51.421875 43.28125 58.90625 
Q 39.453125 66.40625 31.78125 66.40625 
z
M 31.78125 74.21875 
Q 44.046875 74.21875 50.515625 64.515625 
Q 56.984375 54.828125 56.984375 36.375 
Q 56.984375 17.96875 50.515625 8.265625 
Q 44.046875 -1.421875 31.78125 -1.421875 
Q 19.53125 -1.421875 13.0625 8.265625 
Q 6.59375 17.96875 6.59375 36.375 
Q 6.59375 54.828125 13.0625 64.515625 
Q 19.53125 74.21875 31.78125 74.21875 
z
" id="DejaVuSans-48"/>
       </defs>
       <use xlink:href="#DejaVuSans-54"/>
       <use x="63.623047" xlink:href="#DejaVuSans-48"/>
      </g>
     </g>
    </g>
    <g id="xtick_2">
     <g id="line2d_3">
      <path clip-path="url(#p41d8a16cc2)" d="M 109.623344 220.5 
L 109.623344 30.24 
" style="fill:none;stroke:#b0b0b0;stroke-linecap:square;stroke-width:0.8;"/>
     </g>
     <g id="line2d_4">
      <g>
       <use style="stroke:#000000;stroke-width:0.8;" x="109.623344" xlink:href="#md314049132" y="220.5"/>
      </g>
     </g>
     <g id="text_2">
      <!-- 70 -->
      <g transform="translate(103.260844 235.098437)scale(0.1 -0.1)">
       <defs>
        <path d="M 8.203125 72.90625 
L 55.078125 72.90625 
L 55.078125 68.703125 
L 28.609375 0 
L 18.3125 0 
L 43.21875 64.59375 
L 8.203125 64.59375 
z
" id="DejaVuSans-55"/>
       </defs>
       <use xlink:href="#DejaVuSans-55"/>
       <use x="63.623047" xlink:href="#DejaVuSans-48"/>
      </g>
     </g>
    </g>
    <g id="xtick_3">
     <g id="line2d_5">
      <path clip-path="url(#p41d8a16cc2)" d="M 148.692173 220.5 
L 148.692173 30.24 
" style="fill:none;stroke:#b0b0b0;stroke-linecap:square;stroke-width:0.8;"/>
     </g>
     <g id="line2d_6">
      <g>
       <use style="stroke:#000000;stroke-width:0.8;" x="148.692173" xlink:href="#md314049132" y="220.5"/>
      </g>
     </g>
     <g id="text_3">
      <!-- 80 -->
      <g transform="translate(142.329673 235.098437)scale(0.1 -0.1)">
       <defs>
        <path d="M 31.78125 34.625 
Q 24.75 34.625 20.71875 30.859375 
Q 16.703125 27.09375 16.703125 20.515625 
Q 16.703125 13.921875 20.71875 10.15625 
Q 24.75 6.390625 31.78125 6.390625 
Q 38.8125 6.390625 42.859375 10.171875 
Q 46.921875 13.96875 46.921875 20.515625 
Q 46.921875 27.09375 42.890625 30.859375 
Q 38.875 34.625 31.78125 34.625 
z
M 21.921875 38.8125 
Q 15.578125 40.375 12.03125 44.71875 
Q 8.5 49.078125 8.5 55.328125 
Q 8.5 64.0625 14.71875 69.140625 
Q 20.953125 74.21875 31.78125 74.21875 
Q 42.671875 74.21875 48.875 69.140625 
Q 55.078125 64.0625 55.078125 55.328125 
Q 55.078125 49.078125 51.53125 44.71875 
Q 48 40.375 41.703125 38.8125 
Q 48.828125 37.15625 52.796875 32.3125 
Q 56.78125 27.484375 56.78125 20.515625 
Q 56.78125 9.90625 50.3125 4.234375 
Q 43.84375 -1.421875 31.78125 -1.421875 
Q 19.734375 -1.421875 13.25 4.234375 
Q 6.78125 9.90625 6.78125 20.515625 
Q 6.78125 27.484375 10.78125 32.3125 
Q 14.796875 37.15625 21.921875 38.8125 
z
M 18.3125 54.390625 
Q 18.3125 48.734375 21.84375 45.5625 
Q 25.390625 42.390625 31.78125 42.390625 
Q 38.140625 42.390625 41.71875 45.5625 
Q 45.3125 48.734375 45.3125 54.390625 
Q 45.3125 60.0625 41.71875 63.234375 
Q 38.140625 66.40625 31.78125 66.40625 
Q 25.390625 66.40625 21.84375 63.234375 
Q 18.3125 60.0625 18.3125 54.390625 
z
" id="DejaVuSans-56"/>
       </defs>
       <use xlink:href="#DejaVuSans-56"/>
       <use x="63.623047" xlink:href="#DejaVuSans-48"/>
      </g>
     </g>
    </g>
    <g id="xtick_4">
     <g id="line2d_7">
      <path clip-path="url(#p41d8a16cc2)" d="M 187.761003 220.5 
L 187.761003 30.24 
" style="fill:none;stroke:#b0b0b0;stroke-linecap:square;stroke-width:0.8;"/>
     </g>
     <g id="line2d_8">
      <g>
       <use style="stroke:#000000;stroke-width:0.8;" x="187.761003" xlink:href="#md314049132" y="220.5"/>
      </g>
     </g>
     <g id="text_4">
      <!-- 90 -->
      <g transform="translate(181.398503 235.098437)scale(0.1 -0.1)">
       <defs>
        <path d="M 10.984375 1.515625 
L 10.984375 10.5 
Q 14.703125 8.734375 18.5 7.8125 
Q 22.3125 6.890625 25.984375 6.890625 
Q 35.75 6.890625 40.890625 13.453125 
Q 46.046875 20.015625 46.78125 33.40625 
Q 43.953125 29.203125 39.59375 26.953125 
Q 35.25 24.703125 29.984375 24.703125 
Q 19.046875 24.703125 12.671875 31.3125 
Q 6.296875 37.9375 6.296875 49.421875 
Q 6.296875 60.640625 12.9375 67.421875 
Q 19.578125 74.21875 30.609375 74.21875 
Q 43.265625 74.21875 49.921875 64.515625 
Q 56.59375 54.828125 56.59375 36.375 
Q 56.59375 19.140625 48.40625 8.859375 
Q 40.234375 -1.421875 26.421875 -1.421875 
Q 22.703125 -1.421875 18.890625 -0.6875 
Q 15.09375 0.046875 10.984375 1.515625 
z
M 30.609375 32.421875 
Q 37.25 32.421875 41.125 36.953125 
Q 45.015625 41.5 45.015625 49.421875 
Q 45.015625 57.28125 41.125 61.84375 
Q 37.25 66.40625 30.609375 66.40625 
Q 23.96875 66.40625 20.09375 61.84375 
Q 16.21875 57.28125 16.21875 49.421875 
Q 16.21875 41.5 20.09375 36.953125 
Q 23.96875 32.421875 30.609375 32.421875 
z
" id="DejaVuSans-57"/>
       </defs>
       <use xlink:href="#DejaVuSans-57"/>
       <use x="63.623047" xlink:href="#DejaVuSans-48"/>
      </g>
     </g>
    </g>
    <g id="text_5">
     <!-- Time (sec) -->
     <g transform="translate(102.995313 248.776563)scale(0.1 -0.1)">
      <defs>
       <path d="M -0.296875 72.90625 
L 61.375 72.90625 
L 61.375 64.59375 
L 35.5 64.59375 
L 35.5 0 
L 25.59375 0 
L 25.59375 64.59375 
L -0.296875 64.59375 
z
" id="DejaVuSans-84"/>
       <path d="M 9.421875 54.6875 
L 18.40625 54.6875 
L 18.40625 0 
L 9.421875 0 
z
M 9.421875 75.984375 
L 18.40625 75.984375 
L 18.40625 64.59375 
L 9.421875 64.59375 
z
" id="DejaVuSans-105"/>
       <path d="M 52 44.1875 
Q 55.375 50.25 60.0625 53.125 
Q 64.75 56 71.09375 56 
Q 79.640625 56 84.28125 50.015625 
Q 88.921875 44.046875 88.921875 33.015625 
L 88.921875 0 
L 79.890625 0 
L 79.890625 32.71875 
Q 79.890625 40.578125 77.09375 44.375 
Q 74.3125 48.1875 68.609375 48.1875 
Q 61.625 48.1875 57.5625 43.546875 
Q 53.515625 38.921875 53.515625 30.90625 
L 53.515625 0 
L 44.484375 0 
L 44.484375 32.71875 
Q 44.484375 40.625 41.703125 44.40625 
Q 38.921875 48.1875 33.109375 48.1875 
Q 26.21875 48.1875 22.15625 43.53125 
Q 18.109375 38.875 18.109375 30.90625 
L 18.109375 0 
L 9.078125 0 
L 9.078125 54.6875 
L 18.109375 54.6875 
L 18.109375 46.1875 
Q 21.1875 51.21875 25.484375 53.609375 
Q 29.78125 56 35.6875 56 
Q 41.65625 56 45.828125 52.96875 
Q 50 49.953125 52 44.1875 
z
" id="DejaVuSans-109"/>
       <path d="M 56.203125 29.59375 
L 56.203125 25.203125 
L 14.890625 25.203125 
Q 15.484375 15.921875 20.484375 11.0625 
Q 25.484375 6.203125 34.421875 6.203125 
Q 39.59375 6.203125 44.453125 7.46875 
Q 49.3125 8.734375 54.109375 11.28125 
L 54.109375 2.78125 
Q 49.265625 0.734375 44.1875 -0.34375 
Q 39.109375 -1.421875 33.890625 -1.421875 
Q 20.796875 -1.421875 13.15625 6.1875 
Q 5.515625 13.8125 5.515625 26.8125 
Q 5.515625 40.234375 12.765625 48.109375 
Q 20.015625 56 32.328125 56 
Q 43.359375 56 49.78125 48.890625 
Q 56.203125 41.796875 56.203125 29.59375 
z
M 47.21875 32.234375 
Q 47.125 39.59375 43.09375 43.984375 
Q 39.0625 48.390625 32.421875 48.390625 
Q 24.90625 48.390625 20.390625 44.140625 
Q 15.875 39.890625 15.1875 32.171875 
z
" id="DejaVuSans-101"/>
       <path id="DejaVuSans-32"/>
       <path d="M 31 75.875 
Q 24.46875 64.65625 21.28125 53.65625 
Q 18.109375 42.671875 18.109375 31.390625 
Q 18.109375 20.125 21.3125 9.0625 
Q 24.515625 -2 31 -13.1875 
L 23.1875 -13.1875 
Q 15.875 -1.703125 12.234375 9.375 
Q 8.59375 20.453125 8.59375 31.390625 
Q 8.59375 42.28125 12.203125 53.3125 
Q 15.828125 64.359375 23.1875 75.875 
z
" id="DejaVuSans-40"/>
       <path d="M 44.28125 53.078125 
L 44.28125 44.578125 
Q 40.484375 46.53125 36.375 47.5 
Q 32.28125 48.484375 27.875 48.484375 
Q 21.1875 48.484375 17.84375 46.4375 
Q 14.5 44.390625 14.5 40.28125 
Q 14.5 37.15625 16.890625 35.375 
Q 19.28125 33.59375 26.515625 31.984375 
L 29.59375 31.296875 
Q 39.15625 29.25 43.1875 25.515625 
Q 47.21875 21.78125 47.21875 15.09375 
Q 47.21875 7.46875 41.1875 3.015625 
Q 35.15625 -1.421875 24.609375 -1.421875 
Q 20.21875 -1.421875 15.453125 -0.5625 
Q 10.6875 0.296875 5.421875 2 
L 5.421875 11.28125 
Q 10.40625 8.6875 15.234375 7.390625 
Q 20.0625 6.109375 24.8125 6.109375 
Q 31.15625 6.109375 34.5625 8.28125 
Q 37.984375 10.453125 37.984375 14.40625 
Q 37.984375 18.0625 35.515625 20.015625 
Q 33.0625 21.96875 24.703125 23.78125 
L 21.578125 24.515625 
Q 13.234375 26.265625 9.515625 29.90625 
Q 5.8125 33.546875 5.8125 39.890625 
Q 5.8125 47.609375 11.28125 51.796875 
Q 16.75 56 26.8125 56 
Q 31.78125 56 36.171875 55.265625 
Q 40.578125 54.546875 44.28125 53.078125 
z
" id="DejaVuSans-115"/>
       <path d="M 48.78125 52.59375 
L 48.78125 44.1875 
Q 44.96875 46.296875 41.140625 47.34375 
Q 37.3125 48.390625 33.40625 48.390625 
Q 24.65625 48.390625 19.8125 42.84375 
Q 14.984375 37.3125 14.984375 27.296875 
Q 14.984375 17.28125 19.8125 11.734375 
Q 24.65625 6.203125 33.40625 6.203125 
Q 37.3125 6.203125 41.140625 7.25 
Q 44.96875 8.296875 48.78125 10.40625 
L 48.78125 2.09375 
Q 45.015625 0.34375 40.984375 -0.53125 
Q 36.96875 -1.421875 32.421875 -1.421875 
Q 20.0625 -1.421875 12.78125 6.34375 
Q 5.515625 14.109375 5.515625 27.296875 
Q 5.515625 40.671875 12.859375 48.328125 
Q 20.21875 56 33.015625 56 
Q 37.15625 56 41.109375 55.140625 
Q 45.0625 54.296875 48.78125 52.59375 
z
" id="DejaVuSans-99"/>
       <path d="M 8.015625 75.875 
L 15.828125 75.875 
Q 23.140625 64.359375 26.78125 53.3125 
Q 30.421875 42.28125 30.421875 31.390625 
Q 30.421875 20.453125 26.78125 9.375 
Q 23.140625 -1.703125 15.828125 -13.1875 
L 8.015625 -13.1875 
Q 14.5 -2 17.703125 9.0625 
Q 20.90625 20.125 20.90625 31.390625 
Q 20.90625 42.671875 17.703125 53.65625 
Q 14.5 64.65625 8.015625 75.875 
z
" id="DejaVuSans-41"/>
      </defs>
      <use xlink:href="#DejaVuSans-84"/>
      <use x="57.958984" xlink:href="#DejaVuSans-105"/>
      <use x="85.742188" xlink:href="#DejaVuSans-109"/>
      <use x="183.154297" xlink:href="#DejaVuSans-101"/>
      <use x="244.677734" xlink:href="#DejaVuSans-32"/>
      <use x="276.464844" xlink:href="#DejaVuSans-40"/>
      <use x="315.478516" xlink:href="#DejaVuSans-115"/>
      <use x="367.578125" xlink:href="#DejaVuSans-101"/>
      <use x="429.101562" xlink:href="#DejaVuSans-99"/>
      <use x="484.082031" xlink:href="#DejaVuSans-41"/>
     </g>
    </g>
   </g>
   <g id="matplotlib.axis_2">
    <g id="ytick_1">
     <g id="line2d_9">
      <path clip-path="url(#p41d8a16cc2)" d="M 31.5 220.5 
L 226.8 220.5 
" style="fill:none;stroke:#b0b0b0;stroke-linecap:square;stroke-width:0.8;"/>
     </g>
     <g id="line2d_10">
      <defs>
       <path d="M 0 0 
L -3.5 0 
" id="m961bdea088" style="stroke:#000000;stroke-width:0.8;"/>
      </defs>
      <g>
       <use style="stroke:#000000;stroke-width:0.8;" x="31.5" xlink:href="#m961bdea088" y="220.5"/>
      </g>
     </g>
     <g id="text_6">
      <!-- 0 -->
      <g transform="translate(18.1375 224.299219)scale(0.1 -0.1)">
       <use xlink:href="#DejaVuSans-48"/>
      </g>
     </g>
    </g>
    <g id="ytick_2">
     <g id="line2d_11">
      <path clip-path="url(#p41d8a16cc2)" d="M 31.5 196.7175 
L 226.8 196.7175 
" style="fill:none;stroke:#b0b0b0;stroke-linecap:square;stroke-width:0.8;"/>
     </g>
     <g id="line2d_12">
      <g>
       <use style="stroke:#000000;stroke-width:0.8;" x="31.5" xlink:href="#m961bdea088" y="196.7175"/>
      </g>
     </g>
     <g id="text_7">
      <!-- 250 -->
      <g transform="translate(5.4125 200.516719)scale(0.1 -0.1)">
       <defs>
        <path d="M 19.1875 8.296875 
L 53.609375 8.296875 
L 53.609375 0 
L 7.328125 0 
L 7.328125 8.296875 
Q 12.9375 14.109375 22.625 23.890625 
Q 32.328125 33.6875 34.8125 36.53125 
Q 39.546875 41.84375 41.421875 45.53125 
Q 43.3125 49.21875 43.3125 52.78125 
Q 43.3125 58.59375 39.234375 62.25 
Q 35.15625 65.921875 28.609375 65.921875 
Q 23.96875 65.921875 18.8125 64.3125 
Q 13.671875 62.703125 7.8125 59.421875 
L 7.8125 69.390625 
Q 13.765625 71.78125 18.9375 73 
Q 24.125 74.21875 28.421875 74.21875 
Q 39.75 74.21875 46.484375 68.546875 
Q 53.21875 62.890625 53.21875 53.421875 
Q 53.21875 48.921875 51.53125 44.890625 
Q 49.859375 40.875 45.40625 35.40625 
Q 44.1875 33.984375 37.640625 27.21875 
Q 31.109375 20.453125 19.1875 8.296875 
z
" id="DejaVuSans-50"/>
        <path d="M 10.796875 72.90625 
L 49.515625 72.90625 
L 49.515625 64.59375 
L 19.828125 64.59375 
L 19.828125 46.734375 
Q 21.96875 47.46875 24.109375 47.828125 
Q 26.265625 48.1875 28.421875 48.1875 
Q 40.625 48.1875 47.75 41.5 
Q 54.890625 34.8125 54.890625 23.390625 
Q 54.890625 11.625 47.5625 5.09375 
Q 40.234375 -1.421875 26.90625 -1.421875 
Q 22.3125 -1.421875 17.546875 -0.640625 
Q 12.796875 0.140625 7.71875 1.703125 
L 7.71875 11.625 
Q 12.109375 9.234375 16.796875 8.0625 
Q 21.484375 6.890625 26.703125 6.890625 
Q 35.15625 6.890625 40.078125 11.328125 
Q 45.015625 15.765625 45.015625 23.390625 
Q 45.015625 31 40.078125 35.4375 
Q 35.15625 39.890625 26.703125 39.890625 
Q 22.75 39.890625 18.8125 39.015625 
Q 14.890625 38.140625 10.796875 36.28125 
z
" id="DejaVuSans-53"/>
       </defs>
       <use xlink:href="#DejaVuSans-50"/>
       <use x="63.623047" xlink:href="#DejaVuSans-53"/>
       <use x="127.246094" xlink:href="#DejaVuSans-48"/>
      </g>
     </g>
    </g>
    <g id="ytick_3">
     <g id="line2d_13">
      <path clip-path="url(#p41d8a16cc2)" d="M 31.5 172.935 
L 226.8 172.935 
" style="fill:none;stroke:#b0b0b0;stroke-linecap:square;stroke-width:0.8;"/>
     </g>
     <g id="line2d_14">
      <g>
       <use style="stroke:#000000;stroke-width:0.8;" x="31.5" xlink:href="#m961bdea088" y="172.935"/>
      </g>
     </g>
     <g id="text_8">
      <!-- 500 -->
      <g transform="translate(5.4125 176.734219)scale(0.1 -0.1)">
       <use xlink:href="#DejaVuSans-53"/>
       <use x="63.623047" xlink:href="#DejaVuSans-48"/>
       <use x="127.246094" xlink:href="#DejaVuSans-48"/>
      </g>
     </g>
    </g>
    <g id="ytick_4">
     <g id="line2d_15">
      <path clip-path="url(#p41d8a16cc2)" d="M 31.5 149.1525 
L 226.8 149.1525 
" style="fill:none;stroke:#b0b0b0;stroke-linecap:square;stroke-width:0.8;"/>
     </g>
     <g id="line2d_16">
      <g>
       <use style="stroke:#000000;stroke-width:0.8;" x="31.5" xlink:href="#m961bdea088" y="149.1525"/>
      </g>
     </g>
     <g id="text_9">
      <!-- 750 -->
      <g transform="translate(5.4125 152.951719)scale(0.1 -0.1)">
       <use xlink:href="#DejaVuSans-55"/>
       <use x="63.623047" xlink:href="#DejaVuSans-53"/>
       <use x="127.246094" xlink:href="#DejaVuSans-48"/>
      </g>
     </g>
    </g>
    <g id="ytick_5">
     <g id="line2d_17">
      <path clip-path="url(#p41d8a16cc2)" d="M 31.5 125.37 
L 226.8 125.37 
" style="fill:none;stroke:#b0b0b0;stroke-linecap:square;stroke-width:0.8;"/>
     </g>
     <g id="line2d_18">
      <g>
       <use style="stroke:#000000;stroke-width:0.8;" x="31.5" xlink:href="#m961bdea088" y="125.37"/>
      </g>
     </g>
     <g id="text_10">
      <!-- 1000 -->
      <g transform="translate(-0.95 129.169219)scale(0.1 -0.1)">
       <defs>
        <path d="M 12.40625 8.296875 
L 28.515625 8.296875 
L 28.515625 63.921875 
L 10.984375 60.40625 
L 10.984375 69.390625 
L 28.421875 72.90625 
L 38.28125 72.90625 
L 38.28125 8.296875 
L 54.390625 8.296875 
L 54.390625 0 
L 12.40625 0 
z
" id="DejaVuSans-49"/>
       </defs>
       <use xlink:href="#DejaVuSans-49"/>
       <use x="63.623047" xlink:href="#DejaVuSans-48"/>
       <use x="127.246094" xlink:href="#DejaVuSans-48"/>
       <use x="190.869141" xlink:href="#DejaVuSans-48"/>
      </g>
     </g>
    </g>
    <g id="ytick_6">
     <g id="line2d_19">
      <path clip-path="url(#p41d8a16cc2)" d="M 31.5 101.5875 
L 226.8 101.5875 
" style="fill:none;stroke:#b0b0b0;stroke-linecap:square;stroke-width:0.8;"/>
     </g>
     <g id="line2d_20">
      <g>
       <use style="stroke:#000000;stroke-width:0.8;" x="31.5" xlink:href="#m961bdea088" y="101.5875"/>
      </g>
     </g>
     <g id="text_11">
      <!-- 1250 -->
      <g transform="translate(-0.95 105.386719)scale(0.1 -0.1)">
       <use xlink:href="#DejaVuSans-49"/>
       <use x="63.623047" xlink:href="#DejaVuSans-50"/>
       <use x="127.246094" xlink:href="#DejaVuSans-53"/>
       <use x="190.869141" xlink:href="#DejaVuSans-48"/>
      </g>
     </g>
    </g>
    <g id="ytick_7">
     <g id="line2d_21">
      <path clip-path="url(#p41d8a16cc2)" d="M 31.5 77.805 
L 226.8 77.805 
" style="fill:none;stroke:#b0b0b0;stroke-linecap:square;stroke-width:0.8;"/>
     </g>
     <g id="line2d_22">
      <g>
       <use style="stroke:#000000;stroke-width:0.8;" x="31.5" xlink:href="#m961bdea088" y="77.805"/>
      </g>
     </g>
     <g id="text_12">
      <!-- 1500 -->
      <g transform="translate(-0.95 81.604219)scale(0.1 -0.1)">
       <use xlink:href="#DejaVuSans-49"/>
       <use x="63.623047" xlink:href="#DejaVuSans-53"/>
       <use x="127.246094" xlink:href="#DejaVuSans-48"/>
       <use x="190.869141" xlink:href="#DejaVuSans-48"/>
      </g>
     </g>
    </g>
    <g id="ytick_8">
     <g id="line2d_23">
      <path clip-path="url(#p41d8a16cc2)" d="M 31.5 54.0225 
L 226.8 54.0225 
" style="fill:none;stroke:#b0b0b0;stroke-linecap:square;stroke-width:0.8;"/>
     </g>
     <g id="line2d_24">
      <g>
       <use style="stroke:#000000;stroke-width:0.8;" x="31.5" xlink:href="#m961bdea088" y="54.0225"/>
      </g>
     </g>
     <g id="text_13">
      <!-- 1750 -->
      <g transform="translate(-0.95 57.821719)scale(0.1 -0.1)">
       <use xlink:href="#DejaVuSans-49"/>
       <use x="63.623047" xlink:href="#DejaVuSans-55"/>
       <use x="127.246094" xlink:href="#DejaVuSans-53"/>
       <use x="190.869141" xlink:href="#DejaVuSans-48"/>
      </g>
     </g>
    </g>
    <g id="ytick_9">
     <g id="line2d_25">
      <path clip-path="url(#p41d8a16cc2)" d="M 31.5 30.24 
L 226.8 30.24 
" style="fill:none;stroke:#b0b0b0;stroke-linecap:square;stroke-width:0.8;"/>
     </g>
     <g id="line2d_26">
      <g>
       <use style="stroke:#000000;stroke-width:0.8;" x="31.5" xlink:href="#m961bdea088" y="30.24"/>
      </g>
     </g>
     <g id="text_14">
      <!-- 2000 -->
      <g transform="translate(-0.95 34.039219)scale(0.1 -0.1)">
       <use xlink:href="#DejaVuSans-50"/>
       <use x="63.623047" xlink:href="#DejaVuSans-48"/>
       <use x="127.246094" xlink:href="#DejaVuSans-48"/>
       <use x="190.869141" xlink:href="#DejaVuSans-48"/>
      </g>
     </g>
    </g>
    <g id="text_15">
     <!-- Rev/Min -->
     <g transform="translate(-7.029688 145.211406)rotate(-90)scale(0.1 -0.1)">
      <defs>
       <path d="M 44.390625 34.1875 
Q 47.5625 33.109375 50.5625 29.59375 
Q 53.5625 26.078125 56.59375 19.921875 
L 66.609375 0 
L 56 0 
L 46.6875 18.703125 
Q 43.0625 26.03125 39.671875 28.421875 
Q 36.28125 30.8125 30.421875 30.8125 
L 19.671875 30.8125 
L 19.671875 0 
L 9.8125 0 
L 9.8125 72.90625 
L 32.078125 72.90625 
Q 44.578125 72.90625 50.734375 67.671875 
Q 56.890625 62.453125 56.890625 51.90625 
Q 56.890625 45.015625 53.6875 40.46875 
Q 50.484375 35.9375 44.390625 34.1875 
z
M 19.671875 64.796875 
L 19.671875 38.921875 
L 32.078125 38.921875 
Q 39.203125 38.921875 42.84375 42.21875 
Q 46.484375 45.515625 46.484375 51.90625 
Q 46.484375 58.296875 42.84375 61.546875 
Q 39.203125 64.796875 32.078125 64.796875 
z
" id="DejaVuSans-82"/>
       <path d="M 2.984375 54.6875 
L 12.5 54.6875 
L 29.59375 8.796875 
L 46.6875 54.6875 
L 56.203125 54.6875 
L 35.6875 0 
L 23.484375 0 
z
" id="DejaVuSans-118"/>
       <path d="M 25.390625 72.90625 
L 33.6875 72.90625 
L 8.296875 -9.28125 
L 0 -9.28125 
z
" id="DejaVuSans-47"/>
       <path d="M 9.8125 72.90625 
L 24.515625 72.90625 
L 43.109375 23.296875 
L 61.8125 72.90625 
L 76.515625 72.90625 
L 76.515625 0 
L 66.890625 0 
L 66.890625 64.015625 
L 48.09375 14.015625 
L 38.1875 14.015625 
L 19.390625 64.015625 
L 19.390625 0 
L 9.8125 0 
z
" id="DejaVuSans-77"/>
       <path d="M 54.890625 33.015625 
L 54.890625 0 
L 45.90625 0 
L 45.90625 32.71875 
Q 45.90625 40.484375 42.875 44.328125 
Q 39.84375 48.1875 33.796875 48.1875 
Q 26.515625 48.1875 22.3125 43.546875 
Q 18.109375 38.921875 18.109375 30.90625 
L 18.109375 0 
L 9.078125 0 
L 9.078125 54.6875 
L 18.109375 54.6875 
L 18.109375 46.1875 
Q 21.34375 51.125 25.703125 53.5625 
Q 30.078125 56 35.796875 56 
Q 45.21875 56 50.046875 50.171875 
Q 54.890625 44.34375 54.890625 33.015625 
z
" id="DejaVuSans-110"/>
      </defs>
      <use xlink:href="#DejaVuSans-82"/>
      <use x="64.982422" xlink:href="#DejaVuSans-101"/>
      <use x="126.505859" xlink:href="#DejaVuSans-118"/>
      <use x="185.685547" xlink:href="#DejaVuSans-47"/>
      <use x="219.376953" xlink:href="#DejaVuSans-77"/>
      <use x="305.65625" xlink:href="#DejaVuSans-105"/>
      <use x="333.439453" xlink:href="#DejaVuSans-110"/>
     </g>
    </g>
   </g>
   <g id="line2d_27">
    <path clip-path="url(#p41d8a16cc2)" d="M 31.5 138.02229 
L 31.659941 140.162715 
L 31.696474 140.162715 
L 31.851542 142.374487 
L 31.890673 142.374487 
L 32.050632 144.610043 
L 32.085986 144.610043 
L 32.242265 146.916945 
L 32.281396 146.916945 
L 32.441313 149.271412 
L 32.476642 149.271412 
L 32.632906 151.697227 
L 32.711021 151.697227 
L 32.86728 154.146825 
L 32.949149 154.146825 
L 33.06632 154.503562 
L 33.339814 149.984888 
L 33.378867 149.984888 
L 33.53517 146.607773 
L 33.576067 146.607773 
L 33.730494 142.089098 
L 33.769556 142.089098 
L 34.039275 129.056287 
L 34.082059 129.056287 
L 34.273696 119.020073 
L 34.320391 119.020073 
L 34.511918 111.38589 
L 34.743471 104.203575 
L 34.863451 103.727925 
L 34.902567 103.727925 
L 35.134222 105.10731 
L 35.488592 108.555773 
L 35.723013 112.71771 
L 35.762066 112.71771 
L 35.840184 113.264708 
L 35.879284 113.217143 
L 36.149038 110.862675 
L 36.383381 107.86608 
L 36.426185 107.86608 
L 36.5434 107.366648 
L 36.617813 107.556908 
L 36.660614 107.461778 
L 36.777836 107.533125 
L 36.895007 107.723385 
L 36.973125 107.628255 
L 37.008459 107.747168 
L 37.324725 105.86835 
L 37.363778 105.86835 
L 37.946064 102.966885 
L 37.988848 102.966885 
L 38.106097 102.63393 
L 38.145178 102.705278 
L 38.184235 102.705278 
L 38.496774 101.944238 
L 38.535796 101.991803 
L 38.770248 100.992938 
L 38.809298 100.992938 
L 39.090617 99.39951 
L 39.121872 99.39951 
L 39.508778 97.829865 
L 39.551582 97.829865 
L 39.942279 95.380268 
L 39.981343 95.40405 
L 40.020408 95.40405 
L 40.212748 94.571663 
L 40.254817 94.571663 
L 40.45018 93.763058 
L 40.489234 93.763058 
L 40.801758 92.478803 
L 40.840857 92.478803 
L 41.934738 88.17417 
L 41.973803 88.17417 
L 42.170655 87.270435 
L 42.208215 87.270435 
L 42.677037 85.296488 
L 42.755183 85.439183 
L 43.145809 82.323675 
L 43.184877 82.323675 
L 43.962515 80.040555 
L 44.005316 80.159468 
L 44.0444 80.159468 
L 44.278797 78.399563 
L 44.356942 78.542258 
L 44.51462 78.233085 
L 44.587683 78.256867 
L 44.974226 82.133415 
L 45.095707 84.84462 
L 45.607165 91.50372 
L 45.646202 91.575068 
L 45.998166 88.388213 
L 46.11504 87.936345 
L 47.752199 111.148065 
L 47.794937 111.148065 
L 47.908483 112.860405 
L 47.947489 112.360973 
L 47.990293 112.360973 
L 48.380954 117.426645 
L 48.41671 117.426645 
L 48.689856 121.017803 
L 48.728861 121.017803 
L 49.008161 124.680308 
L 49.041389 124.680308 
L 49.315019 128.437943 
L 49.357761 128.437943 
L 49.510207 129.74598 
L 49.783822 127.986075 
L 49.822829 127.986075 
L 49.900888 128.104987 
L 50.135289 130.60215 
L 50.174421 130.60215 
L 50.370116 133.64631 
L 50.412549 133.64631 
L 50.565101 135.477563 
L 50.604103 135.477563 
L 50.760769 137.427728 
L 50.877632 137.808247 
L 51.03393 135.35865 
L 51.229142 128.98494 
L 51.27193 128.98494 
L 51.463582 124.347353 
L 51.506378 124.347353 
L 51.701656 119.733548 
L 51.740705 119.733548 
L 51.854349 117.640688 
L 51.900978 117.640688 
L 52.244896 129.056287 
L 52.287711 129.056287 
L 52.365834 129.912458 
L 52.401152 129.817328 
L 52.443952 129.817328 
L 52.635662 126.749385 
L 52.678463 126.749385 
L 52.834695 125.441348 
L 52.99092 125.17974 
L 53.182548 126.22617 
L 53.225324 126.22617 
L 53.459788 126.654255 
L 53.850453 126.107258 
L 53.928587 125.798085 
L 53.965792 125.821868 
L 54.00669 125.821868 
L 54.162969 125.631608 
L 54.31924 125.75052 
L 54.398503 125.607825 
L 54.588979 126.154823 
L 54.711972 126.154823 
L 54.901557 126.535343 
L 54.944345 126.535343 
L 55.178735 125.964563 
L 55.491321 126.749385 
L 55.52662 126.535343 
L 55.569408 126.535343 
L 55.647506 126.345083 
L 55.686575 126.392648 
L 55.725644 126.392648 
L 55.921015 126.79695 
L 56.155459 126.345083 
L 56.389888 126.773168 
L 56.546168 126.13104 
L 56.702361 125.488913 
L 56.781526 125.37 
L 56.975854 125.726738 
L 57.171214 125.75052 
L 57.36655 123.990615 
L 57.4066 123.990615 
L 57.561906 122.920403 
L 57.64004 122.777708 
L 57.679077 122.89662 
L 57.870667 124.466265 
L 57.913455 124.466265 
L 57.99162 124.632743 
L 58.026989 124.585178 
L 58.069773 124.585178 
L 58.183299 124.22844 
L 58.226041 124.22844 
L 58.343244 123.919268 
L 58.382277 123.919268 
L 58.574019 121.636148 
L 58.620597 121.636148 
L 58.808276 122.563665 
L 58.851076 122.563665 
L 59.007395 122.872838 
L 59.163693 123.18201 
L 59.355291 122.563665 
L 59.398079 122.658795 
L 59.433412 122.658795 
L 59.867694 121.46967 
L 59.909665 121.46967 
L 59.984076 121.350758 
L 60.062264 121.612365 
L 60.101302 121.517235 
L 60.141152 121.517235 
L 60.413833 120.304328 
L 60.527375 120.851325 
L 60.605485 120.851325 
L 60.687307 120.066503 
L 60.882686 120.13785 
L 61.038911 121.94532 
L 61.117103 122.04045 
L 61.351485 120.779978 
L 61.386804 120.779978 
L 61.58589 119.75733 
L 61.781184 119.685983 
L 61.93747 120.304328 
L 62.054662 120.399458 
L 62.132799 120.494588 
L 62.250013 120.256763 
L 62.289067 120.256763 
L 62.640725 117.616905 
L 62.7188 117.712035 
L 62.757896 117.66447 
L 62.875783 117.7596 
L 63.22668 119.020073 
L 63.53925 117.783383 
L 63.578349 117.902295 
L 63.773675 117.307733 
L 63.890888 117.28395 
L 63.969026 117.117473 
L 64.164335 117.807165 
L 64.320571 117.973643 
L 64.435992 117.545558 
L 64.508153 117.545558 
L 64.595342 116.832083 
L 64.67223 116.8083 
L 64.789413 116.950995 
L 64.828998 116.950995 
L 64.906635 117.141255 
L 64.945688 117.117473 
L 65.023834 117.022343 
L 65.059183 117.046125 
L 65.376535 116.99856 
L 65.687989 115.95213 
L 65.727006 116.023478 
L 65.805172 115.928348 
L 65.961447 115.714305 
L 66.117671 115.642958 
L 66.389501 117.165038 
L 66.466298 117.18882 
L 66.938175 112.33719 
L 67.016266 112.741493 
L 67.250675 113.76414 
L 67.367874 113.740358 
L 67.561534 114.477615 
L 67.720454 114.025748 
L 67.914821 112.265843 
L 68.22738 114.192225 
L 68.262745 114.192225 
L 68.500811 115.690523 
L 68.930573 111.433455 
L 68.965917 111.433455 
L 69.086953 110.81511 
L 69.321342 111.148065 
L 69.517081 113.692793 
L 69.594758 113.336055 
L 69.868298 108.199035 
L 69.981688 107.723385 
L 70.216155 108.81738 
L 70.258982 108.81738 
L 70.68679 111.552368 
L 70.727703 111.552368 
L 70.844933 111.148065 
L 70.88517 111.29076 
L 70.924442 111.29076 
L 71.079741 114.501398 
L 71.235649 119.448158 
L 72.016971 96.236438 
L 72.056024 96.92613 
L 72.337288 106.462913 
L 72.485805 108.983858 
L 72.52487 108.983858 
L 73.033033 98.35308 
L 73.071774 98.614688 
L 73.267142 105.20244 
L 73.384317 104.037098 
L 73.42371 104.393835 
L 73.46247 104.393835 
L 73.654088 106.011045 
L 73.735929 105.77322 
L 73.931292 103.01445 
L 74.126613 107.67582 
L 74.478221 99.613553 
L 74.556367 99.351945 
L 74.904278 102.25341 
L 74.984194 102.205845 
L 75.415826 98.947643 
L 75.451222 99.01899 
L 75.687354 100.06542 
L 76.04095 100.06542 
L 76.076296 100.303245 
L 76.158306 100.25568 
L 76.276747 100.208115 
L 76.393418 99.423293 
L 76.623217 96.807218 
L 77.17388 101.278328 
L 77.212949 101.278328 
L 77.248314 101.39724 
L 77.681834 98.210385 
L 78.189669 98.471993 
L 78.971011 95.380268 
L 79.244563 98.06769 
L 79.281409 98.043908 
L 79.322654 98.043908 
L 79.358004 98.186603 
L 79.635193 96.498045 
L 79.7524 96.45048 
L 79.947732 96.06996 
L 80.025881 96.022395 
L 80.182145 96.426698 
L 80.221198 96.426698 
L 80.260283 96.54561 
L 80.29934 96.402915 
L 80.338385 96.402915 
L 80.530038 94.214925 
L 80.572829 94.214925 
L 80.92071 93.097148 
L 80.963494 93.168495 
L 81.158873 94.048448 
L 81.197915 93.953318 
L 81.393282 93.453885 
L 81.432301 93.453885 
L 81.510469 93.78684 
L 81.549504 93.644145 
L 82.016028 92.122065 
L 82.249046 91.551285 
L 82.483373 90.74268 
L 82.643407 91.02807 
L 82.72251 91.170765 
L 82.76059 91.146983 
L 82.916834 90.766463 
L 82.95593 90.766463 
L 83.229389 91.812893 
L 83.424756 89.648685 
L 83.504667 89.268165 
L 83.541939 89.458425 
L 83.578742 89.458425 
L 83.815429 88.483343 
L 83.854466 88.388213 
L 83.969376 88.982775 
L 84.127971 89.291948 
L 84.28502 88.792515 
L 84.323355 88.792515 
L 84.36458 88.64982 
L 84.59302 90.195683 
L 84.870288 89.03034 
L 84.948406 89.268165 
L 84.987459 89.101687 
L 85.218164 88.768732 
L 85.4172 89.720033 
L 85.495381 89.743815 
L 85.651606 89.196818 
L 85.886038 89.196818 
L 85.964222 89.339513 
L 86.198546 88.388213 
L 86.233895 88.388213 
L 86.390193 89.363295 
L 86.472047 89.41086 
L 86.511085 89.339513 
L 86.589238 89.12547 
L 86.823655 90.45729 
L 86.862953 90.45729 
L 87.253408 89.268165 
L 87.331999 89.529773 
L 87.52687 88.84008 
L 87.605003 88.74495 
L 87.76131 89.03034 
L 87.880338 89.196818 
L 88.187278 88.007693 
L 88.230098 88.007693 
L 88.271057 87.841215 
L 88.347276 87.936345 
L 88.42541 87.841215 
L 88.542625 87.69852 
L 88.620782 87.389348 
L 88.661772 87.555825 
L 88.737945 87.484477 
L 88.777014 87.532043 
L 89.011434 87.864998 
L 89.128637 87.817433 
L 89.167737 87.79365 
L 89.206767 87.864998 
L 89.323989 88.2693 
L 89.480261 88.578473 
L 89.558395 88.530908 
L 89.750015 87.88878 
L 89.949075 87.960127 
L 90.062555 88.150388 
L 90.105389 88.055258 
L 90.144442 88.221735 
L 90.18348 88.221735 
L 90.339783 88.530908 
L 90.535151 88.126605 
L 90.68828 88.340648 
L 90.73044 88.2693 
L 91.042967 87.627173 
L 91.078297 87.627173 
L 91.316437 87.103958 
L 91.550839 87.841215 
L 91.625257 87.841215 
L 91.707125 88.007693 
L 91.746206 87.88878 
L 91.980588 87.532043 
L 92.019688 87.817433 
L 92.097791 87.69852 
L 92.218907 87.579608 
L 92.250343 87.60339 
L 92.293146 87.532043 
L 92.410361 87.817433 
L 92.563933 87.460695 
L 92.607084 87.460695 
L 92.762289 87.12774 
L 92.998303 87.199088 
L 93.031684 87.365565 
L 93.113584 87.341783 
L 93.152653 87.341783 
L 93.269902 87.555825 
L 93.308935 87.532043 
L 93.387073 87.79365 
L 93.426091 87.627173 
L 93.621447 87.22287 
L 93.660532 87.22287 
L 93.69955 87.484477 
L 93.781645 87.365565 
L 93.855825 87.175305 
L 93.93399 87.22287 
L 93.969324 87.246653 
L 94.126587 87.532043 
L 94.324675 87.484477 
L 94.36374 87.722303 
L 94.441877 87.532043 
L 94.480942 87.436913 
L 94.559064 87.484477 
L 94.715378 87.674738 
L 94.750712 87.579608 
L 94.907948 87.246653 
L 94.949784 87.246653 
L 94.985086 87.103958 
L 95.027859 87.365565 
L 95.105993 87.294218 
L 95.145108 87.341783 
L 95.340413 87.484477 
L 95.613887 89.054123 
L 95.652952 89.006558 
L 95.766506 89.2206 
L 95.887345 87.722303 
L 96.079947 85.201358 
L 96.121864 85.201358 
L 96.313446 84.773273 
L 96.39583 84.915968 
L 96.47067 84.131145 
L 96.707822 79.778948 
L 96.828896 81.752895 
L 97.059399 89.268165 
L 97.098499 89.268165 
L 97.137552 89.387078 
L 97.450122 86.985045 
L 97.489171 86.985045 
L 97.84083 84.321405 
L 97.879891 84.321405 
L 98.153349 86.390483 
L 98.428488 85.462965 
L 98.544054 85.011098 
L 98.700336 85.914833 
L 98.735655 85.51053 
L 99.012852 82.418805 
L 99.090912 82.228545 
L 99.169045 83.156063 
L 99.364495 85.248923 
L 99.403563 85.4154 
L 99.438882 85.296488 
L 99.669239 84.93975 
L 99.677041 85.082445 
L 99.755159 85.058662 
L 99.794228 85.058662 
L 99.911447 85.344053 
L 99.950996 85.272705 
L 99.986591 85.177575 
L 100.220192 82.775543 
L 100.262996 82.75176 
L 100.419314 83.845755 
L 100.536529 84.131145 
L 100.575562 84.036015 
L 100.61465 84.036015 
L 100.966258 85.79592 
L 101.235935 83.346323 
L 101.435034 84.36897 
L 101.474102 84.583013 
L 101.513202 84.36897 
L 101.669458 83.774408 
L 101.708527 83.774408 
L 101.982048 85.558095 
L 102.017335 85.391618 
L 102.216391 84.440318 
L 102.25549 84.440318 
L 102.411778 84.987315 
L 102.528961 84.678143 
L 102.72114 83.441452 
L 102.880565 83.70306 
L 103.036851 84.107363 
L 103.111844 84.202493 
L 103.154004 84.250057 
L 103.190122 84.154928 
L 103.50717 84.059798 
L 103.576029 83.98845 
L 103.623032 84.202493 
L 103.661976 84.131145 
L 103.861012 84.036015 
L 103.897784 84.036015 
L 103.935443 84.321405 
L 104.013552 84.131145 
L 104.126973 84.107363 
L 104.208878 83.98845 
L 104.247942 84.202493 
L 104.326084 84.059798 
L 104.482324 84.036015 
L 104.521451 83.98845 
L 104.599569 84.202493 
L 104.638619 84.154928 
L 104.678985 84.154928 
L 104.794906 84.297623 
L 105.065227 83.726843 
L 105.302812 84.250057 
L 105.341865 84.107363 
L 105.498184 83.631713 
L 105.533455 83.726843 
L 105.732574 83.70306 
L 106.005977 82.918238 
L 106.084115 83.03715 
L 106.158494 83.03715 
L 106.279432 83.298758 
L 106.396697 83.03715 
L 106.748234 83.465235 
L 106.826399 83.346323 
L 106.865495 83.560365 
L 106.939894 83.536583 
L 106.982682 83.536583 
L 107.099932 83.750625 
L 107.139024 83.655495 
L 107.178034 83.845755 
L 107.217103 83.70306 
L 107.373398 83.774408 
L 107.52963 84.036015 
L 107.80521 83.346323 
L 107.877483 83.465235 
L 108.310944 82.75176 
L 108.389062 82.799325 
L 108.428143 82.799325 
L 108.545314 83.108497 
L 108.662552 83.108497 
L 108.70159 83.179845 
L 108.8579 82.94202 
L 108.936034 82.918238 
L 108.971805 82.989585 
L 109.132124 83.536583 
L 109.210867 83.41767 
L 109.412666 82.870673 
L 109.440182 83.03715 
L 109.522051 82.965803 
L 109.717356 82.727978 
L 109.795525 82.870673 
L 109.830827 82.823108 
L 109.912755 82.775543 
L 109.951761 82.823108 
L 110.108079 82.894455 
L 110.264323 82.537718 
L 110.377791 82.632847 
L 110.420595 82.989585 
L 110.498775 82.894455 
L 110.6941 82.65663 
L 110.81126 83.013368 
L 111.045692 82.632847 
L 111.084777 82.823108 
L 111.159175 82.775543 
L 111.3204 82.775543 
L 111.514514 82.513935 
L 111.631716 82.704195 
L 111.670797 82.632847 
L 111.706471 82.775543 
L 111.748947 82.775543 
L 111.905265 82.27611 
L 112.097101 82.585283 
L 112.178677 82.46637 
L 112.334943 82.109633 
L 112.374005 82.27611 
L 112.452135 82.252328 
L 112.608406 82.252328 
L 112.648194 82.133415 
L 112.68656 82.37124 
L 112.764669 82.204763 
L 112.842796 82.204763 
L 113.038147 82.537718 
L 113.077185 82.395023 
L 113.269068 81.443723 
L 113.35071 81.657765 
L 113.389764 81.562635 
L 113.62418 81.253463 
L 113.78042 81.776678 
L 113.819501 81.99072 
L 113.89765 81.919373 
L 113.936703 81.776678 
L 113.972033 81.99072 
L 114.44109 81.41994 
L 114.562355 81.51507 
L 114.71967 81.848025 
L 114.913412 81.538853 
L 114.952485 81.848025 
L 115.030603 81.657765 
L 115.108741 81.6102 
L 115.343134 80.801595 
L 115.421303 80.896725 
L 115.577629 81.253463 
L 115.733838 81.03942 
L 115.929194 81.158333 
L 116.163674 80.635118 
L 116.241717 80.872943 
L 116.280786 80.777813 
L 116.437042 80.84916 
L 116.472391 80.611335 
L 116.55426 80.777813 
L 116.7496 79.493558 
L 116.905891 78.542258 
L 117.06214 78.827648 
L 117.097477 78.708735 
L 117.140293 78.708735 
L 117.180233 78.875213 
L 117.374655 77.828783 
L 117.452788 77.828783 
L 117.609119 78.970343 
L 117.68721 79.160603 
L 117.726317 79.04169 
L 117.76537 79.04169 
L 118.234134 81.776678 
L 118.269534 81.848025 
L 118.31283 81.729113 
L 118.352399 81.729113 
L 119.015514 79.208168 
L 119.054587 79.469775 
L 119.09371 79.469775 
L 119.44526 77.686088 
L 119.485356 77.757435 
L 119.718773 78.37578 
L 119.796868 78.684953 
L 120.031284 79.921643 
L 120.309857 79.279515 
L 120.343804 79.564905 
L 120.421973 79.374645 
L 120.50045 79.32708 
L 120.61736 79.04169 
L 120.656393 79.32708 
L 120.734512 79.303298 
L 120.929863 79.23195 
L 120.968916 79.42221 
L 121.008001 79.255733 
L 121.12913 79.13682 
L 121.281464 79.303298 
L 121.475245 78.351998 
L 121.515868 78.351998 
L 121.555 78.209303 
L 121.593991 78.447128 
L 121.633067 78.256867 
L 121.750266 78.161738 
L 121.865894 77.971478 
L 122.098189 78.66117 
L 122.140977 78.66117 
L 122.179996 78.494693 
L 122.219061 78.684953 
L 122.256583 78.589823 
L 122.453486 78.56604 
L 122.805796 77.805 
L 122.844162 78.137955 
L 122.922299 78.09039 
L 123.000433 78.09039 
L 123.235827 78.351998 
L 123.504616 77.90013 
L 123.625503 77.99526 
L 123.78176 78.161738 
L 123.938078 77.781218 
L 124.055311 77.70987 
L 124.094365 77.90013 
L 124.172526 77.805 
L 124.367854 77.23422 
L 124.524149 77.61474 
L 124.676658 77.186655 
L 124.911024 77.567175 
L 124.991287 77.51961 
L 125.035841 77.828783 
L 125.110087 77.733653 
L 125.149399 77.662305 
L 125.188796 77.70987 
L 125.504909 78.542258 
L 125.930545 77.876348 
L 125.96961 78.019043 
L 126.004944 77.876348 
L 126.204019 77.90013 
L 126.321194 77.686088 
L 126.399351 77.590958 
L 126.516609 77.472045 
L 126.672837 77.13909 
L 127.020694 77.733653 
L 127.063498 77.638523 
L 127.180756 77.353133 
L 127.219781 77.61474 
L 127.29988 77.543393 
L 127.454175 77.495828 
L 127.610457 77.067743 
L 127.649574 76.972613 
L 127.688607 77.115308 
L 127.844866 77.70987 
L 127.883924 77.662305 
L 128.122446 77.638523 
L 128.157409 77.90013 
L 128.235778 77.781218 
L 128.43088 77.448262 
L 128.507216 77.61474 
L 128.704354 77.567175 
L 128.860633 77.32935 
L 129.055992 77.32935 
L 129.09503 77.495828 
L 129.130391 77.400698 
L 129.212244 77.281785 
L 129.251309 77.353133 
L 129.368532 77.353133 
L 129.407581 77.70987 
L 129.485731 77.495828 
L 129.599631 77.472045 
L 129.681129 77.32935 
L 129.720108 77.543393 
L 129.79902 77.51961 
L 129.911756 77.448262 
L 130.188942 76.28292 
L 130.38445 75.33162 
L 130.579587 74.689493 
L 130.618664 74.689493 
L 130.657733 74.879753 
L 130.735851 74.784623 
L 131.048413 75.379185 
L 131.161884 75.14136 
L 131.204665 75.188925 
L 131.478174 77.733653 
L 131.708817 75.640793 
L 132.033588 76.687223 
L 132.064187 76.66344 
L 132.103318 76.66344 
L 132.259511 76.496963 
L 132.416279 76.56831 
L 132.689257 75.23649 
L 132.767422 75.33162 
L 132.962735 76.711005 
L 133.001784 76.711005 
L 133.158091 75.9024 
L 133.236248 75.854835 
L 133.271558 75.9024 
L 133.548732 77.091525 
L 133.585785 77.067743 
L 133.705007 76.47318 
L 133.744154 76.56831 
L 133.783173 76.47318 
L 133.861295 76.544528 
L 133.939448 76.639657 
L 134.134772 76.068878 
L 134.212906 76.021313 
L 134.251943 76.068878 
L 134.287273 76.068878 
L 134.369424 76.354268 
L 134.408231 76.28292 
L 134.44358 76.28292 
L 134.757862 74.85597 
L 134.838039 74.9511 
L 135.033316 75.783488 
L 135.068698 75.640793 
L 135.224949 75.474315 
L 135.580284 77.020178 
L 135.697533 76.925048 
L 135.892866 77.32935 
L 135.970961 77.258003 
L 136.162593 76.496963 
L 136.240711 76.782353 
L 136.322764 76.877483 
L 136.362801 76.925048 
L 136.440002 76.8537 
L 136.675895 76.235355 
L 136.830435 76.901265 
L 136.947685 76.806135 
L 137.104093 76.045095 
L 137.178313 76.164008 
L 137.299262 76.401833 
L 137.338362 76.37805 
L 137.494778 76.140225 
L 137.729043 76.47318 
L 137.885493 76.8537 
L 137.924371 76.829918 
L 138.002489 76.211573 
L 138.080596 76.306703 
L 138.158733 76.116443 
L 138.194098 76.259138 
L 138.236914 76.259138 
L 138.393232 76.711005 
L 138.432254 76.615875 
L 138.62759 75.783488 
L 138.664439 75.878618 
L 138.90115 75.926183 
L 138.940109 75.664575 
L 139.018243 75.688358 
L 139.057625 75.688358 
L 139.288037 76.211573 
L 139.565375 75.307838 
L 139.799639 76.37805 
L 139.87773 76.425615 
L 139.913092 76.615875 
L 139.994917 76.449398 
L 140.190289 76.068878 
L 140.346591 76.37805 
L 140.541908 76.877483 
L 140.737248 76.37805 
L 140.776313 76.401833 
L 140.815347 76.401833 
L 140.97163 76.829918 
L 141.127886 76.330485 
L 141.166982 76.544528 
L 141.206036 76.496963 
L 141.284184 76.56831 
L 141.323331 76.639657 
L 141.635812 75.640793 
L 141.674881 75.640793 
L 141.714289 75.52188 
L 141.866435 75.854835 
L 142.026922 75.735923 
L 142.221806 76.37805 
L 142.338989 76.401833 
L 142.417169 76.711005 
L 142.456176 76.639657 
L 142.65157 76.068878 
L 142.691897 76.425615 
L 142.768769 76.37805 
L 142.964121 76.068878 
L 143.003162 76.330485 
L 143.081324 76.259138 
L 143.276683 76.068878 
L 143.315701 76.401833 
L 143.393874 76.259138 
L 143.589273 75.71214 
L 143.628322 75.949965 
L 143.667364 75.878618 
L 143.86268 75.355403 
L 143.90178 75.355403 
L 143.940814 75.545663 
L 143.976133 75.402968 
L 144.097496 75.165143 
L 144.25331 75.474315 
L 144.292411 75.355403 
L 144.409628 75.165143 
L 144.444978 75.23649 
L 144.487739 75.070013 
L 144.5778 75.474315 
L 144.60121 75.33162 
L 144.722132 75.260273 
L 144.915034 75.878618 
L 145.034694 75.926183 
L 145.227031 76.877483 
L 145.503505 77.662305 
L 145.933297 80.230815 
L 146.007715 80.159468 
L 146.284893 77.70987 
L 146.320242 77.686088 
L 146.441192 78.09039 
L 146.48198 77.99526 
L 146.677206 77.61474 
L 146.710958 77.805 
L 146.789045 77.828783 
L 146.945317 78.066608 
L 146.984491 77.947695 
L 147.06625 78.042825 
L 147.381133 78.589823 
L 147.492323 78.47091 
L 147.613866 78.423345 
L 147.808569 78.922778 
L 148.156915 78.994125 
L 148.312761 79.04169 
L 148.351767 78.875213 
L 148.4311 78.922778 
L 148.785243 79.374645 
L 148.898758 79.23195 
L 149.015992 79.42221 
L 149.328547 79.469775 
L 149.523832 79.731383 
L 149.644722 79.660035 
L 149.680072 79.755165 
L 149.797333 79.874077 
L 149.957289 79.731383 
L 150.266359 80.325945 
L 150.384401 80.135685 
L 150.465141 80.111903 
L 150.656855 80.56377 
L 150.738662 80.46864 
L 150.891249 80.37351 
L 151.320912 81.158333 
L 151.360059 81.182115 
L 151.561205 80.84916 
L 151.598153 80.777813 
L 151.672614 80.825378 
L 152.063302 80.872943 
L 152.219538 81.110768 
L 152.301344 81.110768 
L 152.391437 80.75403 
L 152.453978 80.872943 
L 152.649459 81.443723 
L 152.692021 81.372375 
L 152.885576 81.41994 
L 153.08269 82.062068 
L 153.196271 81.80046 
L 153.235309 81.871808 
L 153.317122 81.848025 
L 153.473402 82.157198 
L 153.5097 82.08585 
L 153.629677 81.966938 
L 153.668742 81.848025 
L 153.746887 81.943155 
L 153.903131 82.228545 
L 153.942212 82.204763 
L 154.133821 81.776678 
L 154.176578 81.776678 
L 154.291015 81.41994 
L 154.360424 81.41994 
L 154.489175 81.966938 
L 154.606343 82.062068 
L 154.645408 81.89559 
L 154.681648 82.08585 
L 154.918909 82.894455 
L 154.957938 82.84689 
L 155.072285 83.084715 
L 155.114152 82.989585 
L 155.27047 82.228545 
L 155.348557 82.323675 
L 155.622109 80.6589 
L 155.7784 81.158333 
L 155.931605 80.611335 
L 156.051839 80.968073 
L 156.091224 80.920508 
L 156.129945 80.825378 
L 156.364346 81.70533 
L 156.403427 81.633983 
L 156.555947 81.086985 
L 156.637848 81.41994 
L 156.676917 81.22968 
L 156.868534 80.254598 
L 156.98944 80.539988 
L 157.106662 80.159468 
L 157.1457 80.254598 
L 157.223833 80.064338 
L 157.259229 80.397293 
L 157.301998 80.159468 
L 157.536387 79.23195 
L 157.575531 79.683818 
L 157.653652 79.374645 
L 157.728017 79.32708 
L 157.848939 78.875213 
L 157.884284 79.13682 
L 157.927057 79.184385 
L 158.1976 80.682682 
L 158.278715 80.611335 
L 158.474009 79.826513 
L 158.66561 80.207033 
L 158.787638 79.99299 
L 158.821971 80.159468 
L 158.903793 80.159468 
L 159.056294 80.968073 
L 159.099118 80.94429 
L 159.17722 81.063203 
L 159.411657 80.08812 
L 159.528917 80.325945 
L 159.646061 80.08812 
L 159.763264 79.755165 
L 159.802333 79.850295 
L 159.919571 80.08812 
L 160.075826 80.516205 
L 160.114876 80.587553 
L 160.271136 80.135685 
L 160.701537 79.636253 
L 160.857172 79.850295 
L 161.130619 79.279515 
L 161.404148 80.207033 
L 161.52135 80.08812 
L 161.599468 80.016773 
L 161.833874 79.23195 
L 161.872957 79.23195 
L 161.947407 78.922778 
L 162.174678 79.945425 
L 162.185457 79.945425 
L 162.572411 79.089255 
L 162.615195 79.089255 
L 162.654307 79.32708 
L 162.728725 79.184385 
L 162.849624 79.279515 
L 162.927749 79.374645 
L 163.044979 80.207033 
L 163.084001 80.207033 
L 163.201236 80.111903 
L 163.240316 80.111903 
L 163.280459 80.635118 
L 163.357502 80.492423 
L 163.396556 80.397293 
L 163.435636 80.444858 
L 163.59192 80.872943 
L 163.630957 80.825378 
L 163.671245 80.825378 
L 163.744956 80.706465 
L 163.82629 80.968073 
L 163.865359 80.75403 
L 163.90449 81.063203 
L 164.057565 80.94429 
L 164.09981 80.94429 
L 164.256066 81.301028 
L 164.68582 80.302163 
L 164.998319 78.708735 
L 165.154638 78.494693 
L 165.193679 78.7563 
L 165.271793 78.542258 
L 165.310862 78.542258 
L 165.4672 78.37578 
L 165.506245 78.970343 
L 165.584352 78.589823 
L 165.697839 78.494693 
L 165.779727 78.304433 
L 165.935983 79.13682 
L 166.131335 80.539988 
L 166.248549 80.492423 
L 166.405978 80.135685 
L 166.443847 80.492423 
L 166.52198 80.349728 
L 166.678252 80.08812 
L 166.869861 79.113038 
L 166.951773 78.994125 
L 166.990795 79.113038 
L 167.02991 79.04169 
L 167.187314 80.040555 
L 167.34243 79.683818 
L 167.420598 80.135685 
L 167.45962 80.064338 
L 167.576823 79.99299 
L 167.733146 80.635118 
L 167.88565 80.302163 
L 167.928415 80.492423 
L 167.964186 80.325945 
L 168.010464 80.325945 
L 168.041934 80.706465 
L 168.123802 80.516205 
L 168.319154 80.421075 
L 168.35491 80.777813 
L 168.436357 80.6589 
L 168.631646 80.611335 
L 168.667007 80.896725 
L 168.748896 80.6589 
L 168.944181 80.016773 
L 168.979531 80.397293 
L 169.061419 80.230815 
L 169.256724 79.755165 
L 169.334858 80.159468 
L 169.373958 80.111903 
L 169.569314 79.731383 
L 169.648585 80.135685 
L 169.686489 80.064338 
L 169.882357 79.89786 
L 169.991335 80.421075 
L 169.999055 80.27838 
L 170.116239 80.18325 
L 170.155347 80.230815 
L 170.233441 80.08812 
L 170.27251 80.492423 
L 170.350636 80.37351 
L 170.467866 80.397293 
L 170.546019 80.18325 
L 170.585025 80.611335 
L 170.663191 80.46864 
L 170.741293 80.397293 
L 170.936679 79.874077 
L 171.167365 79.80273 
L 171.210123 80.064338 
L 171.288339 79.99299 
L 171.483617 79.541123 
L 171.600811 79.755165 
L 171.757168 79.731383 
L 171.792401 79.755165 
L 171.991503 80.492423 
L 172.104975 80.56377 
L 172.186863 81.205898 
L 172.225893 81.13455 
L 172.460313 80.801595 
L 172.499413 81.22968 
L 172.573769 80.94429 
L 172.694675 80.896725 
L 172.772856 80.706465 
L 172.81191 80.872943 
L 173.007218 80.325945 
L 173.085356 80.230815 
L 173.120705 80.492423 
L 173.202601 80.37351 
L 173.358889 80.08812 
L 173.397942 79.89786 
L 173.436996 80.302163 
L 173.515128 80.207033 
L 173.710481 80.207033 
L 173.788645 80.75403 
L 173.825855 80.730248 
L 173.984494 80.444858 
L 174.023008 80.349728 
L 174.101149 80.730248 
L 174.138156 80.635118 
L 174.335558 80.325945 
L 174.413704 80.75403 
L 174.449038 80.611335 
L 174.648097 80.325945 
L 174.687178 80.325945 
L 174.765316 80.872943 
L 174.804346 80.777813 
L 174.918532 80.682682 
L 175.00382 80.587553 
L 175.038813 80.991855 
L 175.116888 80.94429 
L 175.156871 81.015638 
L 175.230368 80.968073 
L 175.308506 80.920508 
L 175.351285 81.086985 
L 175.386811 80.94429 
L 175.429501 80.94429 
L 175.587304 80.706465 
L 175.626717 80.635118 
L 175.702959 81.13455 
L 175.74201 81.086985 
L 175.85922 81.015638 
L 176.21089 84.892185 
L 176.441619 87.674738 
L 176.480609 87.650955 
L 177.070408 83.584148 
L 177.105754 83.584148 
L 177.304798 84.107363 
L 177.34019 84.059798 
L 177.418265 84.107363 
L 177.57456 84.74949 
L 179.371667 108.841163 
L 179.410795 108.841163 
L 179.648825 112.33719 
L 179.684198 112.33719 
L 180.000446 116.736953 
L 180.039483 116.736953 
L 180.231116 119.305463 
L 180.271465 119.305463 
L 180.467783 122.016668 
L 180.50832 122.016668 
L 180.702028 124.727873 
L 180.739111 124.727873 
L 180.934359 127.2726 
L 180.973486 127.2726 
L 181.17251 129.84111 
L 181.211544 129.84111 
L 181.404071 132.480968 
L 181.442324 132.480968 
L 181.602299 134.359785 
L 181.639895 134.359785 
L 182.536164 143.563613 
L 182.578902 143.563613 
L 182.73522 145.466213 
L 182.774317 145.466213 
L 182.926888 147.511507 
L 182.96589 147.511507 
L 183.125866 149.53302 
L 183.16493 149.53302 
L 183.317549 151.673445 
L 183.395678 151.673445 
L 183.555623 153.671175 
L 183.63376 153.671175 
L 183.789985 156.429945 
L 183.868119 156.429945 
L 183.986451 157.571505 
L 184.102567 157.642853 
L 184.258811 156.334815 
L 184.336987 156.334815 
L 184.493184 154.693823 
L 184.534176 154.693823 
L 184.684837 153.932783 
L 184.766284 153.932783 
L 184.880267 154.051695 
L 185.076697 156.358598 
L 185.118293 156.358598 
L 185.274565 159.069803 
L 185.467991 159.04602 
L 185.559802 158.237415 
L 185.634042 158.237415 
L 185.747743 156.596423 
L 185.821615 156.596423 
L 185.97782 155.121908 
L 186.29198 155.193255 
L 186.488789 157.52394 
L 186.528057 157.52394 
L 186.683157 159.71193 
L 186.759169 159.71193 
L 186.876403 160.401623 
L 187.03269 160.37784 
L 187.149849 160.520535 
L 187.341436 159.925973 
L 187.384224 159.925973 
L 187.544468 159.188715 
L 187.618722 159.188715 
L 187.732194 158.831977 
L 187.890415 159.212498 
L 188.360971 159.283845 
L 188.478197 159.04602 
L 188.591684 159.188715 
L 188.829798 159.117368 
L 188.947024 158.95089 
L 189.064202 158.998455 
L 189.181413 158.879543 
L 189.220521 158.879543 
L 189.337692 159.14115 
L 189.572121 159.04602 
L 189.689304 158.927108 
L 189.808506 158.974672 
L 189.919978 158.76063 
L 190.0409 158.974672 
L 190.275293 158.903325 
L 190.392527 158.808195 
L 190.509703 158.903325 
L 190.630996 158.736848 
L 190.665978 158.736848 
L 190.783247 158.95089 
L 190.900407 158.998455 
L 191.092043 158.879543 
L 191.134823 158.879543 
L 191.248291 158.998455 
L 191.369209 158.85576 
L 191.48268 159.14115 
L 191.60438 159.164933 
L 191.797122 158.974672 
L 191.995365 158.974672 
L 192.113314 158.784413 
L 192.264061 159.04602 
L 192.463789 158.974672 
L 192.578464 158.879543 
L 192.697506 158.998455 
L 192.811005 158.808195 
L 192.932845 159.093585 
L 193.127263 159.093585 
L 193.205397 159.093585 
L 193.322634 158.95089 
L 193.43981 158.998455 
L 193.556997 158.831977 
L 193.670468 159.069803 
L 193.79141 159.093585 
L 194.025815 158.85576 
L 194.141064 158.879543 
L 194.260208 158.689282 
L 194.377411 158.927108 
L 194.650889 158.974672 
L 194.76815 158.879543 
L 194.885326 158.998455 
L 194.998777 158.85576 
L 195.158827 159.260063 
L 195.588553 159.23628 
L 195.702786 158.974672 
L 195.862027 159.069803 
L 196.057332 158.927108 
L 196.098615 158.927108 
L 196.213603 158.784413 
L 196.327086 158.879543 
L 196.448024 158.713065 
L 196.604315 158.998455 
L 196.79808 158.998455 
L 196.916819 158.85576 
L 197.034189 158.927108 
L 197.15122 158.641717 
L 197.191347 158.641717 
L 197.338766 158.903325 
L 197.5419 158.85576 
L 197.656954 158.76063 
L 197.776415 158.831977 
L 197.889785 158.594153 
L 198.047634 158.808195 
L 198.245143 158.713065 
L 198.362346 158.617935 
L 198.479536 158.689282 
L 198.596782 158.522805 
L 198.635827 158.522805 
L 198.753007 158.784413 
L 199.104634 158.617935 
L 199.221903 158.713065 
L 199.339652 158.522805 
L 199.495299 158.85576 
L 199.6869 158.808195 
L 199.807834 158.689282 
L 199.925083 158.736848 
L 200.042254 158.522805 
L 200.159473 158.784413 
L 200.432915 158.784413 
L 200.55018 158.641717 
L 200.667367 158.6655 
L 200.78457 158.499022 
L 200.901742 158.76063 
L 201.136174 158.713065 
L 201.249622 158.594153 
L 201.370556 158.689282 
L 201.487789 158.522805 
L 201.640306 158.831977 
L 201.878459 158.808195 
L 201.995661 158.689282 
L 202.112879 158.713065 
L 202.230051 158.522805 
L 202.35139 158.879543 
L 202.503536 158.85576 
L 202.577924 158.85576 
L 202.699732 158.736848 
L 202.812328 158.76063 
L 202.933501 158.522805 
L 203.090912 158.831977 
L 203.558364 158.85576 
L 203.675578 158.689282 
L 203.828114 159.093585 
L 204.027189 159.022238 
L 204.14066 158.85576 
L 204.261582 158.85576 
L 204.375058 158.6655 
L 204.495977 158.831977 
L 205.152336 158.831977 
L 205.238308 159.069803 
L 205.355486 159.14115 
L 205.547115 158.974672 
L 205.703371 159.04602 
L 205.824281 158.784413 
L 205.937788 158.998455 
L 206.097817 158.903325 
L 206.293119 158.76063 
L 206.449386 158.808195 
L 206.563495 158.641717 
L 206.719157 158.998455 
L 207.152617 159.04602 
L 207.266116 158.879543 
L 207.308916 158.879543 
L 207.427884 159.14115 
L 207.621412 159.04602 
L 207.892687 159.04602 
L 208.012089 158.831977 
L 208.126724 159.069803 
L 208.363693 159.022238 
L 208.480915 158.903325 
L 208.637839 158.927108 
L 208.755948 158.6655 
L 208.871603 158.879543 
L 209.067045 158.879543 
L 209.340425 158.879543 
L 209.453865 158.641717 
L 209.574814 158.903325 
L 209.767576 158.903325 
L 210.082686 158.95089 
L 210.199923 158.736848 
L 210.317099 158.998455 
L 210.54891 158.927108 
L 210.668691 158.831977 
L 210.782174 158.903325 
L 210.903123 158.713065 
L 211.059356 159.022238 
L 211.645388 158.95089 
L 211.797983 159.33141 
L 212.231413 159.283845 
L 212.348631 159.022238 
L 212.46581 159.307627 
L 212.739319 159.164933 
L 212.892856 158.927108 
L 212.973732 158.927108 
L 213.0909 158.6655 
L 213.247199 159.04602 
L 213.674186 159.093585 
L 213.794154 158.903325 
L 213.833243 158.903325 
L 213.985748 159.283845 
L 214.184944 159.283845 
L 214.342278 159.069803 
L 214.419208 159.069803 
L 214.532711 158.76063 
L 214.65363 158.879543 
L 215.005261 158.451458 
L 215.236849 158.142285 
L 215.356837 158.38011 
L 215.513093 158.308763 
L 215.704726 158.213633 
L 215.981962 158.142285 
L 216.095402 158.403893 
L 216.329815 158.403893 
L 216.486055 158.213633 
L 216.567963 158.213633 
L 216.685162 157.975808 
L 216.799422 158.237415 
L 217.036801 158.142285 
L 217.154003 158.09472 
L 217.267424 158.166067 
L 217.388373 158.023372 
L 217.505572 158.308763 
L 217.544645 158.308763 
L 217.700885 158.499022 
L 218.013459 158.451458 
L 218.247864 157.04829 
L 218.439403 151.102665 
L 218.59567 145.25217 
L 218.638459 145.25217 
L 218.798684 139.782195 
L 218.833814 139.782195 
L 219.02917 132.148012 
L 219.068232 132.148012 
L 219.263568 124.680308 
L 219.302664 124.680308 
L 219.497965 119.400593 
L 219.537108 119.400593 
L 219.654221 118.829813 
L 219.81052 120.565935 
L 219.888626 120.684848 
L 220.162116 119.210333 
L 220.201169 119.210333 
L 220.435578 117.545558 
L 220.470959 117.545558 
L 220.549093 117.426645 
L 220.822653 121.541018 
L 220.861667 121.541018 
L 221.060734 124.846785 
L 221.096724 124.846785 
L 221.291451 128.247682 
L 221.330458 128.247682 
L 221.529517 131.696145 
L 221.564867 131.696145 
L 221.721181 134.003048 
L 221.760312 134.003048 
L 221.994675 137.522857 
L 222.037493 137.522857 
L 222.232741 141.25671 
L 222.310889 141.25671 
L 222.463484 143.777655 
L 222.502491 143.777655 
L 222.659372 146.39373 
L 222.701586 146.39373 
L 222.854181 149.05737 
L 222.893187 149.05737 
L 223.050037 151.863705 
L 223.127877 151.863705 
L 223.283864 154.693823 
L 223.365685 154.693823 
L 223.518289 157.690417 
L 223.600165 157.690417 
L 223.752655 160.163798 
L 224.069006 160.258927 
L 224.186115 159.830843 
L 224.225164 159.830843 
L 224.381546 158.403893 
L 224.459621 158.403893 
L 224.615919 157.61907 
L 224.928524 157.7142 
L 225.124002 157.80933 
L 225.162879 157.80933 
L 225.280035 157.928243 
L 225.397264 157.856895 
L 225.554395 158.237415 
L 226.096796 158.142285 
L 226.25302 158.451458 
L 226.452108 158.403893 
L 226.570529 158.332545 
L 226.725597 158.332545 
L 226.8 158.070938 
L 226.8 158.070938 
" style="fill:none;stroke:#0000ff;stroke-linecap:square;stroke-width:1.5;"/>
   </g>
   <g id="patch_3">
    <path d="M 31.5 220.5 
L 31.5 30.24 
" style="fill:none;stroke:#000000;stroke-linecap:square;stroke-linejoin:miter;stroke-width:0.8;"/>
   </g>
   <g id="patch_4">
    <path d="M 226.8 220.5 
L 226.8 30.24 
" style="fill:none;stroke:#000000;stroke-linecap:square;stroke-linejoin:miter;stroke-width:0.8;"/>
   </g>
   <g id="patch_5">
    <path d="M 31.5 220.5 
L 226.8 220.5 
" style="fill:none;stroke:#000000;stroke-linecap:square;stroke-linejoin:miter;stroke-width:0.8;"/>
   </g>
   <g id="patch_6">
    <path d="M 31.5 30.24 
L 226.8 30.24 
" style="fill:none;stroke:#000000;stroke-linecap:square;stroke-linejoin:miter;stroke-width:0.8;"/>
   </g>
  </g>
  <g id="axes_2">
   <g id="matplotlib.axis_3">
    <g id="ytick_10">
     <g id="line2d_28">
      <defs>
       <path d="M 0 0 
L 3.5 0 
" id="m5245291557" style="stroke:#000000;stroke-width:0.8;"/>
      </defs>
      <g>
       <use style="stroke:#000000;stroke-width:0.8;" x="226.8" xlink:href="#m5245291557" y="220.5"/>
      </g>
     </g>
     <g id="text_16">
      <!-- 0 -->
      <g transform="translate(233.8 224.299219)scale(0.1 -0.1)">
       <use xlink:href="#DejaVuSans-48"/>
      </g>
     </g>
    </g>
    <g id="ytick_11">
     <g id="line2d_29">
      <g>
       <use style="stroke:#000000;stroke-width:0.8;" x="226.8" xlink:href="#m5245291557" y="196.7175"/>
      </g>
     </g>
     <g id="text_17">
      <!-- 25 -->
      <g transform="translate(233.8 200.516719)scale(0.1 -0.1)">
       <use xlink:href="#DejaVuSans-50"/>
       <use x="63.623047" xlink:href="#DejaVuSans-53"/>
      </g>
     </g>
    </g>
    <g id="ytick_12">
     <g id="line2d_30">
      <g>
       <use style="stroke:#000000;stroke-width:0.8;" x="226.8" xlink:href="#m5245291557" y="172.935"/>
      </g>
     </g>
     <g id="text_18">
      <!-- 50 -->
      <g transform="translate(233.8 176.734219)scale(0.1 -0.1)">
       <use xlink:href="#DejaVuSans-53"/>
       <use x="63.623047" xlink:href="#DejaVuSans-48"/>
      </g>
     </g>
    </g>
    <g id="ytick_13">
     <g id="line2d_31">
      <g>
       <use style="stroke:#000000;stroke-width:0.8;" x="226.8" xlink:href="#m5245291557" y="149.1525"/>
      </g>
     </g>
     <g id="text_19">
      <!-- 75 -->
      <g transform="translate(233.8 152.951719)scale(0.1 -0.1)">
       <use xlink:href="#DejaVuSans-55"/>
       <use x="63.623047" xlink:href="#DejaVuSans-53"/>
      </g>
     </g>
    </g>
    <g id="ytick_14">
     <g id="line2d_32">
      <g>
       <use style="stroke:#000000;stroke-width:0.8;" x="226.8" xlink:href="#m5245291557" y="125.37"/>
      </g>
     </g>
     <g id="text_20">
      <!-- 100 -->
      <g transform="translate(233.8 129.169219)scale(0.1 -0.1)">
       <use xlink:href="#DejaVuSans-49"/>
       <use x="63.623047" xlink:href="#DejaVuSans-48"/>
       <use x="127.246094" xlink:href="#DejaVuSans-48"/>
      </g>
     </g>
    </g>
    <g id="ytick_15">
     <g id="line2d_33">
      <g>
       <use style="stroke:#000000;stroke-width:0.8;" x="226.8" xlink:href="#m5245291557" y="101.5875"/>
      </g>
     </g>
     <g id="text_21">
      <!-- 125 -->
      <g transform="translate(233.8 105.386719)scale(0.1 -0.1)">
       <use xlink:href="#DejaVuSans-49"/>
       <use x="63.623047" xlink:href="#DejaVuSans-50"/>
       <use x="127.246094" xlink:href="#DejaVuSans-53"/>
      </g>
     </g>
    </g>
    <g id="ytick_16">
     <g id="line2d_34">
      <g>
       <use style="stroke:#000000;stroke-width:0.8;" x="226.8" xlink:href="#m5245291557" y="77.805"/>
      </g>
     </g>
     <g id="text_22">
      <!-- 150 -->
      <g transform="translate(233.8 81.604219)scale(0.1 -0.1)">
       <use xlink:href="#DejaVuSans-49"/>
       <use x="63.623047" xlink:href="#DejaVuSans-53"/>
       <use x="127.246094" xlink:href="#DejaVuSans-48"/>
      </g>
     </g>
    </g>
    <g id="ytick_17">
     <g id="line2d_35">
      <g>
       <use style="stroke:#000000;stroke-width:0.8;" x="226.8" xlink:href="#m5245291557" y="54.0225"/>
      </g>
     </g>
     <g id="text_23">
      <!-- 175 -->
      <g transform="translate(233.8 57.821719)scale(0.1 -0.1)">
       <use xlink:href="#DejaVuSans-49"/>
       <use x="63.623047" xlink:href="#DejaVuSans-55"/>
       <use x="127.246094" xlink:href="#DejaVuSans-53"/>
      </g>
     </g>
    </g>
    <g id="ytick_18">
     <g id="line2d_36">
      <g>
       <use style="stroke:#000000;stroke-width:0.8;" x="226.8" xlink:href="#m5245291557" y="30.24"/>
      </g>
     </g>
     <g id="text_24">
      <!-- 200 -->
      <g transform="translate(233.8 34.039219)scale(0.1 -0.1)">
       <use xlink:href="#DejaVuSans-50"/>
       <use x="63.623047" xlink:href="#DejaVuSans-48"/>
       <use x="127.246094" xlink:href="#DejaVuSans-48"/>
      </g>
     </g>
    </g>
    <g id="text_25">
     <!-- Percent -->
     <g transform="translate(264.485938 144.177813)rotate(-90)scale(0.1 -0.1)">
      <defs>
       <path d="M 19.671875 64.796875 
L 19.671875 37.40625 
L 32.078125 37.40625 
Q 38.96875 37.40625 42.71875 40.96875 
Q 46.484375 44.53125 46.484375 51.125 
Q 46.484375 57.671875 42.71875 61.234375 
Q 38.96875 64.796875 32.078125 64.796875 
z
M 9.8125 72.90625 
L 32.078125 72.90625 
Q 44.34375 72.90625 50.609375 67.359375 
Q 56.890625 61.8125 56.890625 51.125 
Q 56.890625 40.328125 50.609375 34.8125 
Q 44.34375 29.296875 32.078125 29.296875 
L 19.671875 29.296875 
L 19.671875 0 
L 9.8125 0 
z
" id="DejaVuSans-80"/>
       <path d="M 41.109375 46.296875 
Q 39.59375 47.171875 37.8125 47.578125 
Q 36.03125 48 33.890625 48 
Q 26.265625 48 22.1875 43.046875 
Q 18.109375 38.09375 18.109375 28.8125 
L 18.109375 0 
L 9.078125 0 
L 9.078125 54.6875 
L 18.109375 54.6875 
L 18.109375 46.1875 
Q 20.953125 51.171875 25.484375 53.578125 
Q 30.03125 56 36.53125 56 
Q 37.453125 56 38.578125 55.875 
Q 39.703125 55.765625 41.0625 55.515625 
z
" id="DejaVuSans-114"/>
       <path d="M 18.3125 70.21875 
L 18.3125 54.6875 
L 36.8125 54.6875 
L 36.8125 47.703125 
L 18.3125 47.703125 
L 18.3125 18.015625 
Q 18.3125 11.328125 20.140625 9.421875 
Q 21.96875 7.515625 27.59375 7.515625 
L 36.8125 7.515625 
L 36.8125 0 
L 27.59375 0 
Q 17.1875 0 13.234375 3.875 
Q 9.28125 7.765625 9.28125 18.015625 
L 9.28125 47.703125 
L 2.6875 47.703125 
L 2.6875 54.6875 
L 9.28125 54.6875 
L 9.28125 70.21875 
z
" id="DejaVuSans-116"/>
      </defs>
      <use xlink:href="#DejaVuSans-80"/>
      <use x="56.677734" xlink:href="#DejaVuSans-101"/>
      <use x="118.201172" xlink:href="#DejaVuSans-114"/>
      <use x="157.064453" xlink:href="#DejaVuSans-99"/>
      <use x="212.044922" xlink:href="#DejaVuSans-101"/>
      <use x="273.568359" xlink:href="#DejaVuSans-110"/>
      <use x="336.947266" xlink:href="#DejaVuSans-116"/>
     </g>
    </g>
   </g>
   <g id="line2d_37">
    <path clip-path="url(#p41d8a16cc2)" d="M 31.5 220.5 
L 32.67203 220.5 
L 32.753809 217.6461 
L 32.86728 198.6201 
L 33.265763 198.6201 
L 33.378867 194.8149 
L 33.691429 184.3506 
L 33.769556 184.3506 
L 33.883031 185.3019 
L 34.160432 185.3019 
L 34.238409 184.3506 
L 34.357396 185.3019 
L 34.39461 185.3019 
L 34.550999 187.2045 
L 34.743471 184.3506 
L 34.785318 184.3506 
L 34.863451 186.2532 
L 35.055068 174.8376 
L 35.254132 174.8376 
L 35.602125 188.1558 
L 35.644836 188.1558 
L 35.762066 187.2045 
L 35.879284 187.2045 
L 36.227145 172.935 
L 36.348094 172.935 
L 36.426185 173.8863 
L 36.5434 172.935 
L 36.660614 172.935 
L 36.777836 173.8863 
L 36.895007 173.8863 
L 36.973125 172.935 
L 37.051259 173.8863 
L 37.285644 166.2759 
L 37.44344 162.4707 
L 37.521843 162.4707 
L 37.676923 164.3733 
L 37.755666 164.3733 
L 37.873349 165.3246 
L 37.910746 165.3246 
L 38.184235 175.7889 
L 38.535796 175.7889 
L 38.614703 176.7402 
L 38.72746 175.7889 
L 38.770248 175.7889 
L 38.887458 174.8376 
L 39.090617 174.8376 
L 39.27442 170.0811 
L 39.551582 170.0811 
L 39.668831 171.0324 
L 39.864156 171.0324 
L 39.981343 171.9837 
L 40.411084 171.9837 
L 40.524584 172.935 
L 40.567395 172.935 
L 40.680855 171.9837 
L 40.723639 171.9837 
L 40.840857 172.935 
L 41.067441 172.935 
L 41.114308 173.8863 
L 41.153435 172.935 
L 41.348736 172.935 
L 41.462193 173.8863 
L 41.583099 173.8863 
L 41.700395 174.8376 
L 41.81757 174.8376 
L 41.895642 173.8863 
L 42.012856 174.8376 
L 42.442648 174.8376 
L 42.556768 175.7889 
L 42.598951 175.7889 
L 42.716134 174.8376 
L 42.911466 174.8376 
L 43.029594 175.7889 
L 43.067691 175.7889 
L 43.184877 176.7402 
L 43.381535 176.7402 
L 43.497456 177.6915 
L 43.849067 177.6915 
L 43.962515 176.7402 
L 44.083941 176.7402 
L 44.239712 178.6428 
L 44.395984 178.6428 
L 44.474118 179.5941 
L 44.708554 203.3766 
L 44.900722 208.1331 
L 44.974226 208.1331 
L 45.095707 220.5 
L 51.03393 220.5 
L 51.229142 204.3279 
L 51.27193 204.3279 
L 51.542005 184.3506 
L 51.584516 184.3506 
L 51.701656 183.3993 
L 51.740705 183.3993 
L 52.209547 193.8636 
L 52.287711 193.8636 
L 52.401152 194.8149 
L 52.443952 194.8149 
L 52.557447 195.7662 
L 52.600239 195.7662 
L 52.713969 194.8149 
L 53.850453 194.8149 
L 53.965792 193.8636 
L 54.553657 193.8636 
L 54.711972 195.7662 
L 55.022412 195.7662 
L 55.217816 203.3766 
L 55.335003 203.3766 
L 55.448669 202.4253 
L 55.491321 202.4253 
L 55.647506 204.3279 
L 55.803824 204.3279 
L 55.9601 202.4253 
L 56.194485 202.4253 
L 56.428973 194.8149 
L 56.546168 195.7662 
L 56.585162 195.7662 
L 56.702361 196.7175 
L 56.819591 196.7175 
L 56.975854 192.9123 
L 57.4066 160.5681 
L 57.679077 160.5681 
L 57.797186 161.5194 
L 57.835334 161.5194 
L 57.99162 165.3246 
L 58.147891 175.7889 
L 58.261359 176.7402 
L 58.304163 176.7402 
L 58.421381 175.7889 
L 58.695488 175.7889 
L 58.808276 174.8376 
L 59.398079 174.8376 
L 59.555093 171.0324 
L 59.632476 171.0324 
L 59.824082 177.6915 
L 59.867694 177.6915 
L 60.101302 172.935 
L 60.296619 178.6428 
L 60.335649 178.6428 
L 60.413833 177.6915 
L 60.527375 172.935 
L 60.605485 172.935 
L 60.726356 185.3019 
L 60.882686 190.0584 
L 61.038911 188.1558 
L 61.351485 188.1558 
L 61.468684 187.2045 
L 61.58589 187.2045 
L 61.703796 189.1071 
L 62.054662 189.1071 
L 62.168164 188.1558 
L 62.21096 188.1558 
L 62.482855 178.6428 
L 62.679732 178.6428 
L 62.953201 183.3993 
L 63.617398 183.3993 
L 63.730855 184.3506 
L 63.773675 184.3506 
L 63.969026 187.2045 
L 64.24248 187.2045 
L 64.359652 186.2532 
L 64.945688 186.2532 
L 65.059183 188.1558 
L 65.258259 188.1558 
L 65.415823 186.2532 
L 65.883309 186.2532 
L 66.195833 193.8636 
L 66.699972 172.935 
L 66.742788 172.935 
L 66.856311 173.8863 
L 66.899095 173.8863 
L 67.055331 170.0811 
L 67.133453 171.0324 
L 67.32882 188.1558 
L 67.367874 188.1558 
L 67.481368 191.0097 
L 67.528075 191.0097 
L 67.680421 189.1071 
L 67.758554 189.1071 
L 67.875741 190.0584 
L 68.149242 190.0584 
L 68.305514 187.2045 
L 68.41902 187.2045 
L 68.500811 189.1071 
L 68.540005 189.1071 
L 68.61806 191.0097 
L 68.653363 190.0584 
L 68.696151 190.0584 
L 68.891523 174.8376 
L 68.930573 174.8376 
L 69.131014 177.6915 
L 69.165075 177.6915 
L 69.321342 187.2045 
L 69.477564 158.6655 
L 69.633819 126.3213 
L 69.747365 125.37 
L 69.790251 125.37 
L 69.981688 146.2986 
L 70.024569 146.2986 
L 70.763017 193.8636 
L 70.806525 193.8636 
L 70.963788 198.6201 
L 71.04025 199.5714 
L 71.118403 198.6201 
L 71.274702 188.1558 
L 71.430915 196.7175 
L 71.587327 173.8863 
L 71.743458 125.37 
L 71.899725 125.37 
L 72.056024 152.0064 
L 72.329502 125.37 
L 72.759231 125.37 
L 72.837392 126.3213 
L 72.915483 125.37 
L 72.993695 127.2726 
L 73.228104 160.5681 
L 73.384317 156.7629 
L 73.696892 199.5714 
L 73.774994 198.6201 
L 74.087533 152.9577 
L 74.202747 155.8116 
L 74.247723 155.8116 
L 74.321981 156.7629 
L 74.478221 148.2012 
L 74.556367 148.2012 
L 74.673549 147.2499 
L 74.712681 147.2499 
L 74.868882 152.0064 
L 74.984194 158.6655 
L 75.025231 158.6655 
L 75.259543 139.6395 
L 75.337704 140.5908 
L 75.572093 171.9837 
L 75.806514 160.5681 
L 76.04095 175.7889 
L 76.276747 152.0064 
L 76.3148 156.7629 
L 76.353525 156.7629 
L 76.509808 179.5941 
L 76.587898 180.5454 
L 76.74417 176.7402 
L 77.056709 196.7175 
L 77.248314 188.1558 
L 77.369256 188.1558 
L 77.486446 189.1071 
L 77.525527 189.1071 
L 77.642796 188.1558 
L 78.154539 188.1558 
L 78.463136 174.8376 
L 78.576631 175.7889 
L 78.85382 175.7889 
L 79.088245 189.1071 
L 79.358004 184.3506 
L 79.400804 184.3506 
L 79.55736 186.2532 
L 79.791417 181.4967 
L 80.025881 187.2045 
L 80.062747 186.2532 
L 80.135255 186.2532 
L 80.221198 177.6915 
L 80.494641 177.6915 
L 80.729046 164.3733 
L 80.885333 169.1298 
L 81.002595 172.935 
L 81.119781 172.935 
L 81.236968 171.0324 
L 81.276002 171.0324 
L 81.432301 176.7402 
L 81.510469 176.7402 
L 81.702028 170.0811 
L 81.822993 170.0811 
L 81.98021 171.9837 
L 82.21365 153.909 
L 82.406697 168.1785 
L 82.526181 168.1785 
L 82.682491 165.3246 
L 82.995014 179.5941 
L 83.151266 170.0811 
L 83.229389 169.1298 
L 83.385718 172.935 
L 83.463825 172.935 
L 83.655442 170.0811 
L 83.698242 170.0811 
L 83.854466 174.8376 
L 83.969376 173.8863 
L 84.042024 173.8863 
L 84.127971 172.935 
L 84.167041 172.935 
L 84.40143 185.3019 
L 84.479579 185.3019 
L 84.635839 180.5454 
L 84.870288 187.2045 
L 84.948406 187.2045 
L 85.065655 184.3506 
L 85.104716 184.3506 
L 85.374427 191.961 
L 85.807888 191.961 
L 85.964222 189.1071 
L 86.354817 197.6688 
L 86.472047 196.7175 
L 86.511085 196.7175 
L 86.667383 198.6201 
L 86.823655 198.6201 
L 86.979937 194.8149 
L 87.061993 194.8149 
L 87.214362 195.7662 
L 87.292496 195.7662 
L 87.48529 192.9123 
L 87.52687 192.9123 
L 87.683141 195.7662 
L 87.952872 189.1071 
L 87.995692 190.0584 
L 88.230098 190.0584 
L 88.38633 184.3506 
L 88.464483 185.3019 
L 88.620782 191.961 
L 88.698923 191.961 
L 88.81611 191.0097 
L 89.323989 191.0097 
L 89.43861 190.0584 
L 89.480261 190.0584 
L 89.597463 191.0097 
L 89.878736 191.0097 
L 89.988155 191.961 
L 91.277353 191.961 
L 91.433671 193.8636 
L 92.058737 193.8636 
L 92.173126 192.9123 
L 92.44941 192.9123 
L 92.607084 191.0097 
L 92.68378 191.0097 
L 92.801061 191.961 
L 92.998303 191.961 
L 93.074487 191.0097 
L 93.188002 191.961 
L 93.387073 191.961 
L 93.465144 191.0097 
L 93.660532 193.8636 
L 93.781645 193.8636 
L 93.894961 192.9123 
L 95.18413 192.9123 
L 95.375794 198.6201 
L 95.574866 198.6201 
L 95.809278 184.3506 
L 96.045629 184.3506 
L 96.239016 174.8376 
L 96.35625 174.8376 
L 96.629719 187.2045 
L 96.668742 187.2045 
L 96.828896 190.0584 
L 96.903198 190.0584 
L 97.020381 189.1071 
L 97.059399 189.1071 
L 97.253872 201.474 
L 97.29382 201.474 
L 97.372657 200.5227 
L 97.563637 183.3993 
L 97.606452 183.3993 
L 97.801773 195.7662 
L 97.84083 195.7662 
L 97.91896 194.8149 
L 98.033283 188.1558 
L 98.075247 188.1558 
L 98.192512 192.9123 
L 98.387751 192.9123 
L 98.622172 182.448 
L 98.700336 182.448 
L 98.778427 181.4967 
L 99.012852 188.1558 
L 99.126277 191.961 
L 99.169045 191.961 
L 99.325395 188.1558 
L 99.59593 192.9123 
L 99.716079 192.9123 
L 99.911447 185.3019 
L 99.950996 185.3019 
L 100.14582 190.0584 
L 100.34113 190.0584 
L 100.458379 189.1071 
L 100.575562 189.1071 
L 100.731837 194.8149 
L 100.888156 194.8149 
L 101.044361 189.1071 
L 101.200648 196.7175 
L 101.27877 196.7175 
L 101.513202 191.961 
L 101.783019 201.474 
L 101.825745 201.474 
L 101.982048 194.8149 
L 102.060146 194.8149 
L 102.294571 199.5714 
L 102.489892 191.0097 
L 102.528961 191.0097 
L 102.689123 195.7662 
L 102.763318 195.7662 
L 102.919629 193.8636 
L 102.997752 193.8636 
L 103.190122 196.7175 
L 103.2322 196.7175 
L 103.388463 194.8149 
L 103.466566 194.8149 
L 103.583826 195.7662 
L 104.560454 195.7662 
L 104.678985 196.7175 
L 105.107437 196.7175 
L 105.302812 193.8636 
L 105.419983 193.8636 
L 105.533455 194.8149 
L 105.654404 194.8149 
L 105.7679 193.8636 
L 105.966873 193.8636 
L 106.04501 194.8149 
L 106.201278 192.9123 
L 106.279432 192.9123 
L 106.471049 195.7662 
L 106.670096 195.7662 
L 106.748234 194.8149 
L 106.904517 196.7175 
L 107.52963 196.7175 
L 107.646813 195.7662 
L 107.84222 195.7662 
L 107.959383 194.8149 
L 107.998421 194.8149 
L 108.111889 193.8636 
L 108.154704 193.8636 
L 108.268656 194.8149 
L 108.70159 194.8149 
L 108.815112 195.7662 
L 108.8579 195.7662 
L 108.936034 196.7175 
L 109.05347 195.7662 
L 109.48297 195.7662 
L 109.596485 194.8149 
L 110.186201 194.8149 
L 110.303435 195.7662 
L 110.654999 195.7662 
L 110.772222 196.7175 
L 110.967606 196.7175 
L 111.084777 195.7662 
L 111.123842 195.7662 
L 111.237313 196.7175 
L 111.280097 196.7175 
L 111.401433 195.7662 
L 112.608406 195.7662 
L 112.721874 194.8149 
L 113.467877 194.8149 
L 113.58136 193.8636 
L 114.092991 193.8636 
L 114.210189 194.8149 
L 116.046409 194.8149 
L 116.163674 193.8636 
L 116.437042 193.8636 
L 116.671467 189.1071 
L 116.785059 190.0584 
L 116.82777 190.0584 
L 117.06214 186.2532 
L 117.296552 186.2532 
L 117.41 189.1071 
L 117.68721 189.1071 
L 117.957015 197.6688 
L 118.234134 197.6688 
L 118.425786 200.5227 
L 118.46859 200.5227 
L 118.624869 196.7175 
L 118.937376 196.7175 
L 119.09371 189.1071 
L 119.203045 189.1071 
L 119.289039 191.961 
L 119.485356 191.961 
L 119.835933 198.6201 
L 119.953146 198.6201 
L 120.071392 197.6688 
L 120.110668 197.6688 
L 120.228789 198.6201 
L 120.421973 198.6201 
L 120.535487 197.6688 
L 120.578248 197.6688 
L 120.693943 198.6201 
L 120.812634 198.6201 
L 120.890795 197.6688 
L 120.968916 198.6201 
L 121.086916 197.6688 
L 121.203314 197.6688 
L 121.359597 195.7662 
L 121.515868 195.7662 
L 121.633067 196.7175 
L 121.906573 196.7175 
L 122.023756 197.6688 
L 124.719442 197.6688 
L 124.875726 201.474 
L 124.991287 200.5227 
L 125.110087 200.5227 
L 125.26743 203.3766 
L 125.344555 204.3279 
L 125.504909 202.4253 
L 125.580023 202.4253 
L 125.692436 203.3766 
L 125.813346 203.3766 
L 125.930545 202.4253 
L 125.96961 202.4253 
L 126.086785 201.474 
L 126.438381 201.474 
L 126.55619 202.4253 
L 126.8291 202.4253 
L 126.950398 200.5227 
L 127.020694 200.5227 
L 127.10261 202.4253 
L 127.29988 202.4253 
L 127.454175 200.5227 
L 127.610457 202.4253 
L 127.766776 202.4253 
L 127.883924 201.474 
L 128.001118 201.474 
L 128.122446 202.4253 
L 128.157409 202.4253 
L 128.313693 200.5227 
L 128.860633 200.5227 
L 128.974093 201.474 
L 129.329494 201.474 
L 129.446646 202.4253 
L 129.79902 202.4253 
L 129.911756 201.474 
L 129.954509 201.474 
L 130.227975 196.7175 
L 130.345209 196.7175 
L 130.462568 195.7662 
L 130.579587 195.7662 
L 130.657733 196.7175 
L 130.735851 195.7662 
L 130.855628 198.6201 
L 131.048413 198.6201 
L 131.204665 200.5227 
L 131.439074 200.5227 
L 131.552545 199.5714 
L 131.595361 199.5714 
L 131.751628 201.474 
L 131.829782 201.474 
L 131.986037 198.6201 
L 132.064187 198.6201 
L 132.220427 200.5227 
L 132.29858 200.5227 
L 132.454976 194.8149 
L 132.767422 202.4253 
L 132.806741 201.474 
L 132.84944 201.474 
L 132.962735 200.5227 
L 133.001784 200.5227 
L 133.271558 205.2792 
L 133.314346 205.2792 
L 133.470598 200.5227 
L 133.548732 199.5714 
L 133.783173 203.3766 
L 134.017589 197.6688 
L 134.056639 198.6201 
L 134.095704 198.6201 
L 134.212906 199.5714 
L 134.251943 199.5714 
L 134.44358 196.7175 
L 134.564498 196.7175 
L 134.720844 199.5714 
L 134.955214 199.5714 
L 135.033316 198.6201 
L 135.381232 205.2792 
L 135.658433 205.2792 
L 135.775621 206.2305 
L 135.892866 206.2305 
L 136.006325 205.2792 
L 136.127204 205.2792 
L 136.240711 206.2305 
L 136.284726 206.2305 
L 136.478891 203.3766 
L 136.51896 203.3766 
L 136.636596 204.3279 
L 136.830435 204.3279 
L 136.947685 203.3766 
L 136.98675 203.3766 
L 137.104093 204.3279 
L 137.221097 204.3279 
L 137.338362 203.3766 
L 137.455517 203.3766 
L 137.572743 205.2792 
L 137.689974 205.2792 
L 137.846214 203.3766 
L 138.002489 203.3766 
L 138.119664 204.3279 
L 138.236914 204.3279 
L 138.350381 202.4253 
L 138.783869 202.4253 
L 138.862003 200.5227 
L 138.90115 201.474 
L 138.940109 201.474 
L 139.096416 203.3766 
L 139.252637 201.474 
L 139.330802 201.474 
L 139.487057 204.3279 
L 139.565375 204.3279 
L 139.643341 205.2792 
L 139.760574 204.3279 
L 139.87773 204.3279 
L 139.994917 205.2792 
L 141.596727 205.2792 
L 141.714289 206.2305 
L 142.534372 206.2305 
L 142.65157 207.1818 
L 143.706424 207.1818 
L 143.784531 206.2305 
L 143.90178 207.1818 
L 144.25331 207.1818 
L 144.370575 208.1331 
L 144.800297 208.1331 
L 144.99189 210.987 
L 145.112875 210.987 
L 145.227031 210.0357 
L 145.347264 210.0357 
L 145.542605 212.8896 
L 145.737941 212.8896 
L 145.894197 214.7922 
L 146.128621 214.7922 
L 146.284893 219.5487 
L 146.363027 219.5487 
L 146.48198 220.5 
L 153.39158 220.5 
L 153.5097 219.5487 
L 153.786648 219.5487 
L 153.977608 216.6948 
L 154.098452 216.6948 
L 154.211928 217.6461 
L 154.254711 217.6461 
L 154.371957 216.6948 
L 154.489175 216.6948 
L 154.723534 220.5 
L 154.801683 220.5 
L 155.036057 213.8409 
L 155.149564 212.8896 
L 155.192352 212.8896 
L 155.348557 210.987 
L 155.426722 210.987 
L 155.540209 210.0357 
L 156.129945 210.0357 
L 156.248816 209.0844 
L 156.29405 209.0844 
L 156.403427 208.1331 
L 156.755054 208.1331 
L 156.868534 207.1818 
L 157.1457 207.1818 
L 157.223833 205.2792 
L 157.259229 206.2305 
L 157.380116 206.2305 
L 157.493619 207.1818 
L 157.536387 207.1818 
L 157.692671 205.2792 
L 157.848939 205.2792 
L 157.927057 206.2305 
L 158.161505 202.4253 
L 158.267197 202.4253 
L 158.356826 205.2792 
L 158.395863 205.2792 
L 158.513183 206.2305 
L 158.552154 206.2305 
L 158.66561 205.2792 
L 158.866256 205.2792 
L 158.978922 206.2305 
L 159.021003 206.2305 
L 159.138167 205.2792 
L 159.255357 205.2792 
L 159.374049 206.2305 
L 159.489779 206.2305 
L 159.607008 205.2792 
L 159.72418 205.2792 
L 159.837698 206.2305 
L 159.958589 206.2305 
L 160.075826 205.2792 
L 162.38079 205.2792 
L 162.498036 206.2305 
L 162.771478 206.2305 
L 162.885399 207.1818 
L 164.41235 207.1818 
L 164.53174 206.2305 
L 164.881207 206.2305 
L 164.998319 207.1818 
L 165.818734 207.1818 
L 165.935983 208.1331 
L 165.975036 208.1331 
L 166.131335 206.2305 
L 166.209468 206.2305 
L 166.322905 207.1818 
L 166.443847 207.1818 
L 166.600145 205.2792 
L 166.678252 205.2792 
L 166.834527 207.1818 
L 167.068963 207.1818 
L 167.187314 206.2305 
L 167.225215 206.2305 
L 167.34243 207.1818 
L 168.47541 207.1818 
L 168.592625 206.2305 
L 168.866051 206.2305 
L 168.979531 207.1818 
L 170.428769 207.1818 
L 170.546019 206.2305 
L 171.991503 206.2305 
L 172.104975 207.1818 
L 172.147743 207.1818 
L 172.261477 206.2305 
L 172.382164 206.2305 
L 172.460313 207.1818 
L 172.573769 206.2305 
L 173.554167 206.2305 
L 173.671412 207.1818 
L 173.788645 207.1818 
L 173.905829 206.2305 
L 173.944886 206.2305 
L 174.062085 207.1818 
L 174.257436 207.1818 
L 174.374655 206.2305 
L 175.351285 206.2305 
L 175.464793 207.1818 
L 175.74201 207.1818 
L 175.898237 211.9383 
L 176.011783 220.5 
L 217.77905 220.5 
L 217.978504 159.6168 
L 218.013459 159.6168 
L 218.130662 158.6655 
L 218.169746 158.6655 
L 218.833814 143.4447 
L 218.872837 143.4447 
L 218.951045 148.2012 
L 219.107297 206.2305 
L 219.263568 220.5 
L 219.576134 220.5 
L 219.732343 208.1331 
L 219.849854 206.2305 
L 220.123047 206.2305 
L 220.240254 207.1818 
L 220.279334 207.1818 
L 220.510087 220.5 
L 226.764681 220.5 
L 226.8 202.4253 
L 226.8 202.4253 
" style="fill:none;stroke:#ff0000;stroke-linecap:square;stroke-opacity:0.6;stroke-width:1.5;"/>
   </g>
   <g id="patch_7">
    <path d="M 31.5 220.5 
L 31.5 30.24 
" style="fill:none;stroke:#000000;stroke-linecap:square;stroke-linejoin:miter;stroke-width:0.8;"/>
   </g>
   <g id="patch_8">
    <path d="M 226.8 220.5 
L 226.8 30.24 
" style="fill:none;stroke:#000000;stroke-linecap:square;stroke-linejoin:miter;stroke-width:0.8;"/>
   </g>
   <g id="patch_9">
    <path d="M 31.5 220.5 
L 226.8 220.5 
" style="fill:none;stroke:#000000;stroke-linecap:square;stroke-linejoin:miter;stroke-width:0.8;"/>
   </g>
   <g id="patch_10">
    <path d="M 31.5 30.24 
L 226.8 30.24 
" style="fill:none;stroke:#000000;stroke-linecap:square;stroke-linejoin:miter;stroke-width:0.8;"/>
   </g>
   <g id="text_26">
    <!-- Driver Demand and Engine Speed -->
    <g transform="translate(26.95125 24.24)scale(0.12 -0.12)">
     <defs>
      <path d="M 19.671875 64.796875 
L 19.671875 8.109375 
L 31.59375 8.109375 
Q 46.6875 8.109375 53.6875 14.9375 
Q 60.6875 21.78125 60.6875 36.53125 
Q 60.6875 51.171875 53.6875 57.984375 
Q 46.6875 64.796875 31.59375 64.796875 
z
M 9.8125 72.90625 
L 30.078125 72.90625 
Q 51.265625 72.90625 61.171875 64.09375 
Q 71.09375 55.28125 71.09375 36.53125 
Q 71.09375 17.671875 61.125 8.828125 
Q 51.171875 0 30.078125 0 
L 9.8125 0 
z
" id="DejaVuSans-68"/>
      <path d="M 34.28125 27.484375 
Q 23.390625 27.484375 19.1875 25 
Q 14.984375 22.515625 14.984375 16.5 
Q 14.984375 11.71875 18.140625 8.90625 
Q 21.296875 6.109375 26.703125 6.109375 
Q 34.1875 6.109375 38.703125 11.40625 
Q 43.21875 16.703125 43.21875 25.484375 
L 43.21875 27.484375 
z
M 52.203125 31.203125 
L 52.203125 0 
L 43.21875 0 
L 43.21875 8.296875 
Q 40.140625 3.328125 35.546875 0.953125 
Q 30.953125 -1.421875 24.3125 -1.421875 
Q 15.921875 -1.421875 10.953125 3.296875 
Q 6 8.015625 6 15.921875 
Q 6 25.140625 12.171875 29.828125 
Q 18.359375 34.515625 30.609375 34.515625 
L 43.21875 34.515625 
L 43.21875 35.40625 
Q 43.21875 41.609375 39.140625 45 
Q 35.0625 48.390625 27.6875 48.390625 
Q 23 48.390625 18.546875 47.265625 
Q 14.109375 46.140625 10.015625 43.890625 
L 10.015625 52.203125 
Q 14.9375 54.109375 19.578125 55.046875 
Q 24.21875 56 28.609375 56 
Q 40.484375 56 46.34375 49.84375 
Q 52.203125 43.703125 52.203125 31.203125 
z
" id="DejaVuSans-97"/>
      <path d="M 45.40625 46.390625 
L 45.40625 75.984375 
L 54.390625 75.984375 
L 54.390625 0 
L 45.40625 0 
L 45.40625 8.203125 
Q 42.578125 3.328125 38.25 0.953125 
Q 33.9375 -1.421875 27.875 -1.421875 
Q 17.96875 -1.421875 11.734375 6.484375 
Q 5.515625 14.40625 5.515625 27.296875 
Q 5.515625 40.1875 11.734375 48.09375 
Q 17.96875 56 27.875 56 
Q 33.9375 56 38.25 53.625 
Q 42.578125 51.265625 45.40625 46.390625 
z
M 14.796875 27.296875 
Q 14.796875 17.390625 18.875 11.75 
Q 22.953125 6.109375 30.078125 6.109375 
Q 37.203125 6.109375 41.296875 11.75 
Q 45.40625 17.390625 45.40625 27.296875 
Q 45.40625 37.203125 41.296875 42.84375 
Q 37.203125 48.484375 30.078125 48.484375 
Q 22.953125 48.484375 18.875 42.84375 
Q 14.796875 37.203125 14.796875 27.296875 
z
" id="DejaVuSans-100"/>
      <path d="M 9.8125 72.90625 
L 55.90625 72.90625 
L 55.90625 64.59375 
L 19.671875 64.59375 
L 19.671875 43.015625 
L 54.390625 43.015625 
L 54.390625 34.71875 
L 19.671875 34.71875 
L 19.671875 8.296875 
L 56.78125 8.296875 
L 56.78125 0 
L 9.8125 0 
z
" id="DejaVuSans-69"/>
      <path d="M 45.40625 27.984375 
Q 45.40625 37.75 41.375 43.109375 
Q 37.359375 48.484375 30.078125 48.484375 
Q 22.859375 48.484375 18.828125 43.109375 
Q 14.796875 37.75 14.796875 27.984375 
Q 14.796875 18.265625 18.828125 12.890625 
Q 22.859375 7.515625 30.078125 7.515625 
Q 37.359375 7.515625 41.375 12.890625 
Q 45.40625 18.265625 45.40625 27.984375 
z
M 54.390625 6.78125 
Q 54.390625 -7.171875 48.1875 -13.984375 
Q 42 -20.796875 29.203125 -20.796875 
Q 24.46875 -20.796875 20.265625 -20.09375 
Q 16.0625 -19.390625 12.109375 -17.921875 
L 12.109375 -9.1875 
Q 16.0625 -11.328125 19.921875 -12.34375 
Q 23.78125 -13.375 27.78125 -13.375 
Q 36.625 -13.375 41.015625 -8.765625 
Q 45.40625 -4.15625 45.40625 5.171875 
L 45.40625 9.625 
Q 42.625 4.78125 38.28125 2.390625 
Q 33.9375 0 27.875 0 
Q 17.828125 0 11.671875 7.65625 
Q 5.515625 15.328125 5.515625 27.984375 
Q 5.515625 40.671875 11.671875 48.328125 
Q 17.828125 56 27.875 56 
Q 33.9375 56 38.28125 53.609375 
Q 42.625 51.21875 45.40625 46.390625 
L 45.40625 54.6875 
L 54.390625 54.6875 
z
" id="DejaVuSans-103"/>
      <path d="M 53.515625 70.515625 
L 53.515625 60.890625 
Q 47.90625 63.578125 42.921875 64.890625 
Q 37.9375 66.21875 33.296875 66.21875 
Q 25.25 66.21875 20.875 63.09375 
Q 16.5 59.96875 16.5 54.203125 
Q 16.5 49.359375 19.40625 46.890625 
Q 22.3125 44.4375 30.421875 42.921875 
L 36.375 41.703125 
Q 47.40625 39.59375 52.65625 34.296875 
Q 57.90625 29 57.90625 20.125 
Q 57.90625 9.515625 50.796875 4.046875 
Q 43.703125 -1.421875 29.984375 -1.421875 
Q 24.8125 -1.421875 18.96875 -0.25 
Q 13.140625 0.921875 6.890625 3.21875 
L 6.890625 13.375 
Q 12.890625 10.015625 18.65625 8.296875 
Q 24.421875 6.59375 29.984375 6.59375 
Q 38.421875 6.59375 43.015625 9.90625 
Q 47.609375 13.234375 47.609375 19.390625 
Q 47.609375 24.75 44.3125 27.78125 
Q 41.015625 30.8125 33.5 32.328125 
L 27.484375 33.5 
Q 16.453125 35.6875 11.515625 40.375 
Q 6.59375 45.0625 6.59375 53.421875 
Q 6.59375 63.09375 13.40625 68.65625 
Q 20.21875 74.21875 32.171875 74.21875 
Q 37.3125 74.21875 42.625 73.28125 
Q 47.953125 72.359375 53.515625 70.515625 
z
" id="DejaVuSans-83"/>
      <path d="M 18.109375 8.203125 
L 18.109375 -20.796875 
L 9.078125 -20.796875 
L 9.078125 54.6875 
L 18.109375 54.6875 
L 18.109375 46.390625 
Q 20.953125 51.265625 25.265625 53.625 
Q 29.59375 56 35.59375 56 
Q 45.5625 56 51.78125 48.09375 
Q 58.015625 40.1875 58.015625 27.296875 
Q 58.015625 14.40625 51.78125 6.484375 
Q 45.5625 -1.421875 35.59375 -1.421875 
Q 29.59375 -1.421875 25.265625 0.953125 
Q 20.953125 3.328125 18.109375 8.203125 
z
M 48.6875 27.296875 
Q 48.6875 37.203125 44.609375 42.84375 
Q 40.53125 48.484375 33.40625 48.484375 
Q 26.265625 48.484375 22.1875 42.84375 
Q 18.109375 37.203125 18.109375 27.296875 
Q 18.109375 17.390625 22.1875 11.75 
Q 26.265625 6.109375 33.40625 6.109375 
Q 40.53125 6.109375 44.609375 11.75 
Q 48.6875 17.390625 48.6875 27.296875 
z
" id="DejaVuSans-112"/>
     </defs>
     <use xlink:href="#DejaVuSans-68"/>
     <use x="77.001953" xlink:href="#DejaVuSans-114"/>
     <use x="118.115234" xlink:href="#DejaVuSans-105"/>
     <use x="145.898438" xlink:href="#DejaVuSans-118"/>
     <use x="205.078125" xlink:href="#DejaVuSans-101"/>
     <use x="266.601562" xlink:href="#DejaVuSans-114"/>
     <use x="307.714844" xlink:href="#DejaVuSans-32"/>
     <use x="339.501953" xlink:href="#DejaVuSans-68"/>
     <use x="416.503906" xlink:href="#DejaVuSans-101"/>
     <use x="478.027344" xlink:href="#DejaVuSans-109"/>
     <use x="575.439453" xlink:href="#DejaVuSans-97"/>
     <use x="636.71875" xlink:href="#DejaVuSans-110"/>
     <use x="700.097656" xlink:href="#DejaVuSans-100"/>
     <use x="763.574219" xlink:href="#DejaVuSans-32"/>
     <use x="795.361328" xlink:href="#DejaVuSans-97"/>
     <use x="856.640625" xlink:href="#DejaVuSans-110"/>
     <use x="920.019531" xlink:href="#DejaVuSans-100"/>
     <use x="983.496094" xlink:href="#DejaVuSans-32"/>
     <use x="1015.283203" xlink:href="#DejaVuSans-69"/>
     <use x="1078.466797" xlink:href="#DejaVuSans-110"/>
     <use x="1141.845703" xlink:href="#DejaVuSans-103"/>
     <use x="1205.322266" xlink:href="#DejaVuSans-105"/>
     <use x="1233.105469" xlink:href="#DejaVuSans-110"/>
     <use x="1296.484375" xlink:href="#DejaVuSans-101"/>
     <use x="1358.007812" xlink:href="#DejaVuSans-32"/>
     <use x="1389.794922" xlink:href="#DejaVuSans-83"/>
     <use x="1453.271484" xlink:href="#DejaVuSans-112"/>
     <use x="1516.748047" xlink:href="#DejaVuSans-101"/>
     <use x="1578.271484" xlink:href="#DejaVuSans-101"/>
     <use x="1639.794922" xlink:href="#DejaVuSans-100"/>
    </g>
   </g>
   <g id="legend_1">
    <g id="patch_11">
     <path d="M 70.648438 67.59625 
L 219.8 67.59625 
Q 221.8 67.59625 221.8 65.59625 
L 221.8 37.24 
Q 221.8 35.24 219.8 35.24 
L 70.648438 35.24 
Q 68.648438 35.24 68.648438 37.24 
L 68.648438 65.59625 
Q 68.648438 67.59625 70.648438 67.59625 
z
" style="fill:#ffffff;opacity:0.8;stroke:#cccccc;stroke-linejoin:miter;"/>
    </g>
    <g id="line2d_38">
     <path d="M 72.648438 43.338437 
L 92.648438 43.338437 
" style="fill:none;stroke:#0000ff;stroke-linecap:square;stroke-width:1.5;"/>
    </g>
    <g id="line2d_39"/>
    <g id="text_27">
     <!-- Engine Speed (RPM) -->
     <g transform="translate(100.648438 46.838437)scale(0.1 -0.1)">
      <use xlink:href="#DejaVuSans-69"/>
      <use x="63.183594" xlink:href="#DejaVuSans-110"/>
      <use x="126.5625" xlink:href="#DejaVuSans-103"/>
      <use x="190.039062" xlink:href="#DejaVuSans-105"/>
      <use x="217.822266" xlink:href="#DejaVuSans-110"/>
      <use x="281.201172" xlink:href="#DejaVuSans-101"/>
      <use x="342.724609" xlink:href="#DejaVuSans-32"/>
      <use x="374.511719" xlink:href="#DejaVuSans-83"/>
      <use x="437.988281" xlink:href="#DejaVuSans-112"/>
      <use x="501.464844" xlink:href="#DejaVuSans-101"/>
      <use x="562.988281" xlink:href="#DejaVuSans-101"/>
      <use x="624.511719" xlink:href="#DejaVuSans-100"/>
      <use x="687.988281" xlink:href="#DejaVuSans-32"/>
      <use x="719.775391" xlink:href="#DejaVuSans-40"/>
      <use x="758.789062" xlink:href="#DejaVuSans-82"/>
      <use x="828.271484" xlink:href="#DejaVuSans-80"/>
      <use x="888.574219" xlink:href="#DejaVuSans-77"/>
      <use x="974.853516" xlink:href="#DejaVuSans-41"/>
     </g>
    </g>
    <g id="line2d_40">
     <path d="M 72.648438 58.016562 
L 92.648438 58.016562 
" style="fill:none;stroke:#ff0000;stroke-linecap:square;stroke-opacity:0.6;stroke-width:1.5;"/>
    </g>
    <g id="line2d_41"/>
    <g id="text_28">
     <!-- Percent Driver Demand -->
     <g transform="translate(100.648438 61.516562)scale(0.1 -0.1)">
      <use xlink:href="#DejaVuSans-80"/>
      <use x="56.677734" xlink:href="#DejaVuSans-101"/>
      <use x="118.201172" xlink:href="#DejaVuSans-114"/>
      <use x="157.064453" xlink:href="#DejaVuSans-99"/>
      <use x="212.044922" xlink:href="#DejaVuSans-101"/>
      <use x="273.568359" xlink:href="#DejaVuSans-110"/>
      <use x="336.947266" xlink:href="#DejaVuSans-116"/>
      <use x="376.15625" xlink:href="#DejaVuSans-32"/>
      <use x="407.943359" xlink:href="#DejaVuSans-68"/>
      <use x="484.945312" xlink:href="#DejaVuSans-114"/>
      <use x="526.058594" xlink:href="#DejaVuSans-105"/>
      <use x="553.841797" xlink:href="#DejaVuSans-118"/>
      <use x="613.021484" xlink:href="#DejaVuSans-101"/>
      <use x="674.544922" xlink:href="#DejaVuSans-114"/>
      <use x="715.658203" xlink:href="#DejaVuSans-32"/>
      <use x="747.445312" xlink:href="#DejaVuSans-68"/>
      <use x="824.447266" xlink:href="#DejaVuSans-101"/>
      <use x="885.970703" xlink:href="#DejaVuSans-109"/>
      <use x="983.382812" xlink:href="#DejaVuSans-97"/>
      <use x="1044.662109" xlink:href="#DejaVuSans-110"/>
      <use x="1108.041016" xlink:href="#DejaVuSans-100"/>
     </g>
    </g>
   </g>
  </g>
 </g>
 <defs>
  <clipPath id="p41d8a16cc2">
   <rect height="190.26" width="195.3" x="31.5" y="30.24"/>
  </clipPath>
 </defs>
</svg>
