<?xml version="1.0" encoding="utf-8" standalone="no"?>
<!DOCTYPE svg PUBLIC "-//W3C//DTD SVG 1.1//EN"
  "http://www.w3.org/Graphics/SVG/1.1/DTD/svg11.dtd">
<!-- Created with matplotlib (https://matplotlib.org/) -->
<svg height="288pt" version="1.1" viewBox="0 0 432 288" width="432pt" xmlns="http://www.w3.org/2000/svg" xmlns:xlink="http://www.w3.org/1999/xlink">
 <metadata>
  <rdf:RDF xmlns:cc="http://creativecommons.org/ns#" xmlns:dc="http://purl.org/dc/elements/1.1/" xmlns:rdf="http://www.w3.org/1999/02/22-rdf-syntax-ns#">
   <cc:Work>
    <dc:type rdf:resource="http://purl.org/dc/dcmitype/StillImage"/>
    <dc:date>2021-10-23T09:38:01.106637</dc:date>
    <dc:format>image/svg+xml</dc:format>
    <dc:creator>
     <cc:Agent>
      <dc:title>Matplotlib v3.3.2, https://matplotlib.org/</dc:title>
     </cc:Agent>
    </dc:creator>
   </cc:Work>
  </rdf:RDF>
 </metadata>
 <defs>
  <style type="text/css">*{stroke-linecap:butt;stroke-linejoin:round;}</style>
 </defs>
 <g id="figure_1">
  <g id="patch_1">
   <path d="M 0 288 
L 432 288 
L 432 0 
L 0 0 
z
" style="fill:none;"/>
  </g>
  <g id="axes_1">
   <g id="patch_2">
    <path d="M 54 252 
L 388.8 252 
L 388.8 34.56 
L 54 34.56 
z
" style="fill:#ffffff;"/>
   </g>
   <g id="matplotlib.axis_1">
    <g id="xtick_1">
     <g id="line2d_1">
      <path clip-path="url(#p8978216e19)" d="M 109.777773 252 
L 109.777773 34.56 
" style="fill:none;stroke:#b0b0b0;stroke-linecap:square;stroke-width:0.8;"/>
     </g>
     <g id="line2d_2">
      <defs>
       <path d="M 0 0 
L 0 3.5 
" id="mef627983e1" style="stroke:#000000;stroke-width:0.8;"/>
      </defs>
      <g>
       <use style="stroke:#000000;stroke-width:0.8;" x="109.777773" xlink:href="#mef627983e1" y="252"/>
      </g>
     </g>
     <g id="text_1">
      <!-- 10 -->
      <g transform="translate(103.415273 266.598437)scale(0.1 -0.1)">
       <defs>
        <path d="M 12.40625 8.296875 
L 28.515625 8.296875 
L 28.515625 63.921875 
L 10.984375 60.40625 
L 10.984375 69.390625 
L 28.421875 72.90625 
L 38.28125 72.90625 
L 38.28125 8.296875 
L 54.390625 8.296875 
L 54.390625 0 
L 12.40625 0 
z
" id="DejaVuSans-49"/>
        <path d="M 31.78125 66.40625 
Q 24.171875 66.40625 20.328125 58.90625 
Q 16.5 51.421875 16.5 36.375 
Q 16.5 21.390625 20.328125 13.890625 
Q 24.171875 6.390625 31.78125 6.390625 
Q 39.453125 6.390625 43.28125 13.890625 
Q 47.125 21.390625 47.125 36.375 
Q 47.125 51.421875 43.28125 58.90625 
Q 39.453125 66.40625 31.78125 66.40625 
z
M 31.78125 74.21875 
Q 44.046875 74.21875 50.515625 64.515625 
Q 56.984375 54.828125 56.984375 36.375 
Q 56.984375 17.96875 50.515625 8.265625 
Q 44.046875 -1.421875 31.78125 -1.421875 
Q 19.53125 -1.421875 13.0625 8.265625 
Q 6.59375 17.96875 6.59375 36.375 
Q 6.59375 54.828125 13.0625 64.515625 
Q 19.53125 74.21875 31.78125 74.21875 
z
" id="DejaVuSans-48"/>
       </defs>
       <use xlink:href="#DejaVuSans-49"/>
       <use x="63.623047" xlink:href="#DejaVuSans-48"/>
      </g>
     </g>
    </g>
    <g id="xtick_2">
     <g id="line2d_3">
      <path clip-path="url(#p8978216e19)" d="M 165.588519 252 
L 165.588519 34.56 
" style="fill:none;stroke:#b0b0b0;stroke-linecap:square;stroke-width:0.8;"/>
     </g>
     <g id="line2d_4">
      <g>
       <use style="stroke:#000000;stroke-width:0.8;" x="165.588519" xlink:href="#mef627983e1" y="252"/>
      </g>
     </g>
     <g id="text_2">
      <!-- 20 -->
      <g transform="translate(159.226019 266.598437)scale(0.1 -0.1)">
       <defs>
        <path d="M 19.1875 8.296875 
L 53.609375 8.296875 
L 53.609375 0 
L 7.328125 0 
L 7.328125 8.296875 
Q 12.9375 14.109375 22.625 23.890625 
Q 32.328125 33.6875 34.8125 36.53125 
Q 39.546875 41.84375 41.421875 45.53125 
Q 43.3125 49.21875 43.3125 52.78125 
Q 43.3125 58.59375 39.234375 62.25 
Q 35.15625 65.921875 28.609375 65.921875 
Q 23.96875 65.921875 18.8125 64.3125 
Q 13.671875 62.703125 7.8125 59.421875 
L 7.8125 69.390625 
Q 13.765625 71.78125 18.9375 73 
Q 24.125 74.21875 28.421875 74.21875 
Q 39.75 74.21875 46.484375 68.546875 
Q 53.21875 62.890625 53.21875 53.421875 
Q 53.21875 48.921875 51.53125 44.890625 
Q 49.859375 40.875 45.40625 35.40625 
Q 44.1875 33.984375 37.640625 27.21875 
Q 31.109375 20.453125 19.1875 8.296875 
z
" id="DejaVuSans-50"/>
       </defs>
       <use xlink:href="#DejaVuSans-50"/>
       <use x="63.623047" xlink:href="#DejaVuSans-48"/>
      </g>
     </g>
    </g>
    <g id="xtick_3">
     <g id="line2d_5">
      <path clip-path="url(#p8978216e19)" d="M 221.399265 252 
L 221.399265 34.56 
" style="fill:none;stroke:#b0b0b0;stroke-linecap:square;stroke-width:0.8;"/>
     </g>
     <g id="line2d_6">
      <g>
       <use style="stroke:#000000;stroke-width:0.8;" x="221.399265" xlink:href="#mef627983e1" y="252"/>
      </g>
     </g>
     <g id="text_3">
      <!-- 30 -->
      <g transform="translate(215.036765 266.598437)scale(0.1 -0.1)">
       <defs>
        <path d="M 40.578125 39.3125 
Q 47.65625 37.796875 51.625 33 
Q 55.609375 28.21875 55.609375 21.1875 
Q 55.609375 10.40625 48.1875 4.484375 
Q 40.765625 -1.421875 27.09375 -1.421875 
Q 22.515625 -1.421875 17.65625 -0.515625 
Q 12.796875 0.390625 7.625 2.203125 
L 7.625 11.71875 
Q 11.71875 9.328125 16.59375 8.109375 
Q 21.484375 6.890625 26.8125 6.890625 
Q 36.078125 6.890625 40.9375 10.546875 
Q 45.796875 14.203125 45.796875 21.1875 
Q 45.796875 27.640625 41.28125 31.265625 
Q 36.765625 34.90625 28.71875 34.90625 
L 20.21875 34.90625 
L 20.21875 43.015625 
L 29.109375 43.015625 
Q 36.375 43.015625 40.234375 45.921875 
Q 44.09375 48.828125 44.09375 54.296875 
Q 44.09375 59.90625 40.109375 62.90625 
Q 36.140625 65.921875 28.71875 65.921875 
Q 24.65625 65.921875 20.015625 65.03125 
Q 15.375 64.15625 9.8125 62.3125 
L 9.8125 71.09375 
Q 15.4375 72.65625 20.34375 73.4375 
Q 25.25 74.21875 29.59375 74.21875 
Q 40.828125 74.21875 47.359375 69.109375 
Q 53.90625 64.015625 53.90625 55.328125 
Q 53.90625 49.265625 50.4375 45.09375 
Q 46.96875 40.921875 40.578125 39.3125 
z
" id="DejaVuSans-51"/>
       </defs>
       <use xlink:href="#DejaVuSans-51"/>
       <use x="63.623047" xlink:href="#DejaVuSans-48"/>
      </g>
     </g>
    </g>
    <g id="xtick_4">
     <g id="line2d_7">
      <path clip-path="url(#p8978216e19)" d="M 277.210012 252 
L 277.210012 34.56 
" style="fill:none;stroke:#b0b0b0;stroke-linecap:square;stroke-width:0.8;"/>
     </g>
     <g id="line2d_8">
      <g>
       <use style="stroke:#000000;stroke-width:0.8;" x="277.210012" xlink:href="#mef627983e1" y="252"/>
      </g>
     </g>
     <g id="text_4">
      <!-- 40 -->
      <g transform="translate(270.847512 266.598437)scale(0.1 -0.1)">
       <defs>
        <path d="M 37.796875 64.3125 
L 12.890625 25.390625 
L 37.796875 25.390625 
z
M 35.203125 72.90625 
L 47.609375 72.90625 
L 47.609375 25.390625 
L 58.015625 25.390625 
L 58.015625 17.1875 
L 47.609375 17.1875 
L 47.609375 0 
L 37.796875 0 
L 37.796875 17.1875 
L 4.890625 17.1875 
L 4.890625 26.703125 
z
" id="DejaVuSans-52"/>
       </defs>
       <use xlink:href="#DejaVuSans-52"/>
       <use x="63.623047" xlink:href="#DejaVuSans-48"/>
      </g>
     </g>
    </g>
    <g id="xtick_5">
     <g id="line2d_9">
      <path clip-path="url(#p8978216e19)" d="M 333.020758 252 
L 333.020758 34.56 
" style="fill:none;stroke:#b0b0b0;stroke-linecap:square;stroke-width:0.8;"/>
     </g>
     <g id="line2d_10">
      <g>
       <use style="stroke:#000000;stroke-width:0.8;" x="333.020758" xlink:href="#mef627983e1" y="252"/>
      </g>
     </g>
     <g id="text_5">
      <!-- 50 -->
      <g transform="translate(326.658258 266.598437)scale(0.1 -0.1)">
       <defs>
        <path d="M 10.796875 72.90625 
L 49.515625 72.90625 
L 49.515625 64.59375 
L 19.828125 64.59375 
L 19.828125 46.734375 
Q 21.96875 47.46875 24.109375 47.828125 
Q 26.265625 48.1875 28.421875 48.1875 
Q 40.625 48.1875 47.75 41.5 
Q 54.890625 34.8125 54.890625 23.390625 
Q 54.890625 11.625 47.5625 5.09375 
Q 40.234375 -1.421875 26.90625 -1.421875 
Q 22.3125 -1.421875 17.546875 -0.640625 
Q 12.796875 0.140625 7.71875 1.703125 
L 7.71875 11.625 
Q 12.109375 9.234375 16.796875 8.0625 
Q 21.484375 6.890625 26.703125 6.890625 
Q 35.15625 6.890625 40.078125 11.328125 
Q 45.015625 15.765625 45.015625 23.390625 
Q 45.015625 31 40.078125 35.4375 
Q 35.15625 39.890625 26.703125 39.890625 
Q 22.75 39.890625 18.8125 39.015625 
Q 14.890625 38.140625 10.796875 36.28125 
z
" id="DejaVuSans-53"/>
       </defs>
       <use xlink:href="#DejaVuSans-53"/>
       <use x="63.623047" xlink:href="#DejaVuSans-48"/>
      </g>
     </g>
    </g>
    <g id="text_6">
     <!-- Time (sec) -->
     <g transform="translate(195.245313 280.276563)scale(0.1 -0.1)">
      <defs>
       <path d="M -0.296875 72.90625 
L 61.375 72.90625 
L 61.375 64.59375 
L 35.5 64.59375 
L 35.5 0 
L 25.59375 0 
L 25.59375 64.59375 
L -0.296875 64.59375 
z
" id="DejaVuSans-84"/>
       <path d="M 9.421875 54.6875 
L 18.40625 54.6875 
L 18.40625 0 
L 9.421875 0 
z
M 9.421875 75.984375 
L 18.40625 75.984375 
L 18.40625 64.59375 
L 9.421875 64.59375 
z
" id="DejaVuSans-105"/>
       <path d="M 52 44.1875 
Q 55.375 50.25 60.0625 53.125 
Q 64.75 56 71.09375 56 
Q 79.640625 56 84.28125 50.015625 
Q 88.921875 44.046875 88.921875 33.015625 
L 88.921875 0 
L 79.890625 0 
L 79.890625 32.71875 
Q 79.890625 40.578125 77.09375 44.375 
Q 74.3125 48.1875 68.609375 48.1875 
Q 61.625 48.1875 57.5625 43.546875 
Q 53.515625 38.921875 53.515625 30.90625 
L 53.515625 0 
L 44.484375 0 
L 44.484375 32.71875 
Q 44.484375 40.625 41.703125 44.40625 
Q 38.921875 48.1875 33.109375 48.1875 
Q 26.21875 48.1875 22.15625 43.53125 
Q 18.109375 38.875 18.109375 30.90625 
L 18.109375 0 
L 9.078125 0 
L 9.078125 54.6875 
L 18.109375 54.6875 
L 18.109375 46.1875 
Q 21.1875 51.21875 25.484375 53.609375 
Q 29.78125 56 35.6875 56 
Q 41.65625 56 45.828125 52.96875 
Q 50 49.953125 52 44.1875 
z
" id="DejaVuSans-109"/>
       <path d="M 56.203125 29.59375 
L 56.203125 25.203125 
L 14.890625 25.203125 
Q 15.484375 15.921875 20.484375 11.0625 
Q 25.484375 6.203125 34.421875 6.203125 
Q 39.59375 6.203125 44.453125 7.46875 
Q 49.3125 8.734375 54.109375 11.28125 
L 54.109375 2.78125 
Q 49.265625 0.734375 44.1875 -0.34375 
Q 39.109375 -1.421875 33.890625 -1.421875 
Q 20.796875 -1.421875 13.15625 6.1875 
Q 5.515625 13.8125 5.515625 26.8125 
Q 5.515625 40.234375 12.765625 48.109375 
Q 20.015625 56 32.328125 56 
Q 43.359375 56 49.78125 48.890625 
Q 56.203125 41.796875 56.203125 29.59375 
z
M 47.21875 32.234375 
Q 47.125 39.59375 43.09375 43.984375 
Q 39.0625 48.390625 32.421875 48.390625 
Q 24.90625 48.390625 20.390625 44.140625 
Q 15.875 39.890625 15.1875 32.171875 
z
" id="DejaVuSans-101"/>
       <path id="DejaVuSans-32"/>
       <path d="M 31 75.875 
Q 24.46875 64.65625 21.28125 53.65625 
Q 18.109375 42.671875 18.109375 31.390625 
Q 18.109375 20.125 21.3125 9.0625 
Q 24.515625 -2 31 -13.1875 
L 23.1875 -13.1875 
Q 15.875 -1.703125 12.234375 9.375 
Q 8.59375 20.453125 8.59375 31.390625 
Q 8.59375 42.28125 12.203125 53.3125 
Q 15.828125 64.359375 23.1875 75.875 
z
" id="DejaVuSans-40"/>
       <path d="M 44.28125 53.078125 
L 44.28125 44.578125 
Q 40.484375 46.53125 36.375 47.5 
Q 32.28125 48.484375 27.875 48.484375 
Q 21.1875 48.484375 17.84375 46.4375 
Q 14.5 44.390625 14.5 40.28125 
Q 14.5 37.15625 16.890625 35.375 
Q 19.28125 33.59375 26.515625 31.984375 
L 29.59375 31.296875 
Q 39.15625 29.25 43.1875 25.515625 
Q 47.21875 21.78125 47.21875 15.09375 
Q 47.21875 7.46875 41.1875 3.015625 
Q 35.15625 -1.421875 24.609375 -1.421875 
Q 20.21875 -1.421875 15.453125 -0.5625 
Q 10.6875 0.296875 5.421875 2 
L 5.421875 11.28125 
Q 10.40625 8.6875 15.234375 7.390625 
Q 20.0625 6.109375 24.8125 6.109375 
Q 31.15625 6.109375 34.5625 8.28125 
Q 37.984375 10.453125 37.984375 14.40625 
Q 37.984375 18.0625 35.515625 20.015625 
Q 33.0625 21.96875 24.703125 23.78125 
L 21.578125 24.515625 
Q 13.234375 26.265625 9.515625 29.90625 
Q 5.8125 33.546875 5.8125 39.890625 
Q 5.8125 47.609375 11.28125 51.796875 
Q 16.75 56 26.8125 56 
Q 31.78125 56 36.171875 55.265625 
Q 40.578125 54.546875 44.28125 53.078125 
z
" id="DejaVuSans-115"/>
       <path d="M 48.78125 52.59375 
L 48.78125 44.1875 
Q 44.96875 46.296875 41.140625 47.34375 
Q 37.3125 48.390625 33.40625 48.390625 
Q 24.65625 48.390625 19.8125 42.84375 
Q 14.984375 37.3125 14.984375 27.296875 
Q 14.984375 17.28125 19.8125 11.734375 
Q 24.65625 6.203125 33.40625 6.203125 
Q 37.3125 6.203125 41.140625 7.25 
Q 44.96875 8.296875 48.78125 10.40625 
L 48.78125 2.09375 
Q 45.015625 0.34375 40.984375 -0.53125 
Q 36.96875 -1.421875 32.421875 -1.421875 
Q 20.0625 -1.421875 12.78125 6.34375 
Q 5.515625 14.109375 5.515625 27.296875 
Q 5.515625 40.671875 12.859375 48.328125 
Q 20.21875 56 33.015625 56 
Q 37.15625 56 41.109375 55.140625 
Q 45.0625 54.296875 48.78125 52.59375 
z
" id="DejaVuSans-99"/>
       <path d="M 8.015625 75.875 
L 15.828125 75.875 
Q 23.140625 64.359375 26.78125 53.3125 
Q 30.421875 42.28125 30.421875 31.390625 
Q 30.421875 20.453125 26.78125 9.375 
Q 23.140625 -1.703125 15.828125 -13.1875 
L 8.015625 -13.1875 
Q 14.5 -2 17.703125 9.0625 
Q 20.90625 20.125 20.90625 31.390625 
Q 20.90625 42.671875 17.703125 53.65625 
Q 14.5 64.65625 8.015625 75.875 
z
" id="DejaVuSans-41"/>
      </defs>
      <use xlink:href="#DejaVuSans-84"/>
      <use x="57.958984" xlink:href="#DejaVuSans-105"/>
      <use x="85.742188" xlink:href="#DejaVuSans-109"/>
      <use x="183.154297" xlink:href="#DejaVuSans-101"/>
      <use x="244.677734" xlink:href="#DejaVuSans-32"/>
      <use x="276.464844" xlink:href="#DejaVuSans-40"/>
      <use x="315.478516" xlink:href="#DejaVuSans-115"/>
      <use x="367.578125" xlink:href="#DejaVuSans-101"/>
      <use x="429.101562" xlink:href="#DejaVuSans-99"/>
      <use x="484.082031" xlink:href="#DejaVuSans-41"/>
     </g>
    </g>
   </g>
   <g id="matplotlib.axis_2">
    <g id="ytick_1">
     <g id="line2d_11">
      <path clip-path="url(#p8978216e19)" d="M 54 252 
L 388.8 252 
" style="fill:none;stroke:#b0b0b0;stroke-linecap:square;stroke-width:0.8;"/>
     </g>
     <g id="line2d_12">
      <defs>
       <path d="M 0 0 
L -3.5 0 
" id="m39f8b14f35" style="stroke:#000000;stroke-width:0.8;"/>
      </defs>
      <g>
       <use style="stroke:#000000;stroke-width:0.8;" x="54" xlink:href="#m39f8b14f35" y="252"/>
      </g>
     </g>
     <g id="text_7">
      <!-- 0 -->
      <g transform="translate(40.6375 255.799219)scale(0.1 -0.1)">
       <use xlink:href="#DejaVuSans-48"/>
      </g>
     </g>
    </g>
    <g id="ytick_2">
     <g id="line2d_13">
      <path clip-path="url(#p8978216e19)" d="M 54 224.82 
L 388.8 224.82 
" style="fill:none;stroke:#b0b0b0;stroke-linecap:square;stroke-width:0.8;"/>
     </g>
     <g id="line2d_14">
      <g>
       <use style="stroke:#000000;stroke-width:0.8;" x="54" xlink:href="#m39f8b14f35" y="224.82"/>
      </g>
     </g>
     <g id="text_8">
      <!-- 250 -->
      <g transform="translate(27.9125 228.619219)scale(0.1 -0.1)">
       <use xlink:href="#DejaVuSans-50"/>
       <use x="63.623047" xlink:href="#DejaVuSans-53"/>
       <use x="127.246094" xlink:href="#DejaVuSans-48"/>
      </g>
     </g>
    </g>
    <g id="ytick_3">
     <g id="line2d_15">
      <path clip-path="url(#p8978216e19)" d="M 54 197.64 
L 388.8 197.64 
" style="fill:none;stroke:#b0b0b0;stroke-linecap:square;stroke-width:0.8;"/>
     </g>
     <g id="line2d_16">
      <g>
       <use style="stroke:#000000;stroke-width:0.8;" x="54" xlink:href="#m39f8b14f35" y="197.64"/>
      </g>
     </g>
     <g id="text_9">
      <!-- 500 -->
      <g transform="translate(27.9125 201.439219)scale(0.1 -0.1)">
       <use xlink:href="#DejaVuSans-53"/>
       <use x="63.623047" xlink:href="#DejaVuSans-48"/>
       <use x="127.246094" xlink:href="#DejaVuSans-48"/>
      </g>
     </g>
    </g>
    <g id="ytick_4">
     <g id="line2d_17">
      <path clip-path="url(#p8978216e19)" d="M 54 170.46 
L 388.8 170.46 
" style="fill:none;stroke:#b0b0b0;stroke-linecap:square;stroke-width:0.8;"/>
     </g>
     <g id="line2d_18">
      <g>
       <use style="stroke:#000000;stroke-width:0.8;" x="54" xlink:href="#m39f8b14f35" y="170.46"/>
      </g>
     </g>
     <g id="text_10">
      <!-- 750 -->
      <g transform="translate(27.9125 174.259219)scale(0.1 -0.1)">
       <defs>
        <path d="M 8.203125 72.90625 
L 55.078125 72.90625 
L 55.078125 68.703125 
L 28.609375 0 
L 18.3125 0 
L 43.21875 64.59375 
L 8.203125 64.59375 
z
" id="DejaVuSans-55"/>
       </defs>
       <use xlink:href="#DejaVuSans-55"/>
       <use x="63.623047" xlink:href="#DejaVuSans-53"/>
       <use x="127.246094" xlink:href="#DejaVuSans-48"/>
      </g>
     </g>
    </g>
    <g id="ytick_5">
     <g id="line2d_19">
      <path clip-path="url(#p8978216e19)" d="M 54 143.28 
L 388.8 143.28 
" style="fill:none;stroke:#b0b0b0;stroke-linecap:square;stroke-width:0.8;"/>
     </g>
     <g id="line2d_20">
      <g>
       <use style="stroke:#000000;stroke-width:0.8;" x="54" xlink:href="#m39f8b14f35" y="143.28"/>
      </g>
     </g>
     <g id="text_11">
      <!-- 1000 -->
      <g transform="translate(21.55 147.079219)scale(0.1 -0.1)">
       <use xlink:href="#DejaVuSans-49"/>
       <use x="63.623047" xlink:href="#DejaVuSans-48"/>
       <use x="127.246094" xlink:href="#DejaVuSans-48"/>
       <use x="190.869141" xlink:href="#DejaVuSans-48"/>
      </g>
     </g>
    </g>
    <g id="ytick_6">
     <g id="line2d_21">
      <path clip-path="url(#p8978216e19)" d="M 54 116.1 
L 388.8 116.1 
" style="fill:none;stroke:#b0b0b0;stroke-linecap:square;stroke-width:0.8;"/>
     </g>
     <g id="line2d_22">
      <g>
       <use style="stroke:#000000;stroke-width:0.8;" x="54" xlink:href="#m39f8b14f35" y="116.1"/>
      </g>
     </g>
     <g id="text_12">
      <!-- 1250 -->
      <g transform="translate(21.55 119.899219)scale(0.1 -0.1)">
       <use xlink:href="#DejaVuSans-49"/>
       <use x="63.623047" xlink:href="#DejaVuSans-50"/>
       <use x="127.246094" xlink:href="#DejaVuSans-53"/>
       <use x="190.869141" xlink:href="#DejaVuSans-48"/>
      </g>
     </g>
    </g>
    <g id="ytick_7">
     <g id="line2d_23">
      <path clip-path="url(#p8978216e19)" d="M 54 88.92 
L 388.8 88.92 
" style="fill:none;stroke:#b0b0b0;stroke-linecap:square;stroke-width:0.8;"/>
     </g>
     <g id="line2d_24">
      <g>
       <use style="stroke:#000000;stroke-width:0.8;" x="54" xlink:href="#m39f8b14f35" y="88.92"/>
      </g>
     </g>
     <g id="text_13">
      <!-- 1500 -->
      <g transform="translate(21.55 92.719219)scale(0.1 -0.1)">
       <use xlink:href="#DejaVuSans-49"/>
       <use x="63.623047" xlink:href="#DejaVuSans-53"/>
       <use x="127.246094" xlink:href="#DejaVuSans-48"/>
       <use x="190.869141" xlink:href="#DejaVuSans-48"/>
      </g>
     </g>
    </g>
    <g id="ytick_8">
     <g id="line2d_25">
      <path clip-path="url(#p8978216e19)" d="M 54 61.74 
L 388.8 61.74 
" style="fill:none;stroke:#b0b0b0;stroke-linecap:square;stroke-width:0.8;"/>
     </g>
     <g id="line2d_26">
      <g>
       <use style="stroke:#000000;stroke-width:0.8;" x="54" xlink:href="#m39f8b14f35" y="61.74"/>
      </g>
     </g>
     <g id="text_14">
      <!-- 1750 -->
      <g transform="translate(21.55 65.539219)scale(0.1 -0.1)">
       <use xlink:href="#DejaVuSans-49"/>
       <use x="63.623047" xlink:href="#DejaVuSans-55"/>
       <use x="127.246094" xlink:href="#DejaVuSans-53"/>
       <use x="190.869141" xlink:href="#DejaVuSans-48"/>
      </g>
     </g>
    </g>
    <g id="ytick_9">
     <g id="line2d_27">
      <path clip-path="url(#p8978216e19)" d="M 54 34.56 
L 388.8 34.56 
" style="fill:none;stroke:#b0b0b0;stroke-linecap:square;stroke-width:0.8;"/>
     </g>
     <g id="line2d_28">
      <g>
       <use style="stroke:#000000;stroke-width:0.8;" x="54" xlink:href="#m39f8b14f35" y="34.56"/>
      </g>
     </g>
     <g id="text_15">
      <!-- 2000 -->
      <g transform="translate(21.55 38.359219)scale(0.1 -0.1)">
       <use xlink:href="#DejaVuSans-50"/>
       <use x="63.623047" xlink:href="#DejaVuSans-48"/>
       <use x="127.246094" xlink:href="#DejaVuSans-48"/>
       <use x="190.869141" xlink:href="#DejaVuSans-48"/>
      </g>
     </g>
    </g>
    <g id="text_16">
     <!-- Rev/Min -->
     <g transform="translate(15.470312 163.121406)rotate(-90)scale(0.1 -0.1)">
      <defs>
       <path d="M 44.390625 34.1875 
Q 47.5625 33.109375 50.5625 29.59375 
Q 53.5625 26.078125 56.59375 19.921875 
L 66.609375 0 
L 56 0 
L 46.6875 18.703125 
Q 43.0625 26.03125 39.671875 28.421875 
Q 36.28125 30.8125 30.421875 30.8125 
L 19.671875 30.8125 
L 19.671875 0 
L 9.8125 0 
L 9.8125 72.90625 
L 32.078125 72.90625 
Q 44.578125 72.90625 50.734375 67.671875 
Q 56.890625 62.453125 56.890625 51.90625 
Q 56.890625 45.015625 53.6875 40.46875 
Q 50.484375 35.9375 44.390625 34.1875 
z
M 19.671875 64.796875 
L 19.671875 38.921875 
L 32.078125 38.921875 
Q 39.203125 38.921875 42.84375 42.21875 
Q 46.484375 45.515625 46.484375 51.90625 
Q 46.484375 58.296875 42.84375 61.546875 
Q 39.203125 64.796875 32.078125 64.796875 
z
" id="DejaVuSans-82"/>
       <path d="M 2.984375 54.6875 
L 12.5 54.6875 
L 29.59375 8.796875 
L 46.6875 54.6875 
L 56.203125 54.6875 
L 35.6875 0 
L 23.484375 0 
z
" id="DejaVuSans-118"/>
       <path d="M 25.390625 72.90625 
L 33.6875 72.90625 
L 8.296875 -9.28125 
L 0 -9.28125 
z
" id="DejaVuSans-47"/>
       <path d="M 9.8125 72.90625 
L 24.515625 72.90625 
L 43.109375 23.296875 
L 61.8125 72.90625 
L 76.515625 72.90625 
L 76.515625 0 
L 66.890625 0 
L 66.890625 64.015625 
L 48.09375 14.015625 
L 38.1875 14.015625 
L 19.390625 64.015625 
L 19.390625 0 
L 9.8125 0 
z
" id="DejaVuSans-77"/>
       <path d="M 54.890625 33.015625 
L 54.890625 0 
L 45.90625 0 
L 45.90625 32.71875 
Q 45.90625 40.484375 42.875 44.328125 
Q 39.84375 48.1875 33.796875 48.1875 
Q 26.515625 48.1875 22.3125 43.546875 
Q 18.109375 38.921875 18.109375 30.90625 
L 18.109375 0 
L 9.078125 0 
L 9.078125 54.6875 
L 18.109375 54.6875 
L 18.109375 46.1875 
Q 21.34375 51.125 25.703125 53.5625 
Q 30.078125 56 35.796875 56 
Q 45.21875 56 50.046875 50.171875 
Q 54.890625 44.34375 54.890625 33.015625 
z
" id="DejaVuSans-110"/>
      </defs>
      <use xlink:href="#DejaVuSans-82"/>
      <use x="64.982422" xlink:href="#DejaVuSans-101"/>
      <use x="126.505859" xlink:href="#DejaVuSans-118"/>
      <use x="185.685547" xlink:href="#DejaVuSans-47"/>
      <use x="219.376953" xlink:href="#DejaVuSans-77"/>
      <use x="305.65625" xlink:href="#DejaVuSans-105"/>
      <use x="333.439453" xlink:href="#DejaVuSans-110"/>
     </g>
    </g>
   </g>
   <g id="line2d_29">
    <path clip-path="url(#p8978216e19)" d="M 54 178.94016 
L 54.390709 178.99452 
L 54.558075 179.18478 
L 54.66978 179.1576 
L 54.831821 179.40222 
L 55.004549 179.51094 
L 55.278323 179.48376 
L 55.730737 179.45658 
L 55.897566 179.75556 
L 56.06506 179.8371 
L 56.282883 179.75556 
L 56.567223 179.78274 
L 56.73466 179.5653 
L 56.902125 179.72838 
L 57.069491 179.75556 
L 57.237045 179.61966 
L 57.404975 179.5653 
L 57.571843 179.61966 
L 57.739287 179.48376 
L 57.906663 179.67402 
L 58.074107 179.72838 
L 58.297305 179.61966 
L 58.743818 179.53812 
L 58.855485 179.8371 
L 60.585529 179.78274 
L 60.697084 179.5653 
L 60.754301 179.5653 
L 60.920393 179.75556 
L 61.590061 179.72838 
L 61.757527 179.59248 
L 61.924999 179.8371 
L 62.092375 179.973 
L 62.429348 179.89146 
L 62.594676 179.973 
L 62.708413 179.78274 
L 62.762126 179.78274 
L 62.929507 179.94582 
L 63.264345 179.89146 
L 63.431815 179.80992 
L 63.59922 179.78274 
L 63.761317 179.5653 
L 63.934051 179.7012 
L 64.765904 179.32068 
L 64.938672 179.64684 
L 65.100758 179.7012 
L 65.385137 179.37504 
L 65.608346 179.32068 
L 65.770486 179.1576 
L 65.943249 179.53812 
L 66.057142 179.78274 
L 66.440171 179.86428 
L 66.612911 179.94582 
L 66.775085 179.86428 
L 66.947759 180.05454 
L 67.45466 179.72838 
L 67.556363 179.59248 
L 67.662147 179.59248 
L 67.731486 179.45658 
L 67.786063 179.45658 
L 67.954322 179.67402 
L 68.114404 179.72838 
L 68.566281 179.64684 
L 68.784172 179.59248 
L 68.956884 179.80992 
L 69.291799 179.7012 
L 69.459153 179.61966 
L 69.626563 179.59248 
L 69.788694 179.32068 
L 70.296314 179.07606 
L 70.458394 178.94016 
L 70.79865 179.13042 
L 70.904892 180.00018 
L 70.966021 180.00018 
L 71.07766 181.30482 
L 71.133486 181.30482 
L 71.300813 182.44638 
L 71.462965 183.2346 
L 71.524089 183.2346 
L 71.635711 183.61512 
L 71.691577 183.61512 
L 71.914804 182.2833 
L 72.021016 182.2833 
L 72.132638 181.03302 
L 72.19379 181.03302 
L 72.308587 179.51094 
L 72.361317 179.51094 
L 72.472872 178.3422 
L 72.528678 178.3422 
L 72.640231 177.74424 
L 72.696092 177.74424 
L 72.807731 177.47244 
L 72.86664 177.47244 
L 72.975113 178.01604 
L 73.030957 178.01604 
L 73.137188 178.7499 
L 73.248786 178.7499 
L 73.309977 179.45658 
L 73.365833 179.45658 
L 73.53326 179.59248 
L 74.314487 177.96168 
L 74.481931 177.98886 
L 74.705212 178.8858 
L 74.81151 178.8858 
L 74.923182 179.5653 
L 74.9843 179.5653 
L 75.14648 179.973 
L 75.319119 180.1089 
L 75.657032 180.16326 
L 75.817002 179.91864 
L 75.996601 180.02736 
L 76.156276 180.00018 
L 76.374228 179.48376 
L 76.48586 179.48376 
L 76.77525 179.0217 
L 77.490375 179.07606 
L 77.663087 179.18478 
L 77.830608 179.21196 
L 77.998012 179.53812 
L 78.160105 179.61966 
L 79.1141 176.95602 
L 79.169955 176.95602 
L 79.337359 176.76576 
L 79.783767 177.33654 
L 79.945909 177.88014 
L 80.062899 178.15194 
L 80.280823 178.09758 
L 80.504038 177.7986 
L 80.62099 177.7986 
L 80.788371 177.5268 
L 80.950536 177.58116 
L 81.179074 177.20064 
L 81.290741 177.20064 
L 81.458101 177.06474 
L 81.625645 177.09192 
L 81.795722 176.95602 
L 81.904553 177.17346 
L 82.127774 176.90166 
L 82.575153 176.79294 
L 82.736892 176.68422 
L 82.911887 176.8473 
L 83.244061 176.65704 
L 83.35561 176.46678 
L 83.517724 176.52114 
L 83.690413 176.52114 
L 83.852577 176.73858 
L 84.136883 176.62986 
L 84.19276 176.62986 
L 84.299594 176.49396 
L 84.412164 176.49396 
L 84.471813 176.35806 
L 84.527664 176.35806 
L 84.645112 176.22216 
L 84.857182 176.3037 
L 85.476447 176.27652 
L 85.643851 176.1678 
L 85.811215 176.41242 
L 86.03447 176.60268 
L 86.260309 176.7114 
L 86.419849 176.92884 
L 87.039059 178.0704 
L 87.09737 178.0704 
L 87.262301 178.23348 
L 87.376596 179.04888 
L 87.429884 179.04888 
L 87.536052 180.1089 
L 87.597194 180.1089 
L 87.708792 181.79406 
L 87.75934 181.79406 
L 87.87627 182.85408 
L 87.934586 182.85408 
L 88.094121 183.28896 
L 88.266838 183.3705 
L 88.322671 183.3705 
L 88.713358 182.44638 
L 88.825018 182.44638 
L 88.936774 182.03868 
L 88.99249 182.03868 
L 89.15994 181.71252 
L 89.32198 181.4679 
L 89.494748 181.49508 
L 89.656821 181.41354 
L 89.829607 181.7397 
L 89.997089 181.90278 
L 90.220321 181.82124 
L 90.387741 181.7397 
L 90.550374 181.82124 
L 90.724968 181.63098 
L 90.884693 181.8756 
L 91.057438 181.95714 
L 91.331183 181.82124 
L 91.554393 181.84842 
L 91.727138 181.63098 
L 91.782989 181.63098 
L 91.950404 181.82124 
L 92.285219 181.71252 
L 92.447371 181.57662 
L 92.620088 181.65816 
L 92.782168 181.52226 
L 92.899114 181.79406 
L 93.290872 181.71252 
L 93.401416 181.54944 
L 93.680503 181.6038 
L 93.849202 181.38636 
L 93.961711 181.57662 
L 94.679711 181.57662 
L 94.852445 181.44072 
L 95.014581 181.68534 
L 95.189603 181.76688 
L 95.461078 181.6038 
L 95.747656 181.63098 
L 95.912855 181.44072 
L 96.080254 181.68534 
L 96.247752 181.71252 
L 96.470946 181.44072 
L 96.749949 181.4679 
L 96.912068 181.25046 
L 97.084864 181.49508 
L 97.246944 181.54944 
L 97.531295 181.44072 
L 97.979952 181.41354 
L 98.089407 181.65816 
L 98.482666 181.63098 
L 98.647437 181.4679 
L 98.809594 181.49508 
L 98.982306 181.35918 
L 99.144509 181.6038 
L 99.31721 181.63098 
L 99.479268 181.4679 
L 99.654145 181.332 
L 99.875268 181.30482 
L 99.986844 181.08738 
L 100.042677 181.08738 
L 100.15436 181.38636 
L 100.879855 181.44072 
L 101.041913 181.25046 
L 101.270558 181.57662 
L 101.549534 181.4679 
L 101.714656 181.38636 
L 101.940214 181.41354 
L 102.107641 181.25046 
L 102.219234 181.4679 
L 102.610206 181.41354 
L 102.778459 181.332 
L 102.947181 181.38636 
L 103.112196 181.25046 
L 103.27431 181.49508 
L 103.447038 181.52226 
L 103.670286 181.41354 
L 104.172599 181.332 
L 104.340005 181.65816 
L 104.507476 181.76688 
L 104.786541 181.6038 
L 105.009751 181.6038 
L 105.121327 181.35918 
L 105.177177 181.35918 
L 105.344609 181.65816 
L 105.506695 181.7397 
L 105.735267 181.52226 
L 106.071857 181.44072 
L 106.237519 181.25046 
L 106.404991 181.49508 
L 106.572418 181.54944 
L 106.795649 181.38636 
L 107.242096 181.30482 
L 107.353734 181.63098 
L 108.135079 181.57662 
L 108.304108 181.4679 
L 108.408742 181.79406 
L 108.966838 181.90278 
L 109.301685 182.12022 
L 109.413235 182.5551 
L 109.487513 182.5551 
L 109.586092 182.0115 
L 109.699404 182.0115 
L 109.809346 181.65816 
L 109.865178 181.65816 
L 110.032561 181.22328 
L 110.144177 180.86994 
L 110.200009 180.86994 
L 110.479075 182.20176 
L 110.529522 182.20176 
L 110.641188 183.31614 
L 110.702262 183.31614 
L 110.864375 185.19156 
L 110.925504 185.19156 
L 111.038176 186.9039 
L 111.087518 186.9039 
L 111.199201 188.07264 
L 111.262423 188.07264 
L 111.422438 189.67626 
L 111.483869 189.67626 
L 111.5962 190.19268 
L 111.64567 190.19268 
L 111.757225 188.96958 
L 111.874216 188.96958 
L 112.092123 187.5834 
L 112.320679 187.5834 
L 112.432295 186.03414 
L 112.599676 185.11002 
L 112.873434 183.5064 
L 112.93468 183.5064 
L 113.047826 184.13154 
L 113.157795 184.13154 
L 113.381032 185.62644 
L 113.492649 185.62644 
L 113.605855 186.46902 
L 113.884735 186.57774 
L 113.989666 184.56642 
L 114.05079 184.56642 
L 114.163979 182.09304 
L 114.218306 182.09304 
L 114.324457 178.39656 
L 114.385593 178.39656 
L 114.547756 173.80314 
L 114.664708 173.80314 
L 114.82691 173.42262 
L 114.943766 173.7216 
L 115.000968 173.7216 
L 115.222765 177.14628 
L 115.334381 177.14628 
L 115.44084 179.04888 
L 115.501913 179.04888 
L 115.613491 179.91864 
L 115.669345 179.91864 
L 115.780956 180.5166 
L 116.004171 180.43506 
L 116.222095 179.13042 
L 116.339047 179.13042 
L 116.556837 177.98886 
L 116.841193 178.04322 
L 117.064446 178.17912 
L 117.114928 178.17912 
L 117.338209 178.614 
L 117.622543 178.66836 
L 117.734265 179.04888 
L 117.791549 179.04888 
L 118.013341 179.26632 
L 118.628777 179.18478 
L 118.789311 179.45658 
L 118.962029 179.5653 
L 119.186601 179.5653 
L 119.296899 179.5653 
L 119.459097 179.7012 
L 119.631774 179.5653 
L 119.795713 179.78274 
L 119.966661 179.80992 
L 120.128736 179.7012 
L 120.302809 179.61966 
L 120.463589 179.75556 
L 120.575221 179.61966 
L 120.647513 179.61966 
L 120.750094 179.86428 
L 121.306014 179.89146 
L 121.468189 180.00018 
L 121.640934 179.8371 
L 121.697856 179.8371 
L 121.864149 180.13608 
L 122.137833 180.16326 
L 122.70136 180.08172 
L 122.86872 180.29916 
L 123.036192 180.32634 
L 123.203573 180.19044 
L 123.372043 180.08172 
L 123.538394 180.16326 
L 123.705864 180.00018 
L 123.87324 180.29916 
L 124.035366 180.35352 
L 124.375839 180.27198 
L 124.542953 180.32634 
L 124.654569 180.16326 
L 124.710446 180.16326 
L 124.877857 180.40788 
L 125.101089 180.40788 
L 125.70961 180.3807 
L 125.88351 180.6525 
L 126.04986 180.73404 
L 126.219876 180.57096 
L 126.384691 180.46224 
L 126.552095 180.59814 
L 126.714247 180.5166 
L 126.775378 180.5166 
L 126.886971 180.84276 
L 127.278539 180.76122 
L 127.445056 180.67968 
L 127.612544 180.7884 
L 127.779948 180.6525 
L 127.942068 180.95148 
L 128.115785 180.97866 
L 128.338011 180.81558 
L 128.784447 180.76122 
L 128.946577 180.95148 
L 129.121633 180.21762 
L 129.236971 177.6627 
L 129.287335 177.6627 
L 129.398415 175.05342 
L 129.455426 175.05342 
L 129.61625 172.93338 
L 129.727866 172.93338 
L 129.83951 174.37392 
L 129.895433 174.37392 
L 130.123877 178.15194 
L 130.235471 178.15194 
L 130.397673 180.13608 
L 130.514557 182.12022 
L 130.570385 182.12022 
L 130.681917 182.9628 
L 130.794292 182.9628 
L 130.960943 183.47922 
L 131.240042 182.691 
L 131.290539 182.691 
L 131.407563 181.8756 
L 131.464266 181.8756 
L 131.625421 181.08738 
L 131.737131 180.35352 
L 132.467884 180.2448 
L 132.741501 177.9345 
L 132.80262 177.9345 
L 132.914275 176.5755 
L 132.970075 176.5755 
L 133.081735 175.4883 
L 133.138349 175.4883 
L 133.249207 174.91752 
L 133.411275 174.89034 
L 133.522919 175.3524 
L 133.584662 175.3524 
L 133.807252 176.62986 
L 133.919896 176.62986 
L 134.030512 177.36372 
L 134.081026 177.36372 
L 134.197933 178.36938 
L 134.254498 178.36938 
L 134.36541 179.72838 
L 134.415836 179.72838 
L 134.527422 181.08738 
L 134.756051 181.16892 
L 135.085531 178.0704 
L 135.197175 175.32522 
L 135.258321 175.32522 
L 135.420361 171.30258 
L 135.531955 171.30258 
L 135.643643 170.16102 
L 135.7047 170.16102 
L 136.09014 171.08514 
L 136.151304 171.08514 
L 136.374451 172.2267 
L 136.428097 172.2267 
L 136.53637 173.01492 
L 136.59251 173.01492 
L 136.70935 174.83598 
L 136.759596 174.83598 
L 136.871486 176.7114 
L 136.933257 176.7114 
L 137.097006 178.77708 
L 137.206434 180.84276 
L 137.26753 180.84276 
L 137.38567 182.63664 
L 137.430938 182.63664 
L 137.546416 183.47922 
L 137.603002 183.47922 
L 137.713954 182.1474 
L 137.770792 182.1474 
L 137.876045 179.94582 
L 137.937197 179.94582 
L 138.048719 177.49962 
L 138.104596 177.49962 
L 138.271934 175.54266 
L 138.383527 174.29238 
L 138.443089 174.29238 
L 138.545763 173.66724 
L 138.662687 174.31956 
L 138.719072 174.31956 
L 138.830114 175.0806 
L 138.880611 175.0806 
L 138.992205 176.08626 
L 139.053334 176.08626 
L 139.164906 177.1191 
L 139.220733 177.1191 
L 139.388137 178.31502 
L 139.499775 179.34786 
L 139.550318 179.34786 
L 139.66194 180.19044 
L 139.723063 180.19044 
L 140.057928 179.59248 
L 140.108347 178.3422 
L 140.225293 178.3422 
L 140.337014 177.20064 
L 140.393356 177.20064 
L 140.554821 176.7114 
L 140.727556 176.79294 
L 140.895039 176.65704 
L 141.062382 177.71706 
L 141.174047 177.71706 
L 141.397302 178.85862 
L 141.509386 178.85862 
L 141.671136 179.86428 
L 141.955465 181.27764 
L 142.067594 181.27764 
L 142.178753 181.71252 
L 142.23453 181.71252 
L 142.569249 183.04434 
L 142.736693 184.24026 
L 142.962592 184.43052 
L 143.12748 184.43052 
L 143.34528 183.01716 
L 143.629648 182.90844 
L 143.791844 183.31614 
L 143.9645 183.12588 
L 144.187694 183.0987 
L 144.411015 182.44638 
L 144.522647 182.44638 
L 144.745801 183.04434 
L 144.857824 183.04434 
L 145.019576 182.90844 
L 145.192271 182.98998 
L 145.303887 182.77254 
L 145.416703 182.77254 
L 145.527252 182.25612 
L 145.58308 182.25612 
L 145.695723 182.12022 
L 145.917989 182.22894 
L 146.086057 181.84842 
L 146.196992 182.09304 
L 146.420174 182.06586 
L 146.585095 181.8756 
L 146.811881 183.04434 
L 147.146892 182.9628 
L 147.315435 183.28896 
L 147.475186 183.39768 
L 147.759565 183.53358 
L 148.206218 183.42486 
L 148.429277 182.58228 
L 148.54331 182.58228 
L 148.65252 182.12022 
L 148.708331 182.12022 
L 148.875802 181.4679 
L 149.149493 180.59814 
L 149.210616 180.59814 
L 149.372753 179.72838 
L 149.484346 178.85862 
L 149.545465 178.85862 
L 149.657086 178.17912 
L 149.707516 178.17912 
L 149.824468 177.44526 
L 149.880413 177.44526 
L 150.103477 176.79294 
L 150.21516 176.79294 
L 150.326798 176.3037 
L 150.382602 176.3037 
L 150.549963 175.67856 
L 150.661651 175.67856 
L 150.823726 175.24368 
L 150.996638 175.29804 
L 151.270211 175.0806 
L 151.376018 175.0806 
L 151.442946 174.6729 
L 151.6663 173.66724 
L 151.777888 173.66724 
L 151.889466 173.06928 
L 151.945292 173.06928 
L 152.163128 171.30258 
L 152.224251 171.30258 
L 152.33584 170.3241 
L 152.39482 170.3241 
L 152.615022 168.61176 
L 152.670871 168.61176 
L 152.894086 167.1984 
L 152.94454 167.1984 
L 153.17309 165.62196 
L 153.22894 165.62196 
L 153.396344 164.64348 
L 153.614212 164.56194 
L 153.842813 164.18142 
L 154.345094 164.26296 
L 154.512503 164.53476 
L 155.288463 164.42604 
L 155.511695 163.90962 
L 155.572902 163.90962 
L 155.684496 163.61064 
L 155.743298 163.61064 
L 156.019332 162.7137 
L 156.130925 162.7137 
L 156.293067 161.92548 
L 156.41003 161.92548 
L 156.689022 160.83828 
L 156.80066 160.83828 
L 157.023914 160.18596 
L 157.079764 160.18596 
L 157.358745 159.0444 
L 157.470389 159.0444 
L 157.637793 158.06592 
L 157.693621 158.06592 
L 157.861098 157.19616 
L 157.975505 157.19616 
L 158.140078 156.40794 
L 158.195906 156.40794 
L 158.363311 156.00024 
L 158.921368 154.88586 
L 158.97724 154.88586 
L 159.144718 154.58688 
L 159.195238 154.58688 
L 159.367904 154.34226 
L 159.591158 154.26072 
L 159.926017 153.90738 
L 159.981918 153.90738 
L 160.149205 153.68994 
L 160.199746 153.68994 
L 160.53998 153.03762 
L 160.707385 152.95608 
L 160.869431 152.43966 
L 160.930555 152.43966 
L 161.092713 151.92324 
L 161.153853 151.92324 
L 161.265464 151.59708 
L 161.32411 151.59708 
L 161.711866 150.6186 
L 161.76233 150.6186 
L 161.985691 150.15654 
L 162.269913 149.85756 
L 162.432042 149.5314 
L 162.537865 149.5314 
L 162.660577 149.06934 
L 162.828025 149.01498 
L 162.990133 148.66164 
L 163.107068 148.66164 
L 163.388254 148.06368 
L 163.548219 148.06368 
L 163.722231 147.6288 
L 163.776853 147.6288 
L 164.055968 146.92212 
L 164.218087 146.92212 
L 164.613986 146.02518 
L 164.725607 146.02518 
L 164.893039 145.48158 
L 164.94885 145.48158 
L 165.110964 144.80208 
L 165.172133 144.80208 
L 165.334234 144.06822 
L 165.395359 144.06822 
L 165.557422 143.4159 
L 165.618546 143.4159 
L 165.780632 142.65486 
L 165.841784 142.65486 
L 166.009249 142.08408 
L 166.06506 142.08408 
L 166.176653 141.75792 
L 166.227084 141.7851 
L 166.288247 141.7851 
L 166.511535 141.1056 
L 166.673582 140.99688 
L 166.785242 140.72508 
L 166.896858 140.75226 
L 167.515994 139.17582 
L 167.566492 139.17582 
L 167.850947 138.03426 
L 167.906786 138.03426 
L 168.141136 137.3004 
L 168.185801 137.3004 
L 168.353205 136.56654 
L 168.408988 136.56654 
L 168.571096 135.96858 
L 168.632225 135.96858 
L 168.799652 135.45216 
L 168.855441 135.45216 
L 169.129198 134.55522 
L 169.357771 134.14752 
L 169.469471 134.12034 
L 169.798877 133.2234 
L 169.860023 133.2234 
L 170.022132 132.97878 
L 170.083249 132.97878 
L 170.306442 132.1362 
L 170.356934 132.1362 
L 170.585546 131.5926 
L 170.641306 131.56542 
L 170.803526 130.99464 
L 170.867049 130.99464 
L 171.031976 130.47822 
L 171.087759 130.47822 
L 171.249872 130.04334 
L 171.590502 129.03768 
L 171.645911 129.03768 
L 171.808002 128.76588 
L 171.871381 128.76588 
L 172.092408 128.0592 
L 172.148264 128.0592 
L 172.371434 127.48842 
L 172.427306 127.40688 
L 172.589358 126.80892 
L 172.650505 126.80892 
L 172.924329 125.99352 
L 173.097063 125.66736 
L 173.264468 125.2053 
L 173.321417 125.2053 
L 173.543516 124.6617 
L 173.600303 124.6617 
L 174.101617 123.4386 
L 174.158501 123.4386 
L 174.380622 122.94936 
L 174.437549 122.94936 
L 174.598506 122.40576 
L 174.716513 122.37858 
L 174.938701 121.56318 
L 174.994489 121.56318 
L 175.32932 120.63906 
L 175.385137 120.63906 
L 175.775822 119.44314 
L 175.826253 119.44314 
L 176.110632 118.43748 
L 176.333869 117.8667 
L 176.391973 117.8667 
L 176.780411 116.3718 
L 176.891999 116.29026 
L 177.054051 115.71948 
L 177.115169 115.71948 
L 177.338495 115.0128 
L 177.450045 115.03998 
L 177.673305 114.36048 
L 177.729138 114.36048 
L 178.008225 113.43636 
L 178.058677 113.43636 
L 178.398961 112.45788 
L 178.510533 112.51224 
L 178.789559 111.53376 
L 178.84543 111.53376 
L 179.012835 111.2076 
L 179.40341 109.95732 
L 179.515098 109.93014 
L 179.732927 109.27782 
L 179.795994 109.27782 
L 179.961501 108.78858 
L 180.017306 108.84294 
L 180.184761 108.43524 
L 180.463764 107.86446 
L 180.519613 107.946 
L 180.742906 107.4024 
L 180.798706 107.4024 
L 181.245158 106.36956 
L 181.301053 106.36956 
L 181.579989 105.6357 
L 181.63584 105.6357 
L 181.972808 104.84748 
L 182.037638 104.90184 
L 182.193924 104.43978 
L 182.47295 103.78746 
L 182.523421 103.81464 
L 182.919386 102.7818 
L 183.081538 102.51 
L 183.700692 101.58588 
L 183.756548 101.58588 
L 184.03554 101.151 
L 184.091395 101.151 
L 184.370394 100.58022 
L 184.482031 100.58022 
L 184.755766 99.95508 
L 185.26337 99.08532 
L 185.313846 98.94942 
L 185.430797 99.1125 
L 185.64881 98.81352 
L 185.933166 98.46018 
L 186.044805 98.48736 
L 186.390703 99.08532 
L 186.4301 99.05814 
L 186.664521 99.13968 
L 186.764914 99.16686 
L 186.826032 99.54738 
L 186.881843 99.49302 
L 187.105103 99.54738 
L 187.666347 100.7433 
L 187.718993 100.71612 
L 187.881106 101.17818 
L 188.053818 101.34126 
L 188.277089 102.21102 
L 188.556981 102.53718 
L 188.774012 103.57002 
L 188.997293 103.92336 
L 189.108892 104.35824 
L 189.170123 104.24952 
L 189.332136 104.98338 
L 189.504892 104.92902 
L 189.616486 105.14646 
L 189.666983 105.06492 
L 189.839723 105.60852 
L 190.007188 105.28236 
L 190.062955 105.30954 
L 190.118789 105.30954 
L 190.174599 105.0921 
L 190.33669 105.69006 
L 190.67689 105.25518 
L 190.84434 105.88032 
L 191.006436 105.55416 
L 191.12332 105.71724 
L 191.179109 105.4998 
L 191.34658 106.1793 
L 191.514989 105.96186 
L 191.564549 106.23366 
L 191.625656 106.1793 
L 191.682075 106.1793 
L 191.848838 106.69572 
L 192.010974 106.587 
L 192.072142 106.80444 
L 192.122572 106.69572 
L 192.183691 106.69572 
L 192.239608 107.1306 
L 192.295351 106.96752 
L 192.518634 106.8588 
L 192.569148 107.2665 
L 192.630205 107.15778 
L 192.680663 107.15778 
L 192.853666 107.64702 
L 192.90389 107.56548 
L 192.965035 107.61984 
L 193.015512 107.61984 
L 193.134204 108.10908 
L 193.205385 108.10908 
L 193.35575 109.06038 
L 193.685268 109.95732 
L 193.85803 111.2076 
L 194.020121 111.39786 
L 194.355019 112.72968 
L 194.583564 112.72968 
L 194.63937 113.13738 
L 194.695096 113.08302 
L 194.750946 113.08302 
L 194.913043 114.03432 
L 195.085804 114.03432 
L 195.309031 114.90408 
L 195.359506 114.90408 
L 195.476531 115.09434 
L 195.645492 115.0128 
L 195.69436 115.23024 
L 195.755523 115.17588 
L 195.811312 115.17588 
L 195.917609 115.77384 
L 196.146153 115.74666 
L 196.425262 116.83386 
L 196.536863 116.96976 
L 196.704283 116.88822 
L 196.922196 117.81234 
L 197.262402 117.89388 
L 197.926778 121.01958 
L 197.98793 121.01958 
L 198.150033 122.32422 
L 198.546033 123.11244 
L 198.714531 124.36272 
L 198.880941 124.55298 
L 198.936792 124.55298 
L 199.266337 126.72738 
L 199.327461 126.72738 
L 199.551742 128.92896 
L 199.601107 128.92896 
L 199.773936 130.34232 
L 199.837092 130.34232 
L 200.047564 132.24492 
L 200.10985 132.24492 
L 200.270807 133.3593 
L 200.33192 133.3593 
L 200.549962 135.04446 
L 200.605683 135.04446 
L 200.828915 136.02294 
L 201.108069 137.54502 
L 201.169093 137.54502 
L 201.387 138.57786 
L 201.721921 140.48046 
L 201.784104 140.48046 
L 201.945103 141.62202 
L 202.006248 141.62202 
L 202.27995 143.25282 
L 202.342218 143.25282 
L 202.503164 144.44874 
L 202.564306 144.44874 
L 202.843392 147.43854 
L 202.949701 147.43854 
L 203.173507 149.85756 
L 203.452154 153.55404 
L 203.510622 153.55404 
L 203.619402 154.77714 
L 203.680526 154.77714 
L 203.842622 157.35924 
L 203.898501 157.35924 
L 204.010166 158.6367 
L 204.065888 158.6367 
L 204.23864 161.27316 
L 204.361412 161.27316 
L 204.512324 163.96398 
L 204.62394 163.96398 
L 204.846977 166.6548 
L 204.908368 166.6548 
L 205.070398 169.5087 
L 205.182014 169.5087 
L 205.29363 170.8677 
L 205.354754 170.8677 
L 205.461179 172.33542 
L 205.516918 172.33542 
L 205.740133 175.3524 
L 205.801257 175.3524 
L 205.912873 176.87448 
L 205.963348 176.87448 
L 206.074969 178.45092 
L 206.136093 178.45092 
L 206.298224 179.94582 
L 206.409866 181.1961 
L 206.47099 181.1961 
L 206.633071 181.41354 
L 206.856341 180.21762 
L 206.973332 180.21762 
L 207.082744 179.61966 
L 207.191189 179.61966 
L 207.252285 178.85862 
L 207.308073 178.85862 
L 207.531356 178.4781 
L 207.640785 178.4781 
L 207.810404 178.28784 
L 207.972473 178.26066 
L 208.145279 178.55964 
L 208.30731 178.69554 
L 208.42435 179.45658 
L 208.480117 179.45658 
L 208.591799 179.75556 
L 208.815026 179.75556 
L 208.982441 179.61966 
L 209.149868 179.59248 
L 209.315084 179.2935 
L 209.484688 179.37504 
L 209.819541 179.2935 
L 209.981682 179.23914 
L 210.154439 179.37504 
L 210.321909 179.32068 
L 210.489252 179.78274 
L 210.656887 179.89146 
L 210.880018 179.75556 
L 211.321112 179.64684 
L 211.493874 180.02736 
L 211.655972 180.08172 
L 211.99616 179.91864 
L 212.105403 179.37504 
L 212.165032 179.37504 
L 212.276922 176.73858 
L 212.332872 176.73858 
L 212.554172 170.89488 
L 212.609978 170.89488 
L 212.772035 168.39432 
L 212.777455 168.39432 
L 212.944854 164.94246 
L 213.056391 164.94246 
L 213.221468 162.8496 
L 213.335462 162.8496 
L 213.553364 163.14858 
L 214.005174 163.74654 
L 214.172645 164.94246 
L 214.284289 164.94246 
L 214.507532 165.24144 
L 214.563332 165.24144 
L 214.730696 166.6548 
L 214.842335 166.6548 
L 214.95389 167.17122 
L 215.009767 167.17122 
L 215.400359 163.42038 
L 215.623618 160.62084 
L 215.679496 160.62084 
L 215.958494 157.33206 
L 216.070161 157.33206 
L 216.237587 156.40794 
L 216.405058 156.48948 
L 216.516674 157.35924 
L 216.573088 157.35924 
L 216.739866 158.0931 
L 216.795717 158.0931 
L 217.127997 159.50646 
L 217.186313 159.50646 
L 217.297957 160.4034 
L 217.353763 160.4034 
L 217.521123 161.00136 
L 217.632806 161.00136 
L 217.85602 161.40906 
L 217.967642 160.83828 
L 218.023559 160.83828 
L 218.244073 159.37056 
L 218.748965 156.54384 
L 218.805338 156.54384 
L 218.972162 156.1905 
L 219.02799 156.1905 
L 219.247723 157.19616 
L 219.307077 157.19616 
L 219.470062 158.52798 
L 219.530271 158.52798 
L 219.641908 159.53364 
L 219.697808 159.53364 
L 219.865163 160.8111 
L 219.976784 160.8111 
L 220.144249 161.92548 
L 220.200624 161.92548 
L 220.311643 162.14292 
L 220.369033 162.14292 
L 220.534824 162.79524 
L 220.758062 162.76806 
L 220.869767 162.4419 
L 220.93419 162.4419 
L 221.260393 160.5393 
L 221.316158 160.5393 
L 221.4783 158.79978 
L 221.539418 158.79978 
L 221.65104 157.90284 
L 221.706866 157.90284 
L 221.985871 155.86434 
L 222.036391 155.86434 
L 222.259611 154.8315 
L 222.320757 154.8315 
L 222.482999 154.152 
L 222.544123 154.152 
L 222.655649 153.85302 
L 223.046469 153.7443 
L 223.152711 153.66276 
L 223.325456 153.71712 
L 223.437044 153.49968 
L 223.599125 153.68994 
L 223.660271 153.68994 
L 223.824946 153.39096 
L 224.050963 153.3366 
L 224.162557 153.09198 
L 224.268888 153.17352 
L 225.499057 151.51554 
L 225.669346 151.10784 
L 225.725219 151.10784 
L 225.943047 150.64578 
L 226.004194 150.64578 
L 226.171603 150.18372 
L 226.227409 150.18372 
L 226.39483 149.8032 
L 226.450641 149.8032 
L 226.615227 149.36832 
L 226.682139 149.36832 
L 226.841305 149.01498 
L 226.952898 149.01498 
L 227.064576 148.79754 
L 227.176375 148.8519 
L 227.343557 148.63446 
L 227.511089 148.55292 
L 227.731307 148.36266 
L 227.840591 148.4442 
L 228.175371 148.25394 
L 228.34858 148.22676 
L 228.461089 148.0365 
L 228.578063 148.14522 
L 228.794642 147.95496 
L 228.956761 147.65598 
L 229.017885 147.65598 
L 229.17996 147.30264 
L 229.241072 147.30264 
L 229.415223 146.86776 
L 229.531255 146.86776 
L 229.693122 146.56878 
L 229.743375 146.56878 
L 229.855019 146.32416 
L 229.973309 146.35134 
L 230.134067 145.91646 
L 230.189921 145.91646 
L 230.357432 145.61748 
L 230.407929 145.61748 
L 230.52171 145.42722 
L 230.631167 145.50876 
L 231.027078 144.99234 
L 231.079807 144.99234 
L 231.189151 144.7749 
L 231.306192 144.85644 
L 231.473507 144.69336 
L 231.529335 144.69336 
L 231.696722 144.5031 
L 231.747237 144.5031 
L 231.920005 144.3672 
L 231.975882 144.3672 
L 232.260416 143.85078 
L 232.422263 143.74206 
L 232.533945 143.52462 
L 232.640225 143.5518 
L 232.924559 143.06256 
L 233.091986 143.0082 
L 233.198243 142.81794 
L 233.312087 142.95384 
L 233.87015 142.79076 
L 233.979627 142.89948 
L 234.263956 142.68204 
L 234.42819 142.62768 
L 234.53769 142.4646 
L 234.654648 142.6005 
L 234.933663 142.11126 
L 234.986258 142.11126 
L 235.545354 141.15996 
L 235.715018 140.80662 
L 235.770846 140.80662 
L 235.879269 140.53482 
L 235.994724 140.61636 
L 236.161437 140.39892 
L 236.441233 140.31738 
L 236.553563 140.23584 
L 236.60799 140.45328 
L 236.666675 140.4261 
L 236.831182 140.45328 
L 237.166148 141.54048 
L 237.439793 145.80774 
L 237.49772 145.80774 
L 237.607354 147.30264 
L 237.66841 147.30264 
L 237.843629 149.96628 
L 237.886291 149.96628 
L 238.055944 152.41248 
L 238.109612 152.41248 
L 238.282284 154.91304 
L 238.3939 154.91304 
L 238.556014 157.30488 
L 238.613923 157.30488 
L 238.723507 158.31054 
L 238.78461 158.31054 
L 238.951997 159.64236 
L 239.002471 159.64236 
L 239.114105 160.10442 
L 239.175206 160.10442 
L 239.342683 162.08856 
L 239.450934 162.08856 
L 239.672262 164.64348 
L 239.730088 164.64348 
L 239.900752 167.3343 
L 240.008957 167.3343 
L 240.118659 168.6933 
L 240.174558 168.6933 
L 240.397791 171.46566 
L 240.45882 171.46566 
L 240.567092 172.87902 
L 240.671001 172.87902 
L 240.732655 174.37392 
L 240.788388 174.37392 
L 241.01695 177.41808 
L 241.131529 177.41808 
L 241.234846 178.8858 
L 241.29597 178.8858 
L 241.407631 180.40788 
L 241.463442 180.40788 
L 241.575079 181.11456 
L 241.630897 181.11456 
L 241.798339 181.30482 
L 242.016218 180.95148 
L 242.133165 180.95148 
L 242.300546 180.48942 
L 242.574321 180.16326 
L 242.635445 180.16326 
L 242.799332 179.89146 
L 242.970901 179.7012 
L 243.132451 179.75556 
L 243.30514 179.61966 
L 243.467243 179.973 
L 243.639976 180.05454 
L 244.312285 180.00018 
L 244.421399 180.29916 
L 244.806729 180.2448 
L 244.979373 180.16326 
L 245.141515 180.2448 
L 245.314277 180.08172 
L 245.476373 180.27198 
L 245.649113 180.29916 
L 245.922854 180.16326 
L 245.983995 180.16326 
L 246.147821 180.29916 
L 246.318854 180.21762 
L 246.486275 180.5166 
L 247.379252 180.5166 
L 247.546634 180.7884 
L 247.709395 180.86994 
L 247.993087 180.76122 
L 248.216324 180.81558 
L 248.380068 180.62532 
L 248.551183 180.81558 
L 248.713307 180.86994 
L 248.998879 180.73404 
L 249.383065 180.73404 
L 249.555743 180.97866 
L 249.723237 181.0602 
L 249.946474 181.00584 
L 250.113878 180.89712 
L 250.281328 180.97866 
L 250.448687 180.76122 
L 250.560348 180.97866 
L 251.453314 180.89712 
L 251.564902 181.11456 
L 253.350773 181.08738 
L 253.512926 180.89712 
L 253.68566 181.08738 
L 253.960768 181.11456 
L 254.355366 181.16892 
L 254.518786 180.97866 
L 254.690225 181.25046 
L 254.852338 181.30482 
L 255.025078 181.25046 
L 255.083412 181.25046 
L 255.248322 181.11456 
L 255.415754 181.16892 
L 255.583225 180.89712 
L 255.750613 181.0602 
L 256.587718 181.03302 
L 256.699311 181.30482 
L 257.480701 181.35918 
L 257.648156 181.16892 
L 257.8156 181.35918 
L 257.977696 181.41354 
L 258.262075 181.27764 
L 258.486289 181.332 
L 258.596905 181.14174 
L 258.652711 181.14174 
L 258.820159 181.332 
L 258.983427 181.35918 
L 259.210835 181.16892 
L 259.651946 181.1961 
L 259.824725 181.44072 
L 260.382798 181.49508 
L 260.544912 181.57662 
L 260.720531 181.41354 
L 260.829759 181.68534 
L 261.780249 181.6038 
L 261.945516 181.82124 
L 262.11287 181.84842 
L 262.331905 181.57662 
L 262.61519 181.6038 
L 262.726766 181.35918 
L 262.782616 181.35918 
L 262.889884 181.52226 
L 263.284868 181.44072 
L 263.448026 181.332 
L 263.619739 181.44072 
L 263.781852 181.27764 
L 263.843004 181.27764 
L 264.012573 181.49508 
L 264.17783 181.52226 
L 264.401066 181.38636 
L 264.847609 181.332 
L 264.959197 181.57662 
L 265.349782 181.54944 
L 265.517192 181.41354 
L 265.790911 178.614 
L 265.852023 178.614 
L 266.075283 171.73746 
L 266.131088 171.73746 
L 266.238306 168.17688 
L 266.298788 168.17688 
L 266.465998 162.76806 
L 266.577607 162.76806 
L 266.689223 161.68086 
L 266.796413 162.4419 
L 266.85665 162.4419 
L 267.018741 165.32298 
L 267.130362 165.32298 
L 267.303119 168.31278 
L 267.414741 168.31278 
L 267.521066 169.72614 
L 267.576804 169.72614 
L 267.74432 172.71594 
L 267.861182 172.71594 
L 268.023273 174.29238 
L 268.134933 175.81446 
L 268.191733 175.81446 
L 268.302466 177.3909 
L 268.364417 177.3909 
L 268.475245 178.99452 
L 268.584399 178.99452 
L 268.698421 180.6525 
L 268.806047 182.31048 
L 268.865825 182.31048 
L 269.028653 182.9628 
L 269.20059 183.04434 
L 269.423866 183.01716 
L 269.586717 182.47356 
L 269.817561 181.82124 
L 269.920878 181.82124 
L 270.144869 181.00584 
L 270.428426 180.97866 
L 270.540086 180.76122 
L 270.595897 180.76122 
L 270.763324 180.95148 
L 270.930857 181.0602 
L 271.261021 181.11456 
L 271.33476 181.11456 
L 271.433047 181.25046 
L 271.825514 181.35918 
L 272.102738 181.38636 
L 272.488066 181.41354 
L 272.660817 181.14174 
L 272.822913 181.1961 
L 273.163169 180.97866 
L 273.380981 180.16326 
L 273.493223 180.16326 
L 273.604264 179.26632 
L 273.665383 179.26632 
L 273.88848 177.98886 
L 274.00014 177.98886 
L 274.162282 177.30936 
L 274.335039 176.8473 
L 274.609349 176.54832 
L 274.669898 176.54832 
L 274.781469 176.90166 
L 274.837363 176.90166 
L 275.004717 177.03756 
L 275.45117 177.06474 
L 275.613305 176.68422 
L 275.786029 176.38524 
L 275.897661 174.83598 
L 275.953489 174.83598 
L 276.171414 169.83486 
L 276.232571 169.83486 
L 276.394667 164.69784 
L 276.511552 164.69784 
L 276.790573 155.9187 
L 276.913406 155.9187 
L 277.069642 149.99346 
L 277.125459 149.99346 
L 277.287767 144.639 
L 277.348931 144.639 
L 277.510872 140.45328 
L 277.572447 140.45328 
L 277.797253 134.55522 
L 277.848376 134.55522 
L 278.185835 128.00484 
L 278.241624 128.00484 
L 278.403809 125.17812 
L 278.464956 125.17812 
L 278.85562 118.05696 
L 278.91138 118.05696 
L 279.134602 114.90408 
L 279.190428 114.90408 
L 279.408286 113.1102 
L 279.525327 112.78404 
L 279.581065 112.91994 
L 279.632025 112.8384 
L 279.97179 112.81122 
L 280.027646 112.64814 
L 280.078054 112.81122 
L 280.139217 112.81122 
L 280.30133 113.2461 
L 280.808879 116.45334 
L 281.032116 117.02412 
L 281.312609 117.64926 
L 281.534419 117.78516 
L 281.640704 117.70362 
L 281.757611 117.89388 
L 282.036682 117.35028 
L 282.092531 117.35028 
L 282.20417 117.0513 
L 282.48626 117.1872 
L 282.701567 120.06828 
L 282.756948 120.06828 
L 282.980453 123.22116 
L 283.041309 123.22116 
L 283.259763 126.31968 
L 283.31515 126.31968 
L 283.53851 129.5541 
L 283.599388 129.5541 
L 283.761496 131.78286 
L 283.817681 131.78286 
L 284.157468 136.29474 
L 284.207966 136.29474 
L 284.380744 138.63222 
L 284.431236 138.63222 
L 284.71562 141.97536 
L 284.768723 141.97536 
L 284.938851 144.34002 
L 284.990304 144.34002 
L 285.162078 146.56878 
L 285.216281 146.56878 
L 286.050005 154.9674 
L 286.105531 154.9674 
L 286.389892 158.69106 
L 286.501485 158.69106 
L 286.663627 161.16444 
L 286.719521 161.16444 
L 286.836362 162.52344 
L 286.886965 162.52344 
L 287.110158 165.18708 
L 287.166215 165.18708 
L 287.333301 167.93226 
L 287.445022 167.93226 
L 287.668148 170.70462 
L 287.724266 170.70462 
L 287.835731 172.06362 
L 287.891453 172.06362 
L 288.00309 173.55852 
L 288.066899 173.55852 
L 288.170568 175.02624 
L 288.226289 175.02624 
L 288.337905 176.54832 
L 288.394385 176.54832 
L 288.510622 178.01604 
L 288.564379 178.01604 
L 288.672876 179.59248 
L 288.733932 179.59248 
L 288.895979 181.08738 
L 289.009961 181.76688 
L 289.068785 181.76688 
L 289.23086 182.12022 
L 289.403616 182.25612 
L 289.565758 181.8756 
L 289.738503 181.82124 
L 289.794308 181.82124 
L 290.012205 181.22328 
L 290.129111 181.22328 
L 290.296589 180.84276 
L 290.46401 180.73404 
L 290.57025 179.53812 
L 290.631392 179.53812 
L 290.799867 175.16214 
L 290.910384 175.16214 
L 291.022017 172.33542 
L 291.0778 172.33542 
L 291.245344 167.85072 
L 291.354659 167.85072 
L 291.524258 163.82808 
L 291.635912 163.82808 
L 291.803362 159.69672 
L 291.916005 159.69672 
L 292.082343 155.7828 
L 292.139192 155.7828 
L 292.305686 151.48836 
L 292.361564 151.48836 
L 292.64055 145.07388 
L 292.696373 145.07388 
L 292.975326 138.63222 
L 293.028831 138.63222 
L 293.365968 126.78174 
L 293.421773 126.78174 
L 293.656156 119.82366 
L 293.695491 119.82366 
L 293.918751 113.43636 
L 293.981493 113.43636 
L 294.144985 111.2076 
L 294.31475 110.20194 
L 294.482204 109.90296 
L 294.537994 110.06604 
L 294.593804 110.06604 
L 295.819218 121.20984 
L 296.100644 120.50316 
L 296.323864 119.0898 
L 296.37727 119.0898 
L 296.547101 117.67644 
L 297.272642 107.4024 
L 297.328425 107.4024 
L 297.602154 104.46696 
L 297.663301 104.46696 
L 297.942321 101.64024 
L 297.998148 101.64024 
L 298.333052 98.67762 
L 298.388885 98.67762 
L 298.718452 95.47038 
L 298.779588 95.47038 
L 299.053211 93.5406 
L 299.337633 92.12724 
L 299.393444 92.12724 
L 299.839868 90.98568 
L 300.063129 91.12158 
L 300.230594 91.69236 
L 300.453765 91.96416 
L 300.509593 91.96416 
L 300.565397 92.1816 
L 300.621208 92.07288 
L 300.900257 92.01852 
L 300.950727 91.9098 
L 301.067682 92.12724 
L 301.235053 91.71954 
L 301.290909 91.71954 
L 301.399779 91.39338 
L 301.458297 91.52928 
L 301.514147 91.52928 
L 301.84362 90.57798 
L 301.964371 90.90414 
L 302.351263 90.49644 
L 302.402475 90.87696 
L 302.462879 90.71388 
L 302.574529 90.60516 
L 302.62497 90.6867 
L 302.686099 90.57798 
L 302.797687 90.38772 
L 302.848208 90.79542 
L 302.909332 90.52362 
L 303.074124 89.92566 
L 303.132592 89.95284 
L 303.244157 89.70822 
L 303.29999 89.92566 
L 303.635519 88.67538 
L 303.69071 88.67538 
L 303.741135 88.97436 
L 303.802276 88.83846 
L 303.964433 88.48512 
L 304.025557 88.48512 
L 304.137196 88.26768 
L 304.190239 88.6482 
L 304.248756 88.32204 
L 304.416249 88.13178 
L 304.472032 88.18614 
L 304.58361 87.99588 
L 304.634151 88.26768 
L 304.695292 88.15896 
L 304.81255 87.94152 
L 304.913362 88.5123 
L 305.41553 91.88262 
L 305.47143 91.88262 
L 305.923185 96.2586 
L 306.196864 100.17252 
L 306.252764 100.17252 
L 306.531756 104.0049 
L 306.587712 104.0049 
L 306.866571 107.97318 
L 306.9277 107.97318 
L 307.201451 112.023 
L 307.257352 112.023 
L 307.538761 115.03998 
L 307.647931 115.93692 
L 307.759531 118.08414 
L 307.927075 119.98674 
L 307.982791 119.98674 
L 308.043859 120.82932 
L 308.096812 120.25854 
L 308.155481 120.25854 
L 308.317638 121.83498 
L 308.485222 123.7104 
L 308.541926 123.7104 
L 308.875724 127.70586 
L 308.936289 127.70586 
L 309.271679 131.67414 
L 309.322148 131.67414 
L 309.492136 133.33212 
L 309.556587 133.33212 
L 309.718181 134.47368 
L 309.880255 134.93574 
L 310.159387 134.88138 
L 310.605907 133.9029 
L 310.667522 133.9029 
L 310.834374 133.65828 
L 311.280788 133.6311 
L 311.554561 131.10336 
L 311.838945 125.80326 
L 311.8948 125.80326 
L 312.17371 117.70362 
L 312.229498 117.70362 
L 312.447399 113.46354 
L 312.670659 113.54508 
L 313.457345 122.81346 
L 313.513156 122.81346 
L 313.736416 124.5258 
L 313.792316 124.5258 
L 313.959676 125.01504 
L 314.235609 124.1181 
L 314.40606 122.29704 
L 314.461893 122.29704 
L 314.740959 118.62774 
L 315.020046 115.39332 
L 315.075812 115.39332 
L 315.299088 112.45788 
L 315.355006 112.45788 
L 315.633869 109.93014 
L 315.689725 109.93014 
L 315.974315 108.43524 
L 316.024517 108.43524 
L 316.303559 107.07624 
L 316.359386 107.07624 
L 316.6393 105.85314 
L 316.694279 105.85314 
L 316.973271 104.38542 
L 317.032252 104.38542 
L 317.252342 103.21668 
L 317.419791 102.45564 
L 317.472476 102.42846 
L 317.75667 101.47716 
L 318.803948 96.44886 
L 318.927362 95.38884 
L 319.258208 92.12724 
L 319.317277 92.12724 
L 319.816383 89.21898 
L 320.042884 87.99588 
L 320.433505 88.6482 
L 320.545058 88.89282 
L 320.656691 88.86564 
L 320.707212 89.30052 
L 320.768351 89.1918 
L 320.932436 89.1918 
L 321.047389 89.30052 
L 321.103172 89.21898 
L 321.159005 89.51796 
L 321.21481 89.40924 
L 321.270642 89.40924 
L 321.43802 89.16462 
L 321.560809 89.16462 
L 321.600167 89.38206 
L 321.661291 89.27334 
L 321.772923 89.24616 
L 321.996183 88.70256 
L 322.048623 88.81128 
L 322.21942 88.48512 
L 322.386824 88.3764 
L 322.613175 88.02306 
L 322.665844 88.02306 
L 322.889038 87.53382 
L 322.939597 87.6969 
L 323.164681 87.26202 
L 323.335534 87.09894 
L 323.391357 87.37074 
L 323.447189 87.23484 
L 323.558761 87.1533 
L 323.614588 87.20766 
L 323.782065 86.90868 
L 323.832519 87.2892 
L 323.893664 87.1533 
L 324.055705 86.99022 
L 324.116873 87.07176 
L 324.228529 86.82714 
L 324.287443 87.18048 
L 324.619204 86.7456 
L 324.73082 87.07176 
L 324.954046 86.7456 
L 325.177267 87.23484 
L 325.344689 86.85432 
L 325.403552 86.85432 
L 325.623859 87.39792 
L 326.015645 91.3662 
L 326.06496 91.3662 
L 326.344097 92.80674 
L 326.623077 93.24162 
L 326.678978 93.24162 
L 326.734644 93.43188 
L 326.790588 93.29598 
L 326.907405 93.21444 
L 327.348745 97.53606 
L 327.629334 101.50434 
L 327.688723 101.50434 
L 327.962474 105.28236 
L 328.018368 105.28236 
L 328.29735 109.19628 
L 328.353227 109.19628 
L 328.632219 113.27328 
L 328.693343 113.27328 
L 329.083985 118.22004 
L 329.134573 118.22004 
L 329.36304 121.20984 
L 329.413515 121.20984 
L 329.642154 124.3899 
L 329.692718 124.3899 
L 329.861719 126.4284 
L 329.9717 126.4284 
L 330.08325 128.57562 
L 330.367611 131.75568 
L 330.419716 131.75568 
L 330.758319 135.99576 
L 330.808862 135.99576 
L 330.977823 138.19734 
L 331.037345 138.19734 
L 331.199436 140.34456 
L 331.255442 140.34456 
L 331.422718 142.62768 
L 331.483831 142.62768 
L 331.645905 144.82926 
L 331.701805 144.82926 
L 331.980769 148.28112 
L 332.041893 148.28112 
L 332.259868 150.59142 
L 332.321009 150.59142 
L 332.483189 152.9289 
L 332.538928 152.9289 
L 332.817976 156.48948 
L 332.929608 156.48948 
L 333.097079 158.99004 
L 333.158064 158.99004 
L 333.269686 160.18596 
L 333.321875 160.18596 
L 333.543393 162.7137 
L 333.599293 162.7137 
L 333.768164 165.26862 
L 333.878302 165.26862 
L 334.10155 167.90508 
L 334.15745 167.90508 
L 334.277243 169.18254 
L 334.326172 169.18254 
L 334.548048 171.92772 
L 334.603948 171.92772 
L 334.71548 173.36826 
L 334.771179 173.36826 
L 334.884273 174.75444 
L 334.943969 174.75444 
L 335.055545 176.1678 
L 335.111351 176.1678 
L 335.278732 176.5755 
L 335.442275 173.5857 
L 335.569847 173.5857 
L 335.669425 171.4113 
L 335.725213 171.4113 
L 335.887354 167.55174 
L 336.006918 167.55174 
L 336.227521 162.38754 
L 336.283321 162.38754 
L 336.558445 150.8904 
L 336.618202 150.8904 
L 336.841697 143.22564 
L 337.123065 132.51672 
L 337.287903 127.29816 
L 337.343803 127.29816 
L 337.561615 121.07394 
L 337.622734 121.07394 
L 337.784836 118.57338 
L 337.901855 118.5462 
L 338.119706 119.87802 
L 338.180852 119.87802 
L 338.459878 121.23702 
L 338.790825 125.17812 
L 338.850693 125.17812 
L 339.073881 128.82024 
L 339.129669 128.82024 
L 339.241262 129.44538 
L 339.297118 129.39102 
L 339.682468 126.7002 
L 339.966824 123.81912 
L 340.134245 122.84064 
L 340.190033 122.84064 
L 340.245823 122.70474 
L 340.352124 122.92218 
L 340.469277 122.81346 
L 340.748102 123.11244 
L 340.859695 123.00372 
L 340.910171 123.13962 
L 341.250321 121.4001 
L 341.306137 121.4001 
L 341.531551 120.23136 
L 341.581133 120.23136 
L 341.914731 118.49184 
L 342.026364 118.4103 
L 342.249562 117.67644 
L 342.31068 117.67644 
L 342.478173 117.29592 
L 342.589795 117.37746 
L 342.807675 117.02412 
L 342.868799 117.02412 
L 343.142567 116.2359 
L 343.204729 116.2359 
L 344.04082 113.00148 
L 344.147149 112.94712 
L 344.371498 111.99582 
L 344.432398 111.99582 
L 344.654743 111.42504 
L 344.710576 111.42504 
L 344.989601 109.38654 
L 345.04548 109.38654 
L 345.101201 109.00602 
L 345.157005 109.0332 
L 345.212811 109.0332 
L 345.380238 108.57114 
L 346.105778 106.28802 
L 346.156275 106.3152 
L 346.217394 106.3152 
L 346.496458 105.25518 
L 346.552263 105.25518 
L 346.603738 104.84748 
L 346.708522 104.87466 
L 346.719662 104.87466 
L 346.998677 103.62438 
L 347.0546 103.62438 
L 347.333559 102.51 
L 347.612712 101.64024 
L 347.668411 101.77614 
L 347.835838 101.09664 
L 348.05907 100.38996 
L 348.11488 100.4715 
L 348.170714 100.4715 
L 348.449762 99.32994 
L 348.561333 99.05814 
L 348.611959 99.1125 
L 348.836062 98.05248 
L 348.896321 98.05248 
L 349.007869 97.4817 
L 349.063719 97.64478 
L 349.119502 97.64478 
L 349.622736 94.27446 
L 349.845728 93.73086 
L 349.900825 93.73086 
L 350.062899 92.96982 
L 350.124028 92.96982 
L 350.403137 92.3175 
L 350.458876 92.4534 
L 350.621018 91.9098 
L 350.844205 91.47492 
L 350.961179 91.61082 
L 351.184427 90.1431 
L 351.296021 89.5995 
L 351.407653 89.76258 
L 351.632899 89.40924 
L 351.737272 89.43642 
L 352.289457 93.86676 
L 352.407101 96.96528 
L 352.462995 96.96528 
L 353.132573 104.57568 
L 353.249391 104.65722 
L 353.634781 101.36844 
L 353.695899 101.36844 
L 353.919137 100.49868 
L 355.86715 122.84064 
L 355.92305 122.84064 
L 356.151562 126.04788 
L 356.20207 126.04788 
L 356.425218 128.11356 
L 356.481113 128.98332 
L 356.536834 128.41254 
L 356.597981 128.41254 
L 357.040196 133.11468 
L 357.094908 133.11468 
L 357.374113 136.2132 
L 357.435202 136.2132 
L 357.714759 139.31172 
L 357.771663 139.31172 
L 358.713492 148.28112 
L 358.769214 148.28112 
L 359.048351 146.6775 
L 359.104073 146.6775 
L 359.215801 146.2698 
L 359.32731 146.4057 
L 359.606463 149.2596 
L 359.718058 149.2596 
L 359.885445 151.5699 
L 359.94658 151.5699 
L 360.1087 153.85302 
L 360.1646 153.85302 
L 360.276155 154.8315 
L 360.331869 154.8315 
L 360.504593 157.06026 
L 360.555671 157.06026 
L 360.722612 157.49514 
L 360.945888 154.6956 
L 361.113533 149.17806 
L 361.174215 149.17806 
L 361.341682 145.5903 
L 361.397487 145.5903 
L 361.559655 142.11126 
L 361.620791 142.11126 
L 361.782882 138.90402 
L 361.844029 138.90402 
L 362.067177 134.63676 
L 362.184486 134.4465 
L 362.569473 145.26414 
L 362.625284 145.26414 
L 362.794229 148.47138 
L 362.960138 148.36266 
L 363.234 144.85644 
L 363.295141 144.85644 
L 363.462535 143.36154 
L 363.518323 143.36154 
L 363.685704 143.06256 
L 363.741494 143.06256 
L 363.904539 144.01386 
L 363.96482 144.01386 
L 364.133855 144.42156 
L 364.189056 144.42156 
L 364.350165 144.74772 
L 364.522816 144.69336 
L 364.690309 144.25848 
L 364.857781 144.17694 
L 364.969357 144.12258 
L 365.080973 143.76924 
L 365.134123 143.79642 
L 365.192545 143.79642 
L 365.354675 143.57898 
L 365.527387 143.63334 
L 365.639031 143.71488 
L 365.75226 143.5518 
L 365.9739 144.0954 
L 366.1365 144.17694 
L 366.200057 144.17694 
L 366.364554 144.34002 
L 366.420342 144.34002 
L 366.532009 144.61182 
L 366.805716 143.9595 
L 366.978466 144.06822 
L 367.252447 144.85644 
L 367.313376 144.85644 
L 367.480685 144.39438 
L 367.648112 144.44874 
L 367.927204 144.9108 
L 368.206247 144.39438 
L 368.375057 144.5031 
L 368.485295 144.55746 
L 368.597 144.88362 
L 368.708705 144.74772 
L 368.875954 143.60616 
L 368.933171 143.60616 
L 369.156464 143.28 
L 369.322434 143.5518 
L 369.378283 143.5518 
L 369.545694 143.76924 
L 369.713142 143.71488 
L 369.880553 142.68204 
L 369.936358 142.68204 
L 370.103762 140.91534 
L 370.159612 140.91534 
L 370.326995 140.31738 
L 370.382872 140.31738 
L 370.438637 140.45328 
L 370.607359 141.67638 
L 370.661853 141.67638 
L 370.829302 142.43742 
L 370.996756 142.38306 
L 371.158931 141.97536 
L 371.219988 141.97536 
L 371.387415 141.62202 
L 371.443175 141.62202 
L 371.717083 139.01274 
L 371.783621 139.01274 
L 371.945466 139.7466 
L 372.001271 139.7466 
L 372.163408 140.31738 
L 372.33617 140.4261 
L 372.559446 140.77944 
L 372.833148 140.07276 
L 372.944747 140.18148 
L 373.11857 139.93686 
L 373.167974 139.93686 
L 373.341823 139.25736 
L 373.391227 139.25736 
L 373.565129 138.82248 
L 373.625085 138.82248 
L 373.731383 138.68658 
L 373.843076 138.98556 
L 374.06623 138.68658 
L 374.233613 137.5722 
L 374.345301 137.49066 
L 374.507498 138.1158 
L 374.619081 138.1158 
L 374.735965 137.21886 
L 375.015069 137.3004 
L 375.177093 139.36608 
L 375.349938 139.4748 
L 375.684759 138.03426 
L 375.735212 138.03426 
L 375.963779 137.1645 
L 376.131139 136.78398 
L 376.298594 136.78398 
L 376.466042 137.38194 
L 376.743037 137.7081 
L 376.800885 137.7081 
L 376.968327 137.4363 
L 377.024117 137.4363 
L 377.470529 134.41932 
L 377.74993 134.47368 
L 378.14032 135.3978 
L 378.308444 136.02294 
L 378.363519 136.02294 
L 378.642583 135.07164 
L 378.698366 135.07164 
L 378.810032 134.60958 
L 378.865887 134.74548 
L 379.083745 134.22906 
L 379.256485 134.0388 
L 379.312357 134.0388 
L 379.423978 133.84854 
L 379.641852 134.63676 
L 379.814614 134.74548 
L 379.926169 134.82702 
L 380.09105 134.33778 
L 380.194133 134.33778 
L 380.318685 133.52238 
L 380.428521 133.4952 
L 380.59592 133.65828 
L 380.652468 133.65828 
L 380.763375 133.87572 
L 381.265678 133.65828 
L 381.377226 133.87572 
L 381.879557 132.51672 
L 381.935294 132.59826 
L 382.046955 132.48954 
L 382.21441 132.24492 
L 382.493368 132.16338 
L 382.828244 133.9029 
L 382.99139 133.93008 
L 383.274724 131.78286 
L 383.439806 129.25512 
L 383.498028 129.25512 
L 383.665477 128.38536 
L 383.832838 129.1464 
L 383.883335 129.1464 
L 384.111891 130.01616 
L 384.279313 129.98898 
L 384.441442 130.6413 
L 384.508164 130.6413 
L 384.55596 130.83156 
L 384.614194 130.66848 
L 384.664646 130.66848 
L 385.06064 128.30382 
L 385.113929 128.65716 
L 385.17224 128.65716 
L 385.339733 130.28796 
L 385.395516 130.28796 
L 385.446064 130.0977 
L 385.842047 132.21774 
L 385.89774 132.21774 
L 386.400054 127.76022 
L 386.455882 127.76022 
L 386.679247 126.67302 
L 386.798 126.72738 
L 386.846656 126.72738 
L 387.125587 127.59714 
L 387.293054 129.93462 
L 387.349506 129.93462 
L 387.516269 128.1951 
L 387.678472 124.90632 
L 387.739735 124.90632 
L 387.904309 123.22116 
L 388.013208 123.11244 
L 388.297608 124.33554 
L 388.409329 124.36272 
L 388.8 126.72738 
L 388.8 126.72738 
" style="fill:none;stroke:#0000ff;stroke-linecap:square;stroke-width:1.5;"/>
   </g>
   <g id="patch_3">
    <path d="M 54 252 
L 54 34.56 
" style="fill:none;stroke:#000000;stroke-linecap:square;stroke-linejoin:miter;stroke-width:0.8;"/>
   </g>
   <g id="patch_4">
    <path d="M 388.8 252 
L 388.8 34.56 
" style="fill:none;stroke:#000000;stroke-linecap:square;stroke-linejoin:miter;stroke-width:0.8;"/>
   </g>
   <g id="patch_5">
    <path d="M 54 252 
L 388.8 252 
" style="fill:none;stroke:#000000;stroke-linecap:square;stroke-linejoin:miter;stroke-width:0.8;"/>
   </g>
   <g id="patch_6">
    <path d="M 54 34.56 
L 388.8 34.56 
" style="fill:none;stroke:#000000;stroke-linecap:square;stroke-linejoin:miter;stroke-width:0.8;"/>
   </g>
  </g>
  <g id="axes_2">
   <g id="matplotlib.axis_3">
    <g id="ytick_10">
     <g id="line2d_30">
      <defs>
       <path d="M 0 0 
L 3.5 0 
" id="mb28dda2b48" style="stroke:#000000;stroke-width:0.8;"/>
      </defs>
      <g>
       <use style="stroke:#000000;stroke-width:0.8;" x="388.8" xlink:href="#mb28dda2b48" y="252"/>
      </g>
     </g>
     <g id="text_17">
      <!-- 0 -->
      <g transform="translate(395.8 255.799219)scale(0.1 -0.1)">
       <use xlink:href="#DejaVuSans-48"/>
      </g>
     </g>
    </g>
    <g id="ytick_11">
     <g id="line2d_31">
      <g>
       <use style="stroke:#000000;stroke-width:0.8;" x="388.8" xlink:href="#mb28dda2b48" y="224.82"/>
      </g>
     </g>
     <g id="text_18">
      <!-- 10 -->
      <g transform="translate(395.8 228.619219)scale(0.1 -0.1)">
       <use xlink:href="#DejaVuSans-49"/>
       <use x="63.623047" xlink:href="#DejaVuSans-48"/>
      </g>
     </g>
    </g>
    <g id="ytick_12">
     <g id="line2d_32">
      <g>
       <use style="stroke:#000000;stroke-width:0.8;" x="388.8" xlink:href="#mb28dda2b48" y="197.64"/>
      </g>
     </g>
     <g id="text_19">
      <!-- 20 -->
      <g transform="translate(395.8 201.439219)scale(0.1 -0.1)">
       <use xlink:href="#DejaVuSans-50"/>
       <use x="63.623047" xlink:href="#DejaVuSans-48"/>
      </g>
     </g>
    </g>
    <g id="ytick_13">
     <g id="line2d_33">
      <g>
       <use style="stroke:#000000;stroke-width:0.8;" x="388.8" xlink:href="#mb28dda2b48" y="170.46"/>
      </g>
     </g>
     <g id="text_20">
      <!-- 30 -->
      <g transform="translate(395.8 174.259219)scale(0.1 -0.1)">
       <use xlink:href="#DejaVuSans-51"/>
       <use x="63.623047" xlink:href="#DejaVuSans-48"/>
      </g>
     </g>
    </g>
    <g id="ytick_14">
     <g id="line2d_34">
      <g>
       <use style="stroke:#000000;stroke-width:0.8;" x="388.8" xlink:href="#mb28dda2b48" y="143.28"/>
      </g>
     </g>
     <g id="text_21">
      <!-- 40 -->
      <g transform="translate(395.8 147.079219)scale(0.1 -0.1)">
       <use xlink:href="#DejaVuSans-52"/>
       <use x="63.623047" xlink:href="#DejaVuSans-48"/>
      </g>
     </g>
    </g>
    <g id="ytick_15">
     <g id="line2d_35">
      <g>
       <use style="stroke:#000000;stroke-width:0.8;" x="388.8" xlink:href="#mb28dda2b48" y="116.1"/>
      </g>
     </g>
     <g id="text_22">
      <!-- 50 -->
      <g transform="translate(395.8 119.899219)scale(0.1 -0.1)">
       <use xlink:href="#DejaVuSans-53"/>
       <use x="63.623047" xlink:href="#DejaVuSans-48"/>
      </g>
     </g>
    </g>
    <g id="ytick_16">
     <g id="line2d_36">
      <g>
       <use style="stroke:#000000;stroke-width:0.8;" x="388.8" xlink:href="#mb28dda2b48" y="88.92"/>
      </g>
     </g>
     <g id="text_23">
      <!-- 60 -->
      <g transform="translate(395.8 92.719219)scale(0.1 -0.1)">
       <defs>
        <path d="M 33.015625 40.375 
Q 26.375 40.375 22.484375 35.828125 
Q 18.609375 31.296875 18.609375 23.390625 
Q 18.609375 15.53125 22.484375 10.953125 
Q 26.375 6.390625 33.015625 6.390625 
Q 39.65625 6.390625 43.53125 10.953125 
Q 47.40625 15.53125 47.40625 23.390625 
Q 47.40625 31.296875 43.53125 35.828125 
Q 39.65625 40.375 33.015625 40.375 
z
M 52.59375 71.296875 
L 52.59375 62.3125 
Q 48.875 64.0625 45.09375 64.984375 
Q 41.3125 65.921875 37.59375 65.921875 
Q 27.828125 65.921875 22.671875 59.328125 
Q 17.53125 52.734375 16.796875 39.40625 
Q 19.671875 43.65625 24.015625 45.921875 
Q 28.375 48.1875 33.59375 48.1875 
Q 44.578125 48.1875 50.953125 41.515625 
Q 57.328125 34.859375 57.328125 23.390625 
Q 57.328125 12.15625 50.6875 5.359375 
Q 44.046875 -1.421875 33.015625 -1.421875 
Q 20.359375 -1.421875 13.671875 8.265625 
Q 6.984375 17.96875 6.984375 36.375 
Q 6.984375 53.65625 15.1875 63.9375 
Q 23.390625 74.21875 37.203125 74.21875 
Q 40.921875 74.21875 44.703125 73.484375 
Q 48.484375 72.75 52.59375 71.296875 
z
" id="DejaVuSans-54"/>
       </defs>
       <use xlink:href="#DejaVuSans-54"/>
       <use x="63.623047" xlink:href="#DejaVuSans-48"/>
      </g>
     </g>
    </g>
    <g id="ytick_17">
     <g id="line2d_37">
      <g>
       <use style="stroke:#000000;stroke-width:0.8;" x="388.8" xlink:href="#mb28dda2b48" y="61.74"/>
      </g>
     </g>
     <g id="text_24">
      <!-- 70 -->
      <g transform="translate(395.8 65.539219)scale(0.1 -0.1)">
       <use xlink:href="#DejaVuSans-55"/>
       <use x="63.623047" xlink:href="#DejaVuSans-48"/>
      </g>
     </g>
    </g>
    <g id="ytick_18">
     <g id="line2d_38">
      <g>
       <use style="stroke:#000000;stroke-width:0.8;" x="388.8" xlink:href="#mb28dda2b48" y="34.56"/>
      </g>
     </g>
     <g id="text_25">
      <!-- 80 -->
      <g transform="translate(395.8 38.359219)scale(0.1 -0.1)">
       <defs>
        <path d="M 31.78125 34.625 
Q 24.75 34.625 20.71875 30.859375 
Q 16.703125 27.09375 16.703125 20.515625 
Q 16.703125 13.921875 20.71875 10.15625 
Q 24.75 6.390625 31.78125 6.390625 
Q 38.8125 6.390625 42.859375 10.171875 
Q 46.921875 13.96875 46.921875 20.515625 
Q 46.921875 27.09375 42.890625 30.859375 
Q 38.875 34.625 31.78125 34.625 
z
M 21.921875 38.8125 
Q 15.578125 40.375 12.03125 44.71875 
Q 8.5 49.078125 8.5 55.328125 
Q 8.5 64.0625 14.71875 69.140625 
Q 20.953125 74.21875 31.78125 74.21875 
Q 42.671875 74.21875 48.875 69.140625 
Q 55.078125 64.0625 55.078125 55.328125 
Q 55.078125 49.078125 51.53125 44.71875 
Q 48 40.375 41.703125 38.8125 
Q 48.828125 37.15625 52.796875 32.3125 
Q 56.78125 27.484375 56.78125 20.515625 
Q 56.78125 9.90625 50.3125 4.234375 
Q 43.84375 -1.421875 31.78125 -1.421875 
Q 19.734375 -1.421875 13.25 4.234375 
Q 6.78125 9.90625 6.78125 20.515625 
Q 6.78125 27.484375 10.78125 32.3125 
Q 14.796875 37.15625 21.921875 38.8125 
z
M 18.3125 54.390625 
Q 18.3125 48.734375 21.84375 45.5625 
Q 25.390625 42.390625 31.78125 42.390625 
Q 38.140625 42.390625 41.71875 45.5625 
Q 45.3125 48.734375 45.3125 54.390625 
Q 45.3125 60.0625 41.71875 63.234375 
Q 38.140625 66.40625 31.78125 66.40625 
Q 25.390625 66.40625 21.84375 63.234375 
Q 18.3125 60.0625 18.3125 54.390625 
z
" id="DejaVuSans-56"/>
       </defs>
       <use xlink:href="#DejaVuSans-56"/>
       <use x="63.623047" xlink:href="#DejaVuSans-48"/>
      </g>
     </g>
    </g>
    <g id="text_26">
     <!-- Speed (MPH) -->
     <g transform="translate(420.123438 175.535469)rotate(-90)scale(0.1 -0.1)">
      <defs>
       <path d="M 53.515625 70.515625 
L 53.515625 60.890625 
Q 47.90625 63.578125 42.921875 64.890625 
Q 37.9375 66.21875 33.296875 66.21875 
Q 25.25 66.21875 20.875 63.09375 
Q 16.5 59.96875 16.5 54.203125 
Q 16.5 49.359375 19.40625 46.890625 
Q 22.3125 44.4375 30.421875 42.921875 
L 36.375 41.703125 
Q 47.40625 39.59375 52.65625 34.296875 
Q 57.90625 29 57.90625 20.125 
Q 57.90625 9.515625 50.796875 4.046875 
Q 43.703125 -1.421875 29.984375 -1.421875 
Q 24.8125 -1.421875 18.96875 -0.25 
Q 13.140625 0.921875 6.890625 3.21875 
L 6.890625 13.375 
Q 12.890625 10.015625 18.65625 8.296875 
Q 24.421875 6.59375 29.984375 6.59375 
Q 38.421875 6.59375 43.015625 9.90625 
Q 47.609375 13.234375 47.609375 19.390625 
Q 47.609375 24.75 44.3125 27.78125 
Q 41.015625 30.8125 33.5 32.328125 
L 27.484375 33.5 
Q 16.453125 35.6875 11.515625 40.375 
Q 6.59375 45.0625 6.59375 53.421875 
Q 6.59375 63.09375 13.40625 68.65625 
Q 20.21875 74.21875 32.171875 74.21875 
Q 37.3125 74.21875 42.625 73.28125 
Q 47.953125 72.359375 53.515625 70.515625 
z
" id="DejaVuSans-83"/>
       <path d="M 18.109375 8.203125 
L 18.109375 -20.796875 
L 9.078125 -20.796875 
L 9.078125 54.6875 
L 18.109375 54.6875 
L 18.109375 46.390625 
Q 20.953125 51.265625 25.265625 53.625 
Q 29.59375 56 35.59375 56 
Q 45.5625 56 51.78125 48.09375 
Q 58.015625 40.1875 58.015625 27.296875 
Q 58.015625 14.40625 51.78125 6.484375 
Q 45.5625 -1.421875 35.59375 -1.421875 
Q 29.59375 -1.421875 25.265625 0.953125 
Q 20.953125 3.328125 18.109375 8.203125 
z
M 48.6875 27.296875 
Q 48.6875 37.203125 44.609375 42.84375 
Q 40.53125 48.484375 33.40625 48.484375 
Q 26.265625 48.484375 22.1875 42.84375 
Q 18.109375 37.203125 18.109375 27.296875 
Q 18.109375 17.390625 22.1875 11.75 
Q 26.265625 6.109375 33.40625 6.109375 
Q 40.53125 6.109375 44.609375 11.75 
Q 48.6875 17.390625 48.6875 27.296875 
z
" id="DejaVuSans-112"/>
       <path d="M 45.40625 46.390625 
L 45.40625 75.984375 
L 54.390625 75.984375 
L 54.390625 0 
L 45.40625 0 
L 45.40625 8.203125 
Q 42.578125 3.328125 38.25 0.953125 
Q 33.9375 -1.421875 27.875 -1.421875 
Q 17.96875 -1.421875 11.734375 6.484375 
Q 5.515625 14.40625 5.515625 27.296875 
Q 5.515625 40.1875 11.734375 48.09375 
Q 17.96875 56 27.875 56 
Q 33.9375 56 38.25 53.625 
Q 42.578125 51.265625 45.40625 46.390625 
z
M 14.796875 27.296875 
Q 14.796875 17.390625 18.875 11.75 
Q 22.953125 6.109375 30.078125 6.109375 
Q 37.203125 6.109375 41.296875 11.75 
Q 45.40625 17.390625 45.40625 27.296875 
Q 45.40625 37.203125 41.296875 42.84375 
Q 37.203125 48.484375 30.078125 48.484375 
Q 22.953125 48.484375 18.875 42.84375 
Q 14.796875 37.203125 14.796875 27.296875 
z
" id="DejaVuSans-100"/>
       <path d="M 19.671875 64.796875 
L 19.671875 37.40625 
L 32.078125 37.40625 
Q 38.96875 37.40625 42.71875 40.96875 
Q 46.484375 44.53125 46.484375 51.125 
Q 46.484375 57.671875 42.71875 61.234375 
Q 38.96875 64.796875 32.078125 64.796875 
z
M 9.8125 72.90625 
L 32.078125 72.90625 
Q 44.34375 72.90625 50.609375 67.359375 
Q 56.890625 61.8125 56.890625 51.125 
Q 56.890625 40.328125 50.609375 34.8125 
Q 44.34375 29.296875 32.078125 29.296875 
L 19.671875 29.296875 
L 19.671875 0 
L 9.8125 0 
z
" id="DejaVuSans-80"/>
       <path d="M 9.8125 72.90625 
L 19.671875 72.90625 
L 19.671875 43.015625 
L 55.515625 43.015625 
L 55.515625 72.90625 
L 65.375 72.90625 
L 65.375 0 
L 55.515625 0 
L 55.515625 34.71875 
L 19.671875 34.71875 
L 19.671875 0 
L 9.8125 0 
z
" id="DejaVuSans-72"/>
      </defs>
      <use xlink:href="#DejaVuSans-83"/>
      <use x="63.476562" xlink:href="#DejaVuSans-112"/>
      <use x="126.953125" xlink:href="#DejaVuSans-101"/>
      <use x="188.476562" xlink:href="#DejaVuSans-101"/>
      <use x="250" xlink:href="#DejaVuSans-100"/>
      <use x="313.476562" xlink:href="#DejaVuSans-32"/>
      <use x="345.263672" xlink:href="#DejaVuSans-40"/>
      <use x="384.277344" xlink:href="#DejaVuSans-77"/>
      <use x="470.556641" xlink:href="#DejaVuSans-80"/>
      <use x="530.859375" xlink:href="#DejaVuSans-72"/>
      <use x="606.054688" xlink:href="#DejaVuSans-41"/>
     </g>
    </g>
   </g>
   <g id="line2d_39">
    <path clip-path="url(#p8978216e19)" d="M 54.173834 241.338901 
L 55.290044 241.36529 
L 58.086815 241.418068 
L 61.999941 241.431262 
L 64.78406 241.391679 
L 65.893795 241.404873 
L 68.690477 241.431262 
L 71.481138 241.444457 
L 72.597101 241.642373 
L 75.952036 241.325707 
L 79.294117 241.378485 
L 81.532775 241.114596 
L 83.197174 240.943068 
L 85.987506 240.91668 
L 87.661756 241.061818 
L 89.335999 241.589595 
L 90.461903 241.879873 
L 94.916672 243.45001 
L 99.939406 245.204869 
L 104.404024 246.484729 
L 109.436435 247.725005 
L 110.542828 247.698616 
L 111.10089 247.5007 
L 112.775145 246.33959 
L 113.333208 245.825007 
L 113.897444 245.468758 
L 114.44935 245.481952 
L 115.023515 245.627091 
L 115.565499 245.640285 
L 117.239732 245.363202 
L 117.814053 245.363202 
L 118.920417 245.666674 
L 120.029951 245.904174 
L 123.936485 246.867367 
L 132.865842 248.767365 
L 133.423955 252 
L 143.469605 252 
L 144.033946 247.685422 
L 144.585714 247.289589 
L 147.376178 244.320842 
L 149.050529 242.302095 
L 150.166727 241.444457 
L 151.840994 240.652791 
L 156.873443 238.884737 
L 159.096195 238.132655 
L 161.886594 237.393767 
L 164.677142 236.707657 
L 166.351408 236.245852 
L 183.094197 230.361136 
L 187.001473 229.463915 
L 189.233212 229.384749 
L 191.472573 230.334747 
L 192.581828 230.585442 
L 194.26302 230.941691 
L 198.736984 232.604189 
L 200.395232 233.606966 
L 203.186216 235.559741 
L 204.859723 235.995158 
L 207.108276 236.575712 
L 218.818175 238.779182 
L 219.940507 238.528488 
L 221.056839 238.581266 
L 221.608483 238.620849 
L 222.172965 238.502099 
L 223.847522 237.802794 
L 228.305338 236.918768 
L 229.986079 236.694462 
L 232.218313 236.311824 
L 235.561248 235.863213 
L 237.798997 235.770852 
L 238.357132 235.902797 
L 238.908888 236.219463 
L 239.467002 236.839601 
L 241.145309 237.090295 
L 241.699214 237.169462 
L 243.379815 237.763211 
L 245.602477 238.079877 
L 249.50895 238.911126 
L 252.866933 239.333348 
L 254.544208 240.032653 
L 256.205828 241.220151 
L 257.335577 242.025012 
L 257.889873 242.328483 
L 260.121849 242.64515 
L 261.231513 242.473622 
L 262.91203 242.130567 
L 265.134966 241.299318 
L 266.251059 240.890291 
L 267.925699 239.99307 
L 269.041312 239.478487 
L 275.180137 236.39099 
L 276.860843 235.718075 
L 277.412489 235.863213 
L 277.970573 236.298629 
L 278.528681 235.836824 
L 279.086671 234.570159 
L 280.202818 232.788911 
L 280.767377 232.261134 
L 281.325362 232.036829 
L 282.44165 231.904885 
L 282.993244 231.746551 
L 283.551347 231.918079 
L 284.66769 232.12919 
L 285.23553 231.944468 
L 285.784027 231.337524 
L 286.344903 231.126413 
L 288.025549 229.965303 
L 289.132053 229.384749 
L 291.928751 228.606277 
L 292.486781 228.619472 
L 293.044971 228.777805 
L 293.61264 228.698638 
L 294.161103 228.210444 
L 295.277201 225.822253 
L 295.835358 225.083365 
L 296.951406 224.713921 
L 297.509553 224.159755 
L 299.19343 221.652813 
L 300.299839 220.135454 
L 300.861228 219.660454 
L 303.093613 218.552122 
L 305.880679 218.868789 
L 306.438814 218.538928 
L 308.112975 218.169484 
L 309.787119 217.91879 
L 310.903383 218.697261 
L 311.461268 218.881983 
L 312.019437 218.776428 
L 312.570959 218.288234 
L 313.135389 216.99518 
L 313.693625 216.111153 
L 314.245231 215.886848 
L 314.809622 215.820875 
L 315.367736 215.306293 
L 317.599887 211.743797 
L 319.277251 209.474355 
L 320.390435 207.706302 
L 320.948508 207.059775 
L 322.064718 206.531997 
L 323.738801 206.096581 
L 324.306687 205.859082 
L 325.417304 205.713943 
L 325.971225 205.740332 
L 326.529338 206.096581 
L 327.093719 206.663942 
L 328.203543 206.175748 
L 329.319708 206.00422 
L 330.435856 205.991026 
L 332.679275 205.687554 
L 333.222693 205.727137 
L 333.784043 205.568804 
L 334.33888 205.727137 
L 335.468528 205.608387 
L 336.57117 205.779915 
L 337.137265 206.149359 
L 337.687324 206.00422 
L 338.803595 203.9195 
L 339.361501 203.312557 
L 339.927779 203.101446 
L 344.942268 197.69173 
L 346.624863 195.593816 
L 349.416387 192.004931 
L 351.09057 189.788267 
L 352.206757 188.613963 
L 352.755371 188.917435 
L 353.313501 189.497989 
L 353.871519 190.817432 
L 354.997384 190.395211 
L 356.10387 190.395211 
L 356.661827 190.606322 
L 357.792247 190.830627 
L 358.902903 191.173682 
L 359.452254 191.807015 
L 360.010389 191.79382 
L 360.578084 191.938959 
L 361.126302 192.888958 
L 361.684415 193.469513 
L 362.242461 192.981319 
L 362.806982 191.91257 
L 363.364949 192.176459 
L 367.826768 191.965348 
L 368.948531 192.123681 
L 370.059174 191.767431 
L 370.617271 191.239654 
L 374.526675 189.102157 
L 375.081974 188.745907 
L 377.326577 188.178547 
L 378.430575 187.347298 
L 378.98862 187.149381 
L 380.110444 186.582021 
L 381.784717 186.120216 
L 382.907233 185.711188 
L 383.453403 185.632022 
L 384.569611 184.338968 
L 386.249454 184.127857 
L 386.8075 183.797996 
L 387.918173 182.887581 
L 388.484897 182.043137 
L 388.484897 182.043137 
" style="fill:none;stroke:#ff0000;stroke-linecap:square;stroke-opacity:0.6;stroke-width:1.5;"/>
   </g>
   <g id="patch_7">
    <path d="M 54 252 
L 54 34.56 
" style="fill:none;stroke:#000000;stroke-linecap:square;stroke-linejoin:miter;stroke-width:0.8;"/>
   </g>
   <g id="patch_8">
    <path d="M 388.8 252 
L 388.8 34.56 
" style="fill:none;stroke:#000000;stroke-linecap:square;stroke-linejoin:miter;stroke-width:0.8;"/>
   </g>
   <g id="patch_9">
    <path d="M 54 252 
L 388.8 252 
" style="fill:none;stroke:#000000;stroke-linecap:square;stroke-linejoin:miter;stroke-width:0.8;"/>
   </g>
   <g id="patch_10">
    <path d="M 54 34.56 
L 388.8 34.56 
" style="fill:none;stroke:#000000;stroke-linecap:square;stroke-linejoin:miter;stroke-width:0.8;"/>
   </g>
   <g id="text_27">
    <!-- Vehicle and Engine Speed -->
    <g transform="translate(143.5575 28.56)scale(0.12 -0.12)">
     <defs>
      <path d="M 28.609375 0 
L 0.78125 72.90625 
L 11.078125 72.90625 
L 34.1875 11.53125 
L 57.328125 72.90625 
L 67.578125 72.90625 
L 39.796875 0 
z
" id="DejaVuSans-86"/>
      <path d="M 54.890625 33.015625 
L 54.890625 0 
L 45.90625 0 
L 45.90625 32.71875 
Q 45.90625 40.484375 42.875 44.328125 
Q 39.84375 48.1875 33.796875 48.1875 
Q 26.515625 48.1875 22.3125 43.546875 
Q 18.109375 38.921875 18.109375 30.90625 
L 18.109375 0 
L 9.078125 0 
L 9.078125 75.984375 
L 18.109375 75.984375 
L 18.109375 46.1875 
Q 21.34375 51.125 25.703125 53.5625 
Q 30.078125 56 35.796875 56 
Q 45.21875 56 50.046875 50.171875 
Q 54.890625 44.34375 54.890625 33.015625 
z
" id="DejaVuSans-104"/>
      <path d="M 9.421875 75.984375 
L 18.40625 75.984375 
L 18.40625 0 
L 9.421875 0 
z
" id="DejaVuSans-108"/>
      <path d="M 34.28125 27.484375 
Q 23.390625 27.484375 19.1875 25 
Q 14.984375 22.515625 14.984375 16.5 
Q 14.984375 11.71875 18.140625 8.90625 
Q 21.296875 6.109375 26.703125 6.109375 
Q 34.1875 6.109375 38.703125 11.40625 
Q 43.21875 16.703125 43.21875 25.484375 
L 43.21875 27.484375 
z
M 52.203125 31.203125 
L 52.203125 0 
L 43.21875 0 
L 43.21875 8.296875 
Q 40.140625 3.328125 35.546875 0.953125 
Q 30.953125 -1.421875 24.3125 -1.421875 
Q 15.921875 -1.421875 10.953125 3.296875 
Q 6 8.015625 6 15.921875 
Q 6 25.140625 12.171875 29.828125 
Q 18.359375 34.515625 30.609375 34.515625 
L 43.21875 34.515625 
L 43.21875 35.40625 
Q 43.21875 41.609375 39.140625 45 
Q 35.0625 48.390625 27.6875 48.390625 
Q 23 48.390625 18.546875 47.265625 
Q 14.109375 46.140625 10.015625 43.890625 
L 10.015625 52.203125 
Q 14.9375 54.109375 19.578125 55.046875 
Q 24.21875 56 28.609375 56 
Q 40.484375 56 46.34375 49.84375 
Q 52.203125 43.703125 52.203125 31.203125 
z
" id="DejaVuSans-97"/>
      <path d="M 9.8125 72.90625 
L 55.90625 72.90625 
L 55.90625 64.59375 
L 19.671875 64.59375 
L 19.671875 43.015625 
L 54.390625 43.015625 
L 54.390625 34.71875 
L 19.671875 34.71875 
L 19.671875 8.296875 
L 56.78125 8.296875 
L 56.78125 0 
L 9.8125 0 
z
" id="DejaVuSans-69"/>
      <path d="M 45.40625 27.984375 
Q 45.40625 37.75 41.375 43.109375 
Q 37.359375 48.484375 30.078125 48.484375 
Q 22.859375 48.484375 18.828125 43.109375 
Q 14.796875 37.75 14.796875 27.984375 
Q 14.796875 18.265625 18.828125 12.890625 
Q 22.859375 7.515625 30.078125 7.515625 
Q 37.359375 7.515625 41.375 12.890625 
Q 45.40625 18.265625 45.40625 27.984375 
z
M 54.390625 6.78125 
Q 54.390625 -7.171875 48.1875 -13.984375 
Q 42 -20.796875 29.203125 -20.796875 
Q 24.46875 -20.796875 20.265625 -20.09375 
Q 16.0625 -19.390625 12.109375 -17.921875 
L 12.109375 -9.1875 
Q 16.0625 -11.328125 19.921875 -12.34375 
Q 23.78125 -13.375 27.78125 -13.375 
Q 36.625 -13.375 41.015625 -8.765625 
Q 45.40625 -4.15625 45.40625 5.171875 
L 45.40625 9.625 
Q 42.625 4.78125 38.28125 2.390625 
Q 33.9375 0 27.875 0 
Q 17.828125 0 11.671875 7.65625 
Q 5.515625 15.328125 5.515625 27.984375 
Q 5.515625 40.671875 11.671875 48.328125 
Q 17.828125 56 27.875 56 
Q 33.9375 56 38.28125 53.609375 
Q 42.625 51.21875 45.40625 46.390625 
L 45.40625 54.6875 
L 54.390625 54.6875 
z
" id="DejaVuSans-103"/>
     </defs>
     <use xlink:href="#DejaVuSans-86"/>
     <use x="60.658203" xlink:href="#DejaVuSans-101"/>
     <use x="122.181641" xlink:href="#DejaVuSans-104"/>
     <use x="185.560547" xlink:href="#DejaVuSans-105"/>
     <use x="213.34375" xlink:href="#DejaVuSans-99"/>
     <use x="268.324219" xlink:href="#DejaVuSans-108"/>
     <use x="296.107422" xlink:href="#DejaVuSans-101"/>
     <use x="357.630859" xlink:href="#DejaVuSans-32"/>
     <use x="389.417969" xlink:href="#DejaVuSans-97"/>
     <use x="450.697266" xlink:href="#DejaVuSans-110"/>
     <use x="514.076172" xlink:href="#DejaVuSans-100"/>
     <use x="577.552734" xlink:href="#DejaVuSans-32"/>
     <use x="609.339844" xlink:href="#DejaVuSans-69"/>
     <use x="672.523438" xlink:href="#DejaVuSans-110"/>
     <use x="735.902344" xlink:href="#DejaVuSans-103"/>
     <use x="799.378906" xlink:href="#DejaVuSans-105"/>
     <use x="827.162109" xlink:href="#DejaVuSans-110"/>
     <use x="890.541016" xlink:href="#DejaVuSans-101"/>
     <use x="952.064453" xlink:href="#DejaVuSans-32"/>
     <use x="983.851562" xlink:href="#DejaVuSans-83"/>
     <use x="1047.328125" xlink:href="#DejaVuSans-112"/>
     <use x="1110.804688" xlink:href="#DejaVuSans-101"/>
     <use x="1172.328125" xlink:href="#DejaVuSans-101"/>
     <use x="1233.851562" xlink:href="#DejaVuSans-100"/>
    </g>
   </g>
   <g id="legend_1">
    <g id="patch_11">
     <path d="M 246.346875 71.91625 
L 381.8 71.91625 
Q 383.8 71.91625 383.8 69.91625 
L 383.8 41.56 
Q 383.8 39.56 381.8 39.56 
L 246.346875 39.56 
Q 244.346875 39.56 244.346875 41.56 
L 244.346875 69.91625 
Q 244.346875 71.91625 246.346875 71.91625 
z
" style="fill:#ffffff;opacity:0.8;stroke:#cccccc;stroke-linejoin:miter;"/>
    </g>
    <g id="line2d_40">
     <path d="M 248.346875 47.658437 
L 268.346875 47.658437 
" style="fill:none;stroke:#0000ff;stroke-linecap:square;stroke-width:1.5;"/>
    </g>
    <g id="line2d_41"/>
    <g id="text_28">
     <!-- Engine Speed (RPM) -->
     <g transform="translate(276.346875 51.158437)scale(0.1 -0.1)">
      <use xlink:href="#DejaVuSans-69"/>
      <use x="63.183594" xlink:href="#DejaVuSans-110"/>
      <use x="126.5625" xlink:href="#DejaVuSans-103"/>
      <use x="190.039062" xlink:href="#DejaVuSans-105"/>
      <use x="217.822266" xlink:href="#DejaVuSans-110"/>
      <use x="281.201172" xlink:href="#DejaVuSans-101"/>
      <use x="342.724609" xlink:href="#DejaVuSans-32"/>
      <use x="374.511719" xlink:href="#DejaVuSans-83"/>
      <use x="437.988281" xlink:href="#DejaVuSans-112"/>
      <use x="501.464844" xlink:href="#DejaVuSans-101"/>
      <use x="562.988281" xlink:href="#DejaVuSans-101"/>
      <use x="624.511719" xlink:href="#DejaVuSans-100"/>
      <use x="687.988281" xlink:href="#DejaVuSans-32"/>
      <use x="719.775391" xlink:href="#DejaVuSans-40"/>
      <use x="758.789062" xlink:href="#DejaVuSans-82"/>
      <use x="828.271484" xlink:href="#DejaVuSans-80"/>
      <use x="888.574219" xlink:href="#DejaVuSans-77"/>
      <use x="974.853516" xlink:href="#DejaVuSans-41"/>
     </g>
    </g>
    <g id="line2d_42">
     <path d="M 248.346875 62.336562 
L 268.346875 62.336562 
" style="fill:none;stroke:#ff0000;stroke-linecap:square;stroke-opacity:0.6;stroke-width:1.5;"/>
    </g>
    <g id="line2d_43"/>
    <g id="text_29">
     <!-- Vehicle Speed (MPH) -->
     <g transform="translate(276.346875 65.836562)scale(0.1 -0.1)">
      <use xlink:href="#DejaVuSans-86"/>
      <use x="60.658203" xlink:href="#DejaVuSans-101"/>
      <use x="122.181641" xlink:href="#DejaVuSans-104"/>
      <use x="185.560547" xlink:href="#DejaVuSans-105"/>
      <use x="213.34375" xlink:href="#DejaVuSans-99"/>
      <use x="268.324219" xlink:href="#DejaVuSans-108"/>
      <use x="296.107422" xlink:href="#DejaVuSans-101"/>
      <use x="357.630859" xlink:href="#DejaVuSans-32"/>
      <use x="389.417969" xlink:href="#DejaVuSans-83"/>
      <use x="452.894531" xlink:href="#DejaVuSans-112"/>
      <use x="516.371094" xlink:href="#DejaVuSans-101"/>
      <use x="577.894531" xlink:href="#DejaVuSans-101"/>
      <use x="639.417969" xlink:href="#DejaVuSans-100"/>
      <use x="702.894531" xlink:href="#DejaVuSans-32"/>
      <use x="734.681641" xlink:href="#DejaVuSans-40"/>
      <use x="773.695312" xlink:href="#DejaVuSans-77"/>
      <use x="859.974609" xlink:href="#DejaVuSans-80"/>
      <use x="920.277344" xlink:href="#DejaVuSans-72"/>
      <use x="995.472656" xlink:href="#DejaVuSans-41"/>
     </g>
    </g>
   </g>
  </g>
 </g>
 <defs>
  <clipPath id="p8978216e19">
   <rect height="217.44" width="334.8" x="54" y="34.56"/>
  </clipPath>
 </defs>
</svg>
