<svg xmlns="http://www.w3.org/2000/svg" xmlns:xlink="http://www.w3.org/1999/xlink" xmlns:lucid="lucid" width="1291" height="2012.5"><g transform="translate(-469 -240)" lucid:page-tab-id="0_0"><path d="M927.98 260c17.67 0 32 13.43 32 30s-14.33 30-32 30h-96c-17.67 0-32-13.43-32-30s14.33-30 32-30z" stroke="#5e5e5e" stroke-width="3" fill="#fff"/><use xlink:href="#a" transform="matrix(1,0,0,1,804.9807459494195,265) translate(51.574074074074076 30.52777777777778)"/><path d="M781.37 405.8c.85-3.2 4.23-5.8 7.54-5.8H995.6c3.3 0 5.3 2.6 4.45 5.8l-18.24 68.4c-.86 3.2-4.24 5.8-7.55 5.8H767.58c-3.3 0-5.3-2.6-4.46-5.8z" stroke="#5e5e5e" stroke-width="3" fill="#fff"/><use xlink:href="#b" transform="matrix(1,0,0,1,766.5788321476034,405) translate(13.924753086419779 39.65277777777778)"/><use xlink:href="#c" transform="matrix(1,0,0,1,766.5788321476034,405) translate(71.94944444444447 39.65277777777778)"/><use xlink:href="#d" transform="matrix(1,0,0,1,766.5788321476034,405) translate(159.54203703703703 39.65277777777778)"/><path d="M879.98 322.5V380" stroke="#5e5e5e" stroke-width="2" fill="none"/><path d="M880.98 322.53h-2v-1.03h2z" fill="#5e5e5e"/><path d="M879.98 395.26L875.35 381h9.27z" stroke="#5e5e5e" stroke-width="2" fill="#5e5e5e"/><path d="M878.5 523.75c2.58-2.07 6.77-2.07 9.36 0l90.63 72.5c2.58 2.07 2.58 5.43 0 7.5l-90.64 72.5c-2.6 2.07-6.78 2.07-9.37 0l-90.64-72.5c-2.6-2.07-2.6-5.43 0-7.5z" stroke="#5e5e5e" stroke-width="3" fill="#fff"/><use xlink:href="#e" transform="matrix(1,0,0,1,788.1769183457874,525) translate(46.88771604938272 64.65277777777777)"/><use xlink:href="#f" transform="matrix(1,0,0,1,788.1769183457874,525) translate(90.0975925925926 64.65277777777777)"/><use xlink:href="#g" transform="matrix(1,0,0,1,788.1769183457874,525) translate(52.474135802469135 91.31944444444446)"/><path d="M878.16 724.8c2.77-1.82 7.26-1.82 10.03 0l111.55 73.4c2.77 1.82 2.77 4.78 0 6.6L888.2 878.2c-2.78 1.82-7.27 1.82-10.04 0L766.6 804.8c-2.77-1.82-2.77-4.78 0-6.6z" stroke="#5e5e5e" stroke-width="3" fill="#fff"/><use xlink:href="#h" transform="matrix(1,0,0,1,766.5884591728937,726.5) translate(78.97413580246914 50.59027777777778)"/><use xlink:href="#i" transform="matrix(1,0,0,1,766.5884591728937,726.5) translate(134.3445061728395 50.59027777777778)"/><use xlink:href="#j" transform="matrix(1,0,0,1,766.5884591728937,726.5) translate(26.566728395061713 77.25694444444446)"/><use xlink:href="#k" transform="matrix(1,0,0,1,766.5884591728937,726.5) translate(122.8012962962963 77.25694444444446)"/><use xlink:href="#l" transform="matrix(1,0,0,1,766.5884591728937,726.5) translate(65.91858024691356 103.92361111111111)"/><path d="M877.97 925.98c2.87-1.65 7.54-1.65 10.42 0l129.57 74.04c2.87 1.65 2.87 4.3 0 5.96l-129.58 74.04c-2.9 1.65-7.56 1.65-10.43 0l-129.58-74.04c-2.9-1.65-2.9-4.3 0-5.96z" stroke="#5e5e5e" stroke-width="3" fill="#fff"/><use xlink:href="#m" transform="matrix(1,0,0,1,748.1769183457875,928) translate(88.77043209876545 50.59027777777777)"/><use xlink:href="#n" transform="matrix(1,0,0,1,748.1769183457875,928) translate(34.48030864197533 77.25694444444444)"/><use xlink:href="#o" transform="matrix(1,0,0,1,748.1769183457875,928) translate(154.10993827160493 77.25694444444444)"/><use xlink:href="#p" transform="matrix(1,0,0,1,748.1769183457875,928) translate(100.56055555555557 103.9236111111111)"/><path d="M878.16 1143.3c2.77-1.82 7.26-1.82 10.03 0l111.55 73.4c2.77 1.82 2.77 4.78 0 6.6l-111.56 73.4c-2.78 1.82-7.27 1.82-10.04 0l-111.56-73.4c-2.77-1.82-2.77-4.78 0-6.6z" stroke="#5e5e5e" stroke-width="3" fill="#fff"/><use xlink:href="#q" transform="matrix(1,0,0,1,766.5884591728939,1145) translate(57.060555555555545 51.78777777777778)"/><use xlink:href="#r" transform="matrix(1,0,0,1,766.5884591728939,1145) translate(36.96796296296297 78.45444444444445)"/><use xlink:href="#s" transform="matrix(1,0,0,1,766.5884591728939,1145) translate(107.21487654320987 78.45444444444445)"/><use xlink:href="#t" transform="matrix(1,0,0,1,766.5884591728939,1145) translate(152.83216049382716 78.45444444444445)"/><use xlink:href="#u" transform="matrix(1,0,0,1,766.5884591728939,1145) translate(86.31981481481482 105.1211111111111)"/><path d="M781.6 1406.75c0-3.3 2.67-6 6-6h191.17c3.3 0 6 2.7 6 6V1474c0 3.3-2.7 6-6 6H787.6c-3.33 0-6-2.7-6-6z" stroke="#5e5e5e" stroke-width="3" fill="#fff"/><use xlink:href="#v" transform="matrix(1,0,0,1,786.5884591717266,1405.75) translate(40.91975308641975 26.52777777777778)"/><use xlink:href="#w" transform="matrix(1,0,0,1,786.5884591717266,1405.75) translate(108.75925925925927 26.52777777777778)"/><use xlink:href="#x" transform="matrix(1,0,0,1,786.5884591717266,1405.75) translate(56.29012345679013 53.19444444444445)"/><path d="M878.2 1522.6c2.75-1.86 7.2-1.86 9.96 0l110.03 73.7c2.75 1.83 2.75 4.82 0 6.66l-110.04 73.7c-2.75 1.85-7.2 1.85-9.97 0l-110.04-73.7c-2.75-1.84-2.75-4.83 0-6.67z" stroke="#5e5e5e" stroke-width="3" fill="#fff"/><use xlink:href="#y" transform="matrix(1,0,0,1,768.1769183457875,1524.25) translate(49.04820987654322 64.96527777777777)"/><use xlink:href="#z" transform="matrix(1,0,0,1,768.1769183457875,1524.25) translate(99.54203703703705 64.96527777777777)"/><use xlink:href="#A" transform="matrix(1,0,0,1,768.1769183457875,1524.25) translate(64.07907407407407 91.63194444444446)"/><path d="M784.55 1765.8c.86-3.2 4.24-5.8 7.55-5.8h206.67c3.3 0 5.3 2.6 4.45 5.8l-18.24 68.4c-.86 3.2-4.23 5.8-7.55 5.8H770.77c-3.32 0-5.3-2.6-4.46-5.8z" stroke="#5e5e5e" stroke-width="3" fill="#fff"/><use xlink:href="#b" transform="matrix(1,0,0,1,769.7653775186811,1765) translate(22.363024691358028 26.52777777777778)"/><use xlink:href="#B" transform="matrix(1,0,0,1,769.7653775186811,1765) translate(80.38771604938272 26.52777777777778)"/><use xlink:href="#C" transform="matrix(1,0,0,1,769.7653775186811,1765) translate(158.10376543209875 26.52777777777778)"/><use xlink:href="#x" transform="matrix(1,0,0,1,769.7653775186811,1765) translate(70.79512345679014 53.19444444444445)"/><path d="M881.3 1923.33c2.75-1.84 7.22-1.84 9.98 0l110 73.34c2.77 1.84 2.77 4.82 0 6.66l-110 73.34c-2.76 1.84-7.23 1.84-10 0l-110-73.34c-2.76-1.84-2.76-4.82 0-6.66z" stroke="#5e5e5e" stroke-width="3" fill="#fff"/><use xlink:href="#D" transform="matrix(1,0,0,1,771.2832130222395,1925) translate(24.974135802469146 74.02777777777777)"/><use xlink:href="#z" transform="matrix(1,0,0,1,771.2832130222395,1925) translate(123.61611111111112 74.02777777777777)"/><use xlink:href="#E" transform="matrix(1,0,0,1,771.2832130222395,1925) translate(67.505 100.69444444444446)"/><path d="M783.9 2146c0-3.3 2.7-6 6-6h192.77c3.3 0 6 2.7 6 6v68c0 3.3-2.7 6-6 6H789.9c-3.3 0-6-2.7-6-6z" stroke="#5e5e5e" stroke-width="3" fill="#fff"/><use xlink:href="#F" transform="matrix(1,0,0,1,788.9005242634823,2145) translate(24.166666666666686 26.52777777777778)"/><use xlink:href="#G" transform="matrix(1,0,0,1,788.9005242634823,2145) translate(114.16666666666667 26.52777777777778)"/><use xlink:href="#H" transform="matrix(1,0,0,1,788.9005242634823,2145) translate(33.95061728395063 53.19444444444445)"/><use xlink:href="#I" transform="matrix(1,0,0,1,788.9005242634823,2145) translate(108.02469135802468 53.19444444444445)"/><path d="M520 649c0-3.3 2.7-6 6-6h188c3.3 0 6 2.7 6 6v66.5c0 3.3-2.7 6-6 6H526c-3.3 0-6-2.7-6-6z" stroke="#5e5e5e" stroke-width="3" fill="#fff"/><use xlink:href="#F" transform="matrix(1,0,0,1,525,648) translate(21.666666666666686 26.40277777777778)"/><use xlink:href="#G" transform="matrix(1,0,0,1,525,648) translate(111.66666666666667 26.40277777777778)"/><use xlink:href="#H" transform="matrix(1,0,0,1,525,648) translate(31.450617283950628 53.06944444444445)"/><use xlink:href="#I" transform="matrix(1,0,0,1,525,648) translate(105.52469135802468 53.06944444444445)"/><path d="M1260 649c0-3.3 2.7-6 6-6h188c3.3 0 6 2.7 6 6v105c0 3.3-2.7 6-6 6h-188c-3.3 0-6-2.7-6-6z" stroke="#5e5e5e" stroke-width="3" fill="#fff"/><path d="M1280 643v117m160-117v117" stroke="#5e5e5e" stroke-width="3" fill="none"/><use xlink:href="#J" transform="matrix(1,0,0,1,1290,648) translate(7.808641975308646 44.611111111111114)"/><use xlink:href="#K" transform="matrix(1,0,0,1,1290,648) translate(85.3395061728395 44.611111111111114)"/><use xlink:href="#L" transform="matrix(1,0,0,1,1290,648) translate(39.84567901234568 71.27777777777777)"/><path d="M1355 803.33c2.76-1.84 7.24-1.84 10 0l110 73.34c2.76 1.84 2.76 4.82 0 6.66l-110 73.34c-2.76 1.84-7.24 1.84-10 0l-110-73.34c-2.76-1.84-2.76-4.82 0-6.66z" stroke="#5e5e5e" stroke-width="3" fill="#fff"/><use xlink:href="#D" transform="matrix(1,0,0,1,1245,805) translate(24.974135802469146 74.02777777777777)"/><use xlink:href="#z" transform="matrix(1,0,0,1,1245,805) translate(123.61611111111112 74.02777777777777)"/><use xlink:href="#E" transform="matrix(1,0,0,1,1245,805) translate(67.505 100.69444444444446)"/><path d="M1354.58 1023.3c2.76-1.82 7.25-1.82 10.02 0l111.56 73.4c2.77 1.82 2.77 4.78 0 6.6l-111.56 73.4c-2.77 1.82-7.26 1.82-10.02 0L1243 1103.3c-2.76-1.82-2.76-4.78 0-6.6z" stroke="#5e5e5e" stroke-width="3" fill="#fff"/><use xlink:href="#M" transform="matrix(1,0,0,1,1243,1025) translate(70.27043209876544 50.59027777777778)"/><use xlink:href="#N" transform="matrix(1,0,0,1,1243,1025) translate(19.066728395061727 77.25694444444446)"/><use xlink:href="#z" transform="matrix(1,0,0,1,1243,1025) translate(132.52351851851853 77.25694444444446)"/><use xlink:href="#O" transform="matrix(1,0,0,1,1243,1025) translate(82.06055555555557 103.92361111111111)"/><path d="M1354.6 1244.08c2.75-1.84 7.22-1.84 9.98 0l110.02 73.34c2.75 1.84 2.75 4.82 0 6.66l-110.02 73.34c-2.76 1.84-7.23 1.84-9.98 0l-110.02-73.34c-2.76-1.84-2.76-4.82 0-6.66z" stroke="#5e5e5e" stroke-width="3" fill="#fff"/><use xlink:href="#q" transform="matrix(1,0,0,1,1244.5884591728936,1245.75) translate(55.560555555555545 51.78777777777778)"/><use xlink:href="#r" transform="matrix(1,0,0,1,1244.5884591728936,1245.75) translate(35.46796296296297 78.45444444444445)"/><use xlink:href="#s" transform="matrix(1,0,0,1,1244.5884591728936,1245.75) translate(105.71487654320987 78.45444444444445)"/><use xlink:href="#t" transform="matrix(1,0,0,1,1244.5884591728936,1245.75) translate(151.33216049382716 78.45444444444445)"/><use xlink:href="#u" transform="matrix(1,0,0,1,1244.5884591728936,1245.75) translate(84.81981481481482 105.1211111111111)"/><path d="M1519.4 705.8c.84-3.2 4.22-5.8 7.53-5.8H1734c3.3 0 5.3 2.6 4.45 5.8l-17.84 66.9c-.84 3.2-4.22 5.8-7.53 5.8H1506c-3.3 0-5.3-2.6-4.45-5.8z" stroke="#5e5e5e" stroke-width="3" fill="#fff"/><use xlink:href="#b" transform="matrix(1,0,0,1,1505,705) translate(13.924753086419779 39.34027777777778)"/><use xlink:href="#c" transform="matrix(1,0,0,1,1505,705) translate(71.94944444444447 39.34027777777778)"/><use xlink:href="#d" transform="matrix(1,0,0,1,1505,705) translate(159.54203703703703 39.34027777777778)"/><path d="M883.18 482.5v19.76" stroke="#5e5e5e" stroke-width="2" fill="none"/><path d="M884.18 482.53h-2v-1.03h2z" fill="#5e5e5e"/><path d="M883.18 517.52l-4.64-14.26h9.27z" stroke="#5e5e5e" stroke-width="2" fill="#5e5e5e"/><path d="M884.18 703.5h-2v-.57h2zm0-21.9h-2v-1.36h2z" fill="#5e5e5e"/><path d="M884.06 679.28l.12-.03v1.02h-2v-1.07zM883.18 718.75l-4.64-14.26h9.27z" fill="#5e5e5e"/><path d="M883.18 722l-6-18.5h12zm-3.26-16.5l3.26 10.02 3.26-10.03z" fill="#5e5e5e"/><use xlink:href="#P" transform="matrix(1,0,0,1,871.374449209985,681.5920413545872) translate(0 14.222222222222223)"/><path d="M1337.2 599.92l2.54 2.53.92 3.42V623h-2v-16.87l-.7-2.64-1.8-1.8-2.63-.7h-296.1v-2h296.36zM982.9 601v-2h23.92v2z" fill="#5e5e5e"/><path d="M982.92 601h-1.16l.2-.63-.25-1.37h1.22zM1339.66 638.26l-4.63-14.26h9.27z" fill="#5e5e5e"/><path d="M1339.66 641.5l-6-18.5h12zm-3.26-16.5l3.26 10.03 3.26-10.03z" fill="#5e5e5e"/><use xlink:href="#Q" transform="matrix(1,0,0,1,1006.8172749449615,589.3333333333334) translate(0 14.222222222222223)"/><path d="M621 795.37l.7 2.64 1.8 1.8 2.63.7h81.23v2h-81.5l-3.4-.92-2.54-2.53-.92-3.42V741.5h2zm141.2 5.13v2h-24.22v-2z" fill="#5e5e5e"/><path d="M763.3 802.5h-1.13v-2h.9zM624.64 740.5h-9.28l4.64-14.26z" fill="#5e5e5e"/><path d="M626 741.5h-12l6-18.5zm-9.26-2h6.52L620 729.47z" fill="#5e5e5e"/><use xlink:href="#Q" transform="matrix(1,0,0,1,707.3648322548916,790.8333333333334) translate(0 14.222222222222223)"/><path d="M884.18 883.85h-2V882h2z" fill="#5e5e5e"/><path d="M883.9 881.06l.28-.05v1.03h-2v-1.1zM883.18 920l-4.64-14.26h9.27z" fill="#5e5e5e"/><path d="M883.18 923.24l-5.87-18.05h11.74zm-3.26-16.5l3.26 10.03 3.26-10.03z" fill="#5e5e5e"/><use xlink:href="#P" transform="matrix(1,0,0,1,871.3744492099851,883.851837191529) translate(0 14.222222222222223)"/><path d="M1038.6 1004h-16.22v-2h16.22zm38.95-494.08l2.53 2.53.92 3.42v79.98l-2.18.35-2 1.46-.8 2.42.18 1.1 1.46 2 3.34 1.1v392.85l-.92 3.42-2.53 2.53-3.42.92h-11.93v-2h11.67l2.64-.7 1.8-1.8.7-2.63V605.73l-2.57-.84-2.12-2.92-.33-2.06 1.14-3.5 2.92-2.1.98-.17v-78.02l-.7-2.64-1.8-1.8-2.63-.7h-140.9l-2.65.7-1.78 1.8-.7 2.63v18.37h-2v-18.63l.9-3.42 2.54-2.53 3.4-.92h141.45z" fill="#5e5e5e"/><path d="M1022.4 1004h-1.03l.02-2h1zM926.83 549.76l-4.64-14.26h9.26z" fill="#5e5e5e"/><path d="M926.83 553l-6-18.5h12zm-3.26-16.5l3.26 10.03 3.26-10.03z" fill="#5e5e5e"/><use xlink:href="#P" transform="matrix(1,0,0,1,1038.5950224778605,992.3333333333334) translate(0 14.222222222222223)"/><path d="M884.18 1122h-2v-5.33h2zm0-26.67h-2v-11.57h2z" fill="#5e5e5e"/><path d="M884.18 1083.8h-2v-1.15l.93.12 1.08-.13zM883.18 1137.26l-4.64-14.27h9.27z" fill="#5e5e5e"/><path d="M883.18 1140.5l-6-18.5h12zm-3.26-16.5l3.26 10.02 3.26-10.03z" fill="#5e5e5e"/><use xlink:href="#Q" transform="matrix(1,0,0,1,867.8682763704788,1095.3318655030796) translate(0 14.222222222222223)"/><path d="M884.18 1380.75h-2v-52.77h2zm0-74.1h-2v-6.14h2z" fill="#5e5e5e"/><path d="M883.9 1299.56l.28-.05v1.03h-2v-1.1zM883.18 1396l-4.64-14.25h9.27z" fill="#5e5e5e"/><path d="M883.18 1399.25l-6-18.5h12zm-3.26-16.5l3.26 10.03 3.26-10.03z" fill="#5e5e5e"/><use xlink:href="#Q" transform="matrix(1,0,0,1,867.8682763673248,1306.6441591515552) translate(0 14.222222222222223)"/><path d="M883.18 1482.5V1501.26" stroke="#5e5e5e" stroke-width="2" fill="none"/><path d="M884.18 1482.53h-2v-1.03h2z" fill="#5e5e5e"/><path d="M883.18 1516.52l-4.64-14.26h9.27z" stroke="#5e5e5e" stroke-width="2" fill="#5e5e5e"/><path d="M757.88 419.68H486.13l-2.64.72-1.8 1.77-.7 2.65V1593.5l.7 2.63 1.8 1.78 2.63.72h226.84v2h-227.1l-3.42-.92-2.53-2.53-.92-3.4V424.54l.92-3.4 2.53-2.54 3.42-.92h272zm5.87 1178.94v2h-20.17v-2z" fill="#5e5e5e"/><path d="M764.87 1600.63h-1.14v-2h.9zM773.14 418.68l-14.26 4.64v-9.27z" fill="#5e5e5e"/><path d="M776.38 418.68l-18.5 6.02v-12.03zm-16.5 3.26l10.03-3.26-10.02-3.26z" fill="#5e5e5e"/><use xlink:href="#Q" transform="matrix(1,0,0,1,712.9669522101644,1588.9583332227348) translate(0 14.222222222222223)"/><path d="M620 640.5V468.73c0-3.3 2.7-6 6-6h120.13" stroke="#5e5e5e" stroke-width="2" fill="none"/><path d="M621 641.5h-2v-1.03h2z" fill="#5e5e5e"/><path d="M761.4 462.73l-14.27 4.64v-9.27z" stroke="#5e5e5e" stroke-width="2" fill="#5e5e5e"/><path d="M752.2 441H506.12l-2.64.7-1.8 1.8-.7 2.63v767.74l.7 2.64 1.8 1.8 2.63.7h215.95v2h-216.2l-3.43-.92-2.53-2.53-.92-3.42V445.87l.92-3.42 2.53-2.53 3.42-.92H752.2zm10 778v2h-16.52v-2z" fill="#5e5e5e"/><path d="M763.3 1221h-1.13v-2h.9zM767.46 440l-14.27 4.64v-9.28z" fill="#5e5e5e"/><path d="M770.7 440l-18.5 6v-12zm-16.5 3.26L764.2 440l-10.03-3.26z" fill="#5e5e5e"/><use xlink:href="#P" transform="matrix(1,0,0,1,722.0752450049436,1209.3333332232571) translate(0 14.222222222222223)"/><path d="M884.18 1718.96l.07 21.03h-2l-.07-21.04v-6.37h2zm0-27.7h-2v-10.77h2z" fill="#5e5e5e"/><path d="M884.18 1679.5v1h-2v-1zM883.25 1755.26L878.6 1741h9.28z" fill="#5e5e5e"/><path d="M883.25 1758.5l-6-18.5h12zM880 1742l3.25 10.03 3.26-10.03z" fill="#5e5e5e"/><use xlink:href="#P" transform="matrix(1,0,0,1,871.374449206873,1691.2573757452312) translate(0 14.222222222222223)"/><path d="M886.28 1842.5v59.5" stroke="#5e5e5e" stroke-width="2" fill="none"/><path d="M887.28 1842.53h-2v-1.03h2z" fill="#5e5e5e"/><path d="M886.28 1917.27l-4.63-14.27h9.27z" stroke="#5e5e5e" stroke-width="2" fill="#5e5e5e"/><path d="M887.28 2120h-2v-7.56h2zm0-28.9h-2v-10.6h2z" fill="#5e5e5e"/><path d="M887.28 2079.5v1.02h-2v-1.03zM886.28 2135.26l-4.63-14.26h9.27z" fill="#5e5e5e"/><path d="M886.28 2138.5l-6-18.5h12zm-3.26-16.5l3.26 10.03 3.26-10.03z" fill="#5e5e5e"/><use xlink:href="#Q" transform="matrix(1,0,0,1,870.9745710438185,2091.1086875528326) translate(0 14.222222222222223)"/><path d="M1045.7 1994.13l-.92 3.42-2.53 2.53-3.42.92h-33.13v-2h32.87l2.64-.7 1.8-1.8.7-2.63V1964h2zm-3.45-87.63l2.53 2.53.92 3.4v30.22h-2v-29.94l-.7-2.64-1.8-1.77-2.63-.73h-103.6l-2.63.72-1.78 1.76-.7 2.65v15.37h-2v-15.63l.9-3.4 2.54-2.54 3.4-.93h104.13z" fill="#5e5e5e"/><path d="M1005.73 2001h-.9l-.24-2h1.13zM928.85 1943.34l-4.64-14.27h9.28z" fill="#5e5e5e"/><path d="M928.85 1946.57l-6-18.5h12zm-3.26-16.5l3.25 10.03 3.26-10.03z" fill="#5e5e5e"/><g><use xlink:href="#P" transform="matrix(1,0,0,1,1032.8989340778257,1942.6525087381012) translate(0 14.222222222222223)"/></g><path d="M1360 762.5V782" stroke="#5e5e5e" stroke-width="2" fill="none"/><path d="M1361 762.53h-2v-1.03h2z" fill="#5e5e5e"/><path d="M1360 797.27l-4.64-14.27h9.28z" stroke="#5e5e5e" stroke-width="2" fill="#5e5e5e"/><path d="M1360.6 1002h-2v-10.06h2zm.4-31.4h-2v-10.1h2z" fill="#5e5e5e"/><path d="M1361 959.5v1.02h-2v-1.03zM1359.6 1017.26l-4.65-14.27h9.27z" fill="#5e5e5e"/><path d="M1359.6 1020.5l-6.02-18.5h12.02zm-3.27-16.5l3.26 10.02 3.25-10.03z" fill="#5e5e5e"/><g><use xlink:href="#P" transform="matrix(1,0,0,1,1348.1975308641975,970.6112080301272) translate(0 14.222222222222223)"/></g><path d="M1500.08 881h-20.66v-2h20.66zm79.34-6.87l-.93 3.42-2.53 2.53-3.42.92h-41.86v-2h41.6l2.63-.7 1.77-1.8.72-2.63V798.5h2z" fill="#5e5e5e"/><path d="M1479.44 881h-.9l-.24-2h1.14zM1583.05 797.5h-9.27l4.64-14.26z" fill="#5e5e5e"/><path d="M1584.43 798.5h-12.02l6.02-18.5zm-9.27-2h6.52l-3.26-10.03z" fill="#5e5e5e"/><g><use xlink:href="#Q" transform="matrix(1,0,0,1,1500.0766527378835,869.3333333333334) translate(0 14.222222222222223)"/></g><path d="M1240 702.5h-73.87l-2.64.7-1.8 1.8-.7 2.63v386.24l.7 2.64 1.8 1.8 2.63.7h26.85v2h-27.1l-3.43-.92-2.53-2.53-.92-3.42V707.37l.92-3.42 2.53-2.53 3.42-.92H1240zm-1.4 396.5v2h-22v-2z" fill="#5e5e5e"/><path d="M1239.7 1101h-1.12v-2h.92zM1255.26 701.5l-14.26 4.64v-9.28z" fill="#5e5e5e"/><path d="M1258.5 701.5l-18.5 6v-12zm-16.5 3.26l10.03-3.26-10.03-3.26z" fill="#5e5e5e"/><g><use xlink:href="#P" transform="matrix(1,0,0,1,1192.9835611234091,1089.3333333333333) translate(0 14.222222222222223)"/></g><path d="M1360.6 1222.75h-2v-8.07h2zm0-29.4h-2v-12.84h2z" fill="#5e5e5e"/><path d="M1360.3 1179.56l.3-.05v1.03h-2v-1.1zM1359.6 1238.02l-4.65-14.27h9.27z" fill="#5e5e5e"/><path d="M1359.6 1241.25l-6.02-18.5h12.02zm-3.27-16.5l3.26 10.03 3.25-10.03z" fill="#5e5e5e"/><g><use xlink:href="#Q" transform="matrix(1,0,0,1,1344.279817197585,1193.3486458147433) translate(0 14.222222222222223)"/></g><path d="M1517.58 1321.75H1479v-2h38.58zm152.95-6.87l-.92 3.42-2.52 2.53-3.42.92h-122.48v-2h122.22l2.64-.7 1.77-1.8.73-2.63V798.5h2z" fill="#5e5e5e"/><path d="M1479.03 1321.75h-.9l-.24-2h1.13zM1674.16 797.5h-9.27l4.63-14.26z" fill="#5e5e5e"/><path d="M1675.54 798.5h-12.02l6-18.5zm-9.27-2h6.52l-3.27-10.03z" fill="#5e5e5e"/><g><use xlink:href="#P" transform="matrix(1,0,0,1,1517.576278653691,1310.0833333333333) translate(0 14.222222222222223)"/></g><path d="M1291.98 1441.25h-171.42l-.08.1-115.7.02v-2h114.7l.1-.12h172.4zm68.6-6.87l-.92 3.4-2.52 2.54-3.42.93h-31.12v-2h30.86l2.64-.72 1.77-1.78.72-2.64v-32.85h2z" fill="#5e5e5e"/><path d="M1360.6 1400.25v1.02h-2v-1.03zM1003.77 1445l-14.27-4.63 14.27-4.63z" fill="#5e5e5e"/><path d="M1004.77 1446.4l-18.5-6.03 18.5-6zm-12.03-6.03l10.03 3.26v-6.5z" fill="#5e5e5e"/><g><use xlink:href="#Q" transform="matrix(1,0,0,1,1291.9828527314946,1429.5784083151395) translate(0 14.222222222222223)"/></g><path d="M1620 697.5v-90c0-3.3-2.7-6-6-6h-224.4c-3.32 0-6 2.7-6 6V623" stroke="#5e5e5e" stroke-width="2" fill="none"/><path d="M1621 698.5h-2v-1.03h2z" fill="#5e5e5e"/><path d="M1383.6 638.26l-4.64-14.26h9.27z" stroke="#5e5e5e" stroke-width="2" fill="#5e5e5e"/><path d="M755.38 1801h-29.25l-2.64.7-1.8 1.8-.7 2.63v429.24l.7 2.64 1.8 1.8 2.63.7h154.02l2.64-.7 1.77-1.8.7-2.63v-12.87h2v13.13l-.9 3.42-2.54 2.53-3.4.92H725.86l-3.42-.92-2.53-2.53-.92-3.42v-429.76l.92-3.42 2.53-2.53 3.42-.92h29.5z" fill="#5e5e5e"/><path d="M887.28 2222.53h-2v-1.03h2zM770.64 1800l-14.26 4.64v-9.28z" fill="#5e5e5e"/><path d="M773.88 1800l-18.5 6v-12zm-16.5 3.26l10.03-3.26-10.02-3.26z" fill="#5e5e5e"/><defs><path fill="#333" d="M185-189c-5-48-123-54-124 2 14 75 158 14 163 119 3 78-121 87-175 55-17-10-28-26-33-46l33-7c5 56 141 63 141-1 0-78-155-14-162-118-5-82 145-84 179-34 5 7 8 16 11 25" id="R"/><path fill="#333" d="M59-47c-2 24 18 29 38 22v24C64 9 27 4 27-40v-127H5v-23h24l9-43h21v43h35v23H59v120" id="S"/><path fill="#333" d="M141-36C126-15 110 5 73 4 37 3 15-17 15-53c-1-64 63-63 125-63 3-35-9-54-41-54-24 1-41 7-42 31l-33-3c5-37 33-52 76-52 45 0 72 20 72 64v82c-1 20 7 32 28 27v20c-31 9-61-2-59-35zM48-53c0 20 12 33 32 33 41-3 63-29 60-74-43 2-92-5-92 41" id="T"/><path fill="#333" d="M114-163C36-179 61-72 57 0H25l-1-190h30c1 12-1 29 2 39 6-27 23-49 58-41v29" id="U"/><g id="a"><use transform="matrix(0.06172839506172839,0,0,0.06172839506172839,0,0)" xlink:href="#R"/><use transform="matrix(0.06172839506172839,0,0,0.06172839506172839,14.814814814814813,0)" xlink:href="#S"/><use transform="matrix(0.06172839506172839,0,0,0.06172839506172839,20.98765432098765,0)" xlink:href="#T"/><use transform="matrix(0.06172839506172839,0,0,0.06172839506172839,33.33333333333333,0)" xlink:href="#U"/><use transform="matrix(0.06172839506172839,0,0,0.06172839506172839,40.679012345679006,0)" xlink:href="#S"/></g><path fill="#333" d="M100-194c63 0 86 42 84 106H49c0 40 14 67 53 68 26 1 43-12 49-29l28 8c-11 28-37 45-77 45C44 4 14-33 15-96c1-61 26-98 85-98zm52 81c6-60-76-77-97-28-3 7-6 17-6 28h103" id="V"/><path fill="#333" d="M117-194c89-4 53 116 60 194h-32v-121c0-31-8-49-39-48C34-167 62-67 57 0H25l-1-190h30c1 10-1 24 2 32 11-22 29-35 61-36" id="W"/><path fill="#333" d="M85-194c31 0 48 13 60 33l-1-100h32l1 261h-30c-2-10 0-23-3-31C134-8 116 4 85 4 32 4 16-35 15-94c0-66 23-100 70-100zm9 24c-40 0-46 34-46 75 0 40 6 74 45 74 42 0 51-32 51-76 0-42-9-74-50-73" id="X"/><g id="b"><use transform="matrix(0.06172839506172839,0,0,0.06172839506172839,0,0)" xlink:href="#R"/><use transform="matrix(0.06172839506172839,0,0,0.06172839506172839,14.814814814814813,0)" xlink:href="#V"/><use transform="matrix(0.06172839506172839,0,0,0.06172839506172839,27.160493827160494,0)" xlink:href="#W"/><use transform="matrix(0.06172839506172839,0,0,0.06172839506172839,39.50617283950617,0)" xlink:href="#X"/></g><path fill="#333" d="M205 0l-28-72H64L36 0H1l101-248h38L239 0h-34zm-38-99l-47-123c-12 45-31 82-46 123h93" id="Y"/><path fill="#333" d="M135-143c-3-34-86-38-87 0 15 53 115 12 119 90S17 21 10-45l28-5c4 36 97 45 98 0-10-56-113-15-118-90-4-57 82-63 122-42 12 7 21 19 24 35" id="Z"/><g id="c"><use transform="matrix(0.06172839506172839,0,0,0.06172839506172839,0,0)" xlink:href="#Y"/><use transform="matrix(0.06172839506172839,0,0,0.06172839506172839,14.814814814814813,0)" xlink:href="#X"/><use transform="matrix(0.06172839506172839,0,0,0.06172839506172839,27.160493827160494,0)" xlink:href="#X"/><use transform="matrix(0.06172839506172839,0,0,0.06172839506172839,39.50617283950617,0)" xlink:href="#U"/><use transform="matrix(0.06172839506172839,0,0,0.06172839506172839,46.85185185185185,0)" xlink:href="#V"/><use transform="matrix(0.06172839506172839,0,0,0.06172839506172839,59.197530864197525,0)" xlink:href="#Z"/><use transform="matrix(0.06172839506172839,0,0,0.06172839506172839,70.30864197530863,0)" xlink:href="#Z"/></g><path fill="#333" d="M212-179c-10-28-35-45-73-45-59 0-87 40-87 99 0 60 29 101 89 101 43 0 62-24 78-52l27 14C228-24 195 4 139 4 59 4 22-46 18-125c-6-104 99-153 187-111 19 9 31 26 39 46" id="aa"/><path fill="#333" d="M24 0v-261h32V0H24" id="ab"/><path fill="#333" d="M24-231v-30h32v30H24zM24 0v-190h32V0H24" id="ac"/><path fill="#333" d="M210-169c-67 3-38 105-44 169h-31v-121c0-29-5-50-35-48C34-165 62-65 56 0H25l-1-190h30c1 10-1 24 2 32 10-44 99-50 107 0 11-21 27-35 58-36 85-2 47 119 55 194h-31v-121c0-29-5-49-35-48" id="ad"/><g id="d"><use transform="matrix(0.06172839506172839,0,0,0.06172839506172839,0,0)" xlink:href="#aa"/><use transform="matrix(0.06172839506172839,0,0,0.06172839506172839,15.987654320987653,0)" xlink:href="#ab"/><use transform="matrix(0.06172839506172839,0,0,0.06172839506172839,20.864197530864196,0)" xlink:href="#T"/><use transform="matrix(0.06172839506172839,0,0,0.06172839506172839,33.20987654320987,0)" xlink:href="#ac"/><use transform="matrix(0.06172839506172839,0,0,0.06172839506172839,38.08641975308642,0)" xlink:href="#ad"/></g><path fill="#333" d="M101-251c82-7 93 87 43 132L82-64C71-53 59-42 53-27h129V0H18c2-99 128-94 128-182 0-28-16-43-45-43s-46 15-49 41l-32-3c6-41 34-60 81-64" id="ae"/><path fill="#333" d="M54-142c48-35 137-8 131 61C196 18 31 33 14-55l32-4c7 23 22 37 52 37 35-1 51-22 54-58 4-55-73-65-99-34H22l8-134h141v27H59" id="af"/><path fill="#333" d="M101-251c68 0 85 55 85 127S166 4 100 4C33 4 14-52 14-124c0-73 17-127 87-127zm-1 229c47 0 54-49 54-102s-4-102-53-102c-51 0-55 48-55 102 0 53 5 102 54 102" id="ag"/><g id="e"><use transform="matrix(0.06172839506172839,0,0,0.06172839506172839,0,0)" xlink:href="#ae"/><use transform="matrix(0.06172839506172839,0,0,0.06172839506172839,12.345679012345679,0)" xlink:href="#af"/><use transform="matrix(0.06172839506172839,0,0,0.06172839506172839,24.691358024691358,0)" xlink:href="#ag"/></g><path fill="#333" d="M96-169c-40 0-48 33-48 73s9 75 48 75c24 0 41-14 43-38l32 2c-6 37-31 61-74 61-59 0-76-41-82-99-10-93 101-131 147-64 4 7 5 14 7 22l-32 3c-4-21-16-35-41-35" id="ah"/><g id="f"><use transform="matrix(0.06172839506172839,0,0,0.06172839506172839,0,0)" xlink:href="#ad"/><use transform="matrix(0.06172839506172839,0,0,0.06172839506172839,18.456790123456788,0)" xlink:href="#Z"/><use transform="matrix(0.06172839506172839,0,0,0.06172839506172839,29.5679012345679,0)" xlink:href="#V"/><use transform="matrix(0.06172839506172839,0,0,0.06172839506172839,41.913580246913575,0)" xlink:href="#ah"/></g><path fill="#333" d="M141 0L90-78 38 0H4l68-98-65-92h35l48 74 47-74h35l-64 92 68 98h-35" id="ai"/><path fill="#333" d="M115-194c55 1 70 41 70 98S169 2 115 4C84 4 66-9 55-30l1 105H24l-1-265h31l2 30c10-21 28-34 59-34zm-8 174c40 0 45-34 45-75s-6-73-45-74c-42 0-51 32-51 76 0 43 10 73 51 73" id="aj"/><path fill="#333" d="M103-251c84 0 111 97 45 133-19 10-37 24-39 52H78c0-63 77-55 77-114 0-30-21-42-52-43-32 0-53 17-56 46l-32-2c7-45 34-72 88-72zM77 0v-35h34V0H77" id="ak"/><g id="g"><use transform="matrix(0.06172839506172839,0,0,0.06172839506172839,0,0)" xlink:href="#V"/><use transform="matrix(0.06172839506172839,0,0,0.06172839506172839,12.345679012345679,0)" xlink:href="#ai"/><use transform="matrix(0.06172839506172839,0,0,0.06172839506172839,23.45679012345679,0)" xlink:href="#aj"/><use transform="matrix(0.06172839506172839,0,0,0.06172839506172839,35.80246913580247,0)" xlink:href="#ac"/><use transform="matrix(0.06172839506172839,0,0,0.06172839506172839,40.67901234567901,0)" xlink:href="#U"/><use transform="matrix(0.06172839506172839,0,0,0.06172839506172839,48.02469135802469,0)" xlink:href="#V"/><use transform="matrix(0.06172839506172839,0,0,0.06172839506172839,60.37037037037037,0)" xlink:href="#X"/><use transform="matrix(0.06172839506172839,0,0,0.06172839506172839,72.71604938271605,0)" xlink:href="#ak"/></g><path fill="#333" d="M30 0v-248h187v28H63v79h144v27H63v87h162V0H30" id="al"/><path fill="#333" d="M100-194c62-1 85 37 85 99 1 63-27 99-86 99S16-35 15-95c0-66 28-99 85-99zM99-20c44 1 53-31 53-75 0-43-8-75-51-75s-53 32-53 75 10 74 51 75" id="am"/><g id="h"><use transform="matrix(0.06172839506172839,0,0,0.06172839506172839,0,0)" xlink:href="#al"/><use transform="matrix(0.06172839506172839,0,0,0.06172839506172839,14.814814814814813,0)" xlink:href="#U"/><use transform="matrix(0.06172839506172839,0,0,0.06172839506172839,22.160493827160494,0)" xlink:href="#U"/><use transform="matrix(0.06172839506172839,0,0,0.06172839506172839,29.50617283950617,0)" xlink:href="#am"/><use transform="matrix(0.06172839506172839,0,0,0.06172839506172839,41.85185185185185,0)" xlink:href="#U"/></g><g id="i"><use transform="matrix(0.06172839506172839,0,0,0.06172839506172839,0,0)" xlink:href="#am"/><use transform="matrix(0.06172839506172839,0,0,0.06172839506172839,12.345679012345679,0)" xlink:href="#U"/></g><path fill="#333" d="M240 0l2-218c-23 76-54 145-80 218h-23L58-218 59 0H30v-248h44l77 211c21-75 51-140 76-211h43V0h-30" id="an"/><path fill="#333" d="M177-190C167-65 218 103 67 71c-23-6-38-20-44-43l32-5c15 47 100 32 89-28v-30C133-14 115 1 83 1 29 1 15-40 15-95c0-56 16-97 71-98 29-1 48 16 59 35 1-10 0-23 2-32h30zM94-22c36 0 50-32 50-73 0-42-14-75-50-75-39 0-46 34-46 75s6 73 46 73" id="ao"/><g id="j"><use transform="matrix(0.06172839506172839,0,0,0.06172839506172839,0,0)" xlink:href="#an"/><use transform="matrix(0.06172839506172839,0,0,0.06172839506172839,18.456790123456788,0)" xlink:href="#V"/><use transform="matrix(0.06172839506172839,0,0,0.06172839506172839,30.80246913580247,0)" xlink:href="#Z"/><use transform="matrix(0.06172839506172839,0,0,0.06172839506172839,41.91358024691358,0)" xlink:href="#Z"/><use transform="matrix(0.06172839506172839,0,0,0.06172839506172839,53.0246913580247,0)" xlink:href="#T"/><use transform="matrix(0.06172839506172839,0,0,0.06172839506172839,65.37037037037038,0)" xlink:href="#ao"/><use transform="matrix(0.06172839506172839,0,0,0.06172839506172839,77.71604938271606,0)" xlink:href="#V"/></g><g id="k"><use transform="matrix(0.06172839506172839,0,0,0.06172839506172839,0,0)" xlink:href="#aa"/><use transform="matrix(0.06172839506172839,0,0,0.06172839506172839,15.987654320987653,0)" xlink:href="#am"/><use transform="matrix(0.06172839506172839,0,0,0.06172839506172839,28.333333333333332,0)" xlink:href="#ab"/><use transform="matrix(0.06172839506172839,0,0,0.06172839506172839,33.20987654320987,0)" xlink:href="#ab"/><use transform="matrix(0.06172839506172839,0,0,0.06172839506172839,38.08641975308642,0)" xlink:href="#ac"/><use transform="matrix(0.06172839506172839,0,0,0.06172839506172839,42.96296296296296,0)" xlink:href="#Z"/><use transform="matrix(0.06172839506172839,0,0,0.06172839506172839,54.074074074074076,0)" xlink:href="#ac"/><use transform="matrix(0.06172839506172839,0,0,0.06172839506172839,58.95061728395062,0)" xlink:href="#am"/><use transform="matrix(0.06172839506172839,0,0,0.06172839506172839,71.2962962962963,0)" xlink:href="#W"/></g><path fill="#333" d="M30-248c118-7 216 8 213 122C240-48 200 0 122 0H30v-248zM63-27c89 8 146-16 146-99s-60-101-146-95v194" id="ap"/><g id="l"><use transform="matrix(0.06172839506172839,0,0,0.06172839506172839,0,0)" xlink:href="#ap"/><use transform="matrix(0.06172839506172839,0,0,0.06172839506172839,15.987654320987653,0)" xlink:href="#V"/><use transform="matrix(0.06172839506172839,0,0,0.06172839506172839,28.333333333333332,0)" xlink:href="#S"/><use transform="matrix(0.06172839506172839,0,0,0.06172839506172839,34.50617283950617,0)" xlink:href="#V"/><use transform="matrix(0.06172839506172839,0,0,0.06172839506172839,46.85185185185185,0)" xlink:href="#ah"/><use transform="matrix(0.06172839506172839,0,0,0.06172839506172839,57.96296296296296,0)" xlink:href="#S"/><use transform="matrix(0.06172839506172839,0,0,0.06172839506172839,64.1358024691358,0)" xlink:href="#V"/><use transform="matrix(0.06172839506172839,0,0,0.06172839506172839,76.48148148148148,0)" xlink:href="#X"/><use transform="matrix(0.06172839506172839,0,0,0.06172839506172839,88.82716049382717,0)" xlink:href="#ak"/></g><path fill="#333" d="M233-177c-1 41-23 64-60 70L243 0h-38l-65-103H63V0H30v-248c88 3 205-21 203 71zM63-129c60-2 137 13 137-47 0-61-80-42-137-45v92" id="aq"/><path fill="#333" d="M108 0H70L1-190h34L89-25l56-165h34" id="ar"/><g id="m"><use transform="matrix(0.061728395061728385,0,0,0.061728395061728385,0,0)" xlink:href="#aq"/><use transform="matrix(0.061728395061728385,0,0,0.061728395061728385,15.987654320987652,0)" xlink:href="#V"/><use transform="matrix(0.061728395061728385,0,0,0.061728395061728385,28.33333333333333,0)" xlink:href="#ah"/><use transform="matrix(0.061728395061728385,0,0,0.061728395061728385,39.444444444444436,0)" xlink:href="#V"/><use transform="matrix(0.061728395061728385,0,0,0.061728395061728385,51.79012345679011,0)" xlink:href="#ac"/><use transform="matrix(0.061728395061728385,0,0,0.061728395061728385,56.66666666666666,0)" xlink:href="#ar"/><use transform="matrix(0.061728395061728385,0,0,0.061728395061728385,67.77777777777777,0)" xlink:href="#V"/><use transform="matrix(0.061728395061728385,0,0,0.061728395061728385,80.12345679012344,0)" xlink:href="#X"/></g><g id="n"><use transform="matrix(0.061728395061728385,0,0,0.061728395061728385,0,0)" xlink:href="#aa"/><use transform="matrix(0.061728395061728385,0,0,0.061728395061728385,15.987654320987652,0)" xlink:href="#am"/><use transform="matrix(0.061728395061728385,0,0,0.061728395061728385,28.33333333333333,0)" xlink:href="#W"/><use transform="matrix(0.061728395061728385,0,0,0.061728395061728385,40.679012345679006,0)" xlink:href="#S"/><use transform="matrix(0.061728395061728385,0,0,0.061728395061728385,46.85185185185185,0)" xlink:href="#V"/><use transform="matrix(0.061728395061728385,0,0,0.061728395061728385,59.197530864197525,0)" xlink:href="#W"/><use transform="matrix(0.061728395061728385,0,0,0.061728395061728385,71.5432098765432,0)" xlink:href="#X"/><use transform="matrix(0.061728395061728385,0,0,0.061728395061728385,83.88888888888889,0)" xlink:href="#ac"/><use transform="matrix(0.061728395061728385,0,0,0.061728395061728385,88.76543209876543,0)" xlink:href="#W"/><use transform="matrix(0.061728395061728385,0,0,0.061728395061728385,101.11111111111111,0)" xlink:href="#ao"/></g><g id="o"><use transform="matrix(0.061728395061728385,0,0,0.061728395061728385,0,0)" xlink:href="#Y"/><use transform="matrix(0.061728395061728385,0,0,0.061728395061728385,14.814814814814813,0)" xlink:href="#X"/><use transform="matrix(0.061728395061728385,0,0,0.061728395061728385,27.16049382716049,0)" xlink:href="#X"/><use transform="matrix(0.061728395061728385,0,0,0.061728395061728385,39.50617283950616,0)" xlink:href="#U"/><use transform="matrix(0.061728395061728385,0,0,0.061728395061728385,46.85185185185184,0)" xlink:href="#V"/><use transform="matrix(0.061728395061728385,0,0,0.061728395061728385,59.19753086419752,0)" xlink:href="#Z"/><use transform="matrix(0.061728395061728385,0,0,0.061728395061728385,70.30864197530863,0)" xlink:href="#Z"/></g><g id="p"><use transform="matrix(0.061728395061728385,0,0,0.061728395061728385,0,0)" xlink:href="#aa"/><use transform="matrix(0.061728395061728385,0,0,0.061728395061728385,15.987654320987652,0)" xlink:href="#ab"/><use transform="matrix(0.061728395061728385,0,0,0.061728395061728385,20.864197530864196,0)" xlink:href="#T"/><use transform="matrix(0.061728395061728385,0,0,0.061728395061728385,33.20987654320987,0)" xlink:href="#ac"/><use transform="matrix(0.061728395061728385,0,0,0.061728395061728385,38.08641975308642,0)" xlink:href="#ad"/><use transform="matrix(0.061728395061728385,0,0,0.061728395061728385,56.5432098765432,0)" xlink:href="#ak"/></g><path fill="#333" d="M47-170H22l-4-78h33" id="as"/><g id="q"><use transform="matrix(0.06172839506172839,0,0,0.06172839506172839,0,0)" xlink:href="#aa"/><use transform="matrix(0.06172839506172839,0,0,0.06172839506172839,15.987654320987653,0)" xlink:href="#am"/><use transform="matrix(0.06172839506172839,0,0,0.06172839506172839,28.333333333333332,0)" xlink:href="#W"/><use transform="matrix(0.06172839506172839,0,0,0.06172839506172839,40.67901234567901,0)" xlink:href="#S"/><use transform="matrix(0.06172839506172839,0,0,0.06172839506172839,46.851851851851855,0)" xlink:href="#V"/><use transform="matrix(0.06172839506172839,0,0,0.06172839506172839,59.19753086419753,0)" xlink:href="#W"/><use transform="matrix(0.06172839506172839,0,0,0.06172839506172839,71.54320987654322,0)" xlink:href="#X"/><use transform="matrix(0.06172839506172839,0,0,0.06172839506172839,83.8888888888889,0)" xlink:href="#V"/><use transform="matrix(0.06172839506172839,0,0,0.06172839506172839,96.23456790123458,0)" xlink:href="#U"/><use transform="matrix(0.06172839506172839,0,0,0.06172839506172839,103.58024691358027,0)" xlink:href="#as"/><use transform="matrix(0.06172839506172839,0,0,0.06172839506172839,107.7777777777778,0)" xlink:href="#Z"/></g><path fill="#333" d="M190 0L58-211 59 0H30v-248h39L202-35l-2-213h31V0h-41" id="at"/><g id="r"><use transform="matrix(0.06172839506172839,0,0,0.06172839506172839,0,0)" xlink:href="#at"/><use transform="matrix(0.06172839506172839,0,0,0.06172839506172839,15.987654320987653,0)" xlink:href="#Y"/><use transform="matrix(0.06172839506172839,0,0,0.06172839506172839,30.80246913580247,0)" xlink:href="#an"/><use transform="matrix(0.06172839506172839,0,0,0.06172839506172839,49.25925925925925,0)" xlink:href="#al"/></g><g id="s"><use transform="matrix(0.06172839506172839,0,0,0.06172839506172839,0,0)" xlink:href="#ab"/><use transform="matrix(0.06172839506172839,0,0,0.06172839506172839,4.876543209876543,0)" xlink:href="#V"/><use transform="matrix(0.06172839506172839,0,0,0.06172839506172839,17.22222222222222,0)" xlink:href="#Z"/><use transform="matrix(0.06172839506172839,0,0,0.06172839506172839,28.333333333333332,0)" xlink:href="#Z"/></g><path fill="#333" d="M106-169C34-169 62-67 57 0H25v-261h32l-1 103c12-21 28-36 61-36 89 0 53 116 60 194h-32v-121c2-32-8-49-39-48" id="au"/><g id="t"><use transform="matrix(0.06172839506172839,0,0,0.06172839506172839,0,0)" xlink:href="#S"/><use transform="matrix(0.06172839506172839,0,0,0.06172839506172839,6.172839506172839,0)" xlink:href="#au"/><use transform="matrix(0.06172839506172839,0,0,0.06172839506172839,18.51851851851852,0)" xlink:href="#T"/><use transform="matrix(0.06172839506172839,0,0,0.06172839506172839,30.864197530864196,0)" xlink:href="#W"/></g><g id="u"><use transform="matrix(0.06172839506172839,0,0,0.06172839506172839,0,0)" xlink:href="#ad"/><use transform="matrix(0.06172839506172839,0,0,0.06172839506172839,18.456790123456788,0)" xlink:href="#ac"/><use transform="matrix(0.06172839506172839,0,0,0.06172839506172839,23.33333333333333,0)" xlink:href="#W"/><use transform="matrix(0.06172839506172839,0,0,0.06172839506172839,35.679012345679006,0)" xlink:href="#V"/><use transform="matrix(0.06172839506172839,0,0,0.06172839506172839,48.02469135802468,0)" xlink:href="#ak"/></g><g id="v"><use transform="matrix(0.06172839506172839,0,0,0.06172839506172839,0,0)" xlink:href="#R"/><use transform="matrix(0.06172839506172839,0,0,0.06172839506172839,14.814814814814813,0)" xlink:href="#V"/><use transform="matrix(0.06172839506172839,0,0,0.06172839506172839,27.160493827160494,0)" xlink:href="#ab"/><use transform="matrix(0.06172839506172839,0,0,0.06172839506172839,32.03703703703704,0)" xlink:href="#V"/><use transform="matrix(0.06172839506172839,0,0,0.06172839506172839,44.382716049382715,0)" xlink:href="#ah"/><use transform="matrix(0.06172839506172839,0,0,0.06172839506172839,55.49382716049382,0)" xlink:href="#S"/></g><path fill="#333" d="M206 0h-36l-40-164L89 0H53L-1-190h32L70-26l43-164h34l41 164 42-164h31" id="av"/><g id="w"><use transform="matrix(0.06172839506172839,0,0,0.06172839506172839,0,0)" xlink:href="#at"/><use transform="matrix(0.06172839506172839,0,0,0.06172839506172839,15.987654320987653,0)" xlink:href="#V"/><use transform="matrix(0.06172839506172839,0,0,0.06172839506172839,28.333333333333332,0)" xlink:href="#av"/></g><g id="x"><use transform="matrix(0.06172839506172839,0,0,0.06172839506172839,0,0)" xlink:href="#Y"/><use transform="matrix(0.06172839506172839,0,0,0.06172839506172839,14.814814814814813,0)" xlink:href="#X"/><use transform="matrix(0.06172839506172839,0,0,0.06172839506172839,27.160493827160494,0)" xlink:href="#X"/><use transform="matrix(0.06172839506172839,0,0,0.06172839506172839,39.50617283950617,0)" xlink:href="#U"/><use transform="matrix(0.06172839506172839,0,0,0.06172839506172839,46.85185185185185,0)" xlink:href="#V"/><use transform="matrix(0.06172839506172839,0,0,0.06172839506172839,59.197530864197525,0)" xlink:href="#Z"/><use transform="matrix(0.06172839506172839,0,0,0.06172839506172839,70.30864197530863,0)" xlink:href="#Z"/></g><g id="y"><use transform="matrix(0.06172839506172839,0,0,0.06172839506172839,0,0)" xlink:href="#at"/><use transform="matrix(0.06172839506172839,0,0,0.06172839506172839,15.987654320987653,0)" xlink:href="#V"/><use transform="matrix(0.06172839506172839,0,0,0.06172839506172839,28.333333333333332,0)" xlink:href="#av"/></g><g id="z"><use transform="matrix(0.06172839506172839,0,0,0.06172839506172839,0,0)" xlink:href="#Y"/><use transform="matrix(0.06172839506172839,0,0,0.06172839506172839,14.814814814814813,0)" xlink:href="#X"/><use transform="matrix(0.06172839506172839,0,0,0.06172839506172839,27.160493827160494,0)" xlink:href="#X"/><use transform="matrix(0.06172839506172839,0,0,0.06172839506172839,39.50617283950617,0)" xlink:href="#U"/><use transform="matrix(0.06172839506172839,0,0,0.06172839506172839,46.85185185185185,0)" xlink:href="#V"/><use transform="matrix(0.06172839506172839,0,0,0.06172839506172839,59.197530864197525,0)" xlink:href="#Z"/><use transform="matrix(0.06172839506172839,0,0,0.06172839506172839,70.30864197530863,0)" xlink:href="#Z"/></g><path fill="#333" d="M115-194c53 0 69 39 70 98 0 66-23 100-70 100C84 3 66-7 56-30L54 0H23l1-261h32v101c10-23 28-34 59-34zm-8 174c40 0 45-34 45-75 0-40-5-75-45-74-42 0-51 32-51 76 0 43 10 73 51 73" id="aw"/><g id="A"><use transform="matrix(0.06172839506172839,0,0,0.06172839506172839,0,0)" xlink:href="#Y"/><use transform="matrix(0.06172839506172839,0,0,0.06172839506172839,14.382716049382715,0)" xlink:href="#ar"/><use transform="matrix(0.06172839506172839,0,0,0.06172839506172839,25.493827160493826,0)" xlink:href="#T"/><use transform="matrix(0.06172839506172839,0,0,0.06172839506172839,37.839506172839506,0)" xlink:href="#ac"/><use transform="matrix(0.06172839506172839,0,0,0.06172839506172839,42.71604938271605,0)" xlink:href="#ab"/><use transform="matrix(0.06172839506172839,0,0,0.06172839506172839,47.592592592592595,0)" xlink:href="#T"/><use transform="matrix(0.06172839506172839,0,0,0.06172839506172839,59.93827160493827,0)" xlink:href="#aw"/><use transform="matrix(0.06172839506172839,0,0,0.06172839506172839,72.28395061728395,0)" xlink:href="#ab"/><use transform="matrix(0.06172839506172839,0,0,0.06172839506172839,77.1604938271605,0)" xlink:href="#V"/><use transform="matrix(0.06172839506172839,0,0,0.06172839506172839,89.50617283950618,0)" xlink:href="#ak"/></g><g id="B"><use transform="matrix(0.06172839506172839,0,0,0.06172839506172839,0,0)" xlink:href="#aa"/><use transform="matrix(0.06172839506172839,0,0,0.06172839506172839,15.987654320987653,0)" xlink:href="#T"/><use transform="matrix(0.06172839506172839,0,0,0.06172839506172839,28.333333333333332,0)" xlink:href="#W"/><use transform="matrix(0.06172839506172839,0,0,0.06172839506172839,40.67901234567901,0)" xlink:href="#W"/><use transform="matrix(0.06172839506172839,0,0,0.06172839506172839,53.02469135802469,0)" xlink:href="#am"/><use transform="matrix(0.06172839506172839,0,0,0.06172839506172839,65.37037037037037,0)" xlink:href="#S"/></g><g id="C"><use transform="matrix(0.06172839506172839,0,0,0.06172839506172839,0,0)" xlink:href="#aa"/><use transform="matrix(0.06172839506172839,0,0,0.06172839506172839,15.987654320987653,0)" xlink:href="#ab"/><use transform="matrix(0.06172839506172839,0,0,0.06172839506172839,20.864197530864196,0)" xlink:href="#T"/><use transform="matrix(0.06172839506172839,0,0,0.06172839506172839,33.20987654320987,0)" xlink:href="#ac"/><use transform="matrix(0.06172839506172839,0,0,0.06172839506172839,38.08641975308642,0)" xlink:href="#ad"/></g><g id="D"><use transform="matrix(0.06172839506172839,0,0,0.06172839506172839,0,0)" xlink:href="#aq"/><use transform="matrix(0.06172839506172839,0,0,0.06172839506172839,15.987654320987653,0)" xlink:href="#V"/><use transform="matrix(0.06172839506172839,0,0,0.06172839506172839,28.333333333333332,0)" xlink:href="#ah"/><use transform="matrix(0.06172839506172839,0,0,0.06172839506172839,39.44444444444444,0)" xlink:href="#V"/><use transform="matrix(0.06172839506172839,0,0,0.06172839506172839,51.79012345679012,0)" xlink:href="#ac"/><use transform="matrix(0.06172839506172839,0,0,0.06172839506172839,56.666666666666664,0)" xlink:href="#ar"/><use transform="matrix(0.06172839506172839,0,0,0.06172839506172839,67.77777777777777,0)" xlink:href="#V"/><use transform="matrix(0.06172839506172839,0,0,0.06172839506172839,80.12345679012346,0)" xlink:href="#X"/></g><path fill="#333" d="M145-31C134-9 116 4 85 4 32 4 16-35 15-94c0-59 17-99 70-100 32-1 48 14 60 33 0-11-1-24 2-32h30l-1 268h-32zM93-21c41 0 51-33 51-76s-8-73-50-73c-40 0-46 35-46 75s5 74 45 74" id="ax"/><path fill="#333" d="M84 4C-5 8 30-112 23-190h32v120c0 31 7 50 39 49 72-2 45-101 50-169h31l1 190h-30c-1-10 1-25-2-33-11 22-28 36-60 37" id="ay"/><g id="E"><use transform="matrix(0.06172839506172839,0,0,0.06172839506172839,0,0)" xlink:href="#aq"/><use transform="matrix(0.06172839506172839,0,0,0.06172839506172839,15.987654320987653,0)" xlink:href="#V"/><use transform="matrix(0.06172839506172839,0,0,0.06172839506172839,28.333333333333332,0)" xlink:href="#ax"/><use transform="matrix(0.06172839506172839,0,0,0.06172839506172839,40.67901234567901,0)" xlink:href="#ay"/><use transform="matrix(0.06172839506172839,0,0,0.06172839506172839,53.02469135802469,0)" xlink:href="#V"/><use transform="matrix(0.06172839506172839,0,0,0.06172839506172839,65.37037037037037,0)" xlink:href="#Z"/><use transform="matrix(0.06172839506172839,0,0,0.06172839506172839,76.48148148148148,0)" xlink:href="#S"/><use transform="matrix(0.06172839506172839,0,0,0.06172839506172839,82.65432098765432,0)" xlink:href="#ak"/></g><g id="F"><use transform="matrix(0.06172839506172839,0,0,0.06172839506172839,0,0)" xlink:href="#aq"/><use transform="matrix(0.06172839506172839,0,0,0.06172839506172839,15.987654320987653,0)" xlink:href="#T"/><use transform="matrix(0.06172839506172839,0,0,0.06172839506172839,28.333333333333332,0)" xlink:href="#W"/><use transform="matrix(0.06172839506172839,0,0,0.06172839506172839,40.67901234567901,0)" xlink:href="#X"/><use transform="matrix(0.06172839506172839,0,0,0.06172839506172839,53.02469135802469,0)" xlink:href="#am"/><use transform="matrix(0.06172839506172839,0,0,0.06172839506172839,65.37037037037037,0)" xlink:href="#ad"/></g><path fill="#333" d="M179-190L93 31C79 59 56 82 12 73V49c39 6 53-20 64-50L1-190h34L92-34l54-156h33" id="az"/><g id="G"><use transform="matrix(0.06172839506172839,0,0,0.06172839506172839,0,0)" xlink:href="#ap"/><use transform="matrix(0.06172839506172839,0,0,0.06172839506172839,15.987654320987653,0)" xlink:href="#V"/><use transform="matrix(0.06172839506172839,0,0,0.06172839506172839,28.333333333333332,0)" xlink:href="#ab"/><use transform="matrix(0.06172839506172839,0,0,0.06172839506172839,33.20987654320987,0)" xlink:href="#T"/><use transform="matrix(0.06172839506172839,0,0,0.06172839506172839,45.55555555555555,0)" xlink:href="#az"/></g><path fill="#333" d="M33 0v-38h34V0H33" id="aA"/><path fill="#333" d="M27 0v-27h64v-190l-56 39v-29l58-41h29v221h61V0H27" id="aB"/><path fill="#333" d="M126-127c33 6 58 20 58 59 0 88-139 92-164 29-3-8-5-16-6-25l32-3c6 27 21 44 54 44 32 0 52-15 52-46 0-38-36-46-79-43v-28c39 1 72-4 72-42 0-27-17-43-46-43-28 0-47 15-49 41l-32-3c6-42 35-63 81-64 48-1 79 21 79 65 0 36-21 52-52 59" id="aC"/><g id="H"><use transform="matrix(0.06172839506172839,0,0,0.06172839506172839,0,0)" xlink:href="#ag"/><use transform="matrix(0.06172839506172839,0,0,0.06172839506172839,12.345679012345679,0)" xlink:href="#aA"/><use transform="matrix(0.06172839506172839,0,0,0.06172839506172839,18.51851851851852,0)" xlink:href="#aA"/><use transform="matrix(0.06172839506172839,0,0,0.06172839506172839,24.691358024691358,0)" xlink:href="#aA"/><use transform="matrix(0.06172839506172839,0,0,0.06172839506172839,30.864197530864196,0)" xlink:href="#aB"/><use transform="matrix(0.06172839506172839,0,0,0.06172839506172839,43.20987654320987,0)" xlink:href="#af"/><use transform="matrix(0.06172839506172839,0,0,0.06172839506172839,55.55555555555555,0)" xlink:href="#aC"/></g><g id="I"><use transform="matrix(0.06172839506172839,0,0,0.06172839506172839,0,0)" xlink:href="#ad"/><use transform="matrix(0.06172839506172839,0,0,0.06172839506172839,18.456790123456788,0)" xlink:href="#Z"/><use transform="matrix(0.06172839506172839,0,0,0.06172839506172839,29.5679012345679,0)" xlink:href="#V"/><use transform="matrix(0.06172839506172839,0,0,0.06172839506172839,41.913580246913575,0)" xlink:href="#ah"/></g><g id="J"><use transform="matrix(0.06172839506172839,0,0,0.06172839506172839,0,0)" xlink:href="#at"/><use transform="matrix(0.06172839506172839,0,0,0.06172839506172839,15.987654320987653,0)" xlink:href="#am"/><use transform="matrix(0.06172839506172839,0,0,0.06172839506172839,28.333333333333332,0)" xlink:href="#U"/><use transform="matrix(0.06172839506172839,0,0,0.06172839506172839,35.67901234567901,0)" xlink:href="#ad"/><use transform="matrix(0.06172839506172839,0,0,0.06172839506172839,54.1358024691358,0)" xlink:href="#T"/><use transform="matrix(0.06172839506172839,0,0,0.06172839506172839,66.48148148148148,0)" xlink:href="#ab"/></g><g id="K"><use transform="matrix(0.06172839506172839,0,0,0.06172839506172839,0,0)" xlink:href="#ap"/><use transform="matrix(0.06172839506172839,0,0,0.06172839506172839,15.987654320987653,0)" xlink:href="#T"/><use transform="matrix(0.06172839506172839,0,0,0.06172839506172839,28.333333333333332,0)" xlink:href="#S"/><use transform="matrix(0.06172839506172839,0,0,0.06172839506172839,34.50617283950617,0)" xlink:href="#T"/></g><path fill="#333" d="M127-220V0H93v-220H8v-28h204v28h-85" id="aD"/><path fill="#333" d="M101-234c-31-9-42 10-38 44h38v23H63V0H32v-167H5v-23h27c-7-52 17-82 69-68v24" id="aE"/><g id="L"><use transform="matrix(0.06172839506172839,0,0,0.06172839506172839,0,0)" xlink:href="#aD"/><use transform="matrix(0.06172839506172839,0,0,0.06172839506172839,12.716049382716047,0)" xlink:href="#U"/><use transform="matrix(0.06172839506172839,0,0,0.06172839506172839,20.061728395061728,0)" xlink:href="#T"/><use transform="matrix(0.06172839506172839,0,0,0.06172839506172839,32.407407407407405,0)" xlink:href="#aE"/><use transform="matrix(0.06172839506172839,0,0,0.06172839506172839,38.148148148148145,0)" xlink:href="#aE"/><use transform="matrix(0.06172839506172839,0,0,0.06172839506172839,44.32098765432099,0)" xlink:href="#ac"/><use transform="matrix(0.06172839506172839,0,0,0.06172839506172839,49.19753086419753,0)" xlink:href="#ah"/></g><g id="M"><use transform="matrix(0.06172839506172839,0,0,0.06172839506172839,0,0)" xlink:href="#aq"/><use transform="matrix(0.06172839506172839,0,0,0.06172839506172839,15.987654320987653,0)" xlink:href="#V"/><use transform="matrix(0.06172839506172839,0,0,0.06172839506172839,28.333333333333332,0)" xlink:href="#ah"/><use transform="matrix(0.06172839506172839,0,0,0.06172839506172839,39.44444444444444,0)" xlink:href="#V"/><use transform="matrix(0.06172839506172839,0,0,0.06172839506172839,51.79012345679012,0)" xlink:href="#ac"/><use transform="matrix(0.06172839506172839,0,0,0.06172839506172839,56.666666666666664,0)" xlink:href="#ar"/><use transform="matrix(0.06172839506172839,0,0,0.06172839506172839,67.77777777777777,0)" xlink:href="#V"/><use transform="matrix(0.06172839506172839,0,0,0.06172839506172839,80.12345679012346,0)" xlink:href="#X"/></g><g id="N"><use transform="matrix(0.06172839506172839,0,0,0.06172839506172839,0,0)" xlink:href="#aa"/><use transform="matrix(0.06172839506172839,0,0,0.06172839506172839,15.987654320987653,0)" xlink:href="#am"/><use transform="matrix(0.06172839506172839,0,0,0.06172839506172839,28.333333333333332,0)" xlink:href="#W"/><use transform="matrix(0.06172839506172839,0,0,0.06172839506172839,40.67901234567901,0)" xlink:href="#S"/><use transform="matrix(0.06172839506172839,0,0,0.06172839506172839,46.851851851851855,0)" xlink:href="#V"/><use transform="matrix(0.06172839506172839,0,0,0.06172839506172839,59.19753086419753,0)" xlink:href="#W"/><use transform="matrix(0.06172839506172839,0,0,0.06172839506172839,71.54320987654322,0)" xlink:href="#S"/><use transform="matrix(0.06172839506172839,0,0,0.06172839506172839,77.71604938271605,0)" xlink:href="#ac"/><use transform="matrix(0.06172839506172839,0,0,0.06172839506172839,82.5925925925926,0)" xlink:href="#W"/><use transform="matrix(0.06172839506172839,0,0,0.06172839506172839,94.93827160493828,0)" xlink:href="#ao"/></g><g id="O"><use transform="matrix(0.06172839506172839,0,0,0.06172839506172839,0,0)" xlink:href="#aa"/><use transform="matrix(0.06172839506172839,0,0,0.06172839506172839,15.987654320987653,0)" xlink:href="#ab"/><use transform="matrix(0.06172839506172839,0,0,0.06172839506172839,20.864197530864196,0)" xlink:href="#T"/><use transform="matrix(0.06172839506172839,0,0,0.06172839506172839,33.20987654320987,0)" xlink:href="#ac"/><use transform="matrix(0.06172839506172839,0,0,0.06172839506172839,38.08641975308642,0)" xlink:href="#ad"/><use transform="matrix(0.06172839506172839,0,0,0.06172839506172839,56.5432098765432,0)" xlink:href="#ak"/></g><path fill="#333" d="M175 0L67-191c6 58 2 128 3 191H24v-248h59L193-55c-6-58-2-129-3-193h46V0h-61" id="aF"/><path fill="#333" d="M110-194c64 0 96 36 96 99 0 64-35 99-97 99-61 0-95-36-95-99 0-62 34-99 96-99zm-1 164c35 0 45-28 45-65 0-40-10-65-43-65-34 0-45 26-45 65 0 36 10 65 43 65" id="aG"/><g id="P"><use transform="matrix(0.04938271604938272,0,0,0.04938271604938272,0,0)" xlink:href="#aF"/><use transform="matrix(0.04938271604938272,0,0,0.04938271604938272,12.790123456790125,0)" xlink:href="#aG"/></g><path fill="#333" d="M146-102V0H94v-102L6-248h54l60 105 60-105h54" id="aH"/><path fill="#333" d="M185-48c-13 30-37 53-82 52C43 2 14-33 14-96s30-98 90-98c62 0 83 45 84 108H66c0 31 8 55 39 56 18 0 30-7 34-22zm-45-69c5-46-57-63-70-21-2 6-4 13-4 21h74" id="aI"/><path fill="#333" d="M137-138c1-29-70-34-71-4 15 46 118 7 119 86 1 83-164 76-172 9l43-7c4 19 20 25 44 25 33 8 57-30 24-41C81-84 22-81 20-136c-2-80 154-74 161-7" id="aJ"/><g id="Q"><use transform="matrix(0.04938271604938272,0,0,0.04938271604938272,0,0)" xlink:href="#aH"/><use transform="matrix(0.04938271604938272,0,0,0.04938271604938272,10.864197530864198,0)" xlink:href="#aI"/><use transform="matrix(0.04938271604938272,0,0,0.04938271604938272,20.74074074074074,0)" xlink:href="#aJ"/></g></defs></g></svg>